<svg width="424" height="378" viewBox="0 0 424 378" fill="none" xmlns="http://www.w3.org/2000/svg">
<path d="M369.293 54.6157C381.993 76.9575 394.661 99.3304 407.486 121.578C412.104 129.629 417.19 137.399 423.4 147.415C417.939 151.69 410.95 155.029 407.268 160.583C403.586 166.168 403.305 173.969 401.308 180.74C392.852 209.448 384.52 238.217 375.565 266.769C374.286 270.825 370.104 276.379 366.641 276.847C356.656 278.22 346.39 277.315 335.344 277.315C380.776 192.067 372.351 116.305 302.393 48.4686C312.752 48.4686 321.739 49.1551 330.538 48.2502C337.559 47.5325 346.296 46.9709 350.852 42.6648C358.465 35.4568 362.023 39.2948 366.734 44.537C367.577 47.8758 368.45 51.2145 369.293 54.5533V54.6157ZM396.659 149.568C397.719 148.944 398.811 148.32 399.872 147.727C386.236 119.269 372.601 90.8118 358.933 62.3542C357.779 62.9159 356.593 63.4775 355.439 64.0704C369.168 92.5904 382.929 121.079 396.659 149.599V149.568Z" fill="#E8350D"/>
<path d="M79.9739 330.324C81.0973 323.958 86.4331 315.315 72.6412 317.062C71.5491 317.187 69.4584 315.721 69.1464 314.628C65.1211 300.961 51.298 294.845 45.0261 282.957L45.5565 283.487C45.3381 281.958 45.3693 280.305 44.8077 278.9C36.726 258.275 25.9608 237.524 52.8582 219.333C51.2045 218.834 49.5506 218.303 47.8968 217.804C44.1212 222.672 40.3456 227.508 35.6963 233.499C19.8761 188.909 56.0097 114.27 98.1969 91.5231V128.125C99.5698 128.593 100.943 129.092 102.316 129.56C97.5728 103.037 95.7006 78.1368 130.617 74.2675C142.943 91.2423 143.255 95.4235 135.891 120.823C144.253 114.988 152.585 109.122 160.916 103.256C166.595 99.5424 172.336 95.8604 178.078 92.1783C179.42 83.0981 180.793 74.0179 182.415 63.0654C191.495 64.844 198.859 66.3106 206.348 67.7772C207.534 84.5335 208.657 100.198 210.03 119.294C227.224 102.912 214.118 86.1873 216.802 71.584C277.087 76.639 353.473 171.092 304.577 269.758C299.366 268.229 293.906 266.637 288.445 265.046C287.977 265.951 287.478 266.887 287.01 267.792C291.378 270.257 295.778 272.691 301.114 275.718C298.274 293.847 284.919 279.368 276.369 283.643C282.61 285.984 287.914 287.949 296.058 291.007C281.642 299.682 282.173 323.116 257.179 318.092C260.923 321.431 263.357 323.615 266.665 326.548C257.959 333.569 249.628 340.34 239.955 348.141C238.613 343.211 237.645 339.685 236.647 336.003C235.243 336.689 233.776 337.001 233.651 337.563C230.469 354.819 223.074 361.59 199.702 365.303C169.497 370.108 140.103 367.986 113.081 351.698C109.992 349.826 104.874 348.297 104.282 345.77C101.036 331.915 88.1181 334.318 79.4123 329.793L79.9739 330.324Z" fill="#E8350D"/>
<path d="M191.465 35.9779C187.752 36.6956 183.352 36.3523 180.482 38.287C168 46.8055 160.48 61.7208 142.726 63.749C133.177 64.8412 124.191 64.5604 122.443 55.6361C120.914 47.8041 122.786 35.7907 128.06 30.7669C145.378 14.3227 167.345 12.6065 188.782 23.3093C188.252 19.6273 187.815 16.5381 186.941 10.6406C197.8 15.3212 206.443 19.6273 215.461 22.8724C230.314 28.177 245.198 33.6689 260.456 37.5693C308.884 49.8947 332.037 86.8709 347.077 129.308C364.52 178.578 354.66 225.539 326.358 268.788C324.424 271.752 319.587 272.813 315.063 273.468C334.565 219.985 333.223 169.716 302.144 121.944C282.673 91.9883 254.715 73.3597 221.452 61.8456C214.525 59.4429 208.815 57.0715 206.443 48.0225C205.133 43.0299 196.396 39.972 190.997 36.0403L191.434 36.0091L191.465 35.9779Z" fill="#E8350D"/>
<path d="M80.069 90.8964C69.7406 105.718 59.1627 120.353 49.1151 135.361C29.8314 164.162 25.3068 196.52 26.6173 230.283C26.9606 238.77 26.6798 247.289 26.6798 254.372C30.705 260.332 34.6678 266.198 39.0987 272.751C34.7614 276.557 31.4539 279.491 26.6173 283.765C25.8996 276.932 25.4004 272.127 24.9012 267.321L22.28 266.635C21.1879 271.346 20.0646 276.027 18.442 282.985C-2.18353 234.277 -5.6472 187.69 18.1611 140.916C23.965 129.526 30.0497 118.293 35.2295 106.623C47.6173 78.6958 75.6069 67.3689 96.4509 48.4908C97.6054 47.4299 101.443 49.3021 104.033 49.8325C96.0452 63.4997 88.0571 77.198 80.069 90.8652V90.8964Z" fill="#E8350D"/>
<path d="M195.521 5.99825C226.881 -6.8576 292.315 2.47226 306.887 19.603C311.193 14.704 315.499 9.80509 320.492 4.12605C327.856 11.1156 334.502 17.4188 341.055 23.6283C331.007 45.5955 300.927 47.499 272.969 27.6535C281.487 26.4678 289.101 25.4381 293.594 24.814C263.732 19.1037 231.593 12.9254 195.521 6.02946V5.99825Z" fill="#E8350D"/>
<path d="M79.4132 329.795C96.0758 360.406 128.59 364.93 156.299 377.692C119.728 374.166 86.7149 362.59 57.9141 331.636C67.1815 331.074 73.5781 330.7 80.006 330.294L79.4444 329.795H79.4132Z" fill="#E8350D"/>
<path d="M80.0683 90.8969C88.0564 77.2298 96.0445 63.5314 104.033 49.8643C106.061 53.9831 108.058 58.1332 108.932 59.9118C114.611 61.2223 120.321 62.5641 128.028 64.3427C111.49 75.4824 98.1665 84.5626 84.6241 93.362C83.9064 93.83 81.5973 91.8018 80.0371 90.9281L80.0683 90.8969Z" fill="#E8350D"/>
<path d="M178.109 92.1552C172.368 95.8372 166.626 99.5192 160.947 103.232C147.998 106.634 144.316 101.516 148.934 89.5965C151.524 82.8877 153.802 75.5549 158.264 70.1879C161.166 66.6931 167.719 66.2251 175.769 63.2607C173.834 72.1225 172.867 76.4286 171.931 80.7035C171.369 80.6411 170.808 80.5787 170.215 80.5163V70.6872C169.185 70.4687 168.124 70.2815 167.095 70.0631C165.316 77.4895 163.506 84.8848 161.759 92.124H178.078L178.109 92.1552Z" fill="#E8350D"/>
<path d="M45.0264 282.93C48.7397 291.105 52.4217 299.28 56.1349 307.456C38.8793 315.132 37.912 314.726 24.7441 292.072C31.8585 289.108 38.6921 286.268 45.5568 283.46L45.0264 282.961V282.93Z" fill="#E8350D"/>
<path d="M326.576 306.584C340.056 300.718 353.536 294.852 368.358 288.424C368.639 308.02 359.558 312.295 328.667 310.953C327.98 309.486 327.294 308.02 326.607 306.584H326.576Z" fill="#E8350D"/>
<path d="M10.9835 292.355C-0.749014 278.813 0.374442 261.401 0 244.364C4.93016 259.841 9.89152 275.318 14.8217 290.764C13.5423 291.294 12.2629 291.825 10.9835 292.355Z" fill="#E8350D"/>
<path d="M191.464 35.9883C191.464 35.9883 191.027 36.0507 191.027 36.0195C194.678 42.5098 198.298 49.0313 202.947 57.2691H183.227C186.441 48.9689 188.968 42.4786 191.496 35.9571L191.464 35.9883Z" fill="#E8350D"/>
<path d="M328.199 284.733H368.171C368.296 285.013 368.389 285.294 368.514 285.544C355.377 287.385 342.241 289.226 329.135 291.067C328.823 288.945 328.511 286.854 328.23 284.733H328.199Z" fill="#E8350D"/>
<path d="M310.412 309.517C316.06 301.092 319.898 289.952 337.622 295.382C328.167 302.028 320.647 307.332 313.096 312.668C312.191 311.607 311.286 310.578 310.412 309.517Z" fill="#E8350D"/>
</svg>
