<svg width="766" height="697" viewBox="0 0 766 697" fill="none" xmlns="http://www.w3.org/2000/svg">
<path d="M415.023 0C656.087 22.4641 814.704 264.963 751.518 482.094C737.732 473.449 731.791 464.336 735.429 445.644C774.349 245.87 639.832 52.4051 436.853 14.0192C428.442 12.417 415.524 15.4211 415.023 0Z" fill="black"/>
<path d="M493.229 511.368C495.299 506.361 496.167 500.319 499.571 496.548C535.52 456.426 542.697 404.822 518.063 359.426C493.363 313.864 442.627 290.031 389.721 299.077C340.72 307.455 302.134 346.809 293.489 397.245C281.472 467.341 338.484 533.532 409.982 532.864C420.329 532.764 430.677 534.733 441.024 535.735C419.528 534.733 397.198 537.17 376.703 532.163C305.739 514.906 263.014 444.076 279.603 375.181C296.192 306.254 365.187 263.695 435.884 278.816C507.248 294.07 552.243 362.664 538.057 434.496C536.989 439.937 536.355 445.444 535.521 450.918C535.621 452.921 535.721 454.891 535.821 456.893C532.817 462.501 529.779 468.109 526.775 473.716C516.528 486.868 506.28 500.019 496 513.137C495.165 512.803 494.331 512.503 493.496 512.236L493.196 511.435L493.229 511.368Z" fill="black"/>
<path d="M26.0899 234.148C25.7227 238.988 26.2901 244.129 24.8215 248.635C-51.3829 485.526 155.334 722.317 415.79 674.619C427.874 672.416 434.583 675.32 440.257 684.999C342.023 715.441 181.503 690.006 79.3962 568.974C-16.4351 455.385 -13.8648 308.016 26.1233 234.148H26.0899Z" fill="black"/>
<path d="M391.658 639.144C269.123 652.596 166.616 617.247 89.6777 521.416C25.4564 441.44 8.49979 349.814 33.701 250.912L39.676 250.578C39.2087 256.62 39.2754 262.795 38.1739 268.736C21.718 358.159 40.7773 439.47 97.9557 509.833C164.08 591.211 251.332 628.296 356.009 623.789C369.595 623.189 382.779 621.052 391.658 639.177V639.144Z" fill="black"/>
<path d="M698.344 430.019C683.69 422.909 680.953 412.962 682.989 398.242C705.954 232.549 604.148 78.0702 442.694 32.4744C435.817 30.5384 429.175 27.7012 423.033 23.7959C578.98 40.3185 747.945 218.496 698.31 429.986L698.344 430.019Z" fill="black"/>
<path d="M539.56 497.079C524.139 509.83 508.717 522.581 493.296 535.332L469.263 541.607L498.971 521.98C514.192 505.324 529.379 488.668 544.6 472.045C571.337 434.727 578.046 392.403 571.17 348.543C558.452 267.498 511.655 213.09 435.384 183.65C431.812 182.281 428.207 180.98 423.334 179.211C425.771 170.999 428.04 163.289 430.577 154.677C432.914 154.677 435.183 154.109 437.019 154.744C559.053 198.403 622.674 337.527 565.629 452.986C558.085 468.273 548.305 482.426 539.56 497.113V497.079Z" fill="black"/>
<path d="M561.624 122.594C560.823 121.225 560.022 119.857 559.22 118.521C564.094 121.158 570.169 122.694 573.674 126.566C727.451 296.298 653.917 556.889 438.021 627.319C426.071 631.224 420.831 625.55 415.123 615.536C458.149 603.786 496.868 585.294 531.316 558.09C661.728 455.116 683.19 268.494 579.081 140.285C573.874 133.876 567.498 128.468 561.657 122.594H561.624Z" fill="black"/>
<path d="M544.6 472.008C529.379 488.664 514.192 505.32 498.971 521.943C498.003 518.972 497.002 516.002 496 513.031C506.248 499.88 516.495 486.728 526.776 473.61C532.15 468.103 539.46 463.53 542.598 456.954C588.928 358.953 526.509 240.758 418.928 221.899C414.589 221.131 410.25 220.43 405.877 219.696C410.951 199.201 412.152 198.5 431.312 204.174C537.925 235.618 600.076 355.682 548.272 461.093C546.603 464.498 545.802 468.37 544.6 472.008Z" fill="black"/>
<path d="M535.821 456.821C535.721 454.818 535.621 452.849 535.521 450.846C564.427 390.597 533.351 308.784 468.896 275.239C438.354 259.317 406.043 255.144 371.863 260.919C380.809 242.193 394.294 237.554 414.054 240.324C513.691 254.343 577.345 353.245 543.866 443.769C542.13 448.476 538.558 452.481 535.855 456.821H535.821Z" fill="black"/>
</svg>
