<svg width="557" height="414" viewBox="0 0 557 414" fill="none" xmlns="http://www.w3.org/2000/svg">
<path d="M406.649 280.999C403.368 280.851 400.088 280.72 396.807 280.572C397.46 277.447 397.217 273.689 398.913 271.308C405.941 261.506 413.415 252.001 421.039 242.663C424.711 238.181 426.072 234.405 422.139 231.41C415.056 234.851 409.035 237.604 403.201 240.654C393.154 245.937 383.703 254.196 373.078 256.112C359.657 258.548 348.995 265.282 337.476 270.936C334.493 272.387 331.996 274.824 328.771 277.186C328.212 274.08 327.652 270.936 327 267.328C335.332 263.106 343.31 258.586 351.698 255.014C355.929 253.21 360.925 253.303 365.51 252.206C368.679 251.443 372.109 250.68 374.7 248.895C383.125 243.054 395.372 242.329 399.286 230.071C399.995 227.857 405.177 227.225 408.14 225.569C421.095 218.389 433.994 211.098 446.93 203.862C448.272 203.1 449.67 202.114 451.124 201.928C454.89 201.444 460.407 202.876 462.197 200.849C468.683 193.595 471.2 184.796 466.409 174.194C461.19 175.719 455.822 177.282 450.435 178.863C450.099 178.212 449.764 177.579 449.409 176.928C452.821 174.789 456.027 172.222 459.661 170.585C481.862 160.56 504.211 150.887 526.356 140.731C531.873 138.202 536.645 134.091 542.069 131.264C546.319 129.05 551.035 127.711 555.565 126C556.049 127.116 556.515 128.232 557 129.348C543.169 136.472 529.394 143.67 515.507 150.664C502.31 157.305 488.386 162.81 476.046 170.753C471.908 173.413 471.628 182.062 469.597 187.977C470.324 188.796 471.069 189.633 471.796 190.451C485.068 185.224 498.358 179.997 511.63 174.771C512.32 176.222 513.009 177.691 513.718 179.142C500.837 186.712 487.957 194.283 475.077 201.835C481.359 211.079 480.427 212.772 469.354 216.474C465.272 217.831 461.004 220.51 458.263 223.784C444.992 239.65 432.242 255.981 419.175 272.015C416.882 274.843 413.881 277.112 411.216 279.623C409.687 280.069 408.178 280.516 406.649 280.944V280.999Z" fill="white"/>
<path d="M473.002 54.7372C464.022 53.6485 454.536 53.9676 446.192 51.0205C439.662 48.7116 435.022 41.5785 428.755 37.9556C415.939 30.541 402.543 24.1024 389.446 17.1758C380.915 12.6519 372.477 7.94028 364.002 3.32253C364.432 2.21502 364.881 1.10751 365.312 0C369.035 0.638225 373.113 0.469287 376.406 2.02731C395.976 11.3191 415.34 21.0239 434.816 30.4846C436.706 31.4044 438.932 32.0426 440.99 32.0426C449.017 32.0051 455.06 35.1211 459.98 41.6348C463.666 46.5153 468.456 50.57 472.759 55L472.983 54.756L473.002 54.7372Z" fill="white"/>
<path d="M406.449 281.317C407.971 280.872 409.474 280.427 410.996 280C398.671 295.619 386.513 311.368 374.022 326.857C350.894 355.516 327.599 384.027 304.305 412.556C303.395 413.669 301.873 414.281 298.996 413.873C304.379 407.047 309.78 400.221 315.757 392.652C312.657 390.315 309.725 388.108 306.792 385.882C307.163 385.232 307.553 384.583 307.924 383.952C311.135 385.492 314.346 387.013 319.024 389.239C326.467 379.575 334.281 369.465 342.281 359.059C338.105 357.946 334.838 357.074 328.917 355.497C332.889 353.679 334.875 352.01 335.878 352.455C342.578 355.534 351.395 352.826 351.989 345.87C352.509 339.804 355.293 339.007 359.766 338.598L360.286 338.005C366.393 330.474 372.481 322.924 377.604 316.617C374.114 313.779 371.07 311.312 368.045 308.845C368.435 308.121 368.824 307.398 369.233 306.674C372.388 308.177 375.525 309.661 377.214 310.459C382.69 303.54 387.646 297.27 392.62 291C393.121 291.297 393.641 291.594 394.142 291.89L392.713 296.157C393.121 296.491 393.53 296.825 393.938 297.14C398.114 291.872 402.291 286.585 406.467 281.317H406.449Z" fill="white"/>
<path d="M178 272.651C176.119 274.363 174.424 276.436 172.301 277.748C159.395 285.735 144.441 284.708 130.362 286.61C112.093 289.101 93.5068 289.995 75.0326 290.052C61.8847 290.09 48.7368 287.542 35.5702 286.249C30.0578 285.716 24.5453 285.45 18.6418 285.032C18.3997 288.474 18.1948 291.288 18.0831 293C11.9002 289.444 5.88491 286.002 0 282.616C0.689056 282.407 2.84934 281.095 4.95376 281.209C22.7389 282.141 40.5053 283.586 58.2904 284.366C86.3369 285.621 114.421 286.002 142.206 280.962C146.229 280.239 149.786 277.139 153.771 275.77C161.072 273.26 168.539 271.225 175.951 269C176.64 270.217 177.311 271.434 178 272.651Z" fill="white"/>
<path d="M292.522 266.468C291.737 268.211 290.952 269.955 290.185 271.679C289.493 271.346 288.801 271.012 288.128 270.659C290.952 287.276 293.775 303.875 296.58 320.491C297.309 320.417 298.039 320.362 298.768 320.287L299.609 305.469C300.6 305.414 301.591 305.34 302.564 305.284C302.564 309.865 303.76 314.909 302.19 318.878C300.974 321.957 296.3 323.681 293.177 326C291.475 323.496 288.783 321.159 288.259 318.433C285.81 305.729 283.958 292.914 281.958 280.526C277.582 279.524 274.291 278.782 271 278.04C271.131 277.373 271.28 276.687 271.411 276.019C274.441 276.427 277.451 276.854 280.2 277.224C278.966 270.029 277.096 263.352 277.096 256.695C277.096 254.469 281.883 252.225 284.482 250C285.604 255.341 286.576 260.7 288.016 265.967C288.166 266.487 290.97 266.301 292.541 266.431L292.522 266.468Z" fill="white"/>
<path d="M212.696 258.959C208.798 253.967 204.899 248.957 201 243.965C201.205 243.63 201.41 243.276 201.597 242.941C208.182 247.858 215.028 252.477 221.296 257.785C226.594 262.255 230.567 262.293 235.548 257.152C243.346 249.106 251.777 241.674 259.948 234C260.638 234.615 261.31 235.211 262 235.826C256.198 241.749 250.378 247.653 243.084 255.103C248.961 254.47 252.654 254.06 253.587 253.967C241.051 265.832 227.228 278.925 213.405 292C212.715 291.386 212.025 290.753 211.335 290.138C213.666 287.288 215.495 283.656 218.442 281.756C223.068 278.758 227.265 275.014 224.542 270.004C222.08 265.478 216.726 262.516 212.659 258.866L212.715 259.015L212.696 258.959Z" fill="white"/>
<path d="M421.99 196C430.294 188.268 429.499 185.654 415.591 177.039C414.056 181.236 412.613 185.213 410.801 190.165C406.64 187.017 402.737 184.053 400 181.973C405.881 176.082 411.189 170.762 416.941 165C418.051 166.694 419.234 168.479 419.234 168.461H433.975C433.605 172.345 433.235 176.211 432.754 181.457C436.675 181.255 440.855 181.034 443 180.905C439.967 184.752 436.897 189.962 432.551 193.681C430.146 195.742 425.597 195.301 422.009 195.982L421.99 196Z" fill="white"/>
<path d="M189.153 387.15C190.663 391.305 192.209 395.553 194.539 401.972C203.763 390.425 211.534 380.712 219.304 371C219.863 371.374 220.441 371.748 221 372.104C218.335 376.52 216.174 381.349 212.913 385.279C205.459 394.243 197.819 403.095 189.47 411.198C187.439 413.182 181.159 413.65 179.016 411.984C175.42 409.196 174.674 404.386 178.793 400.026C182.743 395.834 186.06 391.043 189.172 387.131L189.153 387.15Z" fill="white"/>
<path d="M274.07 247.981C273.001 242.155 272.246 238.004 271.398 233.425C269.205 233.816 267.289 234.169 262.996 234.951C277.552 217.863 290.708 202.431 303.864 187L306.996 189.606C303.385 194.092 299.921 198.709 296.125 203.027C291.095 208.76 285.328 213.917 280.814 220.022C278.824 222.721 278.289 227.189 278.529 230.744C278.824 235.23 280.592 239.605 281.919 244.78C279.505 245.766 277.184 246.734 274.051 248L274.07 247.981Z" fill="white"/>
<path d="M396.004 84.4958C394.183 101.536 378.66 108.617 370.439 121C369.294 120.186 368.149 119.353 367.004 118.539C375.901 106.686 384.798 94.8525 393.676 83C394.446 83.4923 395.216 84.0035 395.985 84.4958H396.004Z" fill="white"/>
<path d="M171.297 270C151.857 259.196 132.417 248.411 112.996 237.608C113.468 236.732 113.94 235.857 114.43 235C133.946 245.617 153.481 256.216 172.996 266.833C172.43 267.895 171.864 268.938 171.316 270H171.297Z" fill="white"/>
<path d="M365 219C369.653 208.873 386.765 200.764 398 205.281C386.005 210.262 375.493 214.631 365 219Z" fill="white"/>
<path d="M243 293C243.241 281.148 249.386 272.178 256.663 263.891C257.517 262.924 259.782 263.265 261.379 263C261.564 264.631 262.344 266.47 261.824 267.817C260.97 270.073 259.689 273.297 257.907 273.866C248.532 276.862 245.506 284.467 243 293Z" fill="white"/>
<path d="M213 259.144L212.945 259C211.659 260.502 210.666 262.665 209.031 263.38C201.057 266.795 192.935 269.888 184.777 272.873C183.528 273.32 181.837 272.605 180 270.495C191.006 266.706 201.994 262.933 213 259.144Z" fill="white"/>
<path d="M22.1687 305.019C29.4404 314.852 36.7303 324.684 44.002 334.517L42.0922 336C34.7288 326.244 27.3654 316.487 20.002 306.712C20.7181 306.141 21.4342 305.571 22.1504 305L22.1687 305.019Z" fill="white"/>
<path d="M347.879 139C349.914 143.307 350.987 145.564 352.004 147.726C348.027 150.114 343.126 153.048 338.243 156C337.836 155.662 337.411 155.342 337.004 155.004C340.592 149.738 344.18 144.454 347.898 139H347.879Z" fill="white"/>
<path d="M360.364 338.397L359.832 339C356.446 337.511 353.06 336.021 348 333.797C352.965 327.84 357.492 322.429 362 317C361.068 324.277 353.402 330.611 360.345 338.397H360.364Z" fill="white"/>
<path d="M290.909 355C291.948 367.695 283.851 362.347 279.529 366C279.328 361.661 279.164 358.33 279 355H290.909Z" fill="white"/>
<path d="M291.998 266C290.439 265.855 287.655 266.054 287.506 265.548C286.095 260.437 285.112 255.2 283.998 250C294.504 251.625 290.569 260.076 291.998 266Z" fill="white"/>
<path d="M352.004 227C359.581 228.064 364.927 228.805 372.004 229.793C363.677 237.431 357.312 236.804 352.004 227Z" fill="white"/>
<path d="M437 275.25C447.638 274.195 448.736 276.12 445.165 288C442.282 283.503 440.013 279.969 437 275.25Z" fill="white"/>
</svg>
