<svg width="1440" height="1031" viewBox="0 0 1440 1031" fill="none" xmlns="http://www.w3.org/2000/svg">
<g clip-path="url(#clip0_91_1204)">
<path d="M836.064 0.00114441L1027.11 0.00114441C1026.53 16.8477 1030.57 33.8179 1024.15 50.6232C1022.75 54.3142 1027.65 60.3971 1029.64 65.3871C1031.27 65.3871 1032.91 65.3871 1034.54 65.3871C1036.57 59.4279 1042.11 51.3243 1040.01 47.8602C1030.73 32.457 1032.95 16.2497 1033.28 -0.019455H1440L1440 1028.92C1303.47 1028.92 1166.96 1028.94 1030.42 1028.73C1025.75 1028.73 1021.06 1026.13 1017.34 1025.04C1010.53 1026.36 1004.01 1028.73 997.488 1028.75C856.841 1028.96 716.215 1028.92 575.568 1028.92C505.749 1028.92 435.909 1028.92 366.089 1028.92C327.868 1028.92 289.625 1028.92 252.124 1028.92C244.965 1014.83 249.861 996.978 236.942 986.132C235.831 986.503 234.72 986.854 233.609 987.225C237.394 1000.77 241.179 1014.34 245.006 1028.05H2.7155V827.172C7.36464 832.657 9.42189 839.008 12.5693 844.761C14.3385 847.978 17.4859 851.009 20.7568 852.7C28.7796 856.844 37.2344 860.164 45.5041 863.814C55.2756 868.289 65.0264 872.784 74.8184 877.238C80.599 879.877 86.4207 882.434 92.2218 885.032C92.7773 883.96 93.3121 882.867 93.8675 881.795C88.9098 878.207 84.4253 873.134 78.8916 871.361C68.071 867.876 56.6537 866.247 45.4834 863.855C45.36 853.318 36.3292 853.69 29.8081 850.7C24.9532 848.473 19.1932 846.122 16.3338 842.06C11.3761 835.008 8.43446 826.554 4.54646 818.739C0.884748 811.419 -0.308443 804.655 7.61156 799.088C9.3807 797.851 10.5326 795.747 13.824 791.83C8.55776 793.727 5.92473 794.655 2.03673 796.057L2.03673 0.0424347H817.55C826.951 7.56873 839.726 12.002 841.536 27.6319C844.21 25.5081 846.103 24.0029 848.263 22.2914C841.886 15.528 833.143 10.8473 836.043 0.0424347L836.064 0.00114441ZM314.64 993.122C326.962 997.452 333.915 987.534 342.391 981.719C333.113 985.513 323.856 989.328 314.578 993.122C320.38 979.203 308.736 971.574 304.745 961.182C303.964 961.47 303.182 961.759 302.38 962.068C306.453 972.42 310.526 982.771 314.64 993.122ZM856.45 607.178C872.064 630.148 887.657 653.119 903.271 676.09C904.197 675.43 905.122 674.791 906.048 674.131C893.685 656.336 881.486 638.417 868.834 620.828C865.275 615.879 860.421 611.879 856.183 607.446C859.104 607.693 862.457 607.095 864.864 608.353C875.253 613.797 885.353 619.797 895.557 625.571C900.288 630.437 905.534 634.891 909.607 640.252C915.017 647.387 921.662 650.809 930.487 650.789C932.75 650.789 935.218 651.49 937.275 652.5C958.69 662.893 979.982 673.553 1001.5 683.76C1005.1 685.472 1009.6 685.286 1013.7 685.987C1014.17 684.771 1014.67 683.554 1015.14 682.337C1005.82 677.265 996.542 672.089 987.161 667.12C972.761 659.49 958.053 652.418 943.941 644.294C937.049 640.314 931.927 632.478 924.768 629.942C915.614 626.705 905.184 627.055 895.31 625.839C895.001 624.333 895.207 622.106 894.281 621.467C881.835 612.601 869.246 603.961 856.43 595.074C850.094 599.239 849.703 603.177 856.43 607.198L856.45 607.178ZM618.809 514.037C601.509 501.727 581.122 497.129 561.003 490.613C563.184 495.603 566.187 499.954 570.219 501.376C582.048 505.5 594.267 508.593 606.384 511.789C610.498 512.882 614.839 513.15 619.077 513.79C622.347 516.656 625.186 520.594 628.992 522.182C641.561 527.44 654.459 531.915 667.255 536.575C672.151 538.348 677.15 539.812 682.087 541.42C682.642 540.08 683.198 538.719 683.753 537.379C677.726 534.678 671.822 531.646 665.63 529.378C657.73 526.491 649.584 524.306 641.602 521.708C633.991 519.233 626.441 516.573 618.809 514.037ZM1182.43 399.658C1177.92 395.616 1172.04 392.338 1169.32 387.306C1166.32 381.76 1170.95 377.595 1176.05 374.295C1179.3 372.171 1181.31 368.171 1183.89 365.016C1183.12 364.336 1182.36 363.635 1181.6 362.954C1166.36 377.45 1151.12 391.925 1137.29 405.06C1138.32 404.957 1142.39 404.504 1148.87 403.802C1140.81 412.05 1134.41 418.587 1128.01 425.144C1128.77 425.825 1129.52 426.485 1130.28 427.165C1139.29 418.649 1148.59 410.442 1157.18 401.534C1162.66 395.843 1167.06 395.884 1172.9 400.833C1179.81 406.689 1187.36 411.824 1194.62 417.267C1194.85 416.896 1195.08 416.504 1195.28 416.133C1190.98 410.607 1186.68 405.06 1182.38 399.534C1194.71 395.163 1207.01 390.812 1219.33 386.441C1217.27 384.007 1215.38 383.162 1213.98 383.698C1204.85 387.142 1195.76 390.709 1186.83 394.647C1184.98 395.451 1183.89 397.967 1182.45 399.699L1182.43 399.658ZM1103.41 409.411C1106.27 406.937 1111.54 404.442 1111.54 401.967C1111.54 394.565 1109.48 387.142 1108.12 379.141C1111.15 379.553 1114.48 380.028 1117.79 380.481C1117.93 379.739 1118.1 378.976 1118.24 378.234C1114.62 377.409 1111 376.564 1106.19 375.471C1103.99 361.697 1101.95 347.448 1099.25 333.323C1098.68 330.292 1095.72 327.694 1093.84 324.91C1090.39 327.488 1085.27 329.426 1083.93 332.829C1082.2 337.241 1083.52 342.85 1083.52 347.943C1084.61 347.881 1085.7 347.799 1086.77 347.737L1087.69 331.261C1088.5 331.179 1089.3 331.117 1090.1 331.035C1093.21 349.51 1096.31 367.965 1099.4 386.441C1098.64 386.069 1097.88 385.698 1097.14 385.306C1096.27 387.245 1095.41 389.183 1094.56 391.101C1096.13 397.864 1091.79 407.514 1103.43 409.37L1103.41 409.411ZM232.375 306.909C221.966 302.249 210.569 299.032 201.312 292.661C171.545 272.144 148.402 244.657 125.589 217.006C118.903 208.902 113.02 200.159 106.416 192.015C104.606 189.767 101.499 188.592 98.9692 186.921L96.7064 189.478C115.57 211.748 133.755 234.636 153.483 256.081C174.837 279.299 197.897 300.847 226.121 315.961C230.873 318.518 234.206 319.137 236.757 313.652C238.258 316.807 238.917 321.508 241.385 322.828C253.564 329.406 266.236 335.076 280.06 341.695C280.677 347.654 282.446 357.201 273.58 360.15C264.981 363.016 254.428 364.274 246.24 355.119C247.084 358.789 247.927 362.48 248.585 365.264C272.037 366.625 294.562 367.924 317.088 369.223C317.15 370.006 317.191 370.79 317.253 371.574C314.743 368.831 312.233 366.089 308.181 361.696C323.342 362.377 336.796 358.5 348.336 368.316C344.592 373.594 341.506 377.904 338.565 382.028C346.402 391.369 349.756 384.317 352.512 379.141C357.737 369.326 363.559 362.48 376.478 365.511C383.266 367.099 390.754 365.882 397.913 365.594C400.135 365.511 402.336 364.295 404.537 363.614C404.414 362.604 404.29 361.593 404.188 360.583C397.975 360.171 391.762 359.222 385.57 359.449C375.593 359.82 365.595 362.068 355.721 361.49C336.919 360.377 318.22 357.717 299.458 355.923C287.26 354.748 285.943 353.201 285.449 340.953C285.1 332.395 283.804 323.9 282.94 315.363L280.491 315.446C280.08 321.941 279.669 328.416 279.154 336.355C264.096 328.436 250.334 321.219 236.572 314.064C235.07 311.569 233.568 309.074 232.046 306.579C239.205 306.724 236.201 301.981 235.461 298.888C231.778 283.67 227.808 268.494 224.023 253.297C221.822 244.492 219.785 235.646 217.666 226.821C216.432 227.13 215.198 227.44 213.964 227.77C220.094 254.143 226.224 280.536 232.354 306.909H232.375ZM1019.97 311.074C1024.93 310.621 1028.02 309.713 1028.59 302.991C1029.27 295.279 1039.04 292.248 1046.45 295.671C1047.56 296.187 1049.74 294.31 1054.16 292.29C1047.62 290.537 1043.98 289.568 1039.35 288.331C1048.24 276.783 1056.88 265.525 1065.13 254.782C1070.31 257.256 1073.87 258.968 1077.43 260.658C1077.84 259.937 1078.27 259.215 1078.68 258.514C1075.43 256.06 1072.18 253.606 1068.75 250.988C1075.37 242.575 1081.36 234.987 1087.32 227.398C1084.16 226.924 1082.45 227.605 1081.44 228.862C1055.62 260.576 1029.81 292.269 1004.17 324.127C990.329 341.345 976.834 358.83 963.195 376.213C960.254 379.017 956.942 381.533 954.411 384.647C939.991 402.442 925.92 420.525 911.273 438.114C908.249 441.743 903.559 444.713 899.033 446.218C886.814 450.321 885.785 452.198 892.738 462.446C878.523 470.838 864.309 479.23 850.073 487.602C850.834 489.211 851.595 490.84 852.377 492.448C867.024 486.654 881.691 480.859 896.338 475.065C897.141 475.973 897.963 476.9 898.766 477.808C896.523 484.365 896.215 493.933 891.648 496.902C878.03 505.707 862.663 511.81 848.098 519.171C832.773 526.925 817.57 534.925 802.306 542.802C802.841 544.039 803.355 545.276 803.89 546.514C808.869 544.596 814.073 543.132 818.784 540.678C824.77 537.564 830.037 532.987 836.126 530.182C860.565 518.945 885.23 508.222 909.73 497.087C913.742 495.273 917.28 492.427 921.045 490.056C920.674 489.334 920.304 488.633 919.913 487.911C913.989 489.644 908.043 491.396 902.283 493.087C896.997 481.354 899.774 471.58 906.933 463.539C908.928 461.312 914.997 462.879 919.152 462.343C920.757 462.137 922.279 461.023 923.781 460.198C938.057 452.177 952.293 444.094 966.59 436.135C969.861 434.32 975.579 433.598 976.361 431.145C980.681 417.577 994.197 416.752 1003.49 410.277C1006.35 408.277 1010.16 407.452 1013.64 406.607C1018.68 405.39 1024.21 405.493 1028.88 403.493C1038.14 399.534 1046.92 394.524 1056.14 389.843C1055.42 385.843 1054.8 382.358 1054.18 378.914C1050.62 381.533 1047.87 384.214 1044.58 385.842C1031.86 392.111 1020.12 399.596 1005.28 402.277C993.559 404.4 983.129 413.556 972.041 419.412C965.602 422.814 958.958 425.845 951.141 429.66C946.8 426.34 948.302 422.154 952.354 417.185C960.768 406.834 969.017 396.297 976.773 385.43C978.645 382.791 978.377 378.625 979.097 375.161C975.477 374.996 971.856 374.852 968.235 374.687C972.864 368.831 977.493 362.954 982.121 357.098C982.574 357.469 983.026 357.841 983.479 358.191L981.895 362.934C982.45 363.264 983.026 363.593 983.582 363.923C989.074 356.954 994.587 349.964 1000.66 342.293C1002.53 343.18 1006.03 344.85 1009.5 346.5C1009.93 345.695 1010.37 344.891 1010.82 344.087C1007.47 341.345 1004.11 338.602 1000.22 335.447C1005.88 328.416 1012.65 320.044 1019.42 311.672C1026.93 320.188 1018.64 327.117 1017.63 335.076C1022.52 329.158 1027.4 323.22 1032.77 316.704C1027.3 314.291 1023.63 312.662 1019.97 311.033V311.074ZM730.347 724.34C726.603 722.402 722.839 720.464 718.313 718.134C718.005 722.196 717.717 725.887 717.429 729.578C718.231 730.238 719.013 730.877 719.815 731.537C723.312 729.104 726.809 726.67 730.327 724.237V732.526C736.231 728.794 740.181 726.299 744.11 723.825C743.452 722.711 742.793 721.598 742.135 720.484C747.072 724.175 752.009 727.866 757.707 732.114C749.499 733.166 742.011 733.289 734.997 735.166C718.149 739.682 718.252 740.012 717.511 745.002C721.255 745.002 724.999 745.414 728.619 744.94C743.04 743.043 758.88 746.466 770.523 733.743C771.285 732.898 773.753 733.496 775.419 733.599C780.727 733.929 786.014 734.465 791.301 734.712C795.23 734.898 800.064 733.289 802.923 735.042C812.037 740.61 820.43 747.373 828.267 753.043C829.111 751.414 830.983 747.744 833.143 743.558C832.217 742.218 830.798 740.115 829.913 738.836C833.431 735.97 836.373 733.578 839.643 730.918C833.081 730.918 827.877 732.011 823.371 730.691C812.839 727.598 802.635 723.351 791.321 719.227V729.372C790.313 729.66 789.326 729.928 788.318 730.217C786.693 725.969 785.15 721.701 783.401 717.495C782.64 715.659 781.406 714.01 780.377 712.278C779.39 714.072 778.114 715.762 777.497 717.659C776.942 719.412 777.106 721.371 776.839 724.65C772.313 722.67 768.816 721.144 765.998 719.907C767.129 714.505 767.993 710.339 768.857 706.154C767.952 705.143 767.067 704.112 766.162 703.102C756.926 721.68 745.92 712.937 733.762 705.844C733.762 711.906 734.009 716.34 733.598 720.732C733.474 722.01 731.479 723.103 730.347 724.32V724.34ZM770.03 113.473C772.766 111.926 777.065 110.999 777.991 108.73C781.509 100.029 783.936 90.8941 786.754 81.9038C785.952 81.4089 785.15 80.8933 784.327 80.3985C778.217 84.9349 771.243 88.6877 766.142 94.1727C752.791 108.565 737.589 117.04 717.511 119.865C697.742 122.67 677.87 128.299 659.808 141.929C677.479 138.382 693.771 136.093 709.447 131.619C720.411 128.484 723.621 134.011 726.254 142.052C728.311 148.383 729.977 154.837 732.199 162.61C735.573 159.703 737.774 158.157 739.522 156.218C745.817 149.228 750.878 140.506 758.427 135.433C767.109 129.598 769.454 122.216 770.338 113.143L770.03 113.473ZM842.585 463.312C837.525 463.003 832.443 462.693 825.202 462.24C825.058 462.095 823.022 459.806 820.882 457.6C811.152 447.599 801.052 437.908 792.021 427.33C790.786 425.886 794.53 419.865 796.505 416.257C796.876 415.576 799.858 416.36 801.936 416.484C800.784 419.989 799.9 422.67 798.892 425.722C804.425 426.32 809.115 426.814 816.603 427.639C809.979 420.443 805.084 415.309 800.414 409.968C797.452 406.586 794.798 402.936 792 399.39C792.555 398.4 793.131 397.41 793.687 396.421C789.881 397.307 786.055 398.194 782.702 398.957C777.847 396.07 772.91 393.637 768.61 390.379C766.306 388.626 763.385 385.244 763.653 382.935C765.71 365.243 769.783 348.335 786.59 339.468C782.99 326.024 787.947 315.508 792.823 305.115C792.226 298.352 791.897 291.403 793.975 285.279C796.443 278.021 795.435 271.793 790.046 267.669C785.438 264.164 779.061 262.989 772.251 260.287V275.773C774.946 276.309 777.477 276.804 782.27 277.732C779.122 284.062 776.181 289.176 773.938 294.599C766.574 312.538 750.693 328.725 761.904 350.727C762.315 351.551 762.192 352.789 761.986 353.778C757.378 376.852 752.812 399.947 747.895 422.958C747.504 424.794 743.863 427.763 742.752 427.351C731.952 423.412 727.509 431.165 721.666 437.475C718.313 441.083 713.253 443.084 708.974 445.826L705.847 443.908C706.382 446.3 706.217 449.187 707.554 450.981C712.553 457.744 710.352 463.023 705.003 468.034C702.267 470.611 699.367 473.044 696.837 475.808C689.205 484.117 690.521 494.448 699.984 500.964C702.226 502.51 704.777 503.603 707.081 505.067C715.063 510.078 720.247 507.542 722.962 498.428C725.781 488.922 729.669 479.746 733.104 470.426C734.174 470.735 735.223 471.024 736.293 471.333C735.82 475.911 735.367 480.488 734.832 485.808C737.321 485.004 738.226 484.983 738.514 484.571C739.44 483.169 740.571 481.684 740.88 480.096C744.768 460.425 759.271 448.342 772.293 435.042C779.164 428.01 784.162 428.278 790.437 435.846C797.349 444.197 805.413 451.6 812.839 459.538C814.773 461.621 816.213 464.157 817.92 466.549C813.23 469.436 809.424 471.787 805.639 474.117C806.092 475.045 806.523 475.973 806.976 476.921C812.489 474.838 818.002 472.776 825.202 470.055C821.335 483.684 831.806 481.952 837.36 484.798C839.417 485.849 844.827 485.066 845.136 484.076C846.247 480.303 845.877 476.076 846.062 472.467C842.153 472.756 839.746 472.941 837.339 473.127C838.183 470.859 838.923 468.529 839.931 466.322C840.487 465.126 841.515 464.137 842.318 463.044C844.539 460.899 848.674 458.734 848.654 456.59C848.633 449.187 847.728 441.661 846.062 434.444C844.725 428.608 840.363 426.175 834.274 428.753C827.712 431.557 829.851 436.032 831.97 440.568C835.529 448.136 839.047 455.724 842.585 463.312ZM684.144 640.458C683.815 638.953 683.465 637.448 683.136 635.922C657.195 652.129 629.877 648.851 601.591 644.871C602.866 624.746 604.101 605.033 605.355 585.114C611.589 587.217 617.246 589.156 622.903 591.073C623.273 590.145 623.643 589.218 624.014 588.31C617.657 584.867 611.301 581.423 606.693 578.928C608.503 573.835 611.157 569.835 610.93 566.02C610.683 561.896 608.338 557.442 605.664 554.143C604.018 552.122 600.048 551.978 597.127 550.988C596.571 554.122 595.728 557.236 595.646 560.37C595.605 561.566 597.271 562.824 600.13 566.762C593.918 566.762 590.215 566.185 586.779 566.907C581.657 567.958 576.226 569.092 571.865 571.732C568.286 573.897 565.632 578.062 563.349 581.815C560.839 585.98 556.992 591.197 557.856 595.012C558.679 598.641 564.83 601.053 569.582 604.724C574.807 591.919 579.23 581.052 583.632 570.206C584.702 570.391 585.792 570.598 586.862 570.783C587.685 573.402 588.528 576.021 589.392 578.743C592.416 578.474 595.564 578.206 598.814 577.938C597.209 599.651 595.666 620.539 594.123 641.345C584.194 641.579 578.921 639.633 578.304 635.509C581.595 634.561 584.949 633.612 587.212 632.973C583.015 626.663 580.135 622.313 577.255 617.982C576.576 617.982 575.897 617.982 575.218 617.962V655.841C571.125 653.717 568.245 652.212 565.344 650.706C564.748 651.387 564.151 652.067 563.554 652.748C568.286 657.573 573.017 662.419 577.954 667.45C579.004 672.213 580.752 678.213 581.472 684.358C581.822 687.286 581.246 692.029 579.353 693.266C570.487 698.998 561.25 704.339 551.643 708.649C548.208 710.195 543.333 708.504 537.593 708.195C533.767 713.721 529.262 710.958 525.271 704.236C521.877 717.041 503.383 727.908 490.978 725.165C492.13 735.413 486.309 739.991 477.36 742.342C467.753 744.878 461.973 753.27 464.462 760.838C469.337 775.643 474.48 790.345 479.314 805.171C485.794 825.028 491.966 844.988 498.61 864.783C499.659 867.917 502.581 870.433 505.07 873.835C517.906 861.814 529.673 850.803 541.461 839.771C541.008 839.256 540.555 838.74 540.103 838.225C528.603 848.39 517.104 858.556 505.152 869.134C494.167 836.596 483.758 805.686 473.225 774.509C476.29 774.096 477.977 773.89 481.063 773.478C478.265 771.333 476.722 770.055 475.077 768.9C468.72 764.446 468.988 761.044 476.517 758.425C491.02 753.373 505.481 748.198 519.963 743.125C520.56 742.919 521.383 742.898 521.959 743.125C534.364 748.074 538.766 736.465 545.678 730.959C549.566 727.866 550.43 721.124 554.174 717.618C558.802 713.288 564.933 710.566 570.466 707.246C589.515 695.864 608.606 684.523 628.642 672.605C634.505 691.699 650.942 686.812 664.149 686.255C665.136 692.854 665.918 698.194 667.131 706.277C675.278 700.421 680.873 696.4 687.168 691.884C688.073 693.039 689.76 695.204 691.755 697.761C694.635 695.472 697.392 693.287 700.725 690.627C698.277 687.451 696.158 684.688 693.792 681.595C692.352 684.42 691.344 686.42 690.521 688.008C686.181 686.235 682.478 684.709 678.466 683.08C682.581 675.925 689.534 677.182 696.466 678.543C703.769 679.987 707.863 677.533 707.493 669.594C707.266 664.893 707.122 660.192 706.526 655.531C705.806 649.82 704.695 644.17 704.037 640.17C694.245 644.376 683.506 648.995 672.747 653.614L670.67 650.088C675.154 646.892 679.639 643.675 684.123 640.479L684.144 640.458ZM601.118 539.606C589.248 532.966 580.32 520.842 564.83 521.213C562.444 521.275 560.078 519.274 557.63 518.429C544.3 513.81 530.352 511.088 518.277 502.84C512.62 498.984 505.317 497.582 498.816 494.943C495.71 493.685 492.562 490.654 489.724 490.984C473.74 492.86 460.656 477.086 444.055 483.746C443.314 484.035 442.121 483.21 441.154 482.88C430.437 479.127 420.871 475.581 411.285 467.127C399.168 456.425 380.119 453.6 364.011 447.352C361.296 451.662 359.424 454.631 358.91 455.414C397.625 472.013 435.95 488.448 475.961 505.583C456.172 520.141 430.375 509.398 413.115 521.543C408.59 520.47 403.324 518.243 402.645 519.213C395.959 528.945 411.984 523.048 409.639 532.121C404.887 531.255 399.888 530.368 395.239 529.523C397.399 535.502 397.605 535.915 406.779 535.502C439.57 534.059 472.361 532.657 505.131 530.657C515.314 530.038 524.674 530.059 533.355 536.533C537.861 539.895 543.312 540.616 545.595 533.42C547.817 526.45 551.397 528.224 556.601 530.162C570.754 535.441 584.455 543.111 601.097 539.585L601.118 539.606ZM807.058 700.73C815.719 718.587 856.306 729.805 883.481 722.134C879.449 715.804 876.528 709.494 872.023 704.628C867.291 699.534 861.058 695.864 853.447 690.008C876.405 689.761 884.448 710.071 901.317 714.793C906.809 708.484 904.299 703.205 898.21 698.998C885.024 689.884 871.673 681.018 858.405 672.048C857.314 671.306 856.265 670.543 854.846 669.553C854.414 672.584 854.044 675.059 853.468 679.1C845.445 673.718 838.553 669.099 833.513 665.738C832.814 659.923 832.176 654.83 831.127 646.108C825.202 650.83 821.849 653.469 818.517 656.15C810.329 662.769 802.759 670.481 793.687 675.492C789.902 677.574 785.232 677.574 787.515 682.605C789.449 686.874 793.831 690.008 797.143 693.637C804.178 682.956 805.639 697.617 810.226 695.988C813.95 694.297 817.673 692.606 823.742 689.843C820.347 696.854 818.29 701.122 816.151 705.556C812.613 703.679 809.856 702.194 807.079 700.73H807.058ZM403.57 883.857C403.385 882.784 403.18 881.692 402.994 880.619C379.831 883.671 356.544 886.001 333.586 890.187C327.003 891.383 321.388 897.919 313.262 903.404C318.446 904.518 320.955 905.301 323.506 905.569C334.512 906.765 346.402 905.569 356.318 909.446C370.142 914.869 385.138 915.921 397.502 928.437C410.05 941.118 429.202 947.263 445.474 956.233C452.304 959.986 459.216 963.615 466.066 967.368C468.494 968.687 470.859 970.151 473.246 971.553C473.678 970.873 474.089 970.193 474.521 969.512C451.152 953.367 427.803 937.221 402.789 919.942C409.536 908.085 416.016 896.724 424.245 882.29C414.082 884.537 406.615 886.166 399.168 887.816C399.086 887.445 399.004 887.053 398.901 886.682C400.464 885.754 402.007 884.826 403.57 883.898V883.857ZM327.95 531.811C330.048 530.512 332.023 529.358 333.957 528.1C335.87 526.863 337.742 525.543 340.869 523.419C323.506 519.687 323.383 519.769 323.774 533.482C298.245 536.389 272.633 539.317 245.726 542.39C246.034 535.812 246.24 531.605 246.487 526.842C244.43 527.254 241.961 527.77 239.431 528.285C243.381 541.668 242.99 542.018 229.166 543.132C216.638 544.142 204.151 545.606 191.644 546.699C189.381 546.885 187.015 545.854 184.731 545.936C174.569 546.328 164.407 546.905 154.245 547.441C154.327 548.74 154.389 550.039 154.471 551.359C229.927 546.699 305.362 542.039 383.76 537.193C379.975 532.265 377.486 528.059 376.869 528.327C369.689 531.358 367.282 527.316 364.341 521.893C363.518 520.367 358.19 521.254 354.94 521.192C354.652 521.192 354.343 522.244 353.623 523.563C356.462 524.161 359.054 524.698 361.708 525.254C358.169 535.791 336.981 539.894 328.011 531.832L327.95 531.811ZM472.299 597.919C466.683 596.249 461.952 594.867 458.023 593.692C458.434 588.042 458.949 581.134 459.442 574.247C458.702 573.835 457.982 573.423 457.241 572.99C450.062 579.835 442.862 586.661 433.79 595.28C438.562 594.723 440.434 594.496 442.656 594.228C443.623 597.857 446.174 601.919 445.228 604.847C442.06 614.601 451.09 618.065 454.67 623.962C455.76 625.736 463.742 624.849 467.568 623.034C474.192 619.921 480.24 615.426 486.103 610.951C488.736 608.951 490.341 605.61 492.418 602.889C491.369 601.961 490.341 601.033 489.291 600.105C484.56 603.26 479.808 606.394 473.472 610.6C475.138 603.363 476.393 597.878 477.669 592.372C477.072 592.228 476.496 592.063 475.9 591.919C474.418 594.373 472.937 596.847 472.299 597.899V597.919ZM17.1362 806.511C18.1442 807.707 19.1522 808.903 20.1807 810.12C22.6905 808.429 25.5704 807.088 27.6687 804.965C45.3806 787.025 62.743 768.776 80.6607 751.043C86.3385 745.435 93.3738 741.208 99.6481 736.176C105.12 731.784 110.983 727.619 115.426 722.299C116.825 720.608 115.303 713.762 113.143 712.36C107.445 708.669 97.5909 714.113 94.7315 720.67C92.2012 726.444 89.6504 732.712 85.4333 737.166C73.0493 750.28 59.7189 762.487 47.0058 775.292C36.8641 785.52 27.0926 796.098 17.1772 806.511H17.1362ZM1221.1 383.884C1221.86 385.203 1222.6 386.523 1223.36 387.843C1231.53 385.43 1239.78 383.224 1247.86 380.502C1252.27 379.017 1256.19 375.677 1260.64 374.873C1291.33 369.408 1322.35 369.821 1353.33 371.182C1372.98 372.048 1392.6 373.615 1412.25 374.605C1414.55 374.728 1416.94 373.305 1417.72 373.079C1411.22 369.408 1404.58 365.676 1397.75 361.82C1397.62 363.655 1397.4 366.728 1397.13 370.46C1390.63 370.006 1384.52 369.718 1378.43 369.14C1363.89 367.738 1349.36 364.996 1334.84 365.016C1314.45 365.078 1293.92 366.047 1273.72 368.749C1258.17 370.831 1241.65 369.697 1227.39 378.357C1225.05 379.78 1223.2 382.028 1221.1 383.884ZM315.01 417.742C305.321 429.907 295.241 442.321 285.408 454.961C279.319 462.796 280.142 464.776 287.65 467.085C297.73 455.497 307.173 444.63 316.697 433.825C317.273 433.165 318.672 432.567 319.413 432.794C329.225 435.887 328.505 427.144 330.974 421.928C327.888 424.319 324.823 426.691 321.737 429.083C321.059 428.34 320.359 427.619 319.68 426.876C323.733 421.556 328.011 416.401 331.817 410.896C335.808 405.102 339.346 398.998 343.152 392.915C333.298 385.863 331.426 395.266 327.456 399.72C323.712 403.926 320.236 408.38 316.348 413.102C314.332 409.803 312.377 406.607 310.423 403.411C309.641 403.844 308.839 404.277 308.057 404.71C310.114 408.566 312.192 412.422 315.031 417.742H315.01ZM897.84 342.767C896.277 342.767 893.067 343.159 889.982 342.685C881.465 341.427 878.359 344.438 877.762 353.304C877.371 359.325 875.129 365.202 874.45 371.202C874.101 374.213 875.417 377.429 875.973 380.543C877.186 380.378 878.4 380.234 879.614 380.069C880.457 375.017 881.301 369.965 882.494 362.769C886.094 368.047 888.48 371.532 890.866 375.017C891.298 374.749 891.71 374.46 892.142 374.192C891.566 372.254 890.99 370.336 890.517 368.728C900.206 366.955 909.525 365.058 916.581 375.574V347.799C915.902 347.757 915.223 347.716 914.544 347.675C914.133 349.634 913.742 351.593 913.022 355.057C907.735 350.768 903.435 347.283 897.84 342.747V342.767ZM515.314 454.569C517.227 456.631 521.486 459.126 521.692 461.93C521.959 465.436 519.038 469.271 517.289 472.838C516.014 475.436 514.389 477.849 512.907 480.365C516.034 480.653 520.334 482.406 522.062 481.004C528.727 475.601 534.713 469.292 540.576 462.982C541.378 462.116 540.782 458.61 539.65 457.497C532.759 450.61 528.357 438.918 514.8 444.011C513.134 444.651 510.789 443.62 508.773 443.228C502.622 442.011 501.676 445.063 502.601 450.239C503.774 456.92 507.723 457.538 515.294 454.59L515.314 454.569ZM139.598 421.35C131.534 422.216 123.964 422.34 116.825 424.113C114.069 424.794 110.942 428.98 110.386 432.011C109.954 434.361 112.752 438.052 115.097 439.949C117.319 441.743 120.754 442.63 123.737 442.816C152.023 444.63 179.465 441.661 204.665 426.856C182.037 432.939 159.696 441.269 134.332 436.341C136.162 431.145 137.664 426.835 139.598 421.35ZM951.655 468.879C947.664 469.642 942.603 469.168 939.929 471.457C935.095 475.622 931.68 481.457 928.306 485.767C930.713 485.643 935.362 485.396 939.703 485.148C939.148 491.025 938.736 495.355 938.345 499.706H954.741C954.741 499.706 956.037 501.706 957.291 503.583C963.689 497.129 969.573 491.19 976.135 484.571C973.09 482.241 968.729 478.921 964.121 475.395C962.105 480.942 960.501 485.396 958.793 490.097C943.323 480.426 942.439 477.519 951.675 468.859L951.655 468.879ZM1209.15 257.751C1212.56 253.462 1216.24 248.163 1220.61 243.544C1225.15 238.739 1224.31 233.44 1220.36 230.368C1217.99 228.533 1211.08 229.048 1208.82 231.234C1199.6 240.162 1191.17 249.915 1182.94 259.792C1179.34 264.102 1176.95 269.443 1174.01 274.309C1174.63 274.721 1175.27 275.134 1175.88 275.525C1184.46 264.824 1193.02 254.122 1203.22 241.399C1205.79 248.493 1207.5 253.173 1209.17 257.73L1209.15 257.751ZM659.643 291.382C645.819 293.403 630.473 291.341 622.08 306.579C619.344 311.549 614.139 320.024 615.641 321.611C621.833 328.168 627.614 320.807 633.436 318.147C633.95 317.92 634.176 317.075 633.621 317.941C630.885 295.981 652.649 301.465 659.623 291.362L659.643 291.382ZM1115.3 411.349C1111.82 412.772 1109.21 413.824 1106.52 414.917C1108 420.649 1109.97 425.495 1110.3 430.464C1110.57 434.423 1109.97 439.372 1107.75 442.341C1102.71 449.105 1096.27 454.816 1090.66 461.167C1086.42 465.951 1082.55 471.065 1078.52 476.034L1082.02 478.921C1096.7 461.827 1111.39 444.733 1127.64 425.804C1122.85 426.67 1120.71 427.041 1118.26 427.495C1117.32 422.422 1116.47 417.824 1115.28 411.37L1115.3 411.349ZM686.695 705.679C679.639 710.236 674.517 713.556 666.946 718.443C666.329 721.598 665.095 727.805 664.149 732.671C670.649 732.093 675.998 732.176 681.058 731.001C685.173 730.031 688.937 727.557 692.846 725.743C690.706 721.515 688.546 717.268 686.407 713.041C685.605 713.309 684.802 713.577 684 713.845C684.679 711.783 685.358 709.721 686.695 705.7V705.679ZM295.735 930.045C308.407 938.603 318.898 933.138 328.731 927.117C335.376 923.055 340.972 922.663 347.534 926.54C355.474 931.221 363.682 935.407 371.767 939.819C372.487 938.83 373.227 937.84 373.947 936.829C366.233 930.973 358.581 925.014 350.764 919.302C346.32 916.065 341.918 915.364 337.001 919.261C327.477 926.808 316.224 928.891 304.313 928.561C301.474 928.478 298.594 929.509 295.714 930.025L295.735 930.045ZM727.344 95.5542C727.653 96.9151 727.961 98.276 728.27 99.6576C738.041 97.2657 747.833 94.9356 757.564 92.3581C758.551 92.09 759.723 90.3992 759.826 89.2858C761.122 74.4394 769.598 63.4901 779.019 52.9945C779.41 52.5615 778.773 51.2213 778.444 49.283C770.174 53.2008 764.434 58.6857 763.447 67.3255C761.883 81.0378 754.149 88.4403 741.415 91.7189C736.704 92.9354 732.034 94.2964 727.344 95.5749V95.5542ZM398.901 154.301L401.41 153.579C401.184 150.445 402.213 146.073 400.526 144.382C393.449 137.186 385.714 130.608 377.856 124.216C376.334 122.979 373.248 123.68 370.903 123.474C371.356 125.577 371.068 128.443 372.343 129.68C381.004 138.073 389.993 146.135 398.88 154.301H398.901ZM980.043 592.455C980.887 592.991 981.73 593.548 982.574 594.084C992.325 581.176 1002.08 568.288 1011.81 555.38C1010.55 554.493 1009.3 553.586 1008.04 552.7C999.031 566.185 982.018 573.897 980.023 592.455H980.043ZM218.284 941.118C219.682 941.201 221.102 941.263 222.501 941.345C223.118 926.891 223.735 912.415 224.434 896.167C223.282 897.383 220.526 899.033 219.888 901.281C218.592 905.796 220.197 912.395 217.522 915.013C207.093 925.282 218.139 932.52 218.263 941.118H218.284ZM897.079 374.213C897.84 376.419 897.984 379.244 899.465 380.729C905.328 386.605 908.64 392.688 906.624 401.576C904.176 412.401 903.003 423.515 901.234 434.836C902.263 434.258 903.23 434.031 903.374 433.578C904.588 429.392 906.192 425.227 906.645 420.938C908.352 404.689 921.045 386.894 897.079 374.213ZM537.099 360.274C563.657 367.223 581.616 364.748 583.941 355.717C568.368 357.243 552.734 358.768 537.099 360.274ZM975.456 95.1211C974.901 96.1728 974.345 97.2037 973.79 98.2554C988.786 106.091 1003.72 114.05 1018.84 121.618C1020.71 122.546 1023.65 121.329 1026.72 121.061C1008.68 111.947 992.057 103.534 975.435 95.1211H975.456ZM475.323 458.301C476.414 456.384 477.504 454.466 478.615 452.528C470.345 447.352 462.178 441.97 453.641 437.289C452.695 436.774 449.609 440.176 446.112 442.836C457.097 448.651 466.21 453.476 475.323 458.301ZM1228.9 387.43C1228.28 388.606 1227.66 389.76 1227.07 390.936C1248.34 402.689 1269.63 414.422 1290.9 426.175C1291.41 425.206 1291.93 424.258 1292.46 423.288C1271.27 411.329 1250.08 399.39 1228.92 387.43H1228.9ZM704.654 695.823C704.51 704.854 699.429 713.453 704.736 722.67C713.527 717.007 715.762 710.339 711.442 702.669C713.088 701.741 714.713 700.834 717.141 699.473C712.471 698.112 709.077 697.122 704.654 695.823ZM613.481 782.592C597.785 789.768 577.399 797.108 567.051 815.233C582.974 809.418 592.437 791.582 611.856 790.056C612.123 788.798 612.699 786.18 613.481 782.571V782.592ZM313.056 389.925C313.673 388.09 314.29 386.234 314.908 384.399C312.213 383.121 309.477 380.646 306.843 380.749C294.069 381.244 281.644 383.327 270.062 392.111C279.401 390.193 287.013 387.781 294.727 387.306C300.754 386.935 306.946 388.977 313.056 389.946V389.925ZM655.077 571.629C654.295 572.33 653.493 573.031 652.711 573.732C667.399 587.444 682.066 601.136 696.754 614.848C697.701 613.838 698.647 612.827 699.614 611.817C684.761 598.435 669.929 585.032 655.077 571.649V571.629ZM79.0561 184.942C78.0892 184.756 77.1431 184.55 76.1762 184.365C72.7408 204.84 69.3259 225.316 65.8904 245.771C66.9602 245.936 68.0093 246.121 69.079 246.286C72.4116 225.831 75.7235 205.376 79.0561 184.942ZM764.661 607.652C764.578 608.312 764.475 608.951 764.393 609.611C766.594 610.869 768.795 612.147 773.136 614.642C763.755 622.189 755.568 628.787 748.101 634.788C758.818 636.149 769.886 627.426 778.567 609.075C773.712 608.58 769.186 608.105 764.661 607.652ZM1014.46 444.156C1002.82 449.002 991.152 453.868 977.842 459.435C990.309 464.467 1009.3 455.435 1014.46 444.156ZM855.874 742.672C851.76 761.724 853.817 765.993 864.597 766.405C863.959 761.889 861.285 756.178 862.992 752.549C867.127 743.785 862.354 743.558 855.854 742.672H855.874ZM734.215 554.7C733.804 553.813 733.371 552.926 732.96 552.06C721.666 557.38 710.352 562.7 698.462 568.309C715.865 575.134 722.901 559.999 734.215 554.72V554.7ZM1149.02 362.15C1146.22 371.429 1142.89 379.698 1132.5 382.956C1130.52 383.574 1129.1 387.08 1128.16 389.533C1127.58 390.997 1128.45 392.998 1128.65 394.771C1130.44 394.482 1132.95 394.853 1133.88 393.802C1141.94 384.791 1148.77 375.058 1149.02 362.15ZM470.818 588.681C475.817 578.474 480.816 568.268 485.095 559.525C475.687 561.848 470.928 571.567 470.818 588.681ZM81.5658 824.76C67.8447 821.502 47.6024 828.018 44.9076 834.307C57.2299 831.111 69.3875 827.935 81.5658 824.76ZM784.018 508.614C783.915 507.5 783.813 506.387 783.71 505.253C768.178 506.902 752.626 508.531 737.095 510.181C737.198 511.253 737.301 512.326 737.403 513.398C752.955 511.81 768.487 510.202 784.039 508.614H784.018ZM630.823 551.504C627.902 542.637 620.702 542.183 612.844 543.915C611.301 544.245 610.128 546.266 608.77 547.524C610.231 548.493 611.609 550.163 613.152 550.328C619.035 550.988 624.981 551.174 630.823 551.524V551.504ZM238.587 483.932C241.858 487.582 244.409 490.448 247.495 493.871C249.429 492.51 251.815 490.84 254.16 489.211C247.989 478.557 242.805 476.797 238.608 483.932H238.587ZM432.576 455.476C432.473 448.342 430.519 442.651 423.237 440.589C422.187 440.3 420.398 442.609 418.958 443.723C422.763 447.909 426.569 452.095 430.416 456.239C430.498 456.342 431.013 456.033 432.556 455.476H432.576ZM25.6116 825.152C24.4596 825.502 23.3282 825.873 22.1762 826.224C23.5134 833.111 24.8299 839.998 26.5373 848.823C30.4665 844.823 32.8115 842.472 33.6961 841.565C30.6104 835.276 28.1213 830.224 25.6322 825.172L25.6116 825.152ZM1393.39 348.087C1394.19 347.469 1394.99 346.85 1395.79 346.231C1387.54 335.653 1379.29 325.075 1371.04 314.477L1368.91 316.085C1377.05 326.746 1385.22 337.406 1393.36 348.067L1393.39 348.087ZM1090.55 218.284C1091.21 218.924 1091.89 219.563 1092.55 220.223C1101.21 210.016 1109.89 199.809 1118.55 189.581C1117.54 188.757 1116.51 187.911 1115.51 187.086C1107.2 197.479 1098.86 207.892 1090.55 218.284ZM432.041 200.056C430.622 205.954 429.675 209.933 428.318 215.624C431.547 216.181 436.135 216.985 440.743 217.79C439.303 213.583 438.028 209.294 436.32 205.191C435.662 203.582 434.037 202.386 432.041 200.036V200.056ZM60.768 270.206C59.8834 269.752 59.0195 269.298 58.1349 268.845C50.8938 281.052 43.6527 293.259 36.4116 305.466C37.3579 306.002 38.3042 306.538 39.2504 307.074C46.4299 294.785 53.5886 282.495 60.768 270.226V270.206ZM125.239 287.423L123.12 285.444C119.15 291.918 115.18 298.414 110.469 306.105C117.216 303.301 121.701 301.424 126.35 299.507C126.041 296.207 125.65 291.815 125.239 287.423ZM1032.91 532.492C1037.05 526.512 1041.04 520.718 1045.03 514.944C1044.58 514.573 1044.1 514.223 1043.65 513.851C1038.22 517.068 1032.77 520.305 1028.35 522.924C1029.48 525.296 1030.67 527.77 1032.93 532.492H1032.91ZM1096.13 292.619H1109.56C1109.38 289.217 1109.21 285.815 1108.96 281.382C1104.07 285.114 1094.96 279.649 1096.13 292.619ZM1028.59 435.186C1022.89 424.546 1016.11 423.866 1007.2 432.155C1014.77 433.227 1020.49 434.031 1028.59 435.186ZM444.158 568.433C445.207 569.381 446.277 570.33 447.326 571.278C450.37 568 453.806 564.948 456.13 561.216C456.562 560.514 452.592 557.05 449.342 553.359C447.099 559.855 445.618 564.144 444.137 568.433H444.158ZM121.927 269.195C118.348 266.453 114.789 263.71 110.345 260.287C107.074 265.133 104.153 269.505 100.944 274.247C108.741 272.371 115.036 270.845 121.927 269.195ZM280.08 251.462C278.743 251.565 277.385 251.648 276.048 251.751C277.015 264.721 278.002 277.67 278.969 290.64C279.339 290.599 279.71 290.558 280.08 290.516V251.483V251.462ZM695.335 442.465C696.158 441.846 696.96 441.228 697.783 440.609C695.808 437.207 694.368 433.227 691.632 430.608C690.089 429.124 686.407 429.866 683.691 429.619C684.658 431.949 685.07 434.836 686.695 436.485C689.122 438.939 692.414 440.506 695.335 442.465ZM901.131 69.243C901.605 68.0677 902.078 66.8924 902.551 65.7171C893.726 62.2735 884.901 58.8094 876.075 55.3658C875.643 56.4381 875.211 57.4897 874.779 58.5619C883.563 62.1292 892.347 65.6758 901.131 69.243ZM409.803 495.623C411.943 499.603 414.062 503.603 416.428 507.459C416.489 507.583 420.521 506.14 420.645 505.17C421.406 499.149 419.04 495.025 409.803 495.623ZM711.669 232.12C711.237 233.069 710.805 234.017 710.373 234.966C717.634 238.678 724.896 242.389 732.158 246.121C732.816 244.678 733.495 243.255 734.153 241.812C726.665 238.574 719.177 235.358 711.669 232.12ZM1172.74 60.294C1184.63 73.6352 1185.35 73.8414 1192.88 65.5522C1186.33 63.8407 1180.8 62.3973 1172.74 60.294ZM461.89 429.433C461.808 431.186 461.726 432.939 461.643 434.671C465.737 435.124 469.831 435.578 473.925 436.011C474.069 433.598 474.233 431.186 474.377 428.773C470.201 428.98 466.046 429.206 461.87 429.413L461.89 429.433ZM686.14 333.901C687.312 334.107 688.485 334.313 689.637 334.54C690.748 326.807 691.879 319.075 692.99 311.342C691.529 311.157 690.048 310.971 688.588 310.765L686.119 333.901H686.14ZM293.143 466.405L296.085 469.353C300.672 465.044 305.28 460.734 309.868 456.425C308.798 455.332 307.749 454.239 306.679 453.146L293.143 466.405ZM162.823 316.931C177.326 329.777 185.431 329.777 189.957 316.436C186.007 319.859 183.703 321.859 181.049 324.168C176.174 322.23 170.867 320.127 162.823 316.931ZM935.095 381.595C931.742 376.337 929.232 372.378 926.064 367.388C922.114 380.626 923.328 382.791 935.095 381.595ZM827.65 502.552C837.442 507.047 838.738 498.84 842.647 495.582C843.243 495.087 842.297 492.757 842.071 491.293C839.109 493.52 836.126 495.706 833.205 497.974C831.682 499.149 830.242 500.407 827.65 502.552Z" fill="black"/>
<path d="M2.05706 0.000203987L2.05706 796.015C5.94506 794.613 8.57817 793.664 13.8445 791.788C10.553 795.685 9.40111 797.809 7.63196 799.046C-0.288036 804.613 0.905002 811.377 4.56672 818.697C8.45472 826.512 11.4171 834.966 16.3542 842.018C19.1931 846.08 24.9736 848.431 29.8285 850.658C36.3702 853.648 45.3805 853.256 45.5039 863.813C37.2342 860.164 28.7794 856.844 20.7565 852.699C17.4857 851.008 14.3176 847.977 12.569 844.76C9.4216 839.007 7.36451 832.656 2.71536 827.172V1028.03H245.006C241.179 1014.32 237.394 1000.77 233.609 987.203C234.72 986.832 235.831 986.482 236.942 986.111C249.86 996.977 244.964 1014.81 252.123 1028.9C289.625 1028.9 327.847 1028.9 366.089 1028.9C435.909 1028.9 505.749 1028.9 575.568 1028.9C716.215 1028.9 856.862 1028.94 997.488 1028.73C1004.01 1028.73 1010.53 1026.34 1017.34 1025.02C1021.06 1026.13 1025.73 1028.71 1030.42 1028.71C1166.96 1028.94 1303.47 1028.9 1440 1028.9C1439.65 1029.62 1439.34 1030.86 1438.97 1030.9C1436.24 1031.06 1433.5 1031 1430.76 1031L-8.10623e-05 1031V1017.21C-8.10623e-05 681.223 -0.000126261 345.261 0.0821595 9.2792C0.0821595 6.1862 1.35763 3.11384 2.05706 0.0208441V0.000203987Z" fill="white"/>
<path d="M1033.26 0.000346318C1032.95 16.2695 1030.71 32.4768 1039.99 47.88C1042.09 51.3441 1036.53 59.4478 1034.52 65.407C1032.89 65.407 1031.25 65.407 1029.62 65.407C1027.63 60.4169 1022.73 54.3134 1024.13 50.6431C1030.55 33.8378 1026.51 16.8675 1027.09 0.0209865H1033.26V0.000346318Z" fill="white"/>
<path d="M836.058 0.000273197C833.178 10.8052 841.9 15.4859 848.277 22.2493C846.097 23.9814 844.225 25.466 841.551 27.5898C839.74 11.9599 826.965 7.52657 817.564 0.000273197L836.058 0.000273197Z" fill="white"/>
<path d="M684.145 640.458C679.66 643.654 675.176 646.87 670.691 650.066L672.769 653.593C683.507 648.974 694.245 644.355 704.058 640.148C704.716 644.149 705.848 649.798 706.547 655.51C707.123 660.17 707.288 664.892 707.514 669.573C707.884 677.512 703.791 679.945 696.488 678.522C689.555 677.161 682.602 675.903 678.488 683.058C682.499 684.708 686.202 686.213 690.543 687.987C691.345 686.399 692.373 684.419 693.813 681.574C696.2 684.667 698.319 687.43 700.746 690.605C697.413 693.245 694.657 695.451 691.777 697.74C689.781 695.183 688.095 693.018 687.189 691.863C680.915 696.379 675.299 700.4 667.153 706.256C665.96 698.152 665.157 692.832 664.17 686.234C650.963 686.791 634.527 691.678 628.664 672.584C608.627 684.502 589.557 695.843 570.488 707.225C564.933 710.545 558.803 713.267 554.195 717.597C550.472 721.082 549.587 727.825 545.699 730.938C538.787 736.444 534.405 748.053 521.98 743.104C521.404 742.877 520.581 742.877 519.985 743.104C505.502 748.176 491.041 753.352 476.538 758.404C469.029 761.023 468.762 764.425 475.098 768.879C476.744 770.034 478.286 771.312 481.084 773.457C477.998 773.869 476.312 774.075 473.246 774.488C483.758 805.665 494.188 836.554 505.173 869.113C517.146 858.535 528.625 848.369 540.124 838.203C540.577 838.719 541.029 839.234 541.482 839.75C529.695 850.782 517.928 861.813 505.091 873.814C502.602 870.412 499.681 867.896 498.632 864.762C491.987 844.967 485.816 825.007 479.336 805.15C474.501 790.344 469.359 775.622 464.483 760.817C461.994 753.249 467.774 744.857 477.381 742.32C486.309 739.97 492.131 735.392 491 725.144C503.425 727.907 521.898 717.04 525.292 704.215C529.304 710.937 533.809 713.7 537.615 708.174C543.354 708.462 548.229 710.174 551.665 708.627C561.272 704.297 570.508 698.977 579.375 693.245C581.267 692.028 581.843 687.286 581.493 684.337C580.773 678.213 579.025 672.192 577.976 667.429C573.039 662.397 568.307 657.552 563.576 652.726C564.172 652.046 564.769 651.366 565.365 650.685C568.245 652.19 571.146 653.696 575.24 655.819V617.941C575.919 617.941 576.597 617.941 577.276 617.961C580.156 622.291 583.036 626.622 587.233 632.952C584.97 633.591 581.617 634.56 578.325 635.488C578.943 639.612 584.216 641.557 594.145 641.324C595.688 620.518 597.231 599.651 598.835 577.917C595.585 578.185 592.458 578.453 589.413 578.721C588.549 575.999 587.706 573.381 586.883 570.762C585.813 570.576 584.723 570.37 583.653 570.185C579.231 581.031 574.808 591.877 569.603 604.702C564.851 601.032 558.7 598.62 557.877 594.99C557.013 591.176 560.86 585.959 563.37 581.794C565.653 578.041 568.287 573.876 571.887 571.71C576.248 569.071 581.679 567.937 586.801 566.885C590.236 566.184 593.939 566.741 600.152 566.741C597.292 562.803 595.626 561.545 595.667 560.349C595.77 557.215 596.613 554.08 597.148 550.967C600.069 551.957 604.04 552.08 605.685 554.122C608.36 557.421 610.684 561.895 610.952 565.999C611.199 569.813 608.524 573.814 606.714 578.907C611.322 581.402 617.679 584.845 624.035 588.289C623.665 589.217 623.295 590.145 622.924 591.052C617.267 589.134 611.61 587.217 605.377 585.093C604.122 605.012 602.867 624.725 601.612 644.85C629.898 648.829 657.217 652.108 683.157 635.901C683.487 637.406 683.836 638.911 684.165 640.437L684.145 640.458ZM601.571 650.19C599.041 662.129 596.696 673.243 593.96 686.255C611.26 675.8 626.833 666.398 642.405 656.995C642.015 655.902 641.603 654.83 641.212 653.737C628.191 652.582 615.148 651.407 601.571 650.19ZM586.41 674.419C587.007 674.213 587.624 674.006 588.22 673.779C589.352 668.501 590.421 663.181 591.656 657.923C594.495 645.798 592.52 644.045 578.778 647.592C581.329 656.541 583.88 665.47 586.431 674.398L586.41 674.419ZM635.802 672.707C635.802 673.965 635.802 675.244 635.823 676.501C641.295 677.12 646.767 677.739 654.872 678.646C651.107 673.676 649.317 671.326 647.322 668.707C643.228 670.13 639.525 671.408 635.802 672.687V672.707Z" fill="white"/>
<path d="M842.3 463.064C841.477 464.136 840.449 465.126 839.893 466.322C838.885 468.528 838.145 470.858 837.301 473.127C839.708 472.941 842.115 472.755 846.023 472.467C845.859 476.096 846.229 480.302 845.098 484.076C844.81 485.086 839.399 485.87 837.322 484.797C831.767 481.952 821.276 483.663 825.164 470.054C817.964 472.776 812.451 474.838 806.938 476.921C806.485 475.993 806.053 475.065 805.601 474.116C809.386 471.786 813.191 469.436 817.882 466.549C816.174 464.157 814.734 461.621 812.801 459.538C805.374 451.599 797.31 444.197 790.398 435.846C784.124 428.257 779.146 427.989 772.254 435.041C759.233 448.341 744.73 460.425 740.842 480.096C740.533 481.684 739.402 483.168 738.476 484.571C738.188 485.004 737.283 485.004 734.794 485.808C735.329 480.488 735.802 475.91 736.254 471.333C735.185 471.023 734.135 470.735 733.066 470.425C729.651 479.746 725.742 488.921 722.924 498.427C720.229 507.541 715.025 510.078 707.043 505.067C704.739 503.624 702.188 502.51 699.946 500.964C690.483 494.448 689.166 484.117 696.798 475.807C699.329 473.044 702.209 470.59 704.965 468.033C710.314 463.023 712.515 457.744 707.516 450.981C706.199 449.187 706.343 446.3 705.809 443.908L708.935 445.826C713.235 443.104 718.295 441.083 721.628 437.475C727.491 431.165 731.934 423.432 742.714 427.35C743.825 427.742 747.466 424.793 747.857 422.958C752.794 399.946 757.34 376.852 761.948 353.778C762.154 352.788 762.277 351.551 761.866 350.726C750.675 328.745 766.535 312.559 773.9 294.599C776.122 289.176 779.063 284.062 782.231 277.731C777.438 276.783 774.908 276.288 772.213 275.772V260.287C779.022 262.968 785.399 264.143 790.007 267.669C795.397 271.793 796.405 278.02 793.937 285.278C791.859 291.402 792.188 298.351 792.785 305.115C787.909 315.507 782.951 326.023 786.551 339.468C769.745 348.334 765.692 365.263 763.614 382.935C763.347 385.244 766.268 388.626 768.572 390.379C772.871 393.636 777.788 396.07 782.663 398.956C786.017 398.173 789.843 397.307 793.649 396.42C793.093 397.41 792.517 398.4 791.962 399.389C794.759 402.915 797.413 406.586 800.375 409.968C805.045 415.287 809.941 420.422 816.565 427.639C809.077 426.835 804.387 426.319 798.853 425.721C799.861 422.669 800.746 419.968 801.898 416.483C799.82 416.36 796.837 415.597 796.467 416.257C794.471 419.865 790.748 425.886 791.982 427.33C801.013 437.928 811.114 447.599 820.844 457.6C822.983 459.785 825.02 462.074 825.164 462.239C832.405 462.693 837.486 463.002 842.547 463.311L842.259 463.064H842.3ZM761.722 401.122L758.307 401.72C755.345 416.504 752.362 431.289 749.399 446.073C750.654 446.65 751.909 447.207 753.164 447.785C760.529 440.959 768.058 434.32 775.052 427.144C776.307 425.865 776.327 421.762 775.237 420.051C771.102 413.514 766.289 407.39 761.722 401.122ZM775.134 401.596C774.373 402.338 773.633 403.08 772.871 403.823C777.459 408.875 781.841 414.133 786.901 418.649C787.395 419.102 791.921 415.019 796.117 411.906C787.683 407.761 781.409 404.668 775.134 401.575V401.596Z" fill="white"/>
<path d="M601.12 539.585C584.498 543.111 570.777 535.441 556.624 530.162C551.399 528.224 547.819 526.451 545.618 533.42C543.335 540.616 537.883 539.895 533.378 536.534C524.697 530.038 515.337 530.018 505.154 530.657C472.405 532.657 439.593 534.059 406.802 535.503C397.627 535.915 397.422 535.503 395.262 529.523C399.911 530.368 404.91 531.255 409.662 532.121C412.007 523.048 395.982 528.966 402.667 519.213C403.326 518.244 408.613 520.471 413.138 521.543C430.418 509.377 456.194 520.12 475.984 505.583C435.973 488.427 397.648 471.993 358.933 455.415C359.426 454.61 361.319 451.641 364.034 447.352C380.142 453.6 399.191 456.425 411.307 467.127C420.894 475.581 430.459 479.128 441.177 482.88C442.144 483.21 443.337 484.056 444.078 483.747C460.699 477.086 473.783 492.861 489.746 490.984C492.585 490.654 495.733 493.685 498.839 494.943C505.339 497.583 512.642 498.985 518.3 502.841C530.375 511.089 544.322 513.831 557.653 518.429C560.101 519.275 562.487 521.275 564.853 521.213C580.363 520.842 589.271 532.966 601.141 539.606L601.12 539.585Z" fill="white"/>
<path d="M968.235 374.748C971.856 374.913 975.476 375.057 979.097 375.222C978.377 378.687 978.644 382.852 976.772 385.491C969.017 396.358 960.768 406.895 952.354 417.246C948.301 422.215 946.8 426.401 951.14 429.721C958.957 425.906 965.602 422.855 972.041 419.473C983.129 413.617 993.558 404.462 1005.28 402.338C1020.1 399.636 1031.86 392.172 1044.58 385.904C1047.87 384.295 1050.62 381.594 1054.18 378.975C1054.8 382.419 1055.42 385.904 1056.14 389.904C1046.94 394.585 1038.14 399.595 1028.88 403.554C1024.21 405.554 1018.7 405.451 1013.64 406.668C1010.14 407.513 1006.35 408.359 1003.49 410.338C994.196 416.813 980.681 417.617 976.361 431.206C975.579 433.659 969.86 434.361 966.589 436.196C952.292 444.155 938.057 452.238 923.78 460.259C922.299 461.105 920.756 462.198 919.152 462.404C914.996 462.94 908.907 461.352 906.932 463.6C899.773 471.642 896.996 481.395 902.283 493.148C908.043 491.457 913.968 489.725 919.913 487.973C920.283 488.694 920.653 489.395 921.044 490.117C917.28 492.488 913.741 495.334 909.73 497.149C885.229 508.263 860.564 518.985 836.125 530.244C830.036 533.048 824.77 537.605 818.784 540.739C814.093 543.193 808.889 544.678 803.89 546.575C803.355 545.337 802.841 544.1 802.306 542.863C817.57 534.966 832.772 526.986 848.098 519.233C862.662 511.871 878.029 505.768 891.648 496.963C896.214 494.014 896.523 484.426 898.765 477.869C897.963 476.962 897.14 476.034 896.338 475.126C881.691 480.921 867.024 486.715 852.377 492.509C851.616 490.901 850.854 489.272 850.073 487.663C864.288 479.271 878.502 470.879 892.717 462.507C885.785 452.259 886.813 450.382 899.033 446.279C903.538 444.774 908.249 441.804 911.273 438.175C925.92 420.586 939.99 402.482 954.411 384.708C956.941 381.573 960.253 379.058 963.195 376.274C964.882 375.779 966.548 375.284 968.235 374.81V374.748Z" fill="white"/>
<path d="M807.058 700.709C809.815 702.173 812.592 703.658 816.13 705.534C818.27 701.101 820.348 696.833 823.721 689.822C817.653 692.585 813.929 694.276 810.206 695.967C805.598 697.596 804.158 682.914 797.122 693.616C793.81 689.987 789.429 686.832 787.495 682.584C785.232 677.553 789.881 677.553 793.666 675.47C802.738 670.46 810.309 662.748 818.496 656.129C821.829 653.448 825.182 650.788 831.106 646.087C832.176 654.809 832.793 659.902 833.493 665.717C838.533 669.078 845.424 673.697 853.447 679.079C854.023 675.058 854.393 672.563 854.825 669.532C856.224 670.522 857.294 671.305 858.384 672.027C871.653 680.997 885.024 689.863 898.19 698.977C904.279 703.184 906.789 708.462 901.296 714.772C884.427 710.05 876.384 689.739 853.426 689.987C861.017 695.843 867.271 699.513 872.002 704.606C876.508 709.452 879.429 715.782 883.461 722.113C856.286 729.783 815.698 718.566 807.038 700.709H807.058ZM875.047 718.772C875.746 717.473 876.446 716.154 877.145 714.855C869.39 708.895 861.655 702.936 853.323 696.523C851.883 699.225 850.587 700.854 850.114 702.689C848.777 707.926 848.427 712.03 840.384 708.772C834.583 706.421 827.074 708.318 820.327 708.318C837.545 719.123 857.499 711.205 875.047 718.772Z" fill="white"/>
<path d="M403.567 883.836C402.003 884.764 400.46 885.692 398.897 886.62C398.979 886.991 399.062 887.383 399.164 887.754C406.611 886.104 414.079 884.475 424.241 882.228C416.033 896.641 409.532 908.023 402.785 919.88C427.779 937.159 451.148 953.305 474.518 969.45C474.086 970.131 473.674 970.811 473.242 971.492C470.856 970.089 468.49 968.625 466.063 967.306C459.212 963.574 452.3 959.944 445.471 956.171C429.178 947.201 410.026 941.056 397.498 928.375C385.135 915.879 370.138 914.807 356.314 909.384C346.399 905.508 334.508 906.704 323.503 905.508C320.952 905.24 318.463 904.456 313.258 903.342C321.384 897.858 327 891.342 333.583 890.125C356.54 885.939 379.827 883.589 402.991 880.557C403.176 881.63 403.382 882.722 403.567 883.795V883.836ZM344.979 898.456C353.866 900.538 360.572 902.105 367.279 903.693C360.449 892.847 353.969 891.342 344.979 898.456Z" fill="white"/>
<path d="M770.361 113.143C769.456 122.195 767.132 129.598 758.451 135.433C750.901 140.506 745.84 149.228 739.545 156.218C737.797 158.156 735.596 159.682 732.222 162.61C730 154.857 728.334 148.383 726.277 142.052C723.644 134.01 720.435 128.464 709.47 131.618C693.795 136.093 677.502 138.382 659.831 141.928C677.913 128.299 697.765 122.649 717.534 119.865C737.612 117.02 752.814 108.545 766.165 94.1726C771.267 88.6877 778.24 84.9348 784.35 80.3984C785.152 80.8933 785.954 81.4088 786.777 81.9037C783.938 90.8734 781.511 100.029 778.014 108.73C777.088 111.019 772.809 111.926 770.053 113.473C770.32 110.834 770.588 108.194 770.876 105.575C770.012 105.122 769.168 104.648 768.304 104.194C763.635 107.782 758.965 111.37 754.295 114.958C754.727 115.782 755.159 116.628 755.571 117.453L770.361 113.184V113.143Z" fill="white"/>
<path d="M730.347 724.299C731.478 723.124 733.494 722.01 733.597 720.732C734.008 716.36 733.761 711.927 733.761 705.844C745.899 712.937 756.925 721.66 766.161 703.102C767.067 704.112 767.951 705.143 768.856 706.154C767.992 710.339 767.128 714.505 765.997 719.907C768.815 721.144 772.312 722.67 776.838 724.65C777.105 721.392 776.941 719.412 777.496 717.659C778.113 715.742 779.389 714.051 780.376 712.278C781.405 714.01 782.619 715.659 783.4 717.495C785.169 721.68 786.692 725.969 788.317 730.217C789.325 729.928 790.312 729.66 791.32 729.372V719.227C802.635 723.371 812.838 727.619 823.371 730.691C827.876 732.011 833.08 730.918 839.643 730.918C836.372 733.578 833.43 735.991 829.912 738.836C830.776 740.115 832.216 742.197 833.142 743.558C830.982 747.744 829.11 751.414 828.267 753.043C820.449 747.352 812.056 740.61 802.923 735.042C800.043 733.289 795.229 734.898 791.3 734.712C785.992 734.465 780.705 733.929 775.419 733.599C773.752 733.496 771.304 732.898 770.523 733.743C758.9 746.466 743.039 743.043 728.619 744.94C724.998 745.414 721.254 745.002 717.51 745.002C718.23 740.012 718.148 739.682 734.996 735.166C742.011 733.289 749.499 733.145 757.707 732.114C752.008 727.866 747.071 724.175 742.134 720.484C742.792 721.598 743.451 722.711 744.109 723.825C740.18 726.299 736.251 728.794 730.326 732.526V724.237V724.32L730.347 724.299Z" fill="white"/>
<path d="M236.61 314.002C250.351 321.219 264.114 328.456 279.172 336.354C279.686 328.415 280.097 321.94 280.509 315.445L282.957 315.363C283.821 323.899 285.117 332.395 285.467 340.952C285.96 353.2 287.277 354.767 299.476 355.922C318.237 357.716 336.936 360.397 355.739 361.49C365.613 362.067 375.611 359.799 385.588 359.448C391.78 359.221 397.992 360.17 404.205 360.582C404.328 361.593 404.452 362.603 404.555 363.613C402.354 364.315 400.152 365.51 397.931 365.593C390.772 365.882 383.284 367.098 376.495 365.511C363.556 362.479 357.755 369.325 352.53 379.14C349.773 384.337 346.399 391.389 338.582 382.027C341.524 377.903 344.589 373.573 348.354 368.315C336.813 358.5 323.359 362.376 308.198 361.696C312.23 366.088 314.74 368.83 317.27 371.573C317.208 370.789 317.167 370.006 317.106 369.222C294.58 367.923 272.054 366.624 248.603 365.263C247.965 362.479 247.122 358.809 246.258 355.118C254.445 364.253 264.998 362.995 273.597 360.149C282.463 357.201 280.694 347.654 280.077 341.694C266.253 335.075 253.601 329.384 241.403 322.827C238.934 321.487 238.255 316.785 236.754 313.672C236.754 313.713 236.61 314.022 236.61 314.022V314.002Z" fill="white"/>
<path d="M327.949 531.79C336.918 539.852 358.106 535.728 361.645 525.212C358.991 524.655 356.399 524.119 353.56 523.521C354.28 522.202 354.589 521.15 354.877 521.15C358.127 521.233 363.455 520.346 364.278 521.851C367.22 527.295 369.647 531.316 376.806 528.285C377.423 528.016 379.933 532.223 383.697 537.151C305.3 541.997 229.864 546.657 154.408 551.317C154.326 550.018 154.264 548.719 154.182 547.399C164.344 546.884 174.486 546.286 184.669 545.894C186.952 545.812 189.318 546.863 191.581 546.657C204.109 545.585 216.595 544.1 229.103 543.09C242.927 541.976 243.318 541.646 239.368 528.243C241.898 527.728 244.367 527.212 246.424 526.8C246.198 531.563 245.992 535.77 245.663 542.347C272.57 539.275 298.161 536.347 323.711 533.44C323.341 519.727 323.443 519.665 340.806 523.377C337.679 525.501 335.807 526.821 333.894 528.058C331.96 529.295 329.985 530.47 327.887 531.769L327.949 531.79Z" fill="white"/>
<path d="M895.309 625.837C905.183 627.033 915.613 626.683 924.788 629.92C931.967 632.456 937.069 640.292 943.96 644.272C958.052 652.416 972.781 659.489 987.181 667.098C996.562 672.067 1005.84 677.243 1015.16 682.315C1014.69 683.532 1014.19 684.749 1013.72 685.965C1009.62 685.264 1005.14 685.45 1001.52 683.738C980.002 673.531 958.71 662.871 937.295 652.478C935.218 651.468 932.77 650.767 930.507 650.767C921.682 650.808 915.037 647.385 909.627 640.23C905.574 634.869 900.308 630.415 895.577 625.549L895.33 625.817L895.309 625.837Z" fill="white"/>
<path d="M472.319 597.877C472.956 596.825 474.438 594.351 475.919 591.897C476.515 592.041 477.091 592.206 477.688 592.351C476.433 597.856 475.158 603.341 473.491 610.579C479.827 606.372 484.559 603.238 489.311 600.083C490.36 601.011 491.388 601.939 492.438 602.867C490.36 605.589 488.755 608.929 486.122 610.929C480.259 615.404 474.211 619.899 467.587 623.012C463.761 624.806 455.779 625.714 454.689 623.94C451.089 618.043 442.079 614.558 445.247 604.826C446.193 601.898 443.642 597.835 442.675 594.206C440.454 594.474 438.582 594.681 433.809 595.258C442.881 586.639 450.06 579.793 457.26 572.968C458.001 573.38 458.721 573.793 459.462 574.226C458.947 581.113 458.454 588.02 458.042 593.67C461.971 594.825 466.703 596.227 472.319 597.897V597.877Z" fill="white"/>
<path d="M17.157 806.469C27.093 796.055 36.8645 785.457 46.9856 775.25C59.6988 762.445 73.029 750.238 85.413 737.124C89.6302 732.649 92.181 726.401 94.7112 720.628C97.5707 714.091 107.404 708.647 113.123 712.318C115.283 713.72 116.805 720.586 115.406 722.257C110.983 727.576 105.12 731.721 99.6278 736.134C93.3536 741.165 86.3182 745.372 80.6405 751.001C62.7433 768.734 45.3604 787.003 27.6484 804.922C25.5501 807.046 22.6701 808.366 20.1604 810.077C19.1524 808.881 18.1444 807.685 17.1159 806.469H17.157Z" fill="white"/>
<path d="M968.238 374.748C966.551 375.243 964.885 375.738 963.198 376.212C976.858 358.85 990.332 341.344 1004.18 324.126C1029.81 292.268 1055.63 260.575 1081.44 228.862C1082.45 227.625 1084.14 226.944 1087.33 227.398C1081.36 234.986 1075.37 242.574 1068.75 250.987C1072.19 253.585 1075.44 256.039 1078.69 258.513C1078.27 259.235 1077.84 259.957 1077.43 260.658C1073.87 258.946 1070.31 257.256 1065.13 254.781C1056.88 265.524 1048.22 276.762 1039.35 288.33C1043.98 289.567 1047.6 290.536 1054.17 292.289C1049.76 294.31 1047.56 296.166 1046.45 295.671C1039.02 292.248 1029.25 295.258 1028.59 302.991C1028.02 309.734 1024.93 310.62 1019.98 311.074L1019.4 311.734C1012.63 320.105 1005.88 328.498 1000.21 335.509C1004.07 338.663 1007.45 341.406 1010.8 344.148C1010.37 344.953 1009.94 345.757 1009.48 346.561C1005.99 344.891 1002.51 343.241 1000.64 342.354C994.57 350.046 989.077 357.015 983.564 363.985C983.008 363.655 982.432 363.325 981.877 362.995L983.461 358.252C983.008 357.881 982.556 357.51 982.103 357.16C977.475 363.016 972.846 368.892 968.218 374.748H968.238Z" fill="white"/>
<path d="M232.066 306.578C233.567 309.073 235.069 311.568 236.591 314.021C236.591 313.98 236.735 313.671 236.756 313.65C234.246 319.094 230.893 318.475 226.141 315.939C197.917 300.825 174.856 279.297 153.503 256.059C133.775 234.593 115.59 211.705 96.7262 189.456L98.989 186.899C101.499 188.569 104.605 189.765 106.436 191.992C113.039 200.158 118.943 208.901 125.608 216.984C148.422 244.635 171.565 272.142 201.332 292.638C210.568 299.01 221.985 302.227 232.395 306.887L232.086 306.578H232.066Z" fill="white"/>
<path d="M1221.1 383.884C1223.17 382.028 1225.05 379.781 1227.39 378.358C1241.65 369.697 1258.17 370.811 1273.72 368.749C1293.9 366.048 1314.43 365.078 1334.84 365.017C1349.36 364.975 1363.88 367.738 1378.43 369.141C1384.52 369.718 1390.61 370.007 1397.13 370.46C1397.39 366.728 1397.62 363.676 1397.74 361.821C1404.57 365.676 1411.22 369.409 1417.72 373.079C1416.96 373.306 1414.57 374.729 1412.25 374.605C1392.6 373.595 1372.98 372.027 1353.33 371.182C1322.35 369.821 1291.33 369.409 1260.64 374.873C1256.19 375.657 1252.26 379.018 1247.86 380.502C1239.8 383.224 1231.55 385.43 1223.36 387.843C1222.6 386.523 1221.86 385.204 1221.1 383.884Z" fill="white"/>
<path d="M315.01 417.741C312.15 412.421 310.093 408.565 308.036 404.709C308.818 404.276 309.62 403.843 310.402 403.41C312.356 406.606 314.31 409.802 316.326 413.101C320.235 408.379 323.691 403.925 327.435 399.719C331.405 395.265 333.277 385.862 343.131 392.914C339.325 398.997 335.787 405.101 331.796 410.895C328.011 416.4 323.732 421.555 319.659 426.875C320.338 427.618 321.037 428.339 321.716 429.082C324.802 426.69 327.867 424.319 330.953 421.927C328.484 427.143 329.204 435.886 319.391 432.793C318.651 432.567 317.252 433.165 316.676 433.824C307.151 444.629 297.73 455.496 287.629 467.084C280.1 464.775 279.277 462.816 285.387 454.96C295.199 442.34 305.279 429.907 314.989 417.741H315.01Z" fill="white"/>
<path d="M897.841 342.766C903.437 347.302 907.736 350.787 913.023 355.076C913.743 351.632 914.134 349.653 914.545 347.694C915.224 347.735 915.903 347.776 916.582 347.817V375.593C909.505 365.076 900.187 366.994 890.518 368.747C890.991 370.355 891.567 372.273 892.143 374.211C891.711 374.479 891.3 374.768 890.868 375.036C888.481 371.551 886.095 368.046 882.495 362.788C881.302 369.984 880.459 375.036 879.615 380.088C878.401 380.253 877.188 380.397 875.974 380.562C875.419 377.448 874.102 374.232 874.452 371.221C875.131 365.2 877.373 359.323 877.764 353.323C878.36 344.456 881.467 341.446 889.983 342.704C893.069 343.157 896.278 342.786 897.841 342.786V342.766Z" fill="white"/>
<path d="M1094.56 391.141C1095.43 389.203 1096.29 387.265 1097.13 385.347C1097.9 385.718 1098.66 386.089 1099.4 386.481C1096.29 368.006 1093.18 349.551 1090.1 331.075C1089.3 331.158 1088.49 331.22 1087.69 331.302L1086.77 347.778C1085.68 347.839 1084.59 347.922 1083.52 347.984C1083.52 342.891 1082.2 337.282 1083.93 332.869C1085.26 329.446 1090.41 327.529 1093.84 324.951C1095.71 327.735 1098.68 330.333 1099.25 333.364C1101.95 347.489 1103.98 361.737 1106.19 375.511C1111 376.625 1114.62 377.45 1118.24 378.275C1118.1 379.017 1117.93 379.78 1117.79 380.522C1114.46 380.068 1111.14 379.594 1108.12 379.182C1109.48 387.182 1111.53 394.606 1111.53 402.008C1111.53 404.483 1106.27 406.978 1103.41 409.452C1102.17 403.513 1101.1 397.554 1099.52 391.698C1099.36 391.121 1096.27 391.327 1094.54 391.183L1094.56 391.141Z" fill="white"/>
<path d="M515.314 454.569C507.744 457.518 503.794 456.92 502.621 450.218C501.716 445.042 502.663 441.97 508.793 443.207C510.788 443.599 513.134 444.63 514.82 443.991C528.377 438.877 532.779 450.589 539.671 457.476C540.781 458.59 541.399 462.095 540.596 462.961C534.734 469.271 528.747 475.581 522.082 480.983C520.334 482.385 516.055 480.653 512.928 480.344C514.409 477.849 516.034 475.416 517.31 472.818C519.079 469.23 522 465.415 521.712 461.91C521.485 459.105 517.248 456.61 515.335 454.548L515.314 454.569Z" fill="white"/>
<path d="M139.597 421.35C137.663 426.835 136.161 431.144 134.33 436.34C159.695 441.269 182.035 432.938 204.664 426.855C179.443 441.64 152.022 444.63 123.736 442.815C120.753 442.63 117.318 441.743 115.096 439.949C112.751 438.052 109.974 434.382 110.385 432.01C110.92 428.979 114.067 424.814 116.824 424.113C123.962 422.339 131.533 422.195 139.597 421.35Z" fill="white"/>
<path d="M1182.36 399.492C1186.66 405.018 1190.96 410.565 1195.26 416.091C1195.03 416.462 1194.81 416.854 1194.6 417.225C1187.34 411.782 1179.79 406.668 1172.88 400.791C1167.04 395.842 1162.65 395.801 1157.16 401.492C1148.56 410.4 1139.26 418.628 1130.25 427.123C1129.49 426.443 1128.75 425.783 1127.99 425.102C1134.39 418.545 1140.81 412.009 1148.85 403.761C1142.37 404.462 1138.3 404.915 1137.27 405.018C1151.09 391.883 1166.34 377.388 1181.58 362.912C1182.34 363.593 1183.1 364.294 1183.86 364.974C1181.29 368.129 1179.28 372.15 1176.03 374.253C1170.92 377.573 1166.3 381.718 1169.3 387.265C1172.01 392.275 1177.92 395.554 1182.4 399.595L1182.34 399.43L1182.36 399.492Z" fill="white"/>
<path d="M951.658 468.878C942.421 477.539 943.306 480.467 958.775 490.117C960.483 485.416 962.087 480.962 964.103 475.415C968.732 478.941 973.073 482.261 976.117 484.591C969.575 491.189 963.671 497.148 957.274 503.603C956.039 501.705 954.723 499.705 954.723 499.726H938.327C938.739 495.375 939.15 491.045 939.685 485.168C935.324 485.395 930.675 485.643 928.289 485.787C931.662 481.477 935.077 475.642 939.911 471.477C942.586 469.167 947.646 469.662 951.637 468.899L951.658 468.878Z" fill="white"/>
<path d="M1209.17 257.75C1207.5 253.172 1205.79 248.491 1203.22 241.419C1193.04 254.141 1184.46 264.843 1175.88 275.545C1175.27 275.132 1174.63 274.72 1174.01 274.328C1176.95 269.462 1179.34 264.142 1182.94 259.812C1191.17 249.935 1199.6 240.182 1208.82 231.253C1211.06 229.067 1217.99 228.552 1220.36 230.387C1224.33 233.459 1225.15 238.759 1220.6 243.563C1216.24 248.182 1212.58 253.461 1209.15 257.77L1209.17 257.75Z" fill="white"/>
<path d="M659.645 291.382C652.672 301.506 630.907 296.001 633.643 317.961C634.219 317.095 633.972 317.94 633.458 318.167C627.636 320.827 621.856 328.189 615.664 321.632C614.162 320.044 619.367 311.569 622.103 306.6C630.496 291.341 645.842 293.423 659.666 291.403L659.645 291.382Z" fill="white"/>
<path d="M1115.32 411.349C1116.51 417.803 1117.36 422.401 1118.3 427.473C1120.75 427.04 1122.89 426.649 1127.68 425.783C1111.43 444.712 1096.74 461.806 1082.06 478.9L1078.56 476.013C1082.59 471.043 1086.46 465.93 1090.7 461.146C1096.31 454.795 1102.75 449.083 1107.79 442.32C1110.01 439.33 1110.61 434.381 1110.34 430.443C1110.01 425.473 1108.04 420.628 1106.56 414.895C1109.25 413.802 1111.84 412.73 1115.34 411.328L1115.32 411.349Z" fill="white"/>
<path d="M686.693 705.679C685.356 709.7 684.677 711.762 683.998 713.824C684.8 713.556 685.603 713.288 686.405 713.02C688.544 717.247 690.704 721.495 692.844 725.722C688.935 727.536 685.171 730.031 681.056 730.98C675.996 732.155 670.647 732.073 664.147 732.65C665.114 727.784 666.327 721.577 666.944 718.422C674.494 713.535 679.616 710.236 686.693 705.658V705.679Z" fill="white"/>
<path d="M295.736 930.045C298.595 929.529 301.475 928.498 304.335 928.581C316.245 928.91 327.498 926.828 337.023 919.281C341.939 915.384 346.341 916.085 350.785 919.322C358.602 925.034 366.254 930.993 373.969 936.849C373.249 937.839 372.508 938.829 371.788 939.839C363.704 935.426 355.496 931.241 347.555 926.56C340.993 922.683 335.397 923.075 328.753 927.137C318.92 933.158 308.428 938.602 295.756 930.065L295.736 930.045Z" fill="white"/>
<path d="M618.869 513.996C626.439 516.573 634.009 519.212 641.621 521.707C649.623 524.326 657.769 526.491 665.648 529.378C671.84 531.646 677.744 534.677 683.771 537.379C683.216 538.719 682.661 540.08 682.105 541.42C677.168 539.812 672.169 538.348 667.273 536.574C654.457 531.914 641.559 527.44 629.01 522.182C625.205 520.594 622.366 516.656 619.095 513.789L618.848 513.996H618.869Z" fill="white"/>
<path d="M619.099 513.79C614.861 513.15 610.52 512.882 606.406 511.79C594.269 508.573 582.07 505.5 570.241 501.376C566.209 499.974 563.206 495.603 561.025 490.613C581.144 497.129 601.531 501.727 618.852 514.016C618.872 513.996 619.119 513.79 619.119 513.79H619.099Z" fill="white"/>
<path d="M842.582 463.311C839.044 455.723 835.526 448.134 831.967 440.567C829.827 436.03 827.709 431.556 834.271 428.752C840.339 426.153 844.701 428.607 846.058 434.443C847.725 441.66 848.609 449.207 848.65 456.589C848.65 458.733 844.536 460.898 842.314 463.043L842.623 463.29L842.582 463.311Z" fill="white"/>
<path d="M727.344 95.5534C732.035 94.2544 736.704 92.8935 741.415 91.6975C754.149 88.4189 761.884 81.0164 763.447 67.3041C764.435 58.6643 770.174 53.1794 778.444 49.2616C778.773 51.1999 779.411 52.5608 779.02 52.9732C769.577 63.4687 761.123 74.418 759.827 89.2644C759.724 90.3779 758.551 92.0893 757.564 92.3367C747.833 94.9142 738.041 97.2443 728.27 99.6362C727.961 98.2753 727.653 96.9143 727.344 95.5328V95.5534Z" fill="white"/>
<path d="M398.9 154.3C390.013 146.135 381.024 138.073 372.363 129.68C371.088 128.443 371.355 125.577 370.923 123.474C373.289 123.68 376.375 122.979 377.876 124.216C385.714 130.587 393.469 137.165 400.546 144.382C402.212 146.094 401.204 150.445 401.431 153.579L398.921 154.3H398.9Z" fill="white"/>
<path d="M232.373 306.887C226.243 280.514 220.113 254.121 213.982 227.748C215.217 227.439 216.451 227.129 217.685 226.799C219.804 235.625 221.84 244.471 224.042 253.275C227.827 268.472 231.776 283.628 235.479 298.866C236.24 301.98 239.223 306.702 232.065 306.558L232.394 306.887H232.373Z" fill="white"/>
<path d="M980.045 592.454C982.041 573.896 999.053 566.185 1008.06 552.699C1009.32 553.586 1010.57 554.493 1011.83 555.38C1002.08 568.288 992.326 581.175 982.596 594.083C981.753 593.547 980.909 592.991 980.066 592.454H980.045Z" fill="white"/>
<path d="M856.449 607.198C849.722 603.156 850.093 599.218 856.449 595.052C869.265 603.94 881.855 612.579 894.301 621.446C895.206 622.106 895 624.333 895.329 625.838C895.329 625.838 895.576 625.57 895.576 625.591C885.373 619.796 875.272 613.817 864.884 608.373C862.497 607.115 859.124 607.713 856.202 607.466L856.47 607.218L856.449 607.198Z" fill="white"/>
<path d="M218.282 941.118C218.158 932.519 207.111 925.281 217.541 915.013C220.195 912.394 218.611 905.796 219.907 901.28C220.545 899.032 223.301 897.403 224.453 896.166C223.754 912.415 223.137 926.869 222.519 941.344C221.121 941.262 219.701 941.2 218.302 941.118H218.282Z" fill="white"/>
<path d="M897.08 374.212C921.046 386.914 908.333 404.709 906.646 420.937C906.193 425.226 904.568 429.391 903.375 433.577C903.252 434.03 902.285 434.237 901.236 434.835C903.005 423.514 904.177 412.4 906.625 401.575C908.641 392.687 905.309 386.605 899.466 380.728C897.985 379.243 897.841 376.418 897.08 374.212Z" fill="white"/>
<path d="M856.186 607.445C860.444 611.878 865.299 615.878 868.837 620.827C881.489 638.416 893.687 656.335 906.051 674.13C905.125 674.79 904.199 675.429 903.274 676.089C887.66 653.118 872.067 630.147 856.453 607.197L856.186 607.465V607.445Z" fill="white"/>
<path d="M45.5027 863.793C56.673 866.185 68.0901 867.834 78.9107 871.299C84.4444 873.072 88.929 878.165 93.8867 881.732C93.3313 882.804 92.7965 883.897 92.241 884.97C86.4399 882.371 80.6181 879.815 74.8376 877.175C65.0661 872.721 55.2947 868.226 45.5233 863.752V863.772L45.5027 863.793Z" fill="white"/>
<path d="M537.098 360.274C552.733 358.748 568.367 357.222 583.939 355.717C581.594 364.769 563.656 367.223 537.098 360.274Z" fill="white"/>
<path d="M975.458 95.12C992.079 103.533 1008.7 111.925 1026.74 121.06C1023.68 121.328 1020.74 122.545 1018.86 121.617C1003.72 114.07 988.808 106.09 973.812 98.2542C974.367 97.2026 974.923 96.1716 975.478 95.12H975.458Z" fill="white"/>
<path d="M475.324 458.3C466.211 453.475 457.097 448.65 446.112 442.835C449.609 440.175 452.695 436.773 453.641 437.289C462.179 441.99 470.346 447.351 478.615 452.527C477.525 454.444 476.435 456.362 475.324 458.3Z" fill="white"/>
<path d="M1228.9 387.429C1250.08 399.389 1271.27 411.328 1292.44 423.288C1291.93 424.257 1291.41 425.226 1290.88 426.174C1269.61 414.421 1248.32 402.688 1227.04 390.935C1227.66 389.759 1228.28 388.605 1228.88 387.429H1228.9Z" fill="white"/>
<path d="M704.656 695.822C709.079 697.121 712.473 698.111 717.143 699.471C714.715 700.832 713.09 701.74 711.444 702.668C715.764 710.338 713.529 717.005 704.738 722.669C699.431 713.452 704.512 704.853 704.656 695.822Z" fill="white"/>
<path d="M613.48 782.591C612.699 786.179 612.123 788.798 611.855 790.077C592.436 791.582 582.952 809.418 567.051 815.254C577.419 797.129 597.805 789.788 613.48 782.612V782.591Z" fill="white"/>
<path d="M313.053 389.925C306.943 388.956 300.751 386.914 294.724 387.285C287.009 387.76 279.398 390.172 270.059 392.09C281.64 383.306 294.065 381.223 306.84 380.728C309.473 380.625 312.209 383.099 314.904 384.378C314.287 386.213 313.67 388.069 313.053 389.904V389.925Z" fill="white"/>
<path d="M655.098 571.627C669.95 585.01 684.782 598.413 699.635 611.795C698.688 612.806 697.742 613.816 696.775 614.826C682.087 601.114 667.42 587.422 652.732 573.71C653.514 573.009 654.316 572.308 655.098 571.607V571.627Z" fill="white"/>
<path d="M79.0762 184.961C75.7436 205.416 72.4317 225.871 69.0991 246.306C68.0294 246.141 66.9801 245.955 65.9104 245.79C69.3458 225.315 72.7607 204.839 76.1961 184.384C77.163 184.57 78.1093 184.776 79.0762 184.961Z" fill="white"/>
<path d="M764.68 607.652C769.205 608.126 773.752 608.58 778.586 609.075C769.905 627.426 758.837 636.149 748.12 634.788C755.587 628.787 763.774 622.189 773.155 614.642C768.814 612.147 766.613 610.868 764.412 609.611C764.494 608.951 764.597 608.312 764.68 607.652Z" fill="white"/>
<path d="M1014.46 444.154C1009.29 455.434 990.304 464.465 977.838 459.434C991.148 453.887 1002.81 449.021 1014.46 444.154Z" fill="white"/>
<path d="M855.87 742.671C862.371 743.537 867.144 743.784 863.009 752.548C861.301 756.177 863.955 761.889 864.613 766.405C853.834 765.992 851.777 761.724 855.891 742.671H855.87Z" fill="white"/>
<path d="M734.234 554.699C722.9 559.999 715.885 575.113 698.481 568.288C710.372 562.679 721.686 557.359 732.979 552.039C733.391 552.926 733.823 553.813 734.234 554.679V554.699Z" fill="white"/>
<path d="M1149.04 362.149C1148.77 375.037 1141.96 384.79 1133.9 393.801C1132.95 394.853 1130.44 394.481 1128.67 394.77C1128.47 392.997 1127.6 390.997 1128.18 389.533C1129.12 387.079 1130.54 383.573 1132.52 382.955C1142.91 379.697 1146.26 371.428 1149.04 362.149Z" fill="white"/>
<path d="M470.843 588.701C470.952 571.587 475.711 561.868 485.119 559.545C480.84 568.308 475.841 578.515 470.843 588.701Z" fill="white"/>
<path d="M1182.36 399.491L1182.43 399.656C1183.87 397.924 1184.98 395.429 1186.81 394.604C1195.74 390.666 1204.83 387.099 1213.96 383.655C1215.36 383.14 1217.25 383.964 1219.31 386.398C1206.99 390.769 1194.69 395.12 1182.36 399.491Z" fill="white"/>
<path d="M81.5859 824.76C69.4077 827.936 57.25 831.091 44.9278 834.307C47.6226 828.018 67.8648 821.502 81.5859 824.76Z" fill="white"/>
<path d="M784.041 508.634C768.489 510.222 752.958 511.83 737.406 513.418C737.303 512.346 737.2 511.273 737.097 510.201C752.628 508.551 768.18 506.922 783.712 505.273C783.815 506.386 783.918 507.5 784.02 508.634H784.041Z" fill="white"/>
<path d="M630.844 551.523C625.001 551.173 619.056 550.987 613.173 550.327C611.63 550.162 610.252 548.492 608.791 547.523C610.149 546.286 611.321 544.265 612.864 543.915C620.723 542.182 627.923 542.636 630.844 551.503V551.523Z" fill="white"/>
<path d="M238.587 483.952C242.797 476.817 247.981 478.577 254.139 489.23C251.794 490.88 249.407 492.55 247.474 493.89C244.408 490.467 241.837 487.601 238.566 483.952H238.587Z" fill="white"/>
<path d="M432.573 455.495C431.03 456.052 430.516 456.361 430.434 456.258C426.587 452.114 422.781 447.928 418.975 443.742C420.415 442.629 422.205 440.319 423.254 440.608C430.537 442.67 432.491 448.361 432.594 455.495H432.573Z" fill="white"/>
<path d="M25.6118 825.172C28.101 830.224 30.5901 835.296 33.6758 841.565C32.7706 842.472 30.4461 844.823 26.517 848.823C24.8301 840.018 23.493 833.131 22.1558 826.223C23.3078 825.873 24.4392 825.502 25.5912 825.151L25.6118 825.172Z" fill="white"/>
<path d="M314.601 993.101C310.528 982.75 306.454 972.399 302.381 962.047C303.163 961.759 303.945 961.47 304.747 961.161C308.758 971.553 320.381 979.162 314.58 993.101H314.601Z" fill="white"/>
<path d="M1393.39 348.086C1385.24 337.426 1377.07 326.765 1368.93 316.105L1371.07 314.496C1379.32 325.074 1387.57 335.652 1395.81 346.251C1395.01 346.87 1394.21 347.488 1393.41 348.107L1393.39 348.086Z" fill="white"/>
<path d="M1090.55 218.284C1098.86 207.891 1107.19 197.478 1115.5 187.086C1116.51 187.91 1117.54 188.756 1118.55 189.581C1109.89 199.787 1101.21 209.994 1092.54 220.222C1091.89 219.583 1091.21 218.943 1090.55 218.284Z" fill="white"/>
<path d="M432.044 200.056C434.04 202.386 435.665 203.603 436.323 205.211C438.031 209.315 439.306 213.604 440.746 217.81C436.159 217.006 431.571 216.202 428.321 215.645C429.679 209.954 430.625 205.974 432.044 200.077V200.056Z" fill="white"/>
<path d="M60.7891 270.204C53.6096 282.494 46.4509 294.783 39.2714 307.052C38.3251 306.516 37.3788 305.98 36.4326 305.444C43.6737 293.237 50.9148 281.03 58.156 268.823C59.0406 269.276 59.9045 269.73 60.7891 270.184V270.204Z" fill="white"/>
<path d="M125.26 287.422C125.672 291.814 126.063 296.206 126.371 299.506C121.743 301.444 117.237 303.3 110.49 306.104C115.201 298.413 119.171 291.917 123.141 285.443L125.26 287.422Z" fill="white"/>
<path d="M1032.93 532.491C1030.67 527.769 1029.48 525.295 1028.35 522.923C1032.77 520.305 1038.22 517.088 1043.65 513.851C1044.1 514.222 1044.58 514.572 1045.03 514.943C1041.04 520.717 1037.05 526.511 1032.91 532.491H1032.93Z" fill="white"/>
<path d="M1019.42 311.713L1019.99 311.053C1023.66 312.682 1027.32 314.311 1032.79 316.744C1027.42 323.26 1022.52 329.178 1017.65 335.117C1018.66 327.157 1026.95 320.229 1019.44 311.713H1019.42Z" fill="white"/>
<path d="M1096.13 292.619C1094.95 279.649 1104.09 285.113 1108.96 281.381C1109.19 285.815 1109.38 289.217 1109.56 292.619H1096.13Z" fill="white"/>
<path d="M1094.56 391.142C1096.29 391.307 1099.37 391.08 1099.54 391.657C1101.1 397.493 1102.19 403.472 1103.43 409.411C1091.78 407.555 1096.14 397.905 1094.56 391.142Z" fill="black"/>
<path d="M1028.59 435.186C1020.48 434.031 1014.77 433.227 1007.2 432.154C1016.1 423.865 1022.91 424.546 1028.59 435.186Z" fill="white"/>
<path d="M444.158 568.432C445.639 564.143 447.12 559.854 449.363 553.359C452.613 557.03 456.583 560.494 456.151 561.215C453.827 564.948 450.391 567.999 447.347 571.278C446.297 570.329 445.228 569.381 444.179 568.432H444.158Z" fill="white"/>
<path d="M121.949 269.174C115.058 270.845 108.742 272.35 100.966 274.226C104.175 269.463 107.097 265.112 110.367 260.266C114.831 263.689 118.37 266.432 121.949 269.174Z" fill="white"/>
<path d="M280.1 251.44V290.474C279.729 290.515 279.359 290.556 278.989 290.598C278.022 277.628 277.035 264.678 276.068 251.708C277.405 251.605 278.762 251.523 280.1 251.42V251.44Z" fill="white"/>
<path d="M695.329 442.464C692.408 440.505 689.117 438.938 686.689 436.484C685.044 434.814 684.632 431.948 683.686 429.618C686.401 429.886 690.084 429.144 691.626 430.608C694.362 433.226 695.802 437.206 697.777 440.608C696.954 441.227 696.152 441.846 695.329 442.464Z" fill="white"/>
<path d="M901.129 69.2213C892.345 65.6541 883.561 62.1074 874.777 58.5402C875.209 57.4679 875.641 56.4163 876.073 55.344C884.899 58.7876 893.724 62.2517 902.549 65.6952C902.076 66.8706 901.603 68.046 901.129 69.2213Z" fill="white"/>
<path d="M409.803 495.603C419.04 495.005 421.385 499.128 420.644 505.15C420.521 506.119 416.509 507.541 416.427 507.438C414.061 503.603 411.942 499.603 409.803 495.603Z" fill="white"/>
<path d="M711.687 232.099C719.175 235.336 726.663 238.553 734.172 241.791C733.514 243.234 732.835 244.657 732.176 246.1C724.915 242.388 717.653 238.677 710.391 234.945C710.823 233.996 711.255 233.048 711.687 232.099Z" fill="white"/>
<path d="M1172.73 60.272C1180.79 62.3753 1186.31 63.8186 1192.87 65.5301C1185.36 73.8193 1184.62 73.6132 1172.73 60.272Z" fill="white"/>
<path d="M461.889 429.432C466.065 429.226 470.22 428.999 474.396 428.793C474.252 431.206 474.088 433.618 473.944 436.031C469.85 435.577 465.757 435.123 461.663 434.69C461.745 432.938 461.827 431.185 461.91 429.453L461.889 429.432Z" fill="white"/>
<path d="M686.162 333.879L688.631 310.744C690.091 310.929 691.573 311.115 693.033 311.321C691.922 319.053 690.791 326.786 689.68 334.518C688.507 334.312 687.335 334.106 686.183 333.879H686.162Z" fill="white"/>
<path d="M314.576 993.122C323.854 989.328 333.111 985.513 342.389 981.719C333.913 987.534 326.96 997.452 314.617 993.122H314.576Z" fill="white"/>
<path d="M293.16 466.384L306.696 453.125C307.766 454.218 308.815 455.311 309.885 456.404C305.297 460.714 300.689 465.023 296.102 469.333L293.16 466.384Z" fill="white"/>
<path d="M162.847 316.93C170.89 320.127 176.198 322.23 181.073 324.168C183.727 321.859 186.031 319.879 189.98 316.436C185.455 329.756 177.329 329.777 162.847 316.93Z" fill="white"/>
<path d="M935.119 381.593C923.352 382.768 922.139 380.624 926.088 367.386C929.277 372.396 931.787 376.335 935.119 381.593Z" fill="white"/>
<path d="M827.668 502.551C830.26 500.407 831.7 499.128 833.223 497.974C836.164 495.726 839.127 493.52 842.089 491.293C842.315 492.777 843.262 495.107 842.665 495.582C838.756 498.84 837.46 507.046 827.668 502.551Z" fill="white"/>
<path d="M730.304 724.237C726.807 726.67 723.309 729.103 719.792 731.537C718.989 730.877 718.208 730.237 717.405 729.578C717.693 725.887 717.981 722.175 718.29 718.134C722.836 720.484 726.58 722.402 730.324 724.32L730.283 724.216L730.304 724.237Z" fill="white"/>
<path d="M601.57 650.169C615.147 651.386 628.169 652.54 641.211 653.716C641.602 654.809 642.013 655.881 642.404 656.974C626.832 666.376 611.28 675.779 593.959 686.233C596.695 673.222 599.04 662.129 601.57 650.169Z" fill="black"/>
<path d="M586.407 674.397C583.856 665.469 581.326 656.54 578.754 647.591C592.496 644.024 594.471 645.797 591.632 657.922C590.398 663.18 589.349 668.5 588.197 673.778C587.6 673.985 586.983 674.191 586.386 674.418L586.407 674.397Z" fill="black"/>
<path d="M635.799 672.687C639.523 671.408 643.246 670.109 647.319 668.707C649.315 671.326 651.084 673.677 654.869 678.646C646.764 677.739 641.292 677.12 635.82 676.502C635.82 675.244 635.82 673.965 635.799 672.707V672.687Z" fill="black"/>
<path d="M761.696 401.122C766.263 407.39 771.077 413.494 775.211 420.051C776.302 421.783 776.281 425.866 775.026 427.144C768.032 434.32 760.482 440.96 753.138 447.785C751.883 447.207 750.629 446.651 749.374 446.073C752.336 431.289 755.319 416.504 758.281 401.72L761.696 401.122Z" fill="black"/>
<path d="M775.134 401.595C781.409 404.688 787.683 407.781 796.117 411.926C791.921 415.039 787.395 419.101 786.901 418.668C781.841 414.153 777.459 408.894 772.872 403.843C773.633 403.1 774.373 402.358 775.134 401.616V401.595Z" fill="black"/>
<path d="M875.052 718.792C857.505 711.225 837.53 719.143 820.332 708.338C827.079 708.338 834.609 706.441 840.389 708.791C848.433 712.07 848.782 707.946 850.12 702.709C850.593 700.873 851.889 699.244 853.329 696.543C861.66 702.956 869.395 708.915 877.15 714.874C876.451 716.173 875.751 717.493 875.052 718.792Z" fill="black"/>
<path d="M344.966 898.455C353.956 891.32 360.456 892.826 367.266 903.692C360.559 902.125 353.832 900.538 344.966 898.455Z" fill="black"/>
<path d="M770.359 113.142L755.568 117.41C755.136 116.586 754.704 115.74 754.292 114.915C758.962 111.328 763.632 107.74 768.302 104.152C769.166 104.605 770.009 105.08 770.873 105.533C770.606 108.173 770.338 110.791 770.05 113.431L770.359 113.121V113.142Z" fill="black"/>
</g>
<defs>
<clipPath id="clip0_91_1204">
<rect width="1440" height="1031" fill="white" transform="matrix(-1 0 0 -1 1440 1031)"/>
</clipPath>
</defs>
</svg>
