<svg width="357" height="502" viewBox="0 0 357 502" fill="none" xmlns="http://www.w3.org/2000/svg">
<path fill-rule="evenodd" clip-rule="evenodd" d="M293.129 0.452594C291.167 0.449669 286.81 0.986099 283.446 1.64385C273.845 3.52315 267.322 7.45941 252.638 20.2349C243.876 27.859 241.83 29.1467 235.878 30.7883C231.7 31.9405 230.938 31.9344 222.596 30.688C217.487 29.9251 210.753 28.4634 206.662 27.2299C186.523 21.1583 169.28 20.9723 155.061 26.674C147.388 29.7507 146.938 30.1251 146.65 33.6578C146.354 37.3076 147.196 38.9845 151.99 44.2951C161.144 54.4337 166.227 63.2742 167.377 71.058C168.1 75.9544 168.578 84.1559 168.363 88.0024C168.255 89.9448 168.214 93.7219 168.272 96.396C168.458 104.989 166.518 116.717 163.475 125.399C155.793 147.316 150.295 156.646 138.898 167.106C123.294 181.426 120.034 183.427 95.1997 193.925C81.414 199.753 67.943 206.718 60.5781 211.824C54.917 215.75 44.3054 224.589 41.7908 227.474C37.653 232.22 35.7931 234.647 35.6433 235.497C35.5473 236.041 35.2461 236.288 34.9736 236.046C34.7018 235.803 33.642 236.839 32.6187 238.348C31.5956 239.857 29.9113 242.109 28.8764 243.353C27.8409 244.597 25.9077 247.466 24.5804 249.729C23.2524 251.991 21.8444 254.369 21.45 255.013C21.0562 255.657 20.5719 256.593 20.3741 257.093C20.1763 257.593 18.8847 260.429 17.5039 263.396C12.5925 273.949 10.792 279.716 8.39083 292.59C4.34194 314.298 4.23176 332.687 8.02024 354.452C10.2758 367.413 20.898 396.186 30.2736 414.733C32.6607 419.456 33.247 421.171 32.5691 421.45C31.8702 421.738 31.8411 421.86 32.4438 421.974C33.9519 422.258 34.1629 422.386 35.0821 423.568C36.2087 425.016 36.1207 426.361 34.9873 425.026C34.0392 423.908 33.8495 424.396 34.4831 426.325C34.9061 427.616 34.8485 427.638 33.6156 426.645C32.889 426.06 31.7855 425.571 31.1633 425.556C30.541 425.542 30.0856 425.229 30.1503 424.862C30.2152 424.494 29.9523 424.138 29.5654 424.07C29.1727 424 28.9101 424.526 28.9705 425.262C29.0707 426.496 28.1841 426.811 26.4341 426.161C26.1412 426.053 25.2965 426.343 24.5574 426.808C23.7447 427.318 22.6962 427.414 21.9046 427.05C20.6027 426.453 15.8842 427.502 14.8984 428.607C14.6194 428.92 13.7005 429.054 12.8555 428.905C12.0105 428.756 11.2697 428.917 11.2087 429.263C11.1477 429.609 11.381 429.942 11.727 430.003C12.0731 430.064 12.3063 430.397 12.2454 430.742C12.1844 431.088 11.7097 431.296 11.1906 431.205C10.6715 431.113 10.317 430.64 10.4028 430.154C10.5881 429.103 8.21895 429.095 6.4602 430.139C5.82973 430.514 5.17702 430.624 5.00961 430.385C4.8423 430.146 4.30092 430.464 3.80737 431.092C3.13918 431.942 3.09544 432.352 3.63447 432.695C4.07492 432.975 3.79215 433.224 2.9129 433.332C1.2744 433.533 0.384979 434.666 0.678368 436.177C0.818208 436.896 1.13914 437.052 1.75573 436.701C2.38976 436.339 3.18351 437.077 4.61708 439.36C5.97353 441.52 8.19924 443.652 11.6577 446.103C14.4391 448.075 16.8671 449.714 17.0521 449.747C17.2377 449.779 18.4843 450.543 19.8223 451.443C21.1603 452.343 24.2433 454.223 26.6732 455.62C29.1031 457.017 32.3876 458.954 33.9727 459.924C35.5572 460.894 37.9023 462.051 39.1839 462.494C40.4661 462.938 41.3428 463.493 41.1333 463.728C40.9237 463.964 41.5009 464.443 42.4169 464.793C45.8944 466.125 49.0236 467.691 50.5756 468.879C51.4612 469.555 53.5657 470.554 55.2534 471.096C57.406 471.788 58.0333 472.208 57.3539 472.504C56.6822 472.795 56.949 472.956 58.2241 473.029C59.2949 473.089 62.2968 474.52 65.4057 476.452C75.607 482.791 89.3752 488.951 103.974 493.706C111.478 496.15 140.952 501.36 148.959 501.658C172.077 502.518 187.828 500.554 201.68 495.085C207.426 492.816 214.815 486.108 218.218 480.072C220.397 476.207 226.557 471.017 238.496 462.989C243.354 459.722 249.875 454.851 252.987 452.164C258.118 447.735 267.124 438.606 267.29 437.666C267.327 437.457 267.919 436.993 268.607 436.636C269.699 436.069 269.752 435.886 269.024 435.189C268.566 434.75 268.411 434.389 268.679 434.386C268.948 434.384 269.386 434.379 269.654 434.376C271.031 434.362 271.886 433.5 271.8 432.212C271.731 431.189 272.995 429.427 276.184 426.092C278.648 423.517 281.353 420.11 282.194 418.522C283.036 416.933 284.488 415.129 285.421 414.513C286.354 413.896 287.207 412.913 287.317 412.329C287.426 411.744 288.227 410.427 289.097 409.401C291.73 406.296 298.978 392.202 298.526 391.066C298.41 390.776 298.972 389.384 299.776 387.971C301.917 384.207 305.558 376.089 306.071 373.936C306.756 371.059 308.45 366.647 309.102 366.04C310.577 364.667 316.853 335.653 315.866 334.774C315.609 334.545 315.796 333.692 316.282 332.878C316.925 331.8 316.949 331.484 316.367 331.716C315.811 331.937 315.778 331.569 316.259 330.493C317.879 326.87 316.909 310.837 314.049 293.961C311.832 280.872 314.952 265.575 325.861 236.062C332.12 219.13 335.732 206.784 341.465 182.722C351.516 140.541 356.735 109.604 356.975 90.7945C357.284 66.508 352.427 43.7682 344.076 30.401C337.584 20.01 328.202 11.8045 315.727 5.60643C311.039 3.2766 298.689 0.460165 293.129 0.452594ZM317.057 23.2137C319.719 25.155 326.303 32.2117 328.28 35.241C329.16 36.5907 330.912 39.0849 332.172 40.783C335.714 45.5562 342.135 68.2328 342.244 76.3505C342.287 79.4907 341.852 78.8441 341.062 74.5891C339.291 65.0492 335.238 51.9601 332.068 45.5379C324.91 31.0336 315.612 22.7358 304.853 21.2492C302.167 20.8774 301.104 20.2074 301.859 19.3614C302.668 18.4548 314.723 21.5103 317.057 23.2137ZM285.107 21.5575C285.376 22.234 279.33 24.265 278.895 23.6442C278.554 23.1574 279.881 22.1795 282.011 21.3489C283.629 20.718 284.803 20.7972 285.107 21.5575ZM275.216 24.7756C275.189 24.9284 274.853 25.1778 274.47 25.3306C274.086 25.4834 273.825 25.3084 273.889 24.9424C273.954 24.5763 274.29 24.3263 274.636 24.3873C274.982 24.4483 275.243 24.6228 275.216 24.7756ZM272.683 25.692C272.384 26.1898 272.028 26.4383 271.892 26.2445C271.757 26.0506 271.885 25.6226 272.179 25.2944C272.976 24.4 273.304 24.6589 272.683 25.692ZM302.115 31.8037C309.998 35.4788 316.574 41.3468 317.996 45.9746C318.343 47.1058 319.73 50.5731 321.076 53.6787C323.637 59.5843 327.214 76.1619 327.12 81.6824C327.093 83.2521 327.174 86.1599 327.301 88.1437C327.427 90.1276 327.467 92.9068 327.39 94.3198C326.415 112.118 324.819 130.22 323.688 136.315C323.161 139.157 320.47 155.384 317.709 172.373C312.108 206.836 309.364 218.385 304.606 227.52C300.901 234.631 294.031 239.085 286.943 238.972C284.324 238.93 278.841 236.551 277.261 234.771C276.882 234.345 276.365 234.139 276.114 234.315C275.861 234.491 276.089 234.897 276.619 235.215C277.15 235.533 277.534 236.074 277.474 236.415C277.3 237.4 272.411 232.945 268.336 228.088C266.284 225.641 264.327 223.591 263.987 223.531C263.648 223.471 262.839 222.599 262.189 221.593C261.54 220.586 260.851 219.735 260.658 219.702C259.633 219.521 256.177 215.199 256.533 214.542C256.796 214.057 256.504 213.77 255.747 213.766C255.086 213.763 254.638 213.485 254.752 213.148C254.951 212.563 253.933 210.871 253.107 210.413C252.161 209.888 239.185 190.494 237.69 187.369C235.763 183.342 232.162 173.862 231.252 170.421C228.439 159.778 227.7 154.322 227.163 140.196C226.891 133.045 227.096 131.017 229.515 116.942C234.018 90.7341 238.732 76.7319 248.548 60.4C254.675 50.2038 257.494 44.3349 256.79 43.2348C256.36 42.5637 256.455 42.4788 257.183 42.8865C257.816 43.2413 258.175 43.0848 258.237 42.4272C258.289 41.8787 258.777 41.3819 259.323 41.3231C260.204 41.2288 260.197 41.2729 259.253 41.718C258.67 41.9931 258.488 42.2749 258.848 42.3443C259.469 42.4628 261.475 40.9684 266.635 36.5428C269.305 34.2525 275.755 31.5873 282.603 29.9455C285.33 29.2916 287.682 28.672 287.83 28.569C287.978 28.4667 290.199 28.6612 292.766 29.0016C296.035 29.4354 298.834 30.2745 302.115 31.8037ZM270.306 26.8661C270.245 27.212 269.895 27.4421 269.529 27.3775C269.163 27.313 269.087 27.0079 269.362 26.6997C269.637 26.3915 269.987 26.1613 270.14 26.1883C270.293 26.2152 270.367 26.5202 270.306 26.8661ZM268.554 27.9546C268.753 28.4534 268.629 28.5404 268.228 28.1825C267.872 27.8655 267.535 27.8638 267.48 28.1789C267.342 28.9574 259.382 33.1694 256.598 33.9371C255.363 34.2771 252.486 35.2069 250.205 36.0036C240.502 39.3915 235.813 40.534 234.91 39.7289C234.268 39.1574 235.284 37.5506 236.187 37.7092C236.583 37.779 238.905 37.2662 241.347 36.5705C243.789 35.8753 246.124 35.2957 246.538 35.2837C246.951 35.2715 248.503 34.7165 249.988 34.0497C251.472 33.3829 253.064 32.9043 253.527 32.9858C253.989 33.0673 256.156 32.1362 258.342 30.9168C260.528 29.6973 262.646 28.7512 263.048 28.8143C263.45 28.8774 264.585 28.5003 265.569 27.9762C267.658 26.8642 268.119 26.8611 268.554 27.9546ZM230.049 33.723C229.301 34.2468 218.731 33.9808 215.637 33.3607C213.158 32.8638 213.848 32.7851 218.947 32.9859C222.491 33.1257 225.835 33.1999 226.379 33.1512C227.894 33.0156 230.483 33.419 230.049 33.723ZM202.554 135.155C202.529 135.299 202.605 135.918 202.724 136.53C202.903 137.451 202.583 137.542 200.851 137.062C197.992 136.272 197.829 134.051 200.667 134.551C201.73 134.739 202.58 135.01 202.554 135.155ZM203.375 145.204C203.304 145.616 202.931 146.078 202.547 146.231C201.416 146.681 201.118 149.745 202.226 149.53C202.786 149.422 203.21 149.863 203.271 150.618C203.331 151.354 203.056 151.832 202.616 151.755C202.123 151.668 201.813 152.39 201.729 153.824C201.614 155.799 201.47 155.968 200.339 155.449C199.614 155.116 199.025 155.168 198.954 155.572C198.886 155.959 199.137 156.329 199.511 156.395C200.635 156.593 199.542 157.894 198.284 157.858C196.39 157.803 195.488 156.947 195.82 155.517C195.991 154.781 196.073 153.73 196.001 153.182C195.93 152.634 195.948 152.388 196.041 152.634C196.212 153.084 198.744 153.081 198.824 152.631C198.847 152.499 198.423 151.758 197.881 150.985C197.241 150.071 196.644 149.755 196.174 150.084C195.705 150.413 195.661 150.042 196.048 149.025C196.375 148.163 196.926 147.509 197.272 147.57C197.618 147.631 197.857 147.131 197.802 146.459C197.635 144.416 198.887 143.536 201.284 144.013C202.557 144.265 203.45 144.774 203.375 145.204ZM204.072 153.632C203.513 154.562 202.355 154.679 202.512 153.79C202.629 153.124 203.44 152.548 204.096 152.664C204.373 152.713 204.363 153.149 204.072 153.632ZM205.627 155.852C205.734 156.406 205.548 156.811 205.214 156.752C204.878 156.693 204.679 156.22 204.77 155.701C204.862 155.182 205.048 154.777 205.184 154.801C205.32 154.825 205.519 155.298 205.627 155.852ZM201.829 161.343C201.768 161.689 201.418 161.919 201.052 161.854C200.686 161.789 200.61 161.484 200.885 161.176C201.16 160.868 201.51 160.638 201.662 160.665C201.815 160.692 201.89 160.997 201.829 161.343ZM273.408 232.226C273.149 232.516 273.368 233.014 273.897 233.331C275.194 234.11 275.598 233.721 274.651 232.605C274.191 232.064 273.69 231.91 273.408 232.226ZM305.295 251.565C305.073 252.823 304.647 253.396 304.018 253.285C302.889 253.086 303.112 251.108 304.362 250.233C305.609 249.36 305.668 249.445 305.295 251.565ZM195.983 326.91C195.335 327.673 195.251 327.619 195.407 326.539C195.587 325.291 195.574 325.288 194.45 326.332C193.362 327.342 193.325 327.31 193.625 325.609C193.798 324.63 194.499 323.553 195.183 323.215C196.268 322.679 196.446 322.819 196.585 324.308C196.671 325.247 196.401 326.418 195.983 326.91ZM192.454 328.574C192.427 328.727 192.091 328.976 191.707 329.129C191.323 329.282 191.062 329.107 191.127 328.741C191.191 328.375 191.527 328.124 191.873 328.185C192.219 328.247 192.481 328.421 192.454 328.574ZM270.71 433.659C270.179 434.031 269.88 434.016 269.949 433.623C270.097 432.783 270.973 432.17 271.318 432.664C271.465 432.874 271.192 433.322 270.71 433.659Z" fill="white"/>
</svg>
