<svg width="1440" height="1024" viewBox="0 0 1440 1024" fill="none" xmlns="http://www.w3.org/2000/svg">
<g clip-path="url(#clip0_86_1085)">
<rect width="1440" height="1024" fill="#E8350D"/>
<mask id="mask0_86_1085" style="mask-type:alpha" maskUnits="userSpaceOnUse" x="0" y="-1" width="1443" height="1025">
<rect y="-0.000488281" width="1443" height="1024" fill="#D9D9D9"/>
</mask>
<g mask="url(#mask0_86_1085)">
</g>
<g clip-path="url(#clip1_86_1085)">
<path d="M788.767 106.251C799.258 109.542 809.718 112.79 820.977 116.342C821.111 118.556 821.478 124.621 821.647 127.631C798.326 123.634 774.001 119.466 748.141 114.999C741.276 140.514 745.087 166.574 749.783 192.584C750.489 196.52 752.548 199.961 753.077 203.899C754.884 217.571 759.188 225.779 769.258 228.01C789.545 232.473 809.668 238.619 831.055 244.402C813.94 250.724 798.149 256.55 780.387 263.142C794.655 291.83 809.518 313.072 831.194 322.13C844.709 327.792 857.853 335.361 871.17 342.176C900.998 357.421 931.247 357.207 960.998 344.86C973.198 339.813 983.686 326.142 995.696 319.236C1015.28 307.936 1035.5 299.023 1055.39 288.872C1058.45 287.3 1061.26 284.49 1063.52 278.716C1053.8 280.911 1044.09 283.061 1034.17 285.302C1031.24 267.562 1037.1 262.737 1045.9 260.018C1086.56 247.505 1127.31 235.523 1167.72 221.329C1186.22 214.82 1203.95 203.666 1222.05 194.591C1222.8 201.524 1209.69 216.617 1182.71 239.869C1183.02 241.639 1183.33 243.452 1183.66 245.221C1192.75 241.702 1202.05 239.023 1210.92 234.531C1235.45 222 1259.8 208.585 1284.3 195.832C1287.82 193.991 1291.83 194.14 1296.93 193.129C1295.96 211.295 1295.57 221.928 1279.66 224.299C1258.84 227.415 1238.74 240.756 1217.55 250.03C1228.18 277.592 1247.91 241.178 1255.99 270.13C1253.49 267.668 1251 265.25 1246.22 260.589C1251.22 275.612 1273.86 287.853 1279.71 280.858C1282.43 277.605 1285.7 269.521 1284.74 266.295C1277.25 241.368 1290.2 254.519 1295.33 251.294C1294.74 258.739 1294.28 264.411 1293.47 274.781C1300.58 267.245 1305.73 261.806 1312.63 254.449C1313.51 256.79 1315.34 261.649 1315.61 262.355C1324.62 261.096 1330.99 260.608 1337.26 259.234C1341.09 258.41 1346.74 257.971 1348.16 254.329C1356.79 232.477 1364.75 248.542 1373.88 255.431C1390.49 240.122 1393.76 193.948 1423.05 204.547C1408.58 189.192 1394.54 195.714 1379.63 205.254C1379.85 198.786 1379.99 194.046 1380.18 187.755C1373.17 193.253 1366.58 198.349 1360.01 203.488C1358.76 202.124 1357.51 200.716 1356.26 199.352C1358.9 192.335 1361.53 185.363 1365.15 175.771C1350.02 183.629 1335.77 191.038 1324.84 196.696C1305.59 183.811 1289.76 172.408 1271.39 192.735C1269.75 185.306 1268.47 179.557 1266.33 170.006C1284.56 167.042 1301.53 164.264 1318.52 161.486C1318.89 163.742 1319.26 165.998 1319.6 168.255C1316.79 170.622 1313.97 172.945 1308.52 177.501C1315.47 176.965 1319.68 175.208 1323.26 176.732C1326.89 178.301 1329.97 183.063 1336.53 189.748C1333.25 176.839 1331.1 168.394 1328.98 160.083C1355.08 145.282 1368.12 150.681 1371.47 178.206C1383.97 173.113 1399.59 180.088 1407.16 154.922C1405.59 153.87 1403.19 152.248 1397.95 148.698C1405.81 146.959 1411.83 143.152 1416.35 145.644C1418.93 147.043 1419.01 158.824 1421.26 172.184C1423.38 159.457 1424.68 151.609 1426.07 143.317C1437.72 140.311 1443.28 150.812 1443.86 178.888L1444.36 178.087C1441.45 179.968 1438.58 181.893 1434.7 184.445C1440.3 195.434 1445.02 204.746 1449.8 214.145C1442.64 218.98 1429.03 211.458 1430.65 228.72C1438.11 228.667 1444.46 229.951 1450.4 228.137C1454.58 226.867 1458.26 221.482 1462.04 217.646C1464.44 215.237 1466.63 212.298 1468.94 209.625L1469.91 209.706C1478.59 210.752 1487.23 211.754 1499.15 213.175C1498.81 205.692 1498.13 198.434 1498.26 191.258C1498.35 186.695 1498.96 181.332 1500.7 177.998C1501.49 176.531 1505.69 179.114 1508.38 179.848C1507.62 180.517 1506.83 181.187 1506.04 181.857C1505.44 193.82 1504.44 205.785 1504.49 217.743C1504.52 220.932 1507.78 224.053 1509.54 227.23C1506.17 234.384 1502.8 241.539 1498.42 250.871C1496.64 240.609 1495.13 232.027 1492.39 216.323C1488.11 227.781 1485.68 234.264 1482.99 241.414C1475.54 243.371 1466.25 245.829 1457.15 248.241C1459.62 242.51 1461.68 237.712 1463.74 232.914C1462.75 231.592 1461.77 230.271 1460.79 228.993C1455 236.342 1449.22 243.691 1443.34 251.129C1442.24 249.321 1440.06 245.749 1440.84 246.984C1432.88 251.513 1427.44 257.797 1422.83 256.634C1410.22 253.446 1404.72 263.406 1403.53 278.606C1403.37 280.733 1416.89 287.945 1424.21 288.425C1436.86 289.265 1449.64 287.137 1462.28 285.364C1477.48 283.174 1492.64 280.011 1508.45 277.197C1506.29 271.986 1503.49 267.09 1504.01 266.112C1506.72 260.911 1510.28 256.722 1514.43 250.89C1513.09 244.655 1511.17 235.722 1509.25 226.745C1523.14 231.563 1525.24 237.615 1520.55 258.244C1526.82 260.724 1533.09 263.248 1540.42 266.163C1541.95 257.471 1543.57 248.469 1545.16 239.467C1546.4 239.547 1547.64 239.626 1548.88 239.706C1549.51 246.08 1550.14 252.409 1550.75 258.561C1598.71 249.185 1659.73 152.244 1655.13 85.5753C1640.47 83.5091 1626.15 81.6175 1611.9 79.3713C1607.05 78.6085 1601.98 78.0688 1597.57 75.3541C1591.97 71.8949 1580.27 81.146 1582.13 60.0064C1582.21 59.2086 1578.07 57.2894 1575.82 56.2867C1560.82 49.4839 1545.22 44.811 1531 35.3895C1522.41 29.6928 1516.82 14.2309 1508.31 7.73638C1499.68 1.15408 1489.29 -1.11954 1479.49 -2.91017C1455.84 -7.30422 1431.66 -7.39837 1408.44 -14.6743C1377.91 -24.2458 1348 -38.5164 1318.04 -51.8566C1309.22 -55.7801 1301.32 -64.3606 1292.56 -68.5946C1287.59 -70.9953 1281.68 -68.96 1278.02 -68.9341C1273.05 -76.6053 1267.94 -85.9588 1261.9 -93.6224C1241.99 -118.727 1221.71 -143.119 1201.67 -167.912C1197.26 -173.373 1193.18 -179.412 1187.82 -186.77C1189.95 -194.093 1192.77 -203.68 1195.94 -214.465C1257.21 -81.3649 1435.56 22.5142 1507.6 -34.1128C1480.26 -69.1737 1453.56 -103.397 1425.27 -139.692C1435.32 -143.661 1446 -147.811 1458.73 -152.818C1452.59 -157.381 1447.52 -161.154 1442.54 -164.883C1437.44 -160.595 1432.37 -156.396 1426.66 -151.572C1422.7 -185.381 1424.55 -195.138 1442.42 -232.292C1398.05 -235.874 1355.95 -239.252 1314.86 -242.592C1316.91 -255.938 1319.37 -271.811 1322.27 -290.478C1327.09 -288.12 1332.15 -285.676 1335.73 -283.93C1341.43 -287.115 1346.21 -290.825 1351.27 -292.455C1384.86 -303.235 1418.73 -304.937 1452.59 -294.99C1467.04 -290.752 1481.26 -284.564 1495.54 -279.085C1503.44 -276.041 1511.16 -271.622 1519.17 -269.553C1534.82 -265.457 1540.45 -245.344 1549.56 -224.416C1551.66 -240.464 1568.27 -226.896 1566.25 -245.262C1598.54 -256.386 1631.87 -267.872 1665.19 -279.27C1679.69 -284.245 1693.4 -292.802 1708.81 -277.719C1714.78 -271.916 1726.32 -279.04 1736.04 -283.759C1725.5 -290.549 1714.95 -297.34 1704.47 -304.041C1728.8 -294.825 1752.59 -278.65 1782.04 -291.836C1772.62 -294.028 1766.89 -295.804 1761.07 -296.604C1742.27 -299.172 1723.47 -301.43 1704.65 -303.777C1693 -304.314 1681.09 -307.242 1669.79 -304.681C1659.04 -302.258 1648.93 -294.036 1638.03 -288.113C1644.87 -306.099 1655.35 -311.931 1667.76 -312.063C1699.99 -312.292 1732.24 -312.521 1764.59 -311.953C1760.46 -311.437 1756.37 -310.876 1752.25 -310.359C1752.26 -308.455 1752.27 -306.507 1752.29 -304.602L1833.36 -305.178C1833.38 -303.229 1833.39 -301.236 1833.41 -299.287L1813.8 -299.148C1813.72 -298.217 1813.64 -297.243 1813.56 -296.312C1823.36 -293.37 1833.2 -290.428 1844.11 -287.139C1840.02 -285.959 1836.96 -285.095 1830.04 -283.142C1853 -263.463 1872.88 -246.375 1891.83 -230.122C1872.03 -219.751 1868.23 -219.458 1845.25 -225.85C1832.13 -229.477 1818.98 -233.99 1805.76 -235.313C1801.42 -235.725 1796.77 -227.366 1791.17 -222.011C1797.13 -222.053 1803.47 -222.187 1809.81 -222.143C1813.7 -222.082 1818.9 -223.98 1821.22 -220.984C1836.34 -201.427 1853.46 -211.602 1869.88 -211.541C1872.83 -211.562 1875.78 -211.451 1878.73 -211.294C1892.59 -210.595 1908.74 -216.733 1911.59 -188.364C1901.74 -180.277 1892.25 -171.042 1882.01 -164.37C1847.55 -141.98 1813.53 -117.335 1774.74 -115.687C1766.66 -115.364 1760.25 -109.206 1761.38 -94.8641C1762.65 -78.7957 1770.47 -85.9377 1776.21 -86.4214C1778.16 -86.6124 1780.09 -88.1318 1781.98 -87.968C1821.96 -84.5313 1861.94 -80.3861 1901.97 -77.747C1913.65 -76.9884 1915.89 -69.1207 1915.23 -54.1016C1914.64 -41.0318 1915.26 -27.7936 1915.32 -19.8661C1888.56 -1.51718 1864.59 14.9074 1839.39 32.1823C1841.61 37.5257 1843.44 42.4287 1845.59 46.9753C1876.45 111.774 1869.75 185.92 1847.37 230.723C1823.09 279.216 1785.39 288.74 1754.61 251.489C1751.7 247.966 1752.37 234.143 1754.02 226.425C1756.82 213.516 1761.78 201.744 1766.19 188.338C1777.41 193.706 1789.63 200.705 1802.26 205.311C1830.49 215.607 1851.42 182.108 1844.1 139.198C1835.79 90.6708 1817.17 54.5737 1786.82 32.7768C1784.69 31.2418 1782.2 30.2407 1779.84 30.036C1763.17 28.5599 1746.28 29.5656 1729.92 25.5185C1701.6 18.5002 1683.95 45.2439 1665.09 67.9657C1661.56 72.2426 1660.78 84.0292 1660.87 92.3551C1661.35 134.737 1653.71 175.273 1634.98 204.372C1617.75 231.157 1593.75 248.069 1572.76 269.344C1564.56 277.64 1556.4 285.98 1546.8 295.748C1540.39 286.537 1534.22 285.385 1532.43 307.144C1531.94 312.994 1526.61 317.904 1523.52 323.24C1512.13 309.016 1500.98 300.635 1485.53 304.465C1466.78 309.071 1447.43 308.013 1428.47 311.115C1421.05 312.319 1414.17 319.765 1406.72 321.279C1401.04 322.427 1394.79 319.193 1388.94 317.109C1379.75 313.852 1370.75 309.31 1361.51 306.718C1358.97 306.028 1355.63 310.038 1353.03 312.758C1350.95 314.898 1349.44 318.275 1347.69 321.122C1346.48 317.012 1345.28 312.901 1343.7 307.642C1341.48 309.474 1339.25 311.306 1340.71 310.099C1333.74 303.461 1328.83 296.675 1323.09 293.97C1318.68 291.919 1313.25 295.014 1308.27 295.802C1308.22 297.884 1308.18 299.966 1308.14 302.048C1303.4 295.881 1298.7 289.714 1294.12 283.767C1281.94 312.996 1298.45 337.239 1304.71 362.75C1316.59 367.006 1327.86 372.108 1339.37 374.462C1342.53 375.104 1346.09 366.044 1350.06 364.377C1359.26 360.547 1368.77 358.354 1378.19 355.851C1380.43 355.259 1384.82 355.715 1384.86 356.202C1386 372.094 1392.94 364.693 1396.24 361.082C1398.38 358.763 1397.55 350.398 1398.21 343.175C1400.33 342.717 1404.1 341.848 1406.01 341.392C1411.14 349.461 1415.28 355.986 1419.43 362.511C1418.69 362.694 1417.93 362.877 1417.19 363.059C1422.15 384.239 1427.07 405.374 1432.3 427.748C1434.9 427.951 1438.38 428.192 1445.28 428.719C1434.82 416.569 1430.56 407.033 1447.77 404.74C1441.33 398.763 1437.35 395.07 1429.99 388.213C1429.27 378.652 1427.94 360.99 1426.48 341.999C1430.16 341.53 1434.19 341.015 1440.03 340.265C1437.92 346.834 1436.62 350.918 1435.67 353.893C1447.68 358.989 1460.2 362.709 1471.52 370.468C1473.98 372.134 1472 388.491 1472.07 398.057C1470.45 398.379 1468.83 398.745 1467.21 399.066C1465.11 393.058 1463 387.005 1460.62 380.201C1457.23 388.153 1454.13 395.394 1450.7 403.302C1452.11 406.348 1454.21 410.807 1455.94 414.559L1477.23 414.408C1474.32 419.921 1472.23 423.877 1470.16 427.79C1473.35 428.564 1476.54 429.826 1479.76 430.069C1484.92 430.431 1490.08 430.084 1495.74 430.044C1496.32 436.728 1496.83 443.058 1497.41 449.786C1504.26 426.13 1515.05 425.478 1535.16 447.037C1535.28 436.318 1521.9 411.242 1495 371.808C1500.74 362.245 1506 359.993 1513.62 369.195C1538.6 399.313 1558.34 434.516 1569.04 480.856C1574.31 503.584 1582.33 524.919 1590.77 546.65C1590.4 540.939 1590.07 535.228 1589.7 529.606C1598.5 523.166 1619.27 636.047 1615.89 667.605C1614.84 677.534 1616.54 688.107 1616.93 697.627C1645.94 701.54 1668.81 678.834 1691.67 655.021C1686.88 658.022 1682.01 660.803 1677.31 664.069C1672.44 667.47 1667.75 671.489 1662.91 675.067C1659.39 677.661 1655.94 681.361 1652.2 682.096C1647.79 682.969 1643.14 681.231 1638.6 680.643C1641.1 675.089 1642.75 667.326 1646.24 664.334C1655.53 656.296 1665.48 649.803 1675.43 643.532C1685.82 636.992 1693.78 629.096 1688.31 605.661C1691.28 634.428 1701.33 624.746 1711.51 621.972C1733.14 616.061 1755.08 612.716 1776.72 608.355C1782.3 625.412 1779.16 631.723 1768.29 633.085C1751.67 635.196 1735.1 638.458 1718.58 641.941C1713.02 643.088 1707.64 646.315 1699.53 649.694C1708.66 659.949 1721.4 664.465 1706.39 685.964C1746.16 677.311 1780.55 669.847 1814.43 662.52L1814.19 628.551C1807.88 627.799 1802.18 627.131 1795.31 626.338C1794.94 620.229 1794.57 614.075 1794.21 608.275C1801.17 601.45 1817.22 609.928 1810.92 586.942C1800.02 571.252 1779.98 605.763 1773.04 566.882C1785.22 563.429 1795.81 560.475 1806.23 557.522C1802.03 468.617 1797.7 377.366 1793.22 282.528C1804.91 283.862 1814.29 284.903 1825.24 286.154C1832.72 393.726 1840.04 498.598 1847.43 604.797L1869.36 604.642C1872.79 617.284 1873.61 625.561 1862.13 627.813C1844.32 631.349 1842.04 638.851 1848.19 665.603C1868.42 642.517 1892.47 653.108 1915.19 647.721C1918.51 662.446 1917.27 670.028 1906.63 670.813C1892.66 671.842 1878.76 674.199 1865.04 681.25C1877.22 681.164 1889.42 680.634 1901.6 681.212C1906.62 681.442 1911.73 683.576 1916.5 686.156C1917.27 686.549 1917.25 696.913 1915.99 697.852C1909.83 702.369 1903.29 706.844 1896.58 708.309C1890.75 709.546 1884.54 706.667 1878.48 705.647C1878.12 707.687 1877.78 709.771 1877.41 711.811C1880.13 717.505 1882.88 723.243 1885.49 728.673C1895.15 726.7 1904.71 724.772 1916.08 722.476L1916.59 794.887C1909.4 798.614 1901.67 802.655 1893.94 806.652C1893.95 808.158 1893.97 809.664 1893.98 811.169C1900.92 812.98 1907.89 814.747 1918.2 817.419C1917.53 831.597 1919.79 851.069 1914.82 864.435C1911.58 873.184 1897.84 873.104 1889.63 880.824C1895.86 881.223 1902.08 881.622 1912.32 882.302C1889.96 906.599 1868.36 887.132 1846.05 901.064C1848.02 954.331 1850.21 1013.8 1852.22 1068.17C1870.92 1065.16 1888 1056.98 1903.07 1062.23C1911.11 1065.01 1915.63 1091.02 1921.72 1106.57L1919.08 1112.34C1908.13 1110.82 1893.13 1115.23 1887.31 1106.23C1880.43 1095.56 1860.23 1104.12 1864.42 1075.3C1863.61 1081.16 1862.82 1087.01 1861.73 1094.99C1859.58 1095.62 1855.11 1096.94 1848.61 1098.89C1870.34 1128.19 1898.58 1114.44 1922.61 1131.49C1896.92 1159.85 1873.41 1129.27 1852.08 1131.46L1852.41 1177.39C1859.35 1188.19 1863.86 1195.2 1868.36 1202.21L1866.44 1205.59C1862.88 1203 1859.29 1200.46 1854.23 1196.82L1854.95 1298.42C1889.86 1282.22 1902.49 1241.96 1918.52 1203.98C1919.28 1207.39 1921.02 1211.54 1920.99 1215.61C1920.75 1256.05 1917.5 1296.95 1920.91 1336.66C1922.58 1356.27 1915.1 1374.12 1920.76 1394.19C1922.69 1401 1913.65 1414.75 1909.25 1426.3C1911.48 1425.04 1914.48 1423.29 1917.5 1421.59C1924.67 1443.28 1924.38 1444.21 1908.31 1443.97C1901.71 1443.89 1895.06 1442.16 1888.49 1442.39C1880.38 1442.71 1876.62 1461.25 1880.77 1484.61C1877.41 1481.13 1875.3 1478.98 1873.2 1476.82C1872.14 1477.85 1871.06 1478.92 1870 1479.94C1872.76 1486.13 1875.52 1492.35 1878.09 1498.18C1864.59 1506.42 1839.76 1485.3 1834.69 1530.24C1834.28 1523.38 1833.91 1516.52 1833.17 1503.24C1824.6 1522.3 1817.38 1538.38 1809.22 1556.6C1807.1 1548.2 1805.67 1542.5 1803.46 1533.74C1801.43 1543.32 1800.06 1549.8 1798.58 1556.9C1795.39 1547.84 1792.38 1539.31 1790.73 1534.54C1782.57 1540.98 1775.65 1546.43 1767.3 1553.04C1766.95 1545.16 1766.67 1539.18 1766.35 1531.61C1769.93 1533.01 1772.5 1533.96 1775.57 1535.14C1778.68 1523.51 1784.32 1513.02 1774.18 1500.91C1772.4 1498.75 1777.68 1483.26 1782.86 1473.65C1783.93 1478.43 1784.15 1484.54 1786.29 1487.62C1788.47 1490.75 1792.57 1490.95 1795.79 1492.43C1798.94 1466.36 1803.36 1490.56 1804.95 1491.12C1817.39 1473.45 1828.92 1457.12 1840.45 1440.78C1839.64 1439.19 1838.86 1437.56 1838.06 1435.97C1830.27 1443.78 1822.48 1451.58 1810.89 1463.22C1813.4 1443.59 1815.43 1430.46 1816.66 1417.16C1817.24 1411 1816.96 1404.23 1815.85 1398.21C1814.56 1391.09 1808.95 1381.57 1820.46 1387.55C1820.87 1382.77 1822.6 1376.95 1821.39 1373.33C1817.78 1362.37 1819.2 1363.56 1821.68 1351.27C1824.67 1336.41 1824.58 1319.98 1824.97 1304.17C1825.41 1287.02 1824.85 1269.8 1828.11 1252.01C1831.27 1264.61 1834.39 1277.26 1837.55 1289.86C1838.67 1289.41 1839.78 1289 1840.9 1288.55C1840.82 1276.99 1840.97 1265.43 1840.54 1253.87C1840.39 1249.8 1839.04 1242.68 1837.68 1242.38C1813.23 1236.53 1823.51 1206.03 1822.61 1187.92C1821.41 1163.53 1820.08 1151.31 1804.53 1140.79C1792.95 1132.95 1788.26 1116.55 1794.64 1101.98C1795.71 1107.06 1796.51 1110.91 1796.87 1112.72C1803.8 1109.09 1810.82 1105.4 1819.11 1101.05C1818.03 1098.89 1815.04 1092.97 1811.72 1086.31C1814.49 1086.07 1817.23 1085.87 1822.3 1085.48C1820.06 1077.79 1818.13 1071.2 1816.04 1064L1821.91 1063.96C1822.76 1029.54 1816.46 1023.47 1789.13 1031.64C1786.48 1032.41 1783.9 1033.76 1780.11 1035.33C1781.12 1044.85 1782.22 1055.25 1783.52 1067.64C1790.44 1065.86 1796.41 1064.27 1804.03 1062.31C1802.34 1068.53 1800.99 1073.58 1799.21 1080.11C1794.73 1076.24 1791.08 1073.12 1784.94 1067.85C1784.25 1083.76 1783.67 1096.96 1783.08 1110.12C1784.09 1110.02 1785.12 1109.93 1786.12 1109.83C1784.58 1113.74 1781.26 1118.41 1781.84 1121.47C1783.86 1132.26 1778.01 1138.99 1777.12 1146.35C1773.74 1173.39 1762.21 1189.41 1749.65 1205.58C1742.72 1214.49 1735.77 1223.62 1729.71 1233.84C1724.23 1243.14 1719.98 1254.02 1713.53 1267.71C1706.26 1269.49 1695.01 1271.47 1684.01 1275.14C1672.71 1278.89 1670.98 1287.99 1678.27 1302.2C1681.26 1308.02 1681.91 1316.39 1684.35 1322.97C1685.19 1325.22 1688.51 1327.24 1690.12 1326.52C1691.74 1325.8 1692.83 1321.67 1693.81 1318.78C1695.55 1313.77 1697.01 1308.57 1698.42 1303.96C1703.3 1317.79 1707.15 1328.61 1712.81 1344.6C1707.08 1347.3 1698.94 1351.08 1690.56 1355.03C1685.67 1351.53 1680.03 1346.56 1674 1343.33C1668.2 1340.22 1663.09 1340.13 1664.11 1325.9C1664.59 1318.95 1656.66 1310.59 1650.81 1299.56C1648.07 1309.05 1646.83 1313.31 1646.37 1314.96C1635.8 1324.51 1624.04 1296.6 1616.44 1317.6C1603.17 1317.7 1591.04 1315.7 1579.32 1318.18C1474.13 1340.58 1368.44 1345.81 1262.3 1338.37C1235.84 1336.52 1209.38 1334.44 1182.94 1331.4C1149 1327.48 1118.66 1343.11 1089.49 1366.7C1085.77 1369.69 1081.23 1370.43 1076.53 1372.41C1070.72 1359.66 1071.18 1350.53 1081.25 1344.79C1083.99 1343.22 1086.53 1340.85 1088.99 1338.49C1098.13 1329.79 1094.81 1331.4 1091.34 1316.15C1088.69 1304.56 1094.76 1287.2 1099.21 1274.19C1100.86 1269.36 1108.84 1268.28 1114.05 1267.53C1137.85 1264.18 1161.71 1261.13 1185.58 1258.92C1191.68 1258.35 1197.99 1262.47 1204.12 1262.07C1213.17 1261.47 1222.17 1258.71 1230.12 1257.1L1230.23 1273.49C1234.1 1270.45 1237.95 1267.36 1241.85 1264.41C1246.98 1260.52 1252.2 1256.81 1259.21 1256.1C1254.72 1262.33 1250.22 1268.56 1242.86 1278.76C1348.41 1289.83 1450.63 1306.56 1551.46 1288.97C1553 1281.34 1553.06 1274.3 1555.4 1271.53C1557.16 1269.44 1564.58 1272.31 1564.74 1273.9C1566.4 1292.8 1574.66 1284.11 1580.3 1282.25C1587.42 1279.9 1594.2 1275.16 1601.19 1271.78C1604.4 1270.21 1607.95 1267.84 1611.08 1268.52C1655.29 1278.57 1693.81 1252.61 1724.94 1213.2C1760.44 1168.21 1783.66 1108.39 1771.2 1031.45C1768.34 1013.71 1767.26 995.341 1764.95 977.332C1762.18 955.826 1754.13 944.457 1738.64 945.94C1726.41 947.089 1714.11 946.335 1701.79 943.234L1753 942.87L1752.88 926.174C1756.5 932.703 1759.22 937.644 1762.47 943.512C1766.67 920.23 1761.52 917.919 1748.51 899.808C1735.23 881.344 1728.2 901.103 1718.45 905.203C1718.11 903.345 1717.8 901.487 1717.46 899.63C1723.1 892.282 1728.74 884.934 1734.44 877.541C1727.02 854.356 1721.35 842.674 1717.44 842.495C1718.66 835.577 1719.99 827.95 1721.18 821.298C1709.29 820.187 1699.21 819.992 1689.43 817.404C1688.13 817.059 1688.22 804.347 1687.76 798.549C1693.09 797.404 1697.09 796.534 1703.19 795.206C1697.51 784.262 1701.58 764.214 1683.67 774.174C1688.9 767.626 1691.24 764.73 1693.55 761.791C1692.94 759.581 1692.3 757.371 1691.7 755.16C1685.53 758.57 1678.88 760.744 1673.29 765.655C1665.96 772.085 1658.97 767.573 1657.6 757.307C1646.03 760.091 1634.28 761.902 1622.93 766.057C1618.23 767.773 1612.93 773.259 1610.47 779.344C1607.92 785.695 1608.48 794.859 1607.52 804.389C1613.08 807.627 1618.35 810.645 1623.62 813.708C1623.64 815.701 1623.59 817.695 1623.58 819.688C1617.74 819.331 1610.72 815.837 1606.36 819.456C1601.34 823.61 1598.65 834.082 1594 843.859C1622.18 863.988 1649.66 863.394 1676.91 864.84C1677.01 866.832 1677.09 868.78 1677.19 870.772C1666.87 870.846 1656.51 870.122 1646.26 871.258C1638.34 872.155 1629.72 879.79 1622.83 876.827C1597.52 866.067 1582.6 882.472 1565.21 908.992C1515.28 985.172 1453.42 1005.72 1384.25 981.008C1364.38 973.885 1345.42 964.143 1331.04 941.126C1326.21 933.409 1322.51 923.692 1319.41 914.059C1308.52 880.165 1307.37 879.598 1286.68 896.796C1280.81 901.665 1274.05 904.061 1268.94 906.843C1268.59 919.645 1268.28 930.543 1267.96 943.035C1262.01 940.331 1258.52 938.762 1253.05 936.276C1254.68 941.889 1256.12 944.758 1256.29 947.813C1256.82 956.534 1258.13 965.959 1256.41 973.722C1255.81 976.428 1247.22 975.293 1242.27 975.461C1234.7 975.736 1227.15 975.612 1217.98 975.677C1222.2 971.971 1225.54 969.113 1229.14 965.987C1207.78 946.651 1186.15 928.336 1165.54 907.754C1155.83 898.035 1148.45 883.25 1139.34 871.932C1128.13 857.972 1116.93 841.354 1097.7 862.351C1100.2 848.515 1101.39 841.995 1102.67 834.944C1086.18 817.611 1069.58 800.101 1052.97 782.636C1053.4 781.57 1053.81 780.46 1054.24 779.394C1066.48 787.013 1078.68 794.678 1090.91 802.297L1093.98 795.322C1083.97 780.6 1073.96 765.878 1061.98 748.291C1074.49 757.858 1084.9 765.623 1095.19 773.7C1108.14 783.927 1108.03 783.795 1122.71 771.467C1125.03 769.502 1128.51 770.319 1131.43 770.475C1150.04 771.317 1161.83 758.877 1165.82 731.123C1165.17 738.878 1164.52 746.634 1163.87 754.345C1165.35 755.087 1166.83 755.83 1168.3 756.572C1172.15 741.442 1175.99 726.312 1179.81 711.137L1170.52 707.394C1169.32 699.785 1169.86 689.063 1166.65 685.055C1149.66 663.784 1149.5 653.244 1167.54 635.975C1169.5 634.101 1171.19 631.653 1175.2 626.753C1169.84 624.222 1166.39 623.228 1163.36 620.902C1160.84 618.971 1158.84 615.442 1157.85 609.293C1160.81 610.069 1163.79 610.845 1169.88 612.485C1164.51 603.709 1161.01 593.282 1157.03 592.778C1152.81 592.233 1148.13 601.168 1143.06 606.563C1141.28 604.627 1137.57 600.623 1136.41 599.391C1140.58 589.307 1144.73 579.357 1150.26 565.986C1137.42 566.963 1127 566.24 1132.81 544.763C1139.83 541.435 1146.09 538.468 1155.2 534.107C1144.05 529.004 1136.47 525.559 1128.93 522.113C1129.09 520.119 1129.23 518.125 1129.39 516.087C1132.65 513.805 1135.93 511.523 1140.24 508.525C1137.33 500.573 1134.44 492.799 1130.65 482.55C1128.05 493.863 1126.39 501.182 1124.71 508.502C1123 501.029 1121.3 493.556 1119.59 486.128L1119.19 486.706C1124.31 465.455 1122.96 462.453 1102.74 450.593C1101.25 447.991 1099.79 445.388 1098.29 442.83C1089.18 433.461 1080 424.136 1070.97 414.59C1069.93 413.49 1069.47 411.101 1068.9 409.732C1074.12 405.621 1079.19 401.643 1086.99 395.52C1090.03 396.65 1097.1 399.257 1104.14 401.909C1104.57 400.533 1105 399.112 1105.46 397.736C1099.79 391.266 1094.08 384.796 1088.43 378.325C1100.53 388.869 1112.61 399.413 1125.46 410.66L1125.31 389.844C1132.09 398.699 1136.41 404.293 1142.12 411.737C1144.37 395.954 1164.31 389.479 1146.08 366.622C1161.25 361.465 1174.23 357.077 1190.46 351.603C1187.28 360.439 1186.39 362.881 1186.3 363.147C1201.33 357.947 1217.03 352.477 1232.71 347.051C1232.58 344.527 1232.47 341.959 1232.33 339.436C1228.39 340.172 1224.38 340.599 1220.47 341.646C1212.9 343.692 1202.85 351.869 1198.33 347.339C1181.94 330.891 1163.87 335.227 1146.73 333.709C1120.47 331.416 1094.85 339.393 1069.54 354.542C1073.81 362.13 1076.91 367.644 1080.02 373.158C1055.56 362.215 1030.73 361.771 1005.6 365.227C1000.33 365.973 994.849 361.937 989.389 361.134C985.965 360.627 981.955 360.656 978.993 362.847C921.682 405.241 866.517 392.877 811.375 350.351C790.089 333.938 772.183 312.008 753.923 289.815C743.097 276.649 730.347 270.717 716.236 276.619C705.889 280.944 695.701 286.995 685.133 289.373C672.74 292.163 659.927 294.07 647.503 292.431C611.41 287.682 575.498 279.3 539.356 276.014C528.764 275.07 514.809 282.079 507.398 293.071C477.083 338.064 442.212 326.795 408.11 311.846C400.924 308.708 393.521 296.005 383.808 294.125C377.164 292.799 370.623 289.303 363.956 288.818C352.216 287.972 344.599 278.238 336.235 267.091C328.436 256.694 317.84 251.056 306.481 241.659L342.893 241.4C309.017 191.814 275.737 143.11 238.912 89.2042C256.41 91.0731 269.6 92.5294 284.028 94.0658C276.402 87.2549 270.108 81.099 263.497 75.964C261.51 74.4279 258.09 74.3638 256.125 75.8836C244.425 84.9575 243.36 76.0625 242.426 60.8776C240.894 36.086 250.918 23.4808 265.965 8.35965C235.542 -7.59035 207.96 -22.0544 175.317 -39.2288C175.692 13.6067 175.691 59.0925 176.426 104.529C177.142 147.308 178.625 190.038 179.842 232.769C180.236 246.762 176.927 262.42 188.753 271.106C190.502 272.378 190.087 280.353 190.619 284.778C182.46 290.062 175.123 294.765 167.785 299.512C168.129 302.255 168.473 305.043 168.846 307.786C184.135 310.025 199.481 312.042 214.743 314.636C224.986 316.379 235.119 319.141 245.335 321.151C254.931 323.031 258.137 330.272 254.401 343.94C226.357 339.134 198.371 334.284 170.386 329.478C169.25 331.39 168.084 333.303 166.948 335.215C172.807 350.675 178.636 366.091 183.985 380.226C190.318 383.636 197.247 387.706 204.372 390.49C204.816 390.664 216.512 401.875 212.281 383.126C212.068 382.197 217.407 378.483 220.572 375.715C217.993 373.784 215.562 371.941 213.102 370.099C213.942 367.967 214.753 365.879 215.593 363.747C221.445 365.743 228.226 365.739 232.742 370.579C234.792 372.779 232.369 384.489 234.416 394.617C236.783 387.425 239.15 380.278 241.69 372.642C254.565 375.429 261.241 397.881 256.184 416.519C254.374 423.22 258.884 435.545 262.389 443.359C265.205 449.628 270.89 452.954 276.118 458.453C259.094 455.474 250.095 457.398 249.122 464.225C253.45 463.442 258.279 462.522 263.109 461.646C263.914 471.34 264.75 481.078 265.556 490.771C264.557 491.266 263.558 491.76 262.56 492.298C259.906 488.154 257.252 484.01 253.377 477.969L253.465 490.37C221.568 478.638 221.186 478.862 210.689 516.14C204.657 509.584 198.923 503.38 193.188 497.175C198.626 490.67 204.034 484.166 211.49 475.255C196.523 472.748 185.897 471.007 174.591 469.095C175.305 482.465 175.914 493.578 176.495 504.735C178.116 504.723 179.767 504.667 181.388 504.612C182.187 496.722 182.986 488.833 183.785 480.943C185.017 480.049 186.279 479.154 187.511 478.215C189.53 484.357 191.549 490.544 193.568 496.686C188.655 502.434 183.743 508.182 177.31 515.713L177.64 562.215C184.427 563.097 189.946 563.811 193.694 564.271C196.977 569.873 199.782 574.637 202.558 579.4C204.849 574.069 207.171 568.782 211.464 558.875C216.976 566.897 224.304 577.519 231.543 588.053C227.114 632.817 228.7 640.202 239.841 639.725L239.374 573.868C243.126 574.949 247.144 576.072 251.162 577.239L248.068 581.602C250.586 587.43 252.241 596.321 255.736 598.599C266.607 605.653 278.197 610.177 288.109 615.022C283.458 628.608 280.108 638.509 274.851 653.871C272.233 642.196 271.288 637.863 269.157 628.4C265.507 637.594 262.065 642.8 261.839 648.382C261.74 650.996 267.691 654.497 271.041 657.131C274.896 660.159 278.894 662.7 283.132 665.681C279.679 669.382 276.724 672.592 272.89 676.694C300.031 691.294 301.246 692.216 301.703 698.413C307.062 684.866 324.796 678.629 329.6 690.774C335.965 706.939 340.622 706.64 348.292 694.716C349.254 693.248 352.898 695.658 351.569 699.565C355.751 711.316 359.933 723.068 365.078 737.603C358.259 732.336 352.786 725.555 346.791 724.18C340.441 722.719 331.213 722.829 327.362 728.525C315.807 745.615 309.264 725.155 300.579 722.825C298.216 722.177 296.267 717.629 295.434 716.528C281.323 734.831 274.725 706.665 264.048 706.254C252.281 705.806 240.609 698.049 229.315 693.656C232.695 712.854 244.852 722.556 257.245 715.603C259.418 714.392 262.684 717.602 265.435 718.778C260.311 740.472 276.614 744.343 279.114 760.092C269.581 762.995 264.985 742.654 253.238 745.129C243.111 747.282 229.177 744.812 221.976 735.562C208.169 717.767 202.642 761.521 189.739 742.346C200.344 765.966 220.389 765.337 233.977 785.481C228.29 786.097 222.701 787.864 217.299 787.017C210.422 785.914 203.663 780.824 196.943 781.093C192.58 781.257 185.543 786.755 184.665 791.854C182.54 803.961 183.257 817.73 194.078 821.905C220.656 832.036 247.376 841.369 273.897 851.721C319.162 869.338 365.266 867.948 411.375 867.443C418.451 867.393 425.555 871.284 431.435 873.014C430.266 886.974 429.533 895.793 428.418 909.132C420.149 919.688 416.219 901.778 410.835 899.247C401.981 902.278 393.128 905.308 384.245 908.338C384.523 910.152 384.802 911.966 385.109 913.736L402.504 913.612C406.45 921.158 409.828 927.689 412.607 932.984C385.059 944.031 373.458 942.164 359.511 925.389C351.537 931.823 344.501 937.498 337.377 943.262C338.502 943.874 341.205 946.689 343.948 946.758C370.074 947.282 396.235 948.425 422.318 946.866C428.919 946.465 435.221 937.031 440.282 927.251L456.015 929.841L455.479 929.048C457.267 931.693 459.486 937.036 460.751 936.584C469.309 933.556 477.622 929.156 486.057 925.376C500.753 918.85 515.479 912.412 533.908 904.309C531.934 916.946 531.052 921.469 530.554 926.079C529.807 932.949 529.355 939.862 528.755 946.775C533.798 946.917 542.922 948.757 543.233 946.938C546.722 927.603 557.083 937.539 563.911 935.852C583.955 930.926 604.177 926.132 624.425 925.014C636.066 924.356 648.018 930.073 659.578 934.509C666.142 937.031 671.791 943.679 677.095 930.753C678.457 927.465 684.319 926.671 687.892 927.398C723.439 934.233 758.959 941.333 794.368 949.408C797.38 950.095 799.68 958.361 802.308 963.082C801.556 965.213 800.805 967.344 800.083 969.431C756.95 961.455 713.816 953.479 670.683 945.502C670.434 947.719 670.214 949.935 669.964 952.151C701.892 955.778 732.773 965.612 762.521 982.054C762.332 984.492 762.143 986.929 761.954 989.366C751.605 989.44 741.205 990.576 730.935 989.276C721.02 988.018 711.234 984.234 699.358 981.041C703.203 999.35 708.962 1004.76 719.089 1006.72C753.012 1013.17 786.773 1021.65 820.646 1029.39C821.751 1039.74 822.634 1047.84 823.518 1055.98C824.521 1056.07 825.524 1056.19 826.527 1056.27C827.593 1048.56 828.658 1040.8 829.612 1033.93C844.277 1039.72 857.899 1048.03 871.887 1049.84C885.639 1051.56 899.755 1046.41 913.719 1044.8C917.667 1044.33 921.716 1045.72 927.707 1046.56C930.463 1040.17 953.955 1026.76 963.489 1028.24C974.735 1029.98 986.149 1030.43 997.436 1029.68C1012.73 1028.69 1016.81 1013.33 1013.64 987.004C1025.41 991.881 1034.4 994.519 1042.83 999.331C1057.96 1007.99 1072.66 1018.25 1087.76 1027.09C1090.48 1028.71 1094.15 1026.69 1099.04 1026.17C1100.39 1029.17 1103.12 1035.27 1105.84 1041.36C1125.3 1036.35 1140.64 1054.44 1154.62 1068.12C1163.44 1076.74 1172.24 1078.93 1180.92 1084.14C1209.94 1101.47 1239.16 1118.01 1268.34 1134.63C1271.39 1136.38 1274.87 1136.49 1278.89 1141.29C1274.89 1142.25 1270.48 1145.33 1266.99 1143.77C1245.91 1134.39 1224.96 1136.89 1204.17 1144.21C1202.05 1144.93 1201.23 1153.71 1199.1 1161.25C1198.95 1161.26 1194.93 1160 1190.91 1158.79C1163.58 1150.52 1136.25 1142.3 1107.62 1133.65C1105.5 1137.96 1102.82 1143.42 1099.86 1149.51C1100.76 1143.22 1101.57 1137.72 1102.95 1128.19C1082.76 1120.58 1063.01 1112.97 1043.2 1105.71C1037.03 1103.45 1030.74 1101.99 1024.5 1100.13C1009.31 1095.55 1005.22 1084.19 1010.28 1061.66C1012.2 1053.1 1013.4 1044.14 1015.53 1032.03C1009.55 1033.67 1004.01 1033.62 1003.7 1035.48C997.039 1077.65 971.367 1078.9 951 1088.12C927.606 1098.74 903.02 1103.43 879.041 1110.64C881.268 1125.33 888.699 1121.2 895.582 1118.94C904.024 1116.14 913.651 1109.91 912.279 1136.89C913.531 1117.97 914.935 1103.92 929.171 1115.65C929.207 1120.83 929.898 1126.71 929.14 1132.17C928.016 1139.93 926.451 1147.95 923.697 1154.53C922.973 1156.3 916.925 1151.7 913.808 1152.87C911.073 1153.91 909.015 1158.88 905.511 1163.69C898.194 1158.87 888.33 1152.39 878.436 1145.9C877.211 1147.68 876.014 1149.46 874.788 1151.2C881.42 1167.41 888.08 1183.61 894.412 1199.16C895.855 1198.97 893.888 1200.18 892.879 1199.21C876.611 1183.61 858.476 1183.34 840.224 1183.24C837.718 1183.26 834.675 1182.27 832.83 1179.98C824.68 1169.85 812.951 1170.64 806.322 1183.84C798.675 1199.04 791.683 1215.04 784.987 1231.2C783.625 1234.54 784.845 1240.28 784.858 1242.06C778.446 1248.44 772.299 1254.68 766.061 1260.7C761.815 1264.81 757.449 1268.6 753.143 1272.58L753.47 1273.02C756.231 1267.37 759.703 1262.17 761.516 1255.91C763.416 1249.38 763.775 1241.81 764.926 1233.74C767.224 1233.5 772.174 1233.02 781.544 1232.11C773.579 1223.27 769.449 1218.69 767.606 1216.67C773.638 1214.94 782.548 1215.76 788.284 1209.74C794.606 1203.1 797.994 1190.23 804.207 1176.68C793.503 1172.37 785.017 1168.98 777.004 1165.71C774.907 1177.68 773.151 1187.8 771.336 1198.04C754.985 1187.26 753.408 1181.11 764.541 1162.79C749.886 1166.75 741.049 1134.74 725.34 1156.42C727.687 1158.93 730.213 1161.66 732.709 1164.39C732.515 1166.07 732.32 1167.8 732.097 1169.48C718.458 1167.15 704.821 1164.98 691.21 1162.33C683.445 1160.84 675.786 1157.66 668.057 1157.01C665.637 1156.8 661.84 1161.79 660.894 1165.61C660.035 1169.15 661.419 1177.25 663.136 1178.26C668.022 1181.15 673.567 1181.46 680.56 1186.37C675.393 1189.46 670.196 1192.56 661.594 1197.71C658.874 1209.16 652.545 1214.69 643.594 1195.67C645.221 1192.38 646.878 1189.05 649.669 1183.4C643.57 1179.81 638.401 1174.4 633.151 1174.17C623.212 1173.76 616.32 1170.71 610.968 1155.95C606.517 1143.67 597.881 1144.13 590.07 1152.73C585.506 1157.77 580.111 1166.22 575.742 1165.37C568.213 1163.92 561.201 1156.35 553.942 1151.35C554.161 1149.05 554.381 1146.7 554.6 1144.39C552.449 1148.75 550.269 1153.1 547.158 1159.37C542.999 1154.93 538.988 1150.66 533.671 1145.03C542.127 1140.05 548.527 1136.24 556.426 1131.58C548.324 1119.99 552.489 1096.13 537.527 1094.33C539.091 1090.29 541.117 1085.01 543.173 1079.68C525.364 1100.49 506.27 1097.96 486.919 1092.43C484.939 1091.87 482.147 1088.92 481.656 1086.27C477.182 1062.38 466.115 1056.75 450.832 1059.43C459.214 1056.58 464.931 1043.6 475.712 1054.69C481.682 1060.85 491.572 1058.43 499.779 1059.92C494.392 1061.11 488.916 1062.3 482.351 1063.72C505.864 1094.73 512.982 1096.5 526.383 1073.64C521.892 1072.39 517.855 1072.64 514.947 1070C512.068 1067.36 509.289 1062.2 508.518 1057.42C508.055 1054.5 511.192 1047.79 513.369 1047.07C520.428 1044.72 528.923 1045.23 518.824 1030.55C520.722 1028.02 522.621 1025.52 525.25 1022.01C518.846 1021.16 513.238 1020.41 505.92 1019.48C508.692 1015.48 510.881 1012.27 515.667 1005.33C505.067 1007.4 497.988 998.725 490.094 1012.2C486.919 1017.63 474.942 1012.62 477.687 992.27C474.62 996.322 472.365 998.552 470.795 1001.58C464.424 1013.76 458.131 1016.15 447.645 1009.27C428.272 996.518 406.928 1013.54 402.216 1043.34L346.405 1043.74C346.187 1046.22 345.998 1048.7 345.779 1051.14C357.296 1053.62 368.786 1056.55 380.328 1058.42C387.914 1059.65 395.799 1057.38 398.098 1073.89C398.813 1079.02 403.751 1085.1 407.506 1086.71C421.288 1092.54 435.352 1096.7 450.75 1101.95C450.872 1102.57 451.85 1107.39 452.308 1109.64C469.412 1093.35 487.403 1115.02 504.311 1108.56C467.227 1126.19 429.425 1117.47 390.215 1113.8C394.983 1112.66 398.309 1111.84 405.079 1110.2C392.621 1099.79 382.893 1091.67 373.135 1083.54C372.582 1084.65 372.03 1085.81 371.478 1086.92C376.395 1085.91 381.341 1084.94 386.641 1083.84C379.024 1061.71 388.755 1070.19 329.256 1061.84C332.087 1057.75 335.384 1052.98 338.712 1048.22C335.232 1043.9 332.148 1037.33 328.185 1035.67C299.588 1023.47 270.706 1012.87 242.194 1000.23C237.668 998.225 234.535 988.813 227.915 978.319C256.678 992.952 282.57 1006.14 308.462 1019.29C308.865 1017.92 309.239 1016.58 309.642 1015.21C302.6 1007.64 296.106 998.253 288.402 992.816C272.252 981.415 267.037 957.048 256.881 938.474C252.519 930.488 245.719 923.627 239.152 920.662C223.83 913.64 207.966 909.279 192.478 903.897C186.819 933.346 198.626 939.33 213.802 942.279C221.242 943.732 228.466 947.932 235.799 950.892C235.517 952.665 235.264 954.439 234.982 956.213C223.899 952.526 212.789 949.151 201.762 945.066C193.071 941.85 191.313 947.576 192.339 959.084C194.259 980.374 195.472 1001.76 197.686 1022.96C198.413 1029.82 201.994 1035.9 202.987 1042.76C203.731 1047.98 202.269 1053.84 202.014 1059.47C200.435 1094.6 205.064 1127.83 216.266 1160.74C204.822 1176.73 190.858 1170.14 178.011 1167.13C169.801 1165.19 161.666 1153.03 157.695 1175.24C157.185 1178.13 149.401 1178.05 144.252 1179.55C144.019 1146.73 143.363 1116.71 143.711 1086.72C144.043 1058.68 132.532 1032.14 141.166 1006.53C122.148 1002.28 105.522 998.587 88.8965 994.896L89.223 995.204C79.63 985.395 70.0661 975.542 62.6411 967.932C61.0537 968.608 63.6993 967.482 66.1686 966.446C58.889 929.471 40.6406 942.267 24.25 942.649C27.3056 941.122 30.3906 939.594 34.1806 937.707C33.1067 935.943 32.4122 933.645 31.5262 933.43C21.13 930.935 15.1615 924.998 15.7061 906.171C16.6493 872.902 15.2327 839.473 15.6155 806.164C15.8392 787.826 17.7734 769.565 18.9412 751.309L18.1693 750.562C31.11 766.769 44.0506 782.976 56.9618 799.183C57.9536 797.67 58.9456 796.201 59.9373 794.688C58.5161 789.694 57.0654 784.699 55.6439 779.66L57.9783 776.233C74.9008 792.633 91.7934 808.989 108.419 825.126C105.763 816.464 102.865 807.006 98.0664 791.362C112.723 795.952 123.331 799.243 136.304 803.314C135.442 789.856 134.68 778.081 133.753 763.737C129.823 766.777 127.723 769.936 125.951 769.55C105.279 764.869 84.6343 759.922 64.0446 754.399C57.1026 752.544 50.4121 748.738 43.61 745.819L43.6985 745.819C49.8466 743.826 56.0116 740.062 62.1452 740.196C74.4715 740.463 86.7831 742.811 99.0888 744.318L99.9267 737.757C89.1937 733.493 78.5187 729.096 67.7285 725.097C62.3187 723.099 56.3353 723.362 51.3875 719.987C44.3655 715.165 39.1265 708.16 29.6268 711.505C21.0684 714.533 15.0507 705.807 15.1956 688.842C15.5788 643.132 14.3988 597.344 14.3103 551.638C14.2951 541.185 16.1082 530.764 17.2032 518.887C36.7052 520.697 56.2978 522.817 75.8838 524.006C78.3026 524.166 80.8362 519.719 83.3259 517.399C80.8295 514.626 78.304 511.898 75.8958 509.081C83.2024 504.157 90.4504 499.278 97.7276 494.354L101.11 501.461C93.1866 515.07 85.2634 528.679 77.7189 541.621C95.7196 556.242 113.393 537.16 131.043 543.988C130.535 522.201 136.222 496.783 112.027 498.46C117.516 495.011 123.667 497.625 125.796 494.332C128.8 489.704 128.855 480.713 130.7 470.735C123.824 473.973 118.398 477.997 117.71 476.673C111.131 463.566 107.177 471.522 101.328 478.251C97.936 482.173 90.6048 483.642 86.899 480.79C76.8186 472.933 70.9967 475.189 68.4618 491.904C66.2075 485.853 64.4529 479.576 61.7915 474.324C59.7283 470.264 56.5246 467.541 51.8249 461.728C50.2295 473.742 48.8004 484.249 47.4008 494.756C53.456 496.307 59.6823 497.016 65.5387 499.632C69.3837 501.332 72.6586 505.782 76.2198 509.034C75.3745 510.413 74.4791 513.032 73.7414 512.949C54.4082 509.986 35.1022 506.713 14.0847 503.23C15.088 495.029 15.9811 487.937 16.8445 480.8C24.4068 482.828 31.999 484.9 43.4017 487.963C37.0345 475.696 33.4779 468.945 31.2058 464.532C28.6565 466.764 26.2208 468.376 24.2627 470.826C21.7498 474.033 19.5957 477.945 17.2921 481.549C16.0301 469.91 14.7383 458.226 13.4763 446.587C14.83 446.223 16.1539 445.815 17.5076 445.451C18.6381 451.024 19.7685 456.596 20.899 462.169C22.3402 461.671 23.7817 461.218 25.2229 460.721C23.8346 452.05 22.4463 443.379 20.8732 433.602L38.5923 433.476C38.6986 431.837 38.8347 430.241 38.941 428.602C30.8514 427.065 22.7913 425.527 13.6093 423.777C13.421 413.857 8.56773 403.04 20.7036 401.404C47.7142 397.669 56.3512 405.713 58.2885 437.721C69.5318 439.103 80.776 440.618 92.0162 441.556C93.0192 441.638 94.1408 437.644 96.1468 433.643C90.2678 432.002 85.8955 430.793 79.839 429.064C93.0106 411.343 104.231 426.101 117.442 426.362C111.676 432.382 107.9 436.306 104.154 440.23C104.723 441.466 105.292 442.702 105.861 443.938C113.063 440.876 120.265 437.813 131.406 433.083C130.035 418.522 128.563 398.026 125.943 377.848C125.257 372.671 121.502 367.028 118.18 364.217C112.366 359.254 105.885 355.934 99.5229 352.657C96.6822 351.216 92.7789 349.605 90.4915 351.348C78.4093 360.558 72.5204 349.217 66.8802 331.364C81.4873 333.12 96.0945 334.877 110.702 336.722C115.07 337.267 119.568 339.582 123.718 338.534C125.631 338.033 126.822 331.381 128.357 327.517C113.599 316.948 126.53 306.846 129.52 291.944C123.99 289.591 118.623 285.378 113.257 285.327C80.4083 284.94 47.5667 285.483 12.4527 285.732C9.82544 276.982 12.1937 270.011 23.0979 269.314C51.5369 267.429 79.9717 264.968 108.409 262.862C113.684 262.47 118.964 262.743 127.808 262.68L124.191 -246.986C142.675 -222.492 156.366 -225.246 165.883 -250.958C175.037 -244.955 181.616 -240.13 180.14 -219.657C177.45 -183.232 178.568 -146.213 177.532 -109.445C177.133 -95.0034 181.302 -89.1867 190.295 -89.1176C191.268 -89.1245 192.274 -88.6 193.217 -88.6952C212.457 -90.6034 230.134 -84.2183 246.321 -67.5472C251.34 -62.3565 258.635 -56.5178 262.012 -70.9361C268.536 -98.8409 286.202 -110.615 299.013 -129.307C308.235 -142.748 319.334 -153.368 331.967 -167.985L281.729 -167.628C281.633 -168.691 281.536 -169.797 281.47 -170.86C282.264 -171.087 283.115 -171.713 283.883 -171.497C330.348 -159.293 367.542 -194.723 406.857 -222.108C422.759 -233.16 441.853 -234.713 459.694 -238.56C481.537 -243.277 503.573 -245.958 525.514 -249.347C552.61 -253.569 577.23 -236.914 602.91 -228.592C642.244 -215.894 672.852 -178.111 706.16 -146.148C696.939 -149.272 687.747 -152.351 678.526 -155.474C677.92 -153.654 677.284 -151.79 676.678 -149.969C685.315 -141.881 693.982 -133.838 702.678 -125.706C700.406 -119.135 688.878 -119.038 668.095 -125.416C670.539 -117.55 672.681 -110.744 674.823 -103.895C655.343 -115.095 640.872 -143.382 617.157 -140.556C633.279 -124.815 650.295 -111.826 667.571 -99.5469C669.023 -98.4943 672.09 -102.635 674.407 -104.334C684.084 -95.1465 693.791 -85.9144 705.813 -74.4843C699.197 -76.1204 695.121 -77.1099 689.126 -78.5733C691.029 -72.1647 692.267 -67.9661 693.567 -63.5463C688.628 -57.3106 676.105 -64.5295 675.487 -43.6201C672.264 -44.9259 667.946 -46.7112 663.482 -48.4954C664.949 -53.5991 666.1 -57.5937 665.697 -56.2178C640.397 -77.2976 615.839 -97.718 590.48 -118.842C591.65 -120.267 593.287 -122.228 593.959 -123.03C573.671 -148.352 547.999 -138.914 524.442 -147.029L564.922 -147.316C565.234 -149.046 565.575 -150.775 565.888 -152.461C560.473 -155.124 555.142 -158.496 549.615 -160.362C526.238 -168.124 503.305 -167.385 479.749 -158.759C453.665 -149.184 426.879 -142.838 400.138 -138.485C386.326 -136.216 371.878 -140.454 357.852 -143.366C325.312 -150.178 307.419 -116.434 285.329 -88.1973C289.693 -84.1093 292.393 -81.6043 295.095 -79.0546L295.621 -79.7224C290.033 -77.734 284.415 -75.7897 278.827 -73.8013C281.127 -69.5658 283.399 -65.2856 285.699 -61.0501L272.668 -60.9576C272.362 -58.3423 272.085 -55.7717 271.779 -53.1564C278.259 -49.9249 284.685 -46.0287 291.305 -43.8169C293.197 -43.2102 295.761 -47.5244 298.046 -49.578L293.025 -59.1092C299.918 -59.9111 306.782 -60.757 313.676 -61.5588L313.231 -61.9985C316.917 -57.64 320.605 -53.2371 322.567 -50.948C317.654 -49.3629 310.123 -46.962 302.592 -44.5612L302.521 -33.7982C313.396 -30.3321 324.161 -25.7582 335.144 -23.7102C349.403 -21.0654 363.493 -21.6525 370.573 3.89694C376.564 25.468 384.429 -4.61675 391.682 3.56976C392.709 -1.17659 393.767 -5.87851 394.567 -9.51599C432.681 -19.0431 472.821 -29.8249 513.153 -38.5706C521.484 -40.357 530.558 -33.025 539.318 -32.5557C549.347 -32.0068 559.414 -34.3371 572.672 -35.8042C566.79 -41.9188 563.939 -44.9102 561.057 -47.9015C578.306 -43.6392 595.544 -36.8965 612.935 -49.9084C586.693 -54.2841 560.45 -58.7039 534.237 -63.0797C535.047 -65.2557 535.844 -69.2919 536.699 -69.3422C572.429 -69.9944 607.605 -61.4305 641.592 -46.0815C652.388 -41.1977 660.453 -22.3429 669.77 -9.91915C686.499 12.4615 703.228 34.8422 719.927 57.1789C700.897 59.5284 684.446 47.1997 666.931 38.6874C651.102 31.0047 635.597 14.8602 615.842 23.1498C632.284 34.1943 652.633 30.6838 661.708 58.9208C662.07 60.0255 665.478 58.3625 667.34 58.9693C685.957 64.905 704.659 70.3085 723.022 77.7518C727.28 79.4932 730.291 88.3299 733.868 93.885C733.055 95.6181 732.271 97.3069 731.458 99.04C744.607 103.11 757.706 108.287 770.991 110.806C776.749 111.917 782.91 107.666 788.912 105.851L788.767 106.251ZM1558 794.598L1529.02 794.803C1548.94 813.131 1569.4 813.827 1590.34 801.543C1592.16 796.525 1594.34 791.771 1595.71 786.491C1599.76 770.827 1600.79 758.286 1584.72 761.943C1577.92 763.497 1570.77 761.865 1563.82 762.313C1559.16 762.612 1554.51 764.018 1549.86 764.892C1549.56 767.818 1549.28 770.743 1548.98 773.668L1501.02 742.651C1501.54 740.743 1502.09 738.834 1502.61 736.882C1507.32 736.361 1512.03 735.885 1516.75 735.364C1505.9 726.938 1494.85 720.328 1483.42 717.176C1471.13 713.765 1458.48 713.589 1449.92 712.498C1453.62 709.947 1460.22 705.338 1466.79 700.774C1466.24 698.475 1465.7 696.22 1465.12 693.921L1435.17 694.134C1435.11 694.798 1435.03 695.419 1434.97 696.083C1438.19 696.858 1441.41 697.588 1444.6 698.363C1422.53 700.158 1400.79 698.054 1379.26 693.689C1366.39 691.078 1353.94 682.707 1341.08 681.16C1334.82 680.407 1328.07 689.269 1321.56 693.832C1324.67 699.834 1327.05 707.523 1331.03 711.437C1336.7 716.977 1343.59 719.763 1346.94 721.865C1345.13 732.508 1343.86 741.153 1352.22 750.926C1356.05 755.417 1358.45 765.454 1358.65 773.114C1358.77 777.587 1353.27 782.276 1350.38 787.036C1348.98 789.349 1347.82 792.059 1344.3 799.126C1358.17 796.06 1368.68 793.727 1380.84 791.072C1378.54 795.473 1377.82 797.471 1376.73 798.807C1375.62 800.1 1374.13 801.616 1372.86 801.492C1352.95 799.729 1338.07 814.716 1324.8 834.209C1321.03 839.728 1316.43 847.334 1316.33 854.111C1316.25 859.825 1322.19 865.807 1325.92 872.424C1316.64 897.514 1336.65 946.622 1358.36 947C1378.55 947.344 1398.78 946.801 1419 946.658C1419.01 947.809 1419.02 949.005 1419.03 950.157L1357.56 950.593C1427.37 1011.84 1544.95 974.641 1576.96 856.602C1570.75 853.635 1564.65 850.71 1558.85 847.917C1561.27 847.235 1564 846.419 1567.62 845.374C1565.42 842.733 1562.54 839.343 1562.57 839.254C1569.4 825.653 1563.58 820.689 1555.84 818.042C1550.11 816.09 1544.2 815.468 1538.36 814.446C1530.12 812.999 1519.54 817.326 1521.06 794.771C1521.25 791.935 1512.73 784.954 1508.07 784.544C1483.67 782.281 1459.23 781.569 1434.8 780.236C1432.09 780.078 1429.4 779.477 1426.72 779.098C1426.87 776.262 1427.03 773.426 1427.19 770.591C1455.12 772.563 1483.16 772.851 1510.94 777.216C1526.85 779.716 1542.31 788.996 1557.98 795.218L1557.97 794.598L1558 794.598ZM1187.49 833.899C1190.3 839.416 1192.36 847.462 1196.06 850.049C1216.21 864.123 1237 876.199 1257.15 890.318C1272.08 900.797 1282.75 883.36 1295.46 879.682C1302.37 877.684 1310.27 873.022 1305.96 859.633C1304.06 853.8 1296.33 848.319 1291.7 849.016C1277.86 851.151 1268.11 844.577 1260.76 826.824C1254.4 811.412 1246.78 809.34 1238.64 824.723C1237.04 827.701 1234.22 829.227 1230.06 833.287C1232.28 826.672 1233.32 823.52 1234.42 820.235C1225.9 821.137 1217.59 821.993 1209.29 822.894C1209.23 823.824 1209.18 824.755 1209.13 825.685C1212.38 827.035 1215.64 828.429 1218.86 829.779L1218.38 837.356C1207.97 836.367 1197.58 835.422 1187.11 834.566C1186.87 830.139 1186.66 825.712 1186.39 821.019C1176.25 820.382 1165.04 819.664 1153.83 818.947C1153.55 821.606 1153.28 824.266 1152.97 826.925C1160.42 829.308 1167.84 831.691 1176.02 834.335C1176.11 835.043 1176.7 838.848 1177.29 842.697C1180.66 839.75 1184.06 836.803 1187.43 833.856L1187.49 833.899ZM1275.56 589.28C1277.69 590.195 1279.82 591.11 1282.07 592.068C1263.15 602.699 1245.15 612.792 1226.24 623.423C1237.74 636.363 1247.1 646.837 1259.38 660.657L1259.17 630.542C1273.02 637.928 1286.78 645.227 1300.36 652.483C1296.9 625.535 1302.45 617.922 1321.16 621.199C1331.29 622.943 1341.69 622.382 1351.89 621.158C1370.98 618.897 1390.03 615.396 1409.08 612.426C1454.67 605.237 1500 610.408 1545.29 619.52C1558.08 622.087 1571.03 623.014 1584.22 624.736C1579.67 598.194 1576.1 574.081 1571.37 550.552C1566.02 523.972 1562.48 494.588 1542.11 482.996C1535.83 479.409 1523.02 477.285 1522.39 479.814C1518.78 494.146 1515.69 486.151 1511.17 481.976C1504.08 475.427 1496.5 470.077 1489.05 464.151C1488.48 466.679 1487.77 469.918 1487.74 470.006C1477.52 468.13 1468.02 466.426 1458.45 464.811C1448.41 462.8 1438.37 460.746 1428.34 458.735C1427.74 461.397 1427.11 464.103 1426.51 466.765C1433.5 471.986 1440.25 479.556 1447.6 481.231C1450.64 481.962 1454.92 470.106 1458.65 464.012C1463.45 479.391 1468.22 494.726 1473.71 512.359C1462.48 500.126 1451.32 497.725 1439.22 504.543C1434.34 507.279 1426.7 511.364 1424.06 508.061C1417.13 499.429 1412.38 508.099 1408.66 511.182C1401.98 516.765 1397.16 527.163 1390.93 534.25C1387.77 537.86 1383.17 538.601 1378.09 541.206C1397.43 544.568 1414.46 547.503 1431.49 550.482C1431.63 553.05 1431.77 555.618 1431.93 558.185C1416.92 561.702 1401.88 565.264 1386.87 568.781C1386.47 566.746 1386.07 564.756 1385.7 562.721C1391.05 559.982 1396.37 557.286 1403.09 553.828C1390.51 550.906 1377.95 541.783 1375.25 569.483C1372.37 566.005 1370.44 563.671 1368.5 561.337C1366.28 567.332 1364.05 573.327 1361.85 579.278C1347.2 563.172 1343.17 560.366 1340.82 561.888C1343.04 567.143 1345.44 572.884 1348.11 579.154C1340.85 582.04 1336.15 584.554 1331.32 585.739C1318.81 588.84 1306.28 592.339 1293.67 593.757C1287.72 594.42 1281.53 590.832 1275.53 589.147C1284.54 583.015 1293.55 576.884 1302.55 570.752C1302.15 568.452 1301.73 566.152 1301.33 563.896C1269.81 568.637 1236.84 562.936 1207.58 598.443C1213.33 599.332 1217.65 601.339 1221.62 600.336C1237.34 596.327 1252.96 591.212 1268.64 586.981C1270.79 586.39 1273.28 588.454 1275.62 589.279L1275.56 589.28ZM526.693 -216.182C510.7 -238.701 393.533 -209.169 374.685 -176.969C379.555 -176.295 383.716 -175.749 387.878 -175.158C369.648 -176.402 353.686 -169.601 340.803 -148.516C370.139 -148.724 398.138 -146.088 425.739 -149.783C466.801 -155.256 506.458 -180.03 551.612 -165.646C549.375 -181.841 547.727 -193.787 545.801 -207.592L503.877 -207.295C510.933 -210.047 517.931 -212.754 526.694 -216.137L526.693 -216.182ZM1787.23 942.007C1781.27 950.509 1772.83 956.902 1772.55 964.035C1771.99 979.806 1775.14 996.083 1777.67 1011.83C1778.53 1017.14 1781.83 1025.18 1784.46 1025.6C1794.14 1027.26 1804.06 1025.33 1813.8 1026.5C1824.04 1027.71 1824.09 1017.75 1823.2 1008.23C1821.29 988.137 1818.43 968.271 1816.3 950.836C1810.22 949.949 1804.41 949.149 1798.59 948.304C1798.61 945.868 1798.62 943.432 1798.63 941.041C1804.78 939.624 1810.94 938.207 1818.44 936.471C1817.56 928.151 1816.67 920.096 1815.82 912.13C1807.81 913.825 1801.81 915.108 1794.74 916.664C1793.77 908.787 1792.65 899.495 1791.55 890.334C1784.22 895.701 1770.26 878.04 1766.16 902.03C1761.29 930.587 1780.9 931.511 1787.26 942.007L1787.23 942.007ZM691.566 123.993C665.141 127.148 639.335 130.298 613.528 133.316C607.342 134.024 600.338 131.859 595.176 135.572C591.069 138.524 589.163 148.37 586.292 155.167C590.47 158.016 594.481 162.328 598.853 163.493C608.778 166.169 619.183 165.696 628.91 169.436C654.188 179.089 679.211 190.338 704.614 201.053C700.151 174.644 695.966 149.96 691.566 123.993ZM1358.13 491.344C1359.96 491.818 1361.79 492.337 1363.65 492.811C1364.31 486.295 1363.67 478.46 1365.9 473.573C1369.82 464.864 1375.23 457.429 1380.57 450.438C1382.27 448.211 1385.81 448.585 1388.49 448.787C1390.64 448.949 1392.69 451.149 1394.85 451.532C1408.22 453.873 1409.82 434.374 1419.54 423.675C1387.89 413.359 1360.62 422.986 1333.39 436.511L1333.56 461.002C1330.07 455.092 1328.43 452.314 1326.28 448.653C1324.49 454.246 1322.62 460.15 1319.39 470.404L1356.21 470.143C1356.98 478.419 1357.55 484.882 1358.16 491.344L1358.13 491.344ZM1213.38 273.223C1212.85 270.26 1212.33 267.296 1211.78 264.332C1179.41 265.448 1149.98 288.865 1118.49 296.972C1086.08 305.307 1054.03 316.74 1019.7 327.436C1032.5 345.858 1042.82 336.573 1053.55 332.954C1092.2 319.879 1131.13 308.619 1169.69 295.147C1184.57 289.948 1198.8 280.679 1213.35 273.268L1213.38 273.223ZM717.489 1084.6C717.031 1086.46 716.543 1088.37 716.084 1090.23C729.147 1094.61 742.211 1099.08 755.303 1103.37C761.362 1105.37 769.651 1101.81 769.239 1118.6C769.196 1120.86 775.998 1123.64 779.699 1125.92C779.936 1126.05 780.775 1123.83 781.676 1122.01C779.264 1118.62 776.792 1115.13 775.065 1112.67C782.258 1108.41 788.776 1104.55 793.268 1101.86C801.581 1105.79 808.8 1109.24 816.343 1112.77C818.912 1104.91 820.99 1098.65 823.443 1091.15C796.772 1067.91 768.497 1063.82 738.522 1069.48C746.329 1072.7 754.106 1075.92 761.913 1079.14C761.459 1081.71 761.005 1084.24 760.552 1086.81C750.89 1083.96 741.228 1081.06 731.567 1078.21C731.882 1076.96 732.227 1075.72 732.543 1074.52C727.525 1077.88 722.507 1081.24 717.489 1084.64L717.489 1084.6ZM526.38 17.9827C525.947 19.3145 525.543 20.6018 525.11 21.9336C516.224 24.4769 507.308 26.9319 498.423 29.6081C481.417 34.7335 464.257 38.8856 447.559 45.692C441.943 47.9906 433.807 56.5078 433.383 63.1543C432.427 78.0426 440.171 76.5704 447.667 73.3726C468.566 64.4105 489.588 56.0675 510.671 47.99C523.903 42.9356 537.289 38.8101 550.614 34.2865C536.236 35.8058 531.641 -5.12965 513.791 14.0418C518.224 15.4276 522.302 16.683 526.38 17.9827ZM1697.44 -226.351C1685.36 -220.596 1674.05 -214.935 1662.65 -209.805C1647.48 -202.965 1632.01 -197.452 1617.18 -189.33C1613.51 -187.311 1611.81 -177.29 1609.18 -170.982C1613.58 -169.064 1618.69 -164.007 1622.27 -165.76C1644.02 -176.499 1665.27 -189.406 1686.98 -200.278C1698.65 -206.119 1710.92 -209.262 1724.36 -214.185C1712.53 -223.357 1702.3 -231.302 1692.04 -239.29C1691.61 -237.914 1691.15 -236.537 1690.72 -235.161C1693.13 -231.989 1695.54 -228.862 1697.41 -226.395L1697.44 -226.351ZM1247.15 358.862C1232.31 374.159 1212.34 368.898 1203.71 394.691C1220.53 388.239 1236.63 379.665 1252.33 369.765C1261.99 363.673 1278.42 369.314 1273.92 336.882C1272.74 328.475 1272.1 321.26 1267.95 319.341C1265.71 318.338 1261.52 327.226 1257.73 332.257C1257.3 329.824 1256.53 325.135 1255.08 316.642C1252.92 323.256 1251.79 326.763 1249.42 333.999C1248.35 323.2 1247.93 318.951 1247.01 309.878C1240.73 329.721 1232.16 344.353 1247.15 358.818L1247.15 358.862ZM174.475 402.882L175.336 407.969C174.355 410.988 172.666 413.967 172.57 417.068C172.354 423.979 171.731 431.734 173.454 437.745C178.536 455.78 190.428 465.528 192.598 455.547C190.503 451.177 188.558 447.116 186.612 443.011C187.488 441.853 188.364 440.651 189.241 439.493C192.777 443.366 196.313 447.194 200.77 452.079C201.569 444.189 202.229 437.541 202.975 430.449L237.647 430.203C227.962 415.789 215.691 415.035 203.506 413.837C199.877 413.464 194.612 415.361 193.029 412.494C191.178 409.185 192.541 401.823 192.5 396.022C186.089 398.459 180.297 400.67 174.474 402.837L174.475 402.882ZM304.594 96.2674C323.894 94.536 341.93 93.3451 359.869 90.959C363.109 90.5374 366.05 85.2459 372.081 79.2239L345.812 79.4104C345.956 74.7589 346.079 71.3032 346.302 65.3668C339.456 72.9004 334.132 78.7847 324.097 89.8399C336.752 61.7144 319.999 69.0966 317.69 59.502C311.323 68.0509 306.066 75.0861 301.276 81.5422C302.371 86.3177 303.438 91.138 304.624 96.2672L304.594 96.2674ZM407.759 1006.01L373.058 1006.25C356.959 1035.2 338.283 1000.26 320.052 1007.25C357.708 1045.21 382.446 1036.97 407.759 1006.01ZM1479.68 -162.401C1501.61 -159.456 1519.5 -156.792 1537.41 -154.971C1539.77 -154.722 1542.3 -158.77 1544.74 -160.825C1542.37 -161.96 1539.95 -162.74 1537.69 -164.23C1531.83 -168.13 1526.05 -172.34 1517.52 -178.348C1516.05 -177.097 1511.13 -172.855 1509.43 -171.381C1504.32 -180.646 1499.93 -188.587 1493.51 -200.234C1487.95 -185.047 1484.02 -174.301 1479.68 -162.401ZM1597.98 702.545C1579.33 691.914 1556.79 702.261 1544.02 676.841C1535.57 682.968 1528.53 688.067 1520.67 693.748C1546.01 704.774 1571.6 708.711 1597.98 702.545ZM187.061 672.387C199.105 666.101 209.738 660.533 220.372 655.01C220.239 652.885 220.136 650.716 220.002 648.591C207.6 641.681 195.197 634.815 178.235 625.369C181.515 642.929 184.027 656.242 187.061 672.431L187.061 672.387ZM338.037 986.351C320.392 976.201 306.388 968.063 292.298 960.146C289.604 958.615 286.652 958.149 283.815 957.15C285.117 961.969 285.746 967.633 287.867 971.427C291.719 978.265 295.87 985.676 300.971 989.848C308.385 995.907 316.753 999.302 328.417 1005.95C324.196 996.991 322.669 993.768 320.275 988.736C325.724 987.989 329.907 987.428 338.066 986.351L338.037 986.351ZM1418.72 -277.477C1418.17 -275.17 1417.63 -272.819 1417.09 -270.512C1427.81 -259.825 1437.74 -243.995 1449.47 -239.783C1464.28 -234.484 1480.53 -238.718 1496.18 -238.829C1496.46 -241.312 1496.74 -243.794 1497.04 -246.232C1490.9 -248.049 1484.41 -252.653 1478.64 -251.195C1459.19 -246.273 1442.35 -250.539 1428.71 -274.137C1426.92 -277.225 1422.14 -276.482 1418.75 -277.477L1418.72 -277.477ZM1094.03 277.791C1094.33 279.693 1094.64 281.595 1094.95 283.498C1118.13 275.538 1141.34 267.578 1164.51 259.663C1164.17 257.495 1163.8 255.328 1163.46 253.16C1138.87 252.581 1115.51 259.391 1094.03 277.835L1094.03 277.791ZM1183.99 777.454C1197.07 780.506 1207.82 782.999 1218.54 785.491L1221.26 778.164C1215.42 768.993 1209.58 759.778 1204.39 751.666C1197.37 760.529 1191.85 767.522 1183.99 777.454ZM1218.98 331.912C1217.74 322.842 1216.52 313.815 1215.12 303.638C1220.32 300.191 1226.92 295.759 1233.52 291.372C1232.95 289.56 1232.35 287.793 1231.78 285.981C1217.24 294.012 1202.7 302.043 1188.16 310.03C1212.52 315.261 1212.91 315.524 1218.98 331.912ZM1290.51 385.705C1291.3 380.163 1293.35 374.523 1292.43 370.278C1290.88 362.804 1287.53 356.14 1284.94 349.16C1282.26 353.697 1279.43 358.013 1276.96 362.77C1273.64 369.127 1270.63 375.792 1268.53 380.147C1276.45 382.173 1284.54 384.241 1290.48 385.749L1290.51 385.705ZM1836.66 1169.13C1835.46 1169.23 1834.25 1169.37 1833.01 1169.47C1829.47 1205.1 1831.49 1226.43 1839.07 1233.47C1838.19 1210.13 1837.43 1189.63 1836.66 1169.09L1836.66 1169.13ZM131.712 658.961C124.934 630.398 112.5 639.92 100.21 648.865C110.701 652.245 121.221 655.581 131.712 658.961ZM240.789 -49.3487C239.653 -47.3476 238.518 -45.3467 237.382 -43.3455C250.019 -28.3323 259.221 -7.18255 273.256 5.34055C274.304 3.42864 275.351 1.47245 276.399 -0.439469C264.519 -16.7425 252.669 -33.0457 240.789 -49.3487ZM1702.22 -122.081C1717.54 -132.642 1729.27 -140.786 1741.04 -148.931C1740.1 -151.803 1739.2 -154.72 1738.26 -157.592C1730.63 -136.855 1709.77 -155.53 1702.22 -122.081ZM1382.47 489.355C1402.41 482.437 1408.39 473.36 1403.28 460.153C1400.67 466.372 1398.35 471.836 1395.31 479.122C1393.05 472.494 1391.52 467.899 1389.95 463.348C1388.68 463.313 1387.38 463.234 1386.12 463.198C1385.05 470.824 1383.98 478.405 1382.44 489.4L1382.47 489.355ZM567.35 99.2744C566.307 97.776 565.265 96.2777 564.222 94.7792C557.609 97.6607 550.965 100.454 544.382 103.512C540.356 105.401 535.883 106.584 532.666 110.195C530.852 112.201 531.191 118.487 530.544 122.877C533.399 122.192 536.437 122.259 539.05 120.69C543.365 118.091 547.379 114.386 551.572 111.168C556.821 107.144 562.1 103.209 567.35 99.2301L567.35 99.2744ZM815.69 1045.68C816.149 1043.9 816.579 1042.13 817.038 1040.35C811.243 1038.09 805.476 1035.56 799.624 1033.61C796.728 1032.66 793.63 1032.41 790.714 1032.79C790.272 1032.84 789.226 1039.18 790.002 1040.46C792.15 1043.98 795.101 1048.52 797.815 1048.68C803.743 1048.99 809.743 1046.83 815.719 1045.63L815.69 1045.68ZM614.843 -184.166C613.887 -181.679 612.932 -179.192 611.977 -176.704C622.7 -169.606 633.453 -162.507 644.177 -155.452C644.983 -158.248 645.789 -161 646.594 -163.796C635.991 -170.585 625.417 -177.376 614.813 -184.21L614.843 -184.166ZM319.854 15.5066C320.193 13.4225 320.532 11.2943 320.842 9.21046C311.355 6.08889 301.868 2.96722 292.234 -0.197592C292.167 9.78294 301.374 15.0177 319.854 15.5066ZM872.675 1148.34C864.231 1146.71 856.141 1145.18 848.052 1143.64C861.986 1159.96 870.193 1161.52 872.675 1148.34ZM1569.46 660.538C1569.62 662.22 1569.78 663.902 1569.94 665.584C1578.06 671.594 1586.21 677.604 1595.11 684.185C1594.55 680.512 1594.79 669.261 1592.28 667.64C1585.26 663.128 1577.14 662.61 1569.43 660.539L1569.46 660.538ZM1376.13 389.039C1376.79 387.041 1377.48 385.043 1378.15 383.001C1373.83 381.083 1369.56 378.101 1365.16 377.557C1361.86 377.137 1358.4 379.775 1354.14 381.4C1358.28 388.014 1361.17 392.644 1363.23 395.906C1368.05 393.348 1372.07 391.193 1376.13 389.039Z" fill="black"/>
<path d="M788.617 741.461C779.585 740.063 771.399 737.331 772.324 713.984C764.098 714.042 754.356 712.34 745.116 714.841C739.525 716.387 730.734 724.023 730.479 729.694C729.996 740.592 732.322 756.698 737.492 762.286C747.654 773.33 760.547 778.731 772.278 786.443C769.393 791.247 764.818 798.897 757.184 811.662C796.956 815.411 831.514 828.32 866.797 814.516C873.298 833.116 871.376 840.704 857.35 841.91C839.317 843.456 821.148 842.522 804.638 842.639C815.937 860.275 825.022 864.861 852.992 859.214C871.304 855.497 889.297 848.15 910.598 845.962C907.574 851.874 905.253 861.324 901.373 863.034C886.382 869.563 871.057 874.632 855.634 878.373C836.708 882.937 817.533 885.642 793.888 889.973C800.93 897.718 805.687 907.428 810.434 907.439C833.373 907.364 856.452 906.403 879.184 902.256C893.966 899.582 907.093 892.092 915.558 867.673C921.597 850.224 935.819 839.272 946.364 825.378C947.377 826.833 948.39 828.332 949.432 829.786C946.048 834.859 942.753 840.064 939.31 845.049C927.723 861.74 910.996 872.976 912.719 903.878C912.887 906.711 907.588 911.975 904.382 913.061C880.351 921.292 856.168 928.728 833.252 936.021C838.173 943.958 844.825 954.806 851.506 965.61C829.644 926.214 799.33 925.632 769.682 923.274C760.507 922.541 754.323 919.574 755.224 901.01C767.998 902.071 780.536 903.133 793.016 904.196C792.408 889.23 791.804 874.752 791.132 858.989L806.964 858.877L807.984 853.023C794.26 846.831 780.73 839.088 766.754 834.803C747.518 828.916 727.947 825.688 708.515 821.309C700.187 819.419 694.491 814.455 697.269 798.756C716.11 802.963 734.832 807.126 754.529 811.504C756.216 804.007 757.702 797.397 759.503 789.412C754.737 786.789 750.856 784.114 746.746 782.505C729.036 775.633 725.339 753.204 722.264 731.213C721.642 726.7 726.155 718.563 729.64 715.261C745.104 700.668 774.682 705.64 787.558 725.17C789.525 728.167 787.963 736.461 788.033 742.262L788.558 741.461L788.617 741.461Z" fill="black"/>
<path d="M315.742 470.661C316.649 457.102 317.21 448.949 317.771 440.751C316.678 440.493 315.556 440.235 314.463 439.977C317.109 434.776 319.785 429.62 323.653 422.019C312.991 411.243 305.211 395.088 289.849 399.095C286.317 400.006 282.031 394.411 278.092 391.826C281.629 387.549 285.166 383.228 289.843 377.57C255.455 309.695 244.87 230.846 248.107 146.804C254.628 193.218 260.208 240.038 267.936 286.045C278.925 351.383 309.249 394.882 347.114 424.952C373.355 445.804 401.404 463.764 432.703 461.814C436.504 461.566 440.568 469.155 443.421 476.443C402.678 485.368 367.717 448.989 329.276 445.763C327.813 455.694 326.716 463.054 325.478 471.478C331.984 478.429 338.907 490.073 347.337 493.778C360.262 499.444 352.284 513.629 355.268 522.909C349.744 525.517 343.918 531.316 338.779 530.112C317.869 525.256 313.134 514.483 313.109 477.589C311.805 476.668 310.471 475.703 309.167 474.782C305.496 489.247 301.795 503.668 296.832 523.146C294.762 509.741 293.495 501.601 292.041 492.044C283.051 496.537 273.031 497.184 270.536 482.187C277.915 474.96 283.098 469.874 288.251 464.833C285.959 461.749 283.696 458.62 281.404 455.536C276.25 443.969 271.126 432.357 264.564 417.566C264.74 417.388 267.654 412.584 269.958 413.143C282.216 416.289 294.364 420.499 306.455 425.02C308.141 425.672 310.383 430.041 310.282 432.477C310.181 434.826 307.408 438.743 305.786 438.754C300.479 438.748 295.191 437.235 289.818 436.343C284.106 470.62 305.789 455.762 315.742 470.661Z" fill="black"/>
<path d="M1046.75 421.316C1050.05 417.351 1055.02 411.381 1059.99 405.41C1061.06 406.333 1062.13 407.256 1063.2 408.178C1053.84 422.86 1077.78 439.388 1058.96 454.669C1063.95 464.51 1068.76 473.954 1072.95 482.251C1066 487.039 1058.81 492.006 1050.45 497.779C1041.06 479.598 1026.84 495.688 1013.33 490.336C1024.26 485.121 1035.22 479.949 1045.77 474.914C1038.45 460.97 1032.61 461.056 1004.22 477.202L1004.11 461.79C997.431 468.259 991.106 474.372 984.81 480.484C983.564 479.297 982.316 478.066 981.07 476.879C983.613 469.686 986.157 462.537 990.262 450.948C974.676 464.966 960.877 477.377 948.689 488.314C937.04 471.345 923.849 486.276 912.168 477.324C919.017 470.233 926.481 462.474 934.968 453.644C928.722 450.145 923.69 447.346 918.658 444.547C918.642 442.244 918.625 439.941 918.609 437.594C925.142 435.953 931.676 434.313 940.741 431.989C938.663 442.412 937.637 447.469 936.412 453.501C949.728 451.945 938.948 412.027 960.381 424.144C956.674 429.529 953.581 434.068 949 440.745C981.424 427.139 993.366 427.187 995.53 453.834C1000.64 451.052 1005.54 446.943 1010.66 446.065C1015.75 445.231 1021.08 447.629 1030.67 449.466C1026.22 444.36 1024.76 443.219 1024.88 442.686C1026.32 433.818 1026.32 422.435 1030.09 417.138C1032.48 413.755 1040.51 419.411 1046.75 421.227L1046.75 421.316Z" fill="black"/>
<path d="M1079.85 373.336C1076.74 367.822 1073.63 362.308 1069.36 354.72C1094.64 339.571 1120.3 331.593 1146.55 333.887C1163.69 335.404 1181.77 331.069 1198.16 347.517C1202.67 352.047 1212.76 343.87 1220.29 341.823C1224.2 340.777 1228.21 340.306 1232.16 339.613C1232.29 342.137 1232.4 344.705 1232.54 347.228C1216.86 352.654 1201.15 358.125 1186.12 363.325C1186.21 363.059 1187.11 360.617 1190.29 351.78C1174.08 357.254 1161.08 361.687 1145.9 366.799C1164.14 389.657 1144.19 396.087 1141.95 411.915C1136.23 404.471 1131.95 398.876 1125.13 390.022L1125.28 410.837C1112.43 399.59 1100.36 389.046 1088.26 378.503C1085.41 376.795 1082.63 375.088 1079.82 373.381L1079.85 373.336Z" fill="white"/>
<path d="M88.8402 995.206C77.204 996.617 65.5677 998.028 53.9314 999.439C53.3537 1001.13 52.7465 1002.81 52.1688 1004.5C63.2497 1012.08 73.9647 1022.11 85.5543 1026.59C97.4394 1031.15 110.259 1030.31 122.689 1036.91C108.546 1038.16 94.4025 1039.46 80.141 1040.71L80.3626 1071.93C74.4471 1065.15 71.1475 1061.37 67.8776 1057.63C72.9451 1069.55 69.0227 1094.33 86.7584 1088.23C73.6649 1092.04 61.6301 1095.45 50.2187 1078.7C45.4518 1071.74 36.0474 1071.89 25.0167 1067.23C31.8758 1065.72 34.9668 1065.03 42.2384 1063.48C6.58615 1041.9 17.9712 1000.93 17.5375 964.753L39.8265 964.595C39.8319 965.347 39.8369 966.056 39.8422 966.809L22.2115 966.934C35.5367 983.315 45.6847 996.53 61.1825 995.003C70.4342 994.096 79.7884 995.181 89.1366 995.425C89.1661 995.425 88.8399 995.161 88.8399 995.161L88.8402 995.206Z" fill="black"/>
<path d="M1375.29 64.2192C1379.71 76.1019 1377.73 82.9366 1368.61 85.9688C1350.93 91.852 1332.89 96.3648 1315.82 105.078C1283.53 121.562 1251.74 140.389 1219.88 158.73C1197.53 171.6 1175.52 185.619 1153.14 198.312C1148.24 201.093 1142.42 200.381 1135.35 201.539C1145.37 171.483 1333.38 66.421 1375.3 64.2633L1375.29 64.2192Z" fill="black"/>
<path d="M1180.55 76.9399C1144.97 93.9341 1114.21 105.535 1079.78 98.9143C1002.93 84.1353 929.014 54.9413 857.523 10.4941C856.753 10.0124 856.357 8.19926 856.517 1.59889C863.73 4.33798 871.812 4.81206 878.042 10.127C922.895 48.5626 972.812 61.0967 1022.13 76.9126C1036.35 81.4622 1050.68 85.8339 1065.09 88.4333C1079.26 91.0345 1093.75 93.8547 1107.86 92.0715C1130.78 89.2514 1153.5 82.7567 1180.58 76.8954L1180.55 76.9399Z" fill="black"/>
<path d="M1311.69 137.972C1315.33 132.011 1318.39 122.025 1322.68 120.665C1359.13 109.29 1395.77 99.4631 1432.38 89.2823C1434.2 88.7822 1436.21 89.5651 1442.91 90.1377C1438.85 99.246 1436.8 109.58 1433.41 110.623C1396.02 122.359 1358.44 132.68 1320.93 143.31C1319.1 143.81 1317.18 143.381 1315.3 143.394C1314.1 141.543 1312.91 139.735 1311.69 137.884L1311.69 137.972Z" fill="black"/>
<path d="M788.767 106.251C782.794 108.065 776.603 112.316 770.846 111.205C757.56 108.642 744.491 103.509 731.313 99.4389C732.126 97.7059 732.91 96.0172 733.723 94.2842C730.146 88.729 727.134 79.8481 722.876 78.151C704.514 70.7077 685.812 65.3484 667.195 59.3685C665.333 58.7616 661.925 60.4246 661.563 59.3199C652.488 31.1272 632.139 34.5934 615.697 23.5489C635.452 15.3036 650.957 31.4481 666.785 39.0865C684.3 47.5545 700.752 59.9275 719.782 57.5779C742.777 73.8021 765.772 90.0263 788.737 106.251L788.767 106.251Z" fill="white"/>
<path d="M9.36572 382.483C13.6356 373.418 16.3312 362.725 19.0436 362.705C47.2891 362.638 75.5762 364.297 103.506 365.472C104.647 376.625 105.534 385.255 106.294 392.735C77.26 389.664 45.4816 386.302 9.36572 382.483Z" fill="black"/>
<path d="M352.218 587.152C343.68 597.222 337.218 604.842 330.727 612.506C327.016 604.825 323.396 597.366 320.014 590.348L342.834 590.186C342.858 589.389 342.881 588.547 342.905 587.75C337.79 585.749 332.646 583.792 323.776 580.312C330.325 576.722 333.321 575.106 338.079 572.504C329.902 562.818 314.96 559.469 325.42 537.826C331.962 537.336 338.976 536.799 347.374 536.12C352.565 553.046 358.029 570.901 364.216 591.097C359.428 589.493 354.463 587.845 352.247 587.107L352.218 587.152Z" fill="black"/>
<path d="M1098.15 442.964C1099.64 445.566 1101.1 448.169 1102.6 450.727C1099.98 452.251 1097.34 453.776 1094.64 455.345C1095.36 469.38 1094.15 485.732 1109.92 477.559C1111.98 476.482 1115.95 483.584 1119.04 486.884L1119.45 486.305C1114.14 498.744 1108.83 511.183 1103.96 522.645C1103.6 521.496 1101.82 515.618 1099.7 508.635C1096.3 511.095 1092.28 514.002 1086.12 518.431C1087.1 510.629 1087.69 505.974 1088.66 498.128C1084.36 502.056 1081.31 504.824 1078.26 507.591L1076.75 505.875C1081.45 495.832 1086.16 485.833 1090.19 477.212C1084.49 467.597 1079.03 458.379 1072.14 446.736C1079.6 442.475 1087.49 432.675 1098.21 443.007L1098.15 442.964Z" fill="black"/>
<path d="M604.159 894.376C609.008 908.78 606.519 915.441 597.362 917.145C580.902 920.185 564.509 924.42 547.98 926.088C544.032 926.47 539.702 918.794 535.546 914.837C536.178 912.397 536.809 909.957 537.47 907.516C559.493 903.196 581.517 898.877 604.188 894.42L604.159 894.376Z" fill="black"/>
<path d="M370.396 701.777C355.381 659.233 360.844 643.825 376.059 623.166C385.783 609.943 400.498 614.401 415.658 635.818C406.565 634.2 400.65 631.628 394.966 632.51C387.191 633.761 375.636 634.153 372.914 641.215C369.382 650.319 372.852 665.708 373.532 678.37C373.94 686.074 374.791 693.774 375.435 701.432C373.755 701.532 372.046 701.633 370.366 701.733L370.396 701.777Z" fill="black"/>
<path d="M667.456 877.008C678.896 881.134 693.293 869.915 693.511 900.651C683.319 897.933 669.137 910.258 667.456 877.008Z" fill="black"/>
<path d="M623.912 599.396C627.891 615.8 627.124 632.37 617.642 642.447C611.234 649.269 601.892 649.999 593.316 650.547C608.614 645.715 618.812 628.664 623.912 599.396Z" fill="black"/>
<path d="M1170.32 707.484L1179.6 711.227C1175.76 726.357 1171.91 741.487 1168.1 756.661C1166.62 755.919 1165.14 755.177 1163.66 754.434C1164.31 746.723 1164.97 738.968 1165.62 731.212C1167.19 723.273 1168.72 715.379 1170.29 707.484L1170.32 707.484Z" fill="white"/>
<path d="M43.6425 746.172L43.554 746.173C35.0737 747.739 26.5638 749.305 18.0835 750.871L18.8554 751.619C17.4793 744.675 16.0737 737.731 14.6973 730.743C16.0087 728.564 17.2905 726.384 18.6018 724.205C26.939 731.542 35.3053 738.835 43.6425 746.172Z" fill="black"/>
<path d="M470.559 561.243C457.283 568.424 443.126 576.054 430.643 582.786C436.505 561.308 452.038 552.295 470.559 561.243Z" fill="black"/>
<path d="M704.782 864.386C695.641 860.11 682.791 865.029 683.383 840.444C702.419 838.891 705.152 841.839 704.782 864.386Z" fill="black"/>
<path d="M637.228 896.843C646.489 901.427 654.182 905.226 661.905 909.069C660.016 912.935 658.18 920.079 656.205 920.137C648.069 920.372 636.988 925.323 637.228 896.843Z" fill="black"/>
<path d="M358.901 469.691C350.197 468.822 341.464 467.954 329.278 466.756C343.382 443.227 351.087 461.198 358.901 469.691Z" fill="black"/>
<path d="M1558.01 795.217C1542.34 788.995 1526.88 779.759 1510.97 777.215C1483.19 772.806 1455.15 772.562 1427.22 770.59C1427.06 773.426 1426.9 776.262 1426.75 779.097C1429.43 779.477 1432.12 780.122 1434.83 780.236C1459.26 781.568 1483.7 782.325 1508.1 784.543C1512.76 784.953 1521.28 791.935 1521.09 794.771C1519.57 817.325 1530.15 813.043 1538.39 814.446C1544.23 815.467 1550.17 816.089 1555.87 818.042C1563.64 820.689 1569.43 825.652 1562.6 839.254C1562.57 839.342 1565.45 842.732 1567.65 845.374C1564.06 846.418 1561.3 847.191 1558.88 847.916C1564.68 850.71 1570.78 853.634 1576.99 856.602C1544.98 974.597 1427.4 1011.84 1357.59 950.592L1419.06 950.156C1419.05 949.005 1419.04 947.809 1419.03 946.657C1398.81 946.801 1378.61 947.343 1358.39 946.999C1336.68 946.622 1316.7 897.513 1325.95 872.423C1322.22 865.762 1316.31 859.825 1316.36 854.111C1316.43 847.334 1321.06 839.728 1324.83 834.209C1338.1 814.716 1352.98 799.728 1372.89 801.492C1374.16 801.616 1375.65 800.143 1376.76 798.807C1377.87 797.514 1378.6 795.472 1380.87 791.071C1368.71 793.771 1358.2 796.06 1344.33 799.125C1347.85 792.058 1349.01 789.348 1350.41 787.035C1353.27 782.276 1358.8 777.586 1358.68 773.114C1358.45 765.453 1356.08 755.416 1352.25 750.926C1343.89 741.153 1345.16 732.507 1346.97 721.865C1343.62 719.763 1336.73 716.977 1331.06 711.437C1327.05 707.523 1324.67 699.834 1321.59 693.832C1328.1 689.312 1334.85 680.406 1341.11 681.159C1353.94 682.707 1366.42 691.078 1379.29 693.688C1400.82 698.097 1422.56 700.202 1444.63 698.362C1441.41 697.588 1438.19 696.858 1435 696.083C1435.06 695.418 1435.14 694.798 1435.2 694.133L1465.15 693.92C1465.7 696.22 1466.24 698.474 1466.82 700.773C1460.25 705.338 1453.65 709.902 1449.95 712.497C1458.51 713.588 1471.16 713.764 1483.45 717.176C1494.91 720.328 1505.93 726.937 1516.78 735.364C1512.06 735.884 1507.35 736.361 1502.63 736.882C1502.12 738.79 1501.57 740.698 1501.05 742.651L1549.01 773.668C1549.31 770.742 1549.59 767.817 1549.89 764.892C1554.54 763.973 1559.16 762.567 1563.85 762.313C1570.8 761.865 1577.92 763.497 1584.75 761.943C1600.85 758.285 1599.79 770.827 1595.74 786.49C1594.4 791.77 1592.19 796.569 1590.37 801.543L1590.58 802.206C1588.12 797.041 1585.67 791.832 1582.2 784.46C1574.5 787.881 1566.27 791.571 1558.07 795.217L1558.01 795.217ZM1382.54 732.109C1382.53 734.545 1382.52 737.025 1382.48 739.462L1446.25 739.009C1446.24 738.522 1446.24 737.99 1446.24 737.503L1382.51 732.109L1382.54 732.109ZM1505.98 863.085C1506.08 861.135 1506.19 859.186 1506.29 857.236C1492.13 855.565 1477.99 853.894 1463.83 852.223C1463.72 854.305 1463.59 856.388 1463.49 858.47C1477.65 860.008 1491.81 861.547 1505.98 863.085ZM1459.24 766.864C1459.24 766.288 1459.23 765.668 1459.23 765.092L1389.53 765.587C1389.53 766.163 1389.54 766.783 1389.54 767.359L1459.21 766.864L1459.24 766.864Z" fill="white"/>
<path d="M1458.54 464.588C1468.05 466.336 1477.55 468.04 1487.77 469.917C1487.77 469.872 1488.51 466.59 1489.08 464.061C1496.52 469.943 1504.11 475.293 1511.2 481.886C1515.69 486.062 1518.81 494.056 1522.42 479.725C1523.05 477.24 1535.86 479.363 1542.14 482.906C1562.51 494.499 1566.02 523.883 1571.4 550.463C1576.13 574.036 1579.69 598.105 1584.25 624.646C1571.06 622.924 1558.11 621.997 1545.32 619.431C1500.03 610.318 1454.7 605.148 1409.11 612.336C1390.06 615.351 1371 618.808 1351.92 621.069C1341.72 622.293 1331.32 622.854 1321.19 621.11C1302.48 617.832 1296.93 625.445 1300.39 652.393C1286.78 645.138 1273.02 637.839 1259.19 630.452L1259.41 660.568C1247.13 646.748 1237.77 636.273 1226.27 623.334C1245.18 612.703 1263.18 602.61 1282.1 591.979C1279.85 591.02 1277.72 590.105 1275.59 589.19L1275.44 589.103C1281.53 590.787 1287.72 594.375 1293.67 593.712C1306.28 592.25 1318.81 588.795 1331.32 585.694C1336.18 584.508 1340.88 581.995 1348.11 579.109C1345.47 572.838 1343.04 567.098 1340.82 561.843C1343.17 560.321 1347.2 563.126 1361.85 579.233C1364.08 573.282 1366.28 567.287 1368.5 561.292C1370.44 563.626 1372.37 565.96 1375.25 569.438C1377.95 541.738 1390.54 550.861 1403.09 553.783C1396.37 557.197 1391.02 559.937 1385.7 562.676C1386.1 564.711 1386.5 566.701 1386.87 568.736C1401.88 565.219 1416.92 561.657 1431.93 558.14C1431.79 555.573 1431.66 553.005 1431.49 550.437C1414.46 547.458 1397.43 544.523 1378.09 541.161C1383.17 538.556 1387.77 537.77 1390.93 534.205C1397.18 527.118 1401.98 516.676 1408.66 511.137C1412.38 508.054 1417.13 499.384 1424.06 508.016C1426.7 511.319 1434.37 507.234 1439.22 504.498C1451.32 497.68 1462.51 500.036 1473.71 512.314C1468.22 494.681 1463.42 479.346 1458.65 463.967L1458.48 464.633L1458.54 464.588Z" fill="white"/>
<path d="M691.538 123.993C695.938 149.916 700.123 174.644 704.586 201.054C679.153 190.339 654.159 179.089 628.882 169.436C619.155 165.741 608.78 166.169 598.825 163.493C594.453 162.328 590.442 158.016 586.264 155.167C589.135 148.37 591.04 138.524 595.147 135.572C600.31 131.859 607.313 134.024 613.5 133.316C639.307 130.298 665.113 127.148 691.538 123.993Z" fill="white"/>
<path d="M1187.2 834.432C1197.61 835.421 1208 836.366 1218.41 837.355L1218.89 829.778C1215.64 828.428 1212.38 827.034 1209.16 825.684C1209.21 824.754 1209.26 823.823 1209.32 822.893C1217.63 822.036 1225.93 821.136 1234.45 820.234C1233.35 823.519 1232.28 826.671 1230.09 833.286C1234.25 829.226 1237.1 827.745 1238.67 824.722C1246.81 809.339 1254.43 811.411 1260.79 826.823C1268.14 844.576 1277.89 851.15 1291.73 849.015C1296.36 848.318 1304.09 853.799 1305.99 859.632C1310.33 873.021 1302.4 877.639 1295.49 879.681C1282.78 883.359 1272.11 900.796 1257.18 890.317C1237.03 876.198 1216.24 864.122 1196.09 850.048C1192.39 847.461 1190.33 839.415 1187.52 833.898L1187.23 834.432L1187.2 834.432Z" fill="white"/>
<path d="M1509.19 226.744C1511.11 235.677 1513.03 244.61 1514.37 250.89C1510.22 256.677 1506.66 260.91 1503.95 266.111C1503.43 267.089 1506.26 271.985 1508.39 277.197C1492.58 280.055 1477.45 283.218 1462.22 285.364C1449.56 287.181 1436.77 289.265 1424.15 288.424C1416.83 287.944 1403.31 280.777 1403.47 278.605C1404.66 263.361 1410.16 253.401 1422.77 256.633C1427.41 257.796 1432.85 251.513 1440.78 246.983C1440 245.749 1442.18 249.276 1443.29 251.129C1449.16 243.691 1454.94 236.342 1460.73 228.993C1461.71 230.315 1462.7 231.636 1463.68 232.914C1461.62 237.712 1459.56 242.465 1457.09 248.241C1466.19 245.829 1475.49 243.371 1482.93 241.414C1485.62 234.264 1488.05 227.736 1492.34 216.323C1495.07 232.071 1496.58 240.608 1498.36 250.871C1502.75 241.539 1506.12 234.384 1509.48 227.229L1509.13 226.789L1509.19 226.744Z" fill="white"/>
<path d="M18.0832 750.871C26.5635 749.305 35.0734 747.739 43.5537 746.173C50.3558 749.092 57.0757 752.898 63.9882 754.753C84.578 760.276 105.223 765.223 125.895 769.904C127.667 770.29 129.767 767.131 133.696 764.091C134.624 778.434 135.385 790.21 136.247 803.668C123.275 799.597 112.667 796.306 98.01 791.716C102.809 807.36 105.707 816.818 108.363 825.48C91.7371 809.343 74.8149 792.987 57.922 776.587L55.5876 780.014C57.0088 785.009 58.4595 790.003 59.881 795.042C58.8893 796.555 57.8972 798.024 56.9055 799.537C43.9648 783.33 31.0242 767.123 18.113 750.916L18.0832 750.871Z" fill="white"/>
<path d="M76.1039 509.432C72.5726 506.224 69.2682 501.774 65.4229 500.029C59.5664 497.414 53.3399 496.66 47.2849 495.153C48.6846 484.647 50.1134 474.095 51.7091 462.126C56.4088 467.939 59.6124 470.662 61.6757 474.722C64.337 479.974 66.1212 486.25 68.346 492.302C70.9104 475.587 76.7028 473.331 86.7832 481.187C90.4893 484.084 97.8201 482.571 101.212 478.649C107.061 471.875 111.015 463.964 117.595 477.071C118.282 478.439 123.708 474.415 130.584 471.133C128.738 481.067 128.714 490.058 125.681 494.73C123.552 498.022 117.4 495.409 111.911 498.858C136.106 497.18 130.419 522.599 130.927 544.386C113.277 537.602 95.6038 556.639 77.603 542.019C85.1181 529.077 93.0707 515.468 100.994 501.859L97.6117 494.752C90.3637 499.631 83.1158 504.51 75.7799 509.478C75.721 509.479 76.0453 509.476 76.0453 509.476L76.1039 509.432Z" fill="white"/>
<path d="M1358.1 491.3C1357.49 484.838 1356.92 478.375 1356.15 470.099L1319.33 470.36C1322.59 460.106 1324.46 454.202 1326.22 448.609C1328.37 452.27 1330.01 455.048 1333.5 460.958L1333.33 436.467C1360.56 422.987 1387.83 413.315 1419.48 423.632C1409.76 434.33 1408.16 453.829 1394.79 451.488C1392.64 451.105 1390.59 448.905 1388.43 448.743C1385.75 448.541 1382.21 448.167 1380.51 450.394C1375.17 457.385 1369.76 464.776 1365.85 473.529C1363.64 478.461 1364.26 486.251 1363.59 492.767C1361.76 492.292 1359.93 491.774 1358.07 491.3L1358.1 491.3Z" fill="white"/>
<path d="M1213.35 273.223C1198.81 280.634 1184.57 289.903 1169.69 295.102C1131.1 308.574 1092.2 319.834 1053.55 332.908C1042.82 336.528 1032.5 345.813 1019.7 327.391C1054 316.651 1086.06 305.262 1118.49 296.927C1149.98 288.82 1179.41 265.403 1211.78 264.287C1212.3 267.251 1212.82 270.215 1213.38 273.178L1213.35 273.223Z" fill="white"/>
<path d="M526.351 17.9819C522.273 16.7264 518.195 15.4268 513.763 14.041C531.612 -5.13049 536.207 35.7609 550.585 34.2859C537.261 38.8095 523.875 42.9349 510.642 47.9893C489.56 56.0669 468.538 64.4098 447.638 73.3718C440.142 76.5696 432.398 78.0419 433.354 63.1537C433.778 56.4628 441.915 47.9899 447.53 45.6912C464.229 38.8849 481.388 34.6885 498.394 29.6073C507.279 26.9311 516.166 24.4764 525.082 21.9328C525.515 20.601 525.918 19.3137 526.351 17.9819Z" fill="white"/>
<path d="M1247.12 358.905C1232.13 344.396 1240.7 329.808 1246.98 309.966C1247.9 319.039 1248.32 323.288 1249.4 334.087C1251.76 326.851 1252.89 323.344 1255.05 316.729C1256.5 325.223 1257.3 329.912 1257.7 332.345C1261.47 327.313 1265.68 318.425 1267.93 319.428C1272.1 321.303 1272.74 328.562 1273.89 336.969C1278.39 369.402 1261.96 363.761 1252.3 369.853C1236.6 379.752 1220.5 388.326 1203.68 394.779C1212.29 368.985 1232.28 374.247 1247.12 358.95L1247.12 358.905Z" fill="white"/>
<path d="M174.447 402.925C180.239 400.714 186.062 398.503 192.472 396.11C192.513 401.911 191.15 409.273 193.002 412.582C194.585 415.405 199.849 413.552 203.478 413.925C215.634 415.123 227.935 415.877 237.619 430.291L202.948 430.537C202.231 437.629 201.541 444.277 200.742 452.167C196.285 447.326 192.749 443.454 189.213 439.581C188.337 440.739 187.461 441.941 186.585 443.099C188.53 447.16 190.475 451.265 192.57 455.635C190.4 465.616 178.508 455.868 173.427 437.833C171.733 431.778 172.356 424.067 172.543 417.156C172.639 414.055 174.328 411.076 175.309 408.057L174.447 402.97L174.447 402.925Z" fill="white"/>
<path d="M1275.56 589.279C1273.23 588.455 1270.76 586.39 1268.59 586.982C1252.87 591.212 1237.28 596.372 1221.57 600.337C1217.59 601.339 1213.27 599.333 1207.52 598.443C1236.78 562.936 1269.75 568.637 1301.27 563.896C1301.67 566.196 1302.1 568.496 1302.5 570.752C1293.49 576.884 1284.48 583.016 1275.41 589.148C1275.35 589.148 1275.53 589.235 1275.53 589.235L1275.56 589.279Z" fill="white"/>
<path d="M304.565 96.3115C303.409 91.182 302.313 86.3621 301.218 81.5865C306.037 75.1302 311.294 68.0952 317.631 59.5465C319.94 69.141 336.694 61.7585 324.038 89.884C334.044 78.829 339.398 72.989 346.243 65.4111C346.049 71.3474 345.927 74.803 345.753 79.4547L372.022 79.2682C365.962 85.2461 363.051 90.5815 359.811 91.0031C341.872 93.3892 323.836 94.5802 304.536 96.3117L304.565 96.3115Z" fill="white"/>
<path d="M407.73 1006.05C382.446 1037.01 357.708 1045.25 320.023 1007.29C338.254 1000.3 356.93 1035.29 373.029 1006.3L407.73 1006.05Z" fill="white"/>
<path d="M187.032 672.43C183.998 656.242 181.486 642.928 178.207 625.368C195.168 634.815 207.571 641.68 219.974 648.59C220.107 650.715 220.211 652.885 220.344 655.01C209.71 660.577 199.076 666.1 187.032 672.386L187.032 672.43Z" fill="white"/>
<path d="M338.038 986.396C329.879 987.516 325.726 988.077 320.247 988.781C322.641 993.857 324.168 997.079 328.388 1006C316.754 999.346 308.386 995.951 300.942 989.892C295.841 985.721 291.691 978.354 287.838 971.472C285.718 967.678 285.088 962.013 283.786 957.195C286.623 958.149 289.576 958.66 292.269 960.191C306.33 968.063 320.334 976.246 338.009 986.396L338.038 986.396Z" fill="white"/>
<path d="M1444.39 178.087C1448.95 184.919 1460.49 182.047 1457.67 200.093C1457.41 201.822 1464.99 206.33 1468.97 209.58C1466.69 212.298 1464.5 215.192 1462.07 217.601C1458.29 221.392 1454.61 226.778 1450.43 228.092C1444.49 229.905 1438.14 228.622 1430.68 228.675C1429.06 211.413 1442.67 218.934 1449.83 214.1C1445.08 204.744 1440.33 195.389 1434.73 184.4C1438.58 181.848 1441.48 179.967 1444.39 178.042L1444.39 178.087Z" fill="white"/>
<path d="M1094 277.879C1115.48 259.434 1138.84 252.625 1163.44 253.203C1163.78 255.371 1164.15 257.539 1164.48 259.706C1141.31 267.666 1118.1 275.626 1094.92 283.541C1094.62 281.639 1094.31 279.736 1094 277.834L1094 277.879Z" fill="white"/>
<path d="M1183.96 777.543C1191.82 767.61 1197.35 760.618 1204.36 751.754C1209.52 759.867 1215.36 769.082 1221.24 778.253L1218.52 785.58C1207.8 783.087 1197.05 780.595 1183.96 777.543Z" fill="white"/>
<path d="M193.423 497.04C191.404 490.898 189.385 484.712 187.366 478.57C186.134 479.464 184.873 480.359 183.641 481.298C182.842 489.187 182.043 497.077 181.244 504.966C179.622 504.978 177.972 505.034 176.35 505.089C175.74 493.933 175.16 482.776 174.446 469.449C185.752 471.318 196.379 473.103 211.345 475.609C203.919 484.52 198.482 491.025 193.044 497.53L193.394 497.085L193.423 497.04Z" fill="white"/>
<path d="M1119.04 486.84C1115.95 483.54 1111.98 476.437 1109.92 477.515C1094.15 485.688 1095.36 469.38 1094.64 455.301C1097.34 453.732 1099.95 452.207 1102.6 450.683C1122.82 462.542 1124.2 465.544 1119.04 486.795L1119.04 486.84Z" fill="white"/>
<path d="M1218.95 332.001C1212.88 315.612 1212.53 315.349 1188.13 310.119C1202.67 302.087 1217.21 294.056 1231.75 286.069C1232.32 287.881 1232.92 289.649 1233.5 291.46C1226.89 295.892 1220.26 300.28 1215.1 303.727C1216.47 313.859 1217.71 322.93 1218.95 332.001Z" fill="white"/>
<path d="M1290.48 385.792C1284.54 384.284 1276.48 382.215 1268.53 380.19C1270.63 375.879 1273.64 369.17 1276.96 362.813C1279.43 358.056 1282.26 353.74 1284.94 349.204C1287.53 356.183 1290.88 362.847 1292.43 370.321C1293.32 374.567 1291.3 380.206 1290.51 385.748L1290.48 385.792Z" fill="white"/>
<path d="M1187.46 833.899C1184.09 836.846 1180.69 839.794 1177.32 842.741C1176.73 838.892 1176.18 835.087 1176.05 834.379C1167.9 831.735 1160.45 829.352 1153 826.969C1153.28 824.31 1153.55 821.65 1153.86 818.991C1165.07 819.708 1176.28 820.426 1186.42 821.063C1186.66 825.756 1186.9 830.183 1187.17 834.522C1187.2 834.477 1187.49 833.899 1187.49 833.899L1187.46 833.899Z" fill="white"/>
<path d="M131.712 658.96C121.221 655.58 110.701 652.244 100.21 648.864C112.5 639.919 124.934 630.397 131.712 658.96Z" fill="white"/>
<path d="M1458.68 463.924C1454.95 470.062 1450.67 481.874 1447.63 481.142C1440.28 479.423 1433.53 471.853 1426.53 466.676C1427.13 464.014 1427.76 461.308 1428.36 458.647C1438.4 460.657 1448.44 462.712 1458.48 464.678C1458.48 464.634 1458.65 463.968 1458.65 463.968L1458.68 463.924Z" fill="white"/>
<path d="M240.79 -49.3053C252.67 -33.0022 264.521 -16.6989 276.4 -0.395884C275.353 1.51603 274.305 3.47218 273.257 5.3841C259.223 -7.09472 250.021 -28.2886 237.383 -43.3019C238.519 -45.303 239.655 -47.3042 240.79 -49.3053Z" fill="white"/>
<path d="M1382.5 489.398C1384.04 478.403 1385.11 470.822 1386.18 463.196C1387.44 463.232 1388.74 463.311 1390.01 463.346C1391.58 467.941 1393.11 472.492 1395.37 479.12C1398.42 471.879 1400.73 466.371 1403.34 460.151C1408.45 473.358 1402.47 482.436 1382.53 489.354L1382.5 489.398Z" fill="white"/>
<path d="M567.35 99.3179C562.101 103.297 556.822 107.232 551.573 111.255C547.408 114.429 543.395 118.134 539.05 120.778C536.437 122.347 533.4 122.28 530.545 122.964C531.163 118.62 530.852 112.288 532.666 110.282C535.913 106.672 540.357 105.489 544.383 103.6C550.966 100.541 557.609 97.7483 564.223 94.8668C565.265 96.3652 566.308 97.8637 567.351 99.3621L567.35 99.3179Z" fill="white"/>
<path d="M319.855 15.5943C301.374 15.1054 292.168 9.87071 292.234 -0.109822C301.869 3.05499 311.355 6.17661 320.842 9.29818C320.503 11.3822 320.164 13.5105 319.855 15.5943Z" fill="white"/>
<path d="M17.206 481.903C19.5096 478.3 21.6342 474.387 24.1766 471.18C26.1346 468.73 28.5704 467.118 31.1197 464.886C33.3915 469.254 36.9189 476.05 43.3156 488.317C31.8831 485.21 24.3207 483.182 16.7584 481.154L17.2358 481.947L17.206 481.903Z" fill="white"/>
<path d="M1376.13 389.082C1372.1 391.237 1368.05 393.392 1363.23 395.95C1361.17 392.687 1358.28 388.057 1354.13 381.443C1358.43 379.818 1361.89 377.136 1365.16 377.6C1369.56 378.145 1373.83 381.126 1378.15 383.045C1377.48 385.042 1376.79 387.04 1376.13 389.082Z" fill="white"/>
<path d="M1382.57 732.064L1446.29 737.458C1446.3 737.945 1446.3 738.477 1446.3 738.964L1382.53 739.417C1382.55 736.98 1382.56 734.5 1382.6 732.064L1382.57 732.064Z" fill="black"/>
<path d="M1459.3 766.862L1389.63 767.357C1389.63 766.781 1389.62 766.161 1389.62 765.585L1459.32 765.091C1459.32 765.667 1459.32 766.287 1459.33 766.862L1459.3 766.862Z" fill="black"/>
</g>
</g>
<defs>
<clipPath id="clip0_86_1085">
<rect width="1440" height="1024" fill="white"/>
</clipPath>
<clipPath id="clip1_86_1085">
<rect width="1034.23" height="1447.34" fill="white" transform="translate(-0.046875 1034.23) rotate(-90.4066)"/>
</clipPath>
</defs>
</svg>
