<svg width="384" height="426" viewBox="0 0 384 426" fill="none" xmlns="http://www.w3.org/2000/svg">
<path d="M89.1937 422.734C89.3814 420.847 89.5715 418.988 89.7911 416.812C93.1366 416.148 96.5564 415.352 100.008 414.812C104.063 414.19 108.028 412.106 112.306 414.041C112.663 414.201 114.214 412.967 114.195 412.425C114.149 411.351 113.629 410.089 112.9 409.275C106.089 401.711 98.445 395.203 89.3443 390.455C75.0785 383.009 60.7461 375.674 46.7356 367.767C34.7505 361 23.6036 353.023 13.8595 343.102C7.96682 337.099 4.56326 330.125 2.57752 322.139C-0.663178 309.072 0.389399 296.039 3.08225 283.121C10.13 249.255 17.2842 215.409 24.7014 181.626C27.8173 167.44 30.8569 153.145 35.4424 139.412C42.8983 117.078 58.1636 100.75 78.0673 88.5109C83.568 85.1285 89.0435 81.567 93.9825 77.4321C103.753 69.2385 107.192 57.982 107.366 45.6942C107.453 39.6076 103.315 32.5258 93.9813 33.0657C82.7964 33.7007 71.5811 33.6608 60.3721 33.8016C58.1818 33.831 55.9211 33.5994 53.812 33.03C50.0525 32.0133 47.9166 29.3944 47.9125 25.4248C47.9127 21.722 50.7729 20.632 53.6487 20.2659C71.6295 17.977 89.5813 15.3567 107.624 13.7781C135.583 11.3321 163.606 9.62474 191.6 7.58593C198.365 7.09908 205.167 6.8284 211.891 5.98249C222.462 4.65679 232.989 2.92467 243.53 1.36303C243.6 1.83409 243.669 2.29567 243.729 2.76756L229.423 4.01914C231.629 6.99456 254.411 5.31631 269.892 1.59513C264.214 1.74836 259.268 1.87574 256.024 1.95912C261.795 1.45418 269.192 0.453968 276.592 0.369566C278.897 0.339721 282.607 2.31507 283.238 4.18759C284.385 7.59915 282.579 11.2595 278.706 12.4286C273.904 13.8889 268.968 14.9984 264.013 15.7945C256.529 16.9932 248.894 17.3462 241.484 18.8439C231.217 20.9255 227.496 26.1181 228.628 36.4498C230.982 57.907 241.123 73.4532 261.704 82.2456C285.652 92.4803 309.197 103.666 332.7 114.913C343.855 120.255 354.083 127.1 361.187 137.787C366.413 145.652 368.87 154.455 370.02 163.564C372.378 182.348 374.512 201.172 376.237 220.021C378.708 247.07 380.725 274.159 382.951 301.229C384.092 315.148 382.483 328.573 373.663 339.89C368.948 345.933 363.12 351.138 357.531 356.446C343.807 369.471 329.571 381.978 316.233 395.379C306.321 405.331 294.092 409.722 281.107 412.777C242.152 421.939 202.561 425.575 162.609 425.616C146.507 425.631 130.4 425.685 114.304 425.213C106.026 424.973 97.7836 423.605 89.2024 422.724L89.1937 422.734ZM326.482 141.148C324.944 139.813 323.382 138.623 324.36 136.075C324.679 135.255 323.904 134.025 323.632 132.98C323.371 133.051 323.119 133.12 322.859 133.191C322.745 134.728 322.641 136.264 322.476 138.521C321.298 137.364 320.756 136.839 320.224 136.313L320.127 136.073L310.24 136.938C313.458 138.747 315.552 144.041 314.27 147.694C315.317 148.118 316.355 148.533 317.59 149.035C316.59 150.459 315.835 151.527 314.691 153.164C318.703 152.813 322.763 153.564 325.339 151.946C328.385 150.038 330.196 150.042 333.798 150.347C340.244 150.899 346.964 148.269 353.571 146.966C353.608 146.409 353.645 145.852 353.682 145.296C349.176 142.388 344.669 139.48 339.991 136.463C338.991 137.238 337.955 138.035 336.436 139.199C335.187 137.342 334.069 135.684 332.953 134.035C332.52 134.426 332.088 134.826 331.655 135.217C331.238 136.771 330.82 138.316 330.304 140.269C329.699 139.349 329.379 138.852 329.094 138.428C328.178 139.291 327.254 140.164 326.339 141.036L326.473 141.158L326.482 141.148ZM147.438 16.0686L180.733 13.1556C180.733 13.1556 180.736 13.1935 180.738 13.2219L147.321 16.1456C146.636 15.2989 145.936 13.7187 145.27 13.7388C142.045 13.8205 138.382 13.4729 135.691 14.8536C128.191 18.7068 120.309 16.9915 112.595 17.4182C106.609 17.7511 100.586 17.5718 95.0031 17.6117C94.9716 18.5592 94.9544 19.3433 94.8894 21.3244C104.19 20.5107 113.441 19.7872 122.675 18.8649C130.927 18.0475 139.16 17.0218 147.437 16.0591L147.438 16.0686ZM211.332 61.1626C210.553 61.5171 209.773 61.8716 208.994 62.2261C210.1 64.8396 210.804 67.7745 212.515 69.8866C213.188 70.7153 216.122 69.7142 218.024 69.5478C218.149 69.012 218.284 68.4849 218.409 67.9491C216.046 65.684 213.685 63.4285 211.322 61.1635L211.332 61.1626ZM252.496 8.92894C252.593 9.49305 252.699 10.0469 252.796 10.611C254.735 10.4413 256.722 9.93349 258.612 10.1785C261.303 10.5347 262.419 9.89306 262.789 6.81644C259.333 7.52913 255.915 8.22904 252.496 8.92894ZM91.9526 19.5773C91.8475 19.1379 91.7328 18.6994 91.6277 18.2601C88.0419 18.7933 84.4562 19.3265 80.8704 19.8597C80.9376 20.0829 80.9953 20.3069 81.0625 20.53L91.9526 19.5773ZM209.6 74.8178C211.729 71.8067 210.725 69.1557 206.36 66.0066C205.946 68.2568 211.026 70.0932 206.798 72.6486C207.738 73.3774 208.669 74.0976 209.6 74.8178Z" fill="#E8350D"/>
</svg>
