<svg width="1024" height="1440" viewBox="0 0 1024 1440" fill="none" xmlns="http://www.w3.org/2000/svg">
<g clip-path="url(#clip0_98_1669)">
<rect width="1440" height="1024" transform="matrix(0 -1 1 0 0 1440)" fill="#E8350D"/>
<mask id="mask0_98_1669" style="mask-type:alpha" maskUnits="userSpaceOnUse" x="0" y="-3" width="1024" height="1444">
<rect y="1440" width="1443" height="1024" transform="rotate(-90 0 1440)" fill="#D9D9D9"/>
</mask>
<g mask="url(#mask0_98_1669)">
</g>
<g clip-path="url(#clip1_98_1669)">
<path d="M106.25 651.232C109.542 640.742 112.79 630.281 116.342 619.023C118.555 618.889 124.62 618.522 127.631 618.353C123.633 641.674 119.465 665.998 114.998 691.858C140.514 698.724 166.574 694.912 192.583 690.217C196.52 689.511 199.96 687.452 203.898 686.923C217.571 685.116 225.778 680.812 228.01 670.742C232.472 650.454 238.618 630.332 244.402 608.944C250.724 626.059 256.549 641.851 263.142 659.613C291.829 645.345 313.071 630.482 322.13 608.805C327.792 595.291 335.361 582.146 342.175 568.83C357.421 539.001 357.206 508.752 344.86 479.002C339.813 466.802 326.141 456.314 319.235 444.304C307.935 424.718 299.022 404.496 288.871 384.607C287.3 381.552 284.489 378.741 278.715 376.483C280.91 386.197 283.061 395.911 285.301 405.832C267.562 408.759 262.737 402.896 260.017 394.099C247.504 353.441 235.523 312.69 221.329 272.28C214.82 253.78 203.665 236.051 194.59 217.953C201.524 217.196 216.617 230.308 239.869 257.288C241.638 256.981 243.452 256.673 245.221 256.336C241.702 247.25 239.023 237.952 234.531 229.08C222 204.55 208.584 180.202 195.832 155.703C193.991 152.178 194.139 148.167 193.129 143.073C211.295 144.035 221.927 144.432 224.299 160.336C227.414 181.16 240.755 201.262 250.03 222.454C277.591 211.821 241.177 192.089 270.13 184.011C267.667 186.505 265.249 188.999 260.589 193.779C275.612 188.778 287.852 166.136 280.857 160.289C277.605 157.57 269.521 154.295 266.294 155.262C241.368 162.751 254.519 149.802 251.293 144.665C258.738 145.261 264.411 145.722 274.781 146.533C267.245 139.422 261.805 134.271 254.448 127.365C256.789 126.494 261.648 124.661 262.355 124.39C261.095 115.377 260.607 109.012 259.234 102.741C258.41 98.9143 257.971 93.2565 254.329 91.8376C232.477 83.2064 248.542 75.2496 255.431 66.1195C240.121 49.5106 193.948 46.2411 204.547 16.9469C189.192 31.4148 195.714 45.4622 205.254 60.3725C198.786 60.153 194.046 60.0096 187.755 59.8184C193.252 66.8261 198.348 73.4239 203.488 79.9919C202.124 81.24 200.715 82.4883 199.351 83.7364C192.335 81.1031 185.363 78.4695 175.77 74.8521C183.628 89.9807 191.037 104.228 196.696 115.156C183.811 134.412 172.408 150.238 192.735 168.61C185.306 170.254 179.557 171.534 170.005 173.665C167.041 155.436 164.263 138.472 161.485 121.48C163.742 121.11 165.998 120.74 168.254 120.4C170.622 123.213 172.945 126.027 177.501 131.479C176.964 124.525 175.207 120.321 176.732 116.742C178.301 113.105 183.062 110.034 189.748 103.471C176.838 106.746 168.394 108.9 160.083 111.023C145.281 84.9161 150.681 71.8752 178.206 68.5251C173.112 56.0304 180.088 40.4132 154.921 32.8375C153.87 34.4076 152.248 36.8073 148.697 42.0512C146.959 34.1912 143.151 28.1741 145.644 23.6453C147.043 21.0702 158.824 20.9866 172.183 18.7394C159.457 16.6184 151.608 15.3178 143.316 13.9319C140.31 2.27751 150.812 -3.281 178.888 -3.86355L178.087 -4.3591C179.968 -1.4535 181.893 1.42216 184.445 5.29598C195.433 -0.295568 204.745 -5.02015 214.145 -9.80434C218.979 -2.64449 211.458 10.9717 228.719 9.34552C228.666 1.88637 229.95 -4.46193 228.136 -10.4049C226.867 -14.5826 221.481 -18.2594 217.646 -22.0357C215.237 -24.4363 212.298 -26.6266 209.624 -28.9369L209.706 -29.9106C210.752 -38.5864 211.753 -47.2323 213.175 -59.1541C205.692 -58.8061 198.433 -58.1353 191.257 -58.2613C186.695 -58.3469 181.331 -58.9578 177.997 -60.7031C176.53 -61.4888 179.113 -65.6937 179.847 -68.382C180.517 -67.6202 181.187 -66.8289 181.857 -66.0376C193.819 -65.4443 205.785 -64.4384 217.743 -64.4937C220.932 -64.5164 224.053 -67.7817 227.229 -69.5439C234.384 -66.1745 241.539 -62.8051 250.871 -58.4192C240.608 -56.6363 232.026 -55.1306 216.323 -52.3951C227.78 -48.1127 234.264 -45.6821 241.413 -42.9908C243.371 -35.5451 245.828 -26.2455 248.24 -17.152C242.509 -19.6175 237.711 -21.6768 232.914 -23.7361C231.592 -22.7538 230.27 -21.7714 228.993 -20.7894C236.342 -15.0037 243.69 -9.21791 251.129 -3.34436C249.321 -2.24061 245.748 -0.0628377 246.983 -0.838191C251.513 7.1199 257.797 12.5593 256.633 17.1671C253.446 29.7795 263.406 35.2812 278.605 36.4707C280.733 36.6325 287.945 23.1071 288.424 15.7916C289.264 3.13688 287.136 -9.64413 285.364 -22.2803C283.174 -37.4786 280.01 -52.6405 277.196 -68.4536C271.985 -66.2938 267.089 -63.4875 266.111 -64.0113C260.91 -66.7164 256.721 -70.2838 250.89 -74.4292C244.655 -73.0876 235.722 -71.1668 226.744 -69.2456C231.562 -83.1374 237.615 -85.2443 258.243 -80.5552C260.723 -86.8235 263.247 -93.092 266.163 -100.425C257.471 -101.955 248.469 -103.572 239.467 -105.159C239.546 -106.398 239.626 -107.637 239.706 -108.876C246.079 -109.511 252.408 -110.145 258.56 -110.749C249.185 -158.713 152.243 -219.735 85.5748 -215.134C83.5087 -200.466 81.6171 -186.153 79.3709 -171.896C78.608 -167.055 78.0684 -161.98 75.3537 -157.568C71.8945 -151.971 81.1456 -140.272 60.006 -142.127C59.2082 -142.21 57.289 -138.068 56.2862 -135.82C49.4834 -120.823 44.8105 -105.223 35.389 -91.0034C29.6923 -82.4125 14.2305 -76.8186 7.73592 -68.3106C1.15362 -59.6839 -1.12 -49.2892 -2.91062 -39.4877C-7.30468 -15.8396 -7.39883 8.3381 -14.6747 31.5644C-24.2462 62.0896 -38.5169 91.9995 -51.857 121.962C-55.7806 130.776 -64.3611 138.68 -68.5951 147.437C-70.9958 152.407 -68.9605 158.319 -68.9346 161.975C-76.6057 166.953 -85.9592 172.062 -93.6229 178.101C-118.727 198.005 -143.12 218.286 -167.913 238.334C-173.374 242.737 -179.412 246.819 -186.771 252.178C-194.094 250.048 -203.68 247.227 -214.465 244.06C-81.3653 182.791 22.5137 4.44036 -34.1132 -67.6006C-69.1742 -40.2557 -103.398 -13.5654 -139.692 14.7317C-143.661 4.67625 -147.812 -5.99708 -152.818 -18.7282C-157.381 -12.5926 -161.154 -7.52413 -164.883 -2.54431C-160.595 2.55552 -156.396 7.62666 -151.572 13.3419C-185.382 17.2968 -195.139 15.4495 -232.292 -2.41967C-235.875 41.9501 -239.252 84.0482 -242.592 125.143C-255.938 123.086 -271.811 120.633 -290.478 117.729C-288.121 112.906 -285.677 107.847 -283.93 104.267C-287.115 98.5698 -290.825 93.7902 -292.456 88.7304C-303.235 55.1359 -304.937 21.2706 -294.991 -12.589C-290.753 -27.0369 -284.565 -41.2628 -279.085 -55.5425C-276.041 -63.4364 -271.623 -71.1632 -269.553 -79.1682C-265.457 -94.8239 -245.345 -100.451 -224.416 -109.563C-240.464 -111.66 -226.896 -128.267 -245.262 -126.25C-256.387 -158.545 -267.873 -191.869 -279.271 -225.194C-284.245 -239.694 -292.802 -253.403 -277.72 -268.812C-271.916 -274.78 -279.04 -286.316 -283.76 -296.042C-290.55 -285.498 -297.34 -274.953 -304.042 -264.468C-294.825 -288.799 -278.651 -312.59 -291.837 -342.039C-294.029 -332.618 -295.804 -326.886 -296.604 -321.072C-299.173 -302.272 -301.431 -283.474 -303.777 -264.647C-304.315 -252.997 -307.242 -241.094 -304.682 -229.79C-302.258 -219.045 -294.037 -208.932 -288.113 -198.035C-306.099 -204.866 -311.931 -215.35 -312.064 -227.762C-312.292 -259.987 -312.521 -292.241 -311.954 -324.589C-311.437 -320.465 -310.876 -316.371 -310.36 -312.247C-308.456 -312.26 -306.507 -312.274 -304.603 -312.287L-305.178 -393.365C-303.229 -393.379 -301.236 -393.393 -299.288 -393.407L-299.149 -373.801C-298.218 -373.719 -297.243 -373.637 -296.312 -373.556C-293.37 -383.365 -290.429 -393.204 -287.14 -404.107C-285.959 -400.018 -285.096 -396.957 -283.142 -390.042C-263.463 -413.003 -246.375 -432.878 -230.123 -451.834C-219.751 -432.035 -219.458 -428.234 -225.85 -405.25C-229.477 -392.133 -233.99 -378.981 -235.314 -365.762C-235.726 -361.425 -227.366 -356.767 -222.012 -351.174C-222.054 -357.129 -222.187 -363.467 -222.144 -369.807C-222.083 -373.699 -223.98 -378.904 -220.985 -381.225C-201.427 -396.342 -211.603 -413.459 -211.542 -429.882C-211.563 -432.831 -211.451 -435.78 -211.295 -438.729C-210.596 -452.592 -216.734 -468.736 -188.364 -471.59C-180.278 -461.741 -171.042 -452.254 -164.37 -442.011C-141.981 -407.555 -117.335 -373.529 -115.687 -334.739C-115.364 -326.663 -109.207 -320.249 -94.8646 -321.383C-78.7962 -322.647 -85.9382 -330.468 -86.4219 -336.214C-86.6128 -338.159 -88.1322 -340.094 -87.9685 -341.982C-84.5318 -381.958 -80.3865 -421.938 -77.7475 -461.967C-76.9888 -473.648 -69.1211 -475.886 -54.1021 -475.226C-41.0323 -474.641 -27.7941 -475.265 -19.8665 -475.322C-1.51764 -448.562 14.907 -424.59 32.1819 -399.386C37.5252 -401.606 42.4283 -403.439 46.9748 -405.594C111.774 -436.452 185.919 -429.755 230.722 -407.37C279.215 -383.095 288.74 -345.393 251.488 -314.612C247.966 -311.698 234.143 -312.366 226.424 -314.022C213.516 -316.82 201.744 -321.778 188.337 -326.194C193.705 -337.406 200.705 -349.633 205.31 -362.256C215.607 -390.486 182.107 -411.418 139.198 -404.096C90.6704 -395.791 54.5732 -377.166 32.7764 -346.82C31.2414 -344.686 30.2402 -342.202 30.0355 -339.842C28.5594 -323.173 29.5651 -306.285 25.518 -289.922C18.4997 -261.597 45.2434 -243.949 67.9652 -225.093C72.2422 -221.556 84.0288 -220.784 92.3547 -220.873C134.737 -221.351 175.272 -213.707 204.371 -194.985C231.156 -177.75 248.068 -153.751 269.344 -132.762C277.64 -124.565 285.98 -116.399 295.748 -106.797C286.536 -100.393 285.385 -94.2222 307.144 -92.4307C312.994 -91.9415 317.903 -86.6102 323.24 -83.5227C309.015 -72.1293 300.635 -60.9837 304.465 -45.5317C309.071 -26.7829 308.013 -7.43355 311.115 11.5323C312.319 18.9538 319.764 25.8297 321.279 33.2785C322.426 38.9608 319.193 45.2049 317.109 51.0575C313.852 60.2503 309.31 69.2457 306.718 78.4927C306.027 81.0332 310.037 84.366 312.757 86.9708C314.898 89.049 318.275 90.5582 321.122 92.3071C317.011 93.5156 312.901 94.7242 307.642 96.2947C309.473 98.5225 311.305 100.75 310.099 99.2847C303.461 106.261 296.675 111.174 293.969 116.913C291.919 121.32 295.013 126.753 295.802 131.73C297.884 131.775 299.966 131.819 302.048 131.863C295.881 136.595 289.713 141.297 283.767 145.88C312.996 158.056 337.239 141.549 362.75 135.294C367.006 123.412 372.108 112.142 374.462 100.626C375.104 97.467 366.043 93.9049 364.376 89.9363C360.546 80.7349 358.353 71.2269 355.85 61.8097C355.259 59.5731 355.715 55.1768 356.202 55.1439C372.094 53.9991 364.692 47.0638 361.081 43.7577C358.763 41.6218 350.398 42.4479 343.174 41.7915C342.716 39.6719 341.848 35.904 341.391 33.9907C349.46 28.8622 355.985 24.7176 362.511 20.5729C362.693 21.3087 362.876 22.074 363.059 22.8098C384.238 17.8536 405.374 12.9271 427.748 7.69704C427.951 5.10098 428.192 1.6201 428.719 -5.28296C416.569 5.18173 407.032 9.43625 404.74 -7.76629C398.762 -1.32578 395.07 2.65133 388.213 10.0121C378.651 10.7286 360.989 12.0629 341.999 13.5245C341.53 9.84228 341.014 5.80651 340.264 -0.0260502C346.834 2.07967 350.918 3.37737 353.892 4.32925C358.989 -7.67754 362.709 -20.2051 370.468 -31.5232C372.133 -33.9822 388.491 -32.0049 398.057 -32.0728C398.379 -30.4534 398.744 -28.8345 399.066 -27.2152C393.057 -25.1086 387.004 -23.0017 380.2 -20.6242C388.152 -17.231 395.394 -14.1275 403.302 -10.7045C406.348 -12.1119 410.806 -14.2074 414.559 -15.9441L414.408 -37.2307C419.92 -34.3214 423.877 -32.2266 427.789 -30.161C428.564 -33.3508 429.825 -36.5441 430.068 -39.7596C430.43 -44.9219 430.084 -50.0791 430.044 -55.7398C436.727 -56.318 443.057 -56.8346 449.785 -57.413C426.13 -64.2624 425.478 -75.0492 447.037 -95.163C436.318 -95.2835 411.241 -81.8966 371.807 -55.0023C362.244 -60.7428 359.992 -66.0045 369.195 -73.6177C399.312 -98.5983 434.516 -118.337 480.856 -129.045C503.584 -134.307 524.919 -142.33 546.65 -150.77C540.939 -150.405 535.228 -150.07 529.605 -149.705C523.165 -158.505 636.046 -179.267 667.605 -175.894C677.533 -174.844 688.107 -176.54 697.626 -176.932C701.539 -205.943 678.833 -228.809 655.02 -251.667C658.022 -246.883 660.802 -242.008 664.069 -237.314C667.469 -232.444 671.489 -227.755 675.066 -222.915C677.66 -219.395 681.361 -215.942 682.096 -212.203C682.969 -207.787 681.23 -203.145 680.642 -198.601C675.088 -201.097 667.326 -202.752 664.334 -206.239C656.295 -215.529 649.803 -225.478 643.531 -235.428C636.991 -245.819 629.095 -253.783 605.66 -248.31C634.428 -251.285 624.746 -261.33 621.972 -271.512C616.061 -293.141 612.716 -315.083 608.355 -336.723C625.411 -342.298 631.723 -339.159 633.084 -328.289C635.195 -311.675 638.457 -295.098 641.941 -278.582C643.088 -273.018 646.315 -267.645 649.694 -259.531C659.949 -268.656 664.465 -281.396 685.963 -266.393C677.31 -306.165 669.847 -340.55 662.52 -374.434L628.551 -374.193C627.799 -367.878 627.13 -362.183 626.338 -355.307C620.228 -354.94 614.074 -354.572 608.275 -354.206C601.449 -361.175 609.928 -377.216 586.941 -370.92C571.251 -360.017 605.763 -339.977 566.881 -333.038C563.429 -345.22 560.474 -355.813 557.522 -366.229C468.617 -362.031 377.365 -357.698 282.528 -353.221C283.862 -364.906 284.903 -374.29 286.154 -385.237C393.726 -392.723 498.597 -400.043 604.797 -407.43L604.641 -429.365C617.284 -432.787 625.56 -433.612 627.812 -422.129C631.349 -404.316 638.85 -402.04 665.602 -408.186C642.516 -428.425 653.108 -452.471 647.72 -475.195C662.445 -478.513 670.028 -477.27 670.812 -466.631C671.841 -452.663 674.199 -438.763 681.25 -425.044C681.163 -437.221 680.634 -449.423 681.212 -461.604C681.442 -466.618 683.576 -471.734 686.155 -476.5C686.548 -477.269 696.912 -477.254 697.851 -475.993C702.368 -469.833 706.844 -463.29 708.309 -456.578C709.546 -450.749 706.667 -444.537 705.647 -438.485C707.687 -438.116 709.771 -437.777 711.811 -437.409C717.505 -440.132 723.243 -442.885 728.672 -445.489C726.699 -455.146 724.771 -464.714 722.476 -476.079L794.887 -476.593C798.614 -469.396 802.655 -461.67 806.651 -453.944C808.157 -453.955 809.663 -453.966 811.169 -453.976C812.98 -460.918 814.746 -467.889 817.419 -478.198C831.597 -477.532 851.068 -479.793 864.435 -474.816C873.183 -471.576 873.103 -457.836 880.824 -449.635C881.223 -455.859 881.621 -462.083 882.302 -472.319C906.598 -449.965 887.131 -428.363 901.064 -406.054C954.331 -408.024 1013.8 -410.215 1068.17 -412.222C1065.16 -430.924 1056.98 -447.996 1062.23 -463.07C1065.01 -471.11 1091.02 -475.628 1106.56 -481.724L1112.34 -479.082C1110.82 -468.132 1115.23 -453.127 1106.23 -447.313C1095.56 -440.427 1104.12 -420.232 1075.3 -424.42C1081.16 -423.607 1087.01 -422.823 1094.99 -421.73C1095.62 -419.582 1096.94 -415.11 1098.89 -408.608C1128.19 -430.339 1114.44 -458.576 1131.49 -482.609C1159.84 -456.923 1129.27 -433.413 1131.46 -412.082L1177.39 -412.408C1188.19 -419.354 1195.2 -423.856 1202.21 -428.358L1205.59 -426.436C1203 -422.88 1200.46 -419.294 1196.82 -414.226L1298.42 -414.947C1282.22 -449.86 1241.96 -462.488 1203.98 -478.524C1207.39 -479.285 1211.54 -481.024 1215.61 -480.994C1256.05 -480.75 1296.95 -477.503 1336.66 -480.91C1356.27 -482.582 1374.12 -475.102 1394.19 -480.758C1401 -482.693 1414.75 -473.651 1426.3 -469.251C1425.04 -471.483 1423.29 -474.478 1421.59 -477.503C1443.28 -484.674 1444.21 -484.385 1443.97 -468.315C1443.89 -461.71 1442.16 -455.064 1442.39 -448.49C1442.71 -440.384 1461.25 -436.624 1484.61 -440.77C1481.13 -437.414 1478.98 -435.305 1476.82 -433.196C1477.85 -432.142 1478.92 -431.059 1479.94 -430.005C1486.12 -432.761 1492.35 -435.518 1498.18 -438.095C1506.42 -424.591 1485.3 -399.762 1530.24 -394.686C1523.38 -394.283 1516.52 -393.91 1503.24 -393.167C1522.3 -384.605 1538.38 -377.377 1556.6 -369.221C1548.2 -367.098 1542.5 -365.672 1533.74 -363.457C1543.32 -361.432 1549.8 -360.063 1556.9 -358.58C1547.84 -355.39 1539.31 -352.381 1534.54 -350.726C1540.98 -342.575 1546.43 -335.655 1553.04 -327.299C1545.16 -326.949 1539.18 -326.67 1531.61 -326.351C1533.01 -329.928 1533.96 -332.5 1535.14 -335.575C1523.51 -338.677 1513.02 -344.322 1500.91 -334.182C1498.75 -332.398 1483.26 -337.684 1473.65 -342.864C1478.43 -343.929 1484.54 -344.15 1487.62 -346.295C1490.75 -348.469 1490.95 -352.569 1492.43 -355.793C1466.36 -358.94 1490.56 -363.357 1491.12 -364.953C1473.45 -377.388 1457.12 -388.919 1440.78 -400.449C1439.19 -399.642 1437.56 -398.864 1435.97 -398.056C1443.77 -390.269 1451.58 -382.481 1463.22 -370.888C1443.58 -373.403 1430.46 -375.432 1417.16 -376.665C1411 -377.24 1404.23 -376.956 1398.21 -375.852C1391.09 -374.563 1381.57 -368.952 1387.55 -380.464C1382.77 -380.873 1376.95 -382.6 1373.33 -381.395C1362.37 -377.779 1363.56 -379.203 1351.27 -381.681C1336.41 -384.671 1319.98 -384.584 1304.17 -384.973C1287.02 -385.412 1269.8 -384.847 1252.01 -388.112C1264.61 -391.267 1277.26 -394.394 1289.86 -397.55C1289.41 -398.667 1289 -399.785 1288.55 -400.902C1276.99 -400.82 1265.43 -400.974 1253.87 -400.538C1249.8 -400.391 1242.68 -399.043 1242.38 -397.685C1236.53 -373.23 1206.03 -383.51 1187.92 -382.615C1163.53 -381.41 1151.31 -380.085 1140.79 -364.531C1132.95 -352.947 1116.55 -348.261 1101.97 -354.644C1107.06 -355.712 1110.91 -356.506 1112.72 -356.872C1109.08 -363.805 1105.4 -370.825 1101.05 -379.109C1098.89 -378.032 1092.97 -375.042 1086.31 -371.722C1086.07 -374.492 1085.87 -377.232 1085.48 -382.301C1077.79 -380.064 1071.2 -378.131 1064 -376.045L1063.96 -381.912C1029.54 -382.759 1023.47 -376.465 1031.64 -349.132C1032.41 -346.484 1033.76 -343.899 1035.33 -340.107C1044.85 -341.118 1055.25 -342.223 1067.64 -343.52C1065.86 -350.436 1064.27 -356.411 1062.31 -364.033C1068.53 -362.338 1073.58 -360.988 1080.11 -359.206C1076.24 -354.726 1073.12 -351.078 1067.85 -344.937C1083.76 -344.254 1096.96 -343.669 1110.12 -343.085C1110.02 -344.086 1109.93 -345.118 1109.83 -346.12C1113.74 -344.585 1118.41 -341.256 1121.46 -341.838C1132.26 -343.861 1138.99 -338.012 1146.34 -337.121C1173.39 -333.745 1189.41 -322.212 1205.58 -309.649C1214.49 -302.724 1223.61 -295.772 1233.84 -289.712C1243.14 -284.235 1254.02 -279.978 1267.71 -273.529C1269.49 -266.259 1271.47 -255.01 1275.14 -244.009C1278.89 -232.714 1287.99 -230.98 1302.19 -238.275C1308.02 -241.265 1316.39 -241.914 1322.97 -244.349C1325.22 -245.19 1327.23 -248.507 1326.51 -250.123C1325.79 -251.74 1321.67 -252.831 1318.78 -253.813C1313.76 -255.547 1308.57 -257.013 1303.96 -258.425C1317.78 -263.3 1328.61 -267.151 1344.6 -272.807C1347.3 -267.077 1351.08 -258.937 1355.03 -250.562C1351.53 -245.672 1346.56 -240.035 1343.33 -233.997C1340.22 -228.196 1340.13 -223.094 1325.9 -224.114C1318.95 -224.595 1310.59 -216.664 1299.56 -210.806C1309.05 -208.073 1313.31 -206.835 1314.96 -206.375C1324.51 -195.799 1296.6 -184.043 1317.6 -176.438C1317.7 -163.17 1315.7 -151.039 1318.18 -139.321C1340.58 -34.1331 1345.81 71.5605 1338.36 177.698C1336.52 204.158 1334.44 230.62 1331.4 257.06C1327.48 290.995 1343.1 321.341 1366.7 350.51C1369.69 354.234 1370.43 358.769 1372.41 363.472C1359.66 369.283 1350.53 368.817 1344.79 358.745C1343.22 356.014 1340.85 353.465 1338.49 351.005C1329.79 341.868 1331.4 345.188 1316.15 348.658C1304.56 351.305 1287.2 345.237 1274.19 340.788C1269.35 339.142 1268.28 331.159 1267.53 325.946C1264.18 302.147 1261.13 278.286 1258.92 254.419C1258.35 248.32 1262.46 242.011 1262.07 235.881C1261.47 226.834 1258.71 217.831 1257.1 209.882L1273.49 209.765C1270.45 205.895 1267.36 202.054 1264.41 198.154C1260.52 193.022 1256.81 187.8 1256.1 180.788C1262.33 185.284 1268.56 189.78 1278.76 197.138C1289.83 91.5943 1306.56 -10.6284 1288.97 -111.458C1281.34 -112.996 1274.29 -113.064 1271.53 -115.403C1269.44 -117.157 1272.31 -124.578 1273.9 -124.737C1292.8 -126.404 1284.11 -134.657 1282.25 -140.305C1279.9 -147.423 1275.15 -154.2 1271.78 -161.194C1270.21 -164.396 1267.84 -167.947 1268.52 -171.077C1278.57 -215.287 1252.61 -253.815 1213.19 -284.936C1168.21 -320.44 1108.39 -343.662 1031.45 -331.205C1013.71 -328.337 995.341 -327.263 977.331 -324.953C955.826 -322.176 944.456 -314.135 945.939 -298.637C947.089 -286.409 946.335 -274.109 943.233 -261.792L942.87 -313.003L926.173 -312.885C932.703 -316.499 937.644 -319.217 943.511 -322.472C920.229 -326.671 917.918 -321.524 899.807 -308.511C881.344 -295.23 901.103 -288.205 905.203 -278.446C903.345 -278.108 901.487 -277.8 899.629 -277.463C892.281 -283.101 884.933 -288.739 877.541 -294.436C854.356 -287.018 842.674 -281.353 842.495 -277.44C835.577 -278.659 827.95 -279.991 821.298 -281.182C820.186 -269.292 819.992 -259.207 817.404 -249.429C817.059 -248.129 804.347 -248.216 798.548 -247.762C797.403 -253.091 796.533 -257.095 795.205 -263.188C784.262 -257.509 764.214 -261.582 774.173 -243.668C767.626 -248.899 764.73 -251.237 761.79 -253.546C759.58 -252.94 757.37 -252.305 755.16 -251.7C758.57 -245.532 760.743 -238.884 765.655 -233.288C772.085 -225.962 767.572 -218.972 757.307 -217.602C760.09 -206.034 761.901 -194.283 766.056 -182.932C767.773 -178.226 773.258 -172.929 779.343 -170.466C785.695 -167.916 794.859 -168.482 804.388 -167.518C807.626 -173.084 810.645 -178.354 813.708 -183.624C815.701 -183.638 817.694 -183.593 819.687 -183.578C819.33 -177.737 815.837 -170.725 819.455 -166.357C823.61 -161.345 834.081 -158.648 843.858 -154C863.987 -182.182 863.394 -209.657 864.839 -236.911C866.831 -237.013 868.78 -237.086 870.772 -237.189C870.845 -226.87 870.121 -216.515 871.257 -206.263C872.155 -198.338 879.79 -189.724 876.827 -182.833C866.067 -157.518 882.472 -142.598 908.992 -125.213C985.171 -75.2769 1005.72 -13.4172 981.008 55.7513C973.885 75.6153 964.143 94.5839 941.125 108.959C933.409 113.79 923.691 117.485 914.058 120.591C880.165 131.475 879.597 132.629 896.796 153.323C901.665 159.185 904.06 165.949 906.843 171.06C919.645 171.411 930.543 171.717 943.035 172.041C940.331 177.987 938.761 181.477 936.275 186.95C941.889 185.318 944.757 183.882 947.812 183.713C956.534 183.179 965.958 181.874 973.721 183.588C976.427 184.188 975.292 192.776 975.46 197.728C975.735 205.304 975.612 212.852 975.677 222.022C971.971 217.802 969.113 214.461 965.987 210.857C946.651 232.223 928.335 253.847 907.754 274.455C898.034 284.165 883.25 291.553 871.932 300.655C857.971 311.87 841.353 323.074 862.35 342.296C848.514 339.8 841.995 338.608 834.944 337.331C817.61 353.818 800.101 370.424 782.636 387.029C781.569 386.595 780.459 386.19 779.393 385.755C787.013 373.524 794.677 361.322 802.297 349.091L795.321 346.015C780.6 356.026 765.878 366.037 748.291 378.015C757.857 365.505 765.623 355.101 773.699 344.812C783.927 331.855 783.795 331.974 771.467 317.29C769.501 314.974 770.318 311.489 770.475 308.569C771.317 289.959 758.876 278.165 731.122 274.175C738.878 274.828 746.633 275.48 754.344 276.133C755.087 274.654 755.829 273.174 756.572 271.695C741.441 267.851 726.311 264.008 711.137 260.194L707.394 269.479C699.784 270.683 689.062 270.14 685.055 273.352C663.783 290.339 653.243 290.502 635.975 272.462C634.101 270.5 631.653 268.807 626.752 264.803C624.222 270.157 623.227 273.614 620.902 276.638C618.971 279.158 615.442 281.158 609.292 282.146C610.069 279.192 610.845 276.208 612.484 270.123C603.709 275.492 593.281 278.986 592.778 282.97C592.232 287.19 601.168 291.874 606.563 296.936C604.627 298.719 600.622 302.433 599.391 303.592C589.307 299.418 579.357 295.272 565.986 289.736C566.963 302.584 566.24 312.997 544.762 307.193C541.435 300.17 538.467 293.911 534.106 284.802C529.004 295.954 525.558 303.526 522.113 311.069C520.119 310.906 518.125 310.773 516.086 310.611C513.804 307.354 511.522 304.068 508.524 299.755C500.573 302.672 492.798 305.557 482.55 309.345C493.862 311.948 501.182 313.606 508.502 315.294C501.029 316.998 493.556 318.702 486.127 320.406L486.706 320.814C465.454 315.688 462.452 317.036 450.593 337.257C447.99 338.75 445.388 340.213 442.83 341.706C433.46 350.824 424.136 360.001 414.589 369.032C413.489 370.071 411.101 370.531 409.732 371.101C405.62 365.882 401.642 360.809 395.519 353.01C396.649 349.965 399.256 342.9 401.908 335.864C400.532 335.431 399.112 334.999 397.735 334.537C391.265 340.214 384.795 345.921 378.325 351.569C388.868 339.465 399.412 327.39 410.659 314.543L389.844 314.691C398.698 307.906 404.292 303.591 411.737 297.877C395.954 295.63 389.479 275.686 366.621 293.922C361.465 278.745 357.076 265.773 351.602 249.537C360.438 252.717 362.881 253.614 363.147 253.701C357.947 238.671 352.476 222.965 347.05 207.289C344.527 207.424 341.959 207.531 339.435 207.667C340.172 211.613 340.599 215.62 341.645 219.534C343.692 227.096 351.868 237.151 347.339 241.665C330.89 258.057 335.226 276.13 333.709 293.271C331.415 319.528 339.392 345.152 354.542 370.46C362.129 366.19 367.644 363.085 373.158 359.979C362.215 384.44 361.771 409.269 365.226 434.395C365.973 439.667 361.937 445.15 361.134 450.611C360.627 454.035 360.656 458.044 362.847 461.006C405.241 518.318 392.876 573.482 350.351 628.625C333.937 649.911 312.008 667.816 289.815 686.077C276.649 696.903 270.716 709.653 276.618 723.763C280.944 734.111 286.995 744.299 289.373 754.867C292.163 767.26 294.069 780.072 292.43 792.497C287.682 828.59 279.3 864.502 276.013 900.643C275.07 911.235 282.078 925.19 293.071 932.601C338.063 962.916 326.795 997.788 311.845 1031.89C308.707 1039.08 296.005 1046.48 294.125 1056.19C292.799 1062.84 289.302 1069.38 288.818 1076.04C287.971 1087.78 278.237 1095.4 267.091 1103.76C256.694 1111.56 251.056 1122.16 241.658 1133.52L241.4 1097.11C191.814 1130.98 143.109 1164.26 89.2037 1201.09C91.0726 1183.59 92.529 1170.4 94.0653 1155.97C87.2545 1163.6 81.0985 1169.89 75.9635 1176.5C74.4274 1178.49 74.3633 1181.91 75.8831 1183.87C84.9571 1195.57 76.0621 1196.64 60.8772 1197.57C36.0855 1199.11 23.4804 1189.08 8.3592 1174.03C-7.59081 1204.46 -22.0549 1232.04 -39.2293 1264.68C13.6063 1264.31 59.092 1264.31 104.529 1263.57C147.308 1262.86 190.037 1261.37 232.769 1260.16C246.762 1259.76 262.42 1263.07 271.105 1251.25C272.377 1249.5 280.352 1249.91 284.778 1249.38C290.062 1257.54 294.764 1264.88 299.511 1272.21C302.255 1271.87 305.042 1271.53 307.786 1271.15C310.025 1255.86 312.042 1240.52 314.635 1225.26C316.378 1215.01 319.141 1204.88 321.15 1194.66C323.031 1185.07 330.272 1181.86 343.939 1185.6C339.134 1213.64 334.283 1241.63 329.477 1269.61C331.39 1270.75 333.302 1271.92 335.215 1273.05C350.675 1267.19 366.091 1261.36 380.226 1256.01C383.635 1249.68 387.705 1242.75 390.489 1235.63C390.663 1235.18 401.874 1223.49 383.125 1227.72C382.197 1227.93 378.483 1222.59 375.714 1219.43C373.784 1222.01 371.941 1224.44 370.098 1226.9C367.966 1226.06 365.879 1225.25 363.747 1224.41C365.743 1218.55 365.739 1211.77 370.579 1207.26C372.779 1205.21 384.489 1207.63 394.616 1205.58C387.425 1203.22 380.277 1200.85 372.641 1198.31C375.429 1185.43 397.881 1178.76 416.518 1183.82C423.219 1185.63 435.544 1181.12 443.359 1177.61C449.628 1174.79 452.954 1169.11 458.453 1163.88C455.473 1180.91 457.397 1189.9 464.225 1190.88C463.441 1186.55 462.521 1181.72 461.645 1176.89C471.339 1176.09 481.077 1175.25 490.771 1174.44C491.265 1175.44 491.759 1176.44 492.298 1177.44C488.154 1180.09 484.009 1182.75 477.969 1186.62L490.369 1186.53C478.637 1218.43 478.862 1218.81 516.14 1229.31C509.584 1235.34 503.379 1241.08 497.175 1246.81C490.67 1241.37 484.165 1235.97 475.254 1228.51C472.748 1243.48 471.007 1254.1 469.094 1265.41C482.465 1264.69 493.577 1264.09 504.734 1263.5C504.723 1261.88 504.667 1260.23 504.611 1258.61C496.722 1257.81 488.832 1257.01 480.943 1256.21C480.048 1254.98 479.154 1253.72 478.215 1252.49C484.357 1250.47 490.543 1248.45 496.685 1246.43C502.433 1251.34 508.182 1256.26 515.713 1262.69L562.215 1262.36C563.097 1255.57 563.81 1250.05 564.271 1246.31C569.873 1243.02 574.636 1240.22 579.4 1237.44C574.069 1235.15 568.782 1232.83 558.875 1228.54C566.896 1223.02 577.518 1215.7 588.052 1208.46C632.817 1212.89 640.202 1211.3 639.724 1200.16L573.868 1200.63C574.949 1196.87 576.072 1192.86 577.239 1188.84L581.601 1191.93C587.43 1189.41 596.32 1187.76 598.599 1184.26C605.652 1173.39 610.176 1161.8 615.022 1151.89C628.608 1156.54 638.508 1159.89 653.87 1165.15C642.196 1167.77 637.862 1168.71 628.399 1170.84C637.593 1174.49 642.8 1177.93 648.382 1178.16C650.996 1178.26 654.497 1172.31 657.13 1168.96C660.159 1165.1 662.699 1161.11 665.681 1156.87C669.382 1160.32 672.591 1163.28 676.693 1167.11C691.294 1139.97 692.215 1138.75 698.413 1138.3C684.866 1132.94 678.628 1115.2 690.774 1110.4C706.939 1104.03 706.64 1099.38 694.716 1091.71C693.247 1090.75 695.658 1087.1 699.564 1088.43C711.316 1084.25 723.067 1080.07 737.602 1074.92C732.336 1081.74 725.554 1087.21 724.179 1093.21C722.719 1099.56 722.828 1108.79 728.525 1112.64C745.614 1124.19 725.154 1130.74 722.824 1139.42C722.177 1141.78 717.629 1143.73 716.527 1144.57C734.831 1158.68 706.665 1165.27 706.253 1175.95C705.805 1187.72 698.049 1199.39 693.656 1210.68C712.854 1207.3 722.556 1195.15 715.603 1182.75C714.391 1180.58 717.601 1177.32 718.778 1174.56C740.472 1179.69 744.342 1163.39 760.092 1160.89C762.994 1170.42 742.653 1175.01 745.128 1186.76C747.282 1196.89 744.812 1210.82 735.562 1218.02C717.767 1231.83 761.52 1237.36 742.346 1250.26C765.966 1239.66 765.336 1219.61 785.481 1206.02C786.097 1211.71 787.864 1217.3 787.016 1222.7C785.913 1229.58 780.824 1236.34 781.093 1243.06C781.257 1247.42 786.754 1254.46 791.854 1255.33C803.96 1257.46 817.729 1256.74 821.904 1245.92C832.035 1219.34 841.368 1192.62 851.721 1166.1C869.337 1120.84 867.947 1074.73 867.443 1028.62C867.393 1021.55 871.284 1014.44 873.014 1008.56C886.974 1009.73 895.793 1010.47 909.132 1011.58C919.687 1019.85 901.778 1023.78 899.247 1029.16C902.277 1038.02 905.308 1046.87 908.338 1055.75C910.152 1055.48 911.966 1055.2 913.735 1054.89L913.612 1037.5C921.157 1033.55 927.688 1030.17 932.984 1027.39C944.03 1054.94 942.164 1066.54 925.388 1080.49C931.823 1088.46 937.497 1095.5 943.261 1102.62C943.873 1101.5 946.689 1098.79 946.758 1096.05C947.281 1069.93 948.424 1043.76 946.866 1017.68C946.465 1011.08 937.031 1004.78 927.251 999.718L929.841 983.984L929.047 984.521C931.692 982.733 937.036 980.513 936.584 979.248C933.555 970.69 929.156 962.377 925.376 953.942C918.849 939.246 912.411 924.52 904.308 906.091C916.945 908.065 921.469 908.947 926.079 909.445C932.949 910.193 939.861 910.645 946.775 911.244C946.916 906.202 948.756 897.078 946.938 896.766C927.603 893.277 937.539 882.917 935.852 876.088C930.926 856.044 926.132 835.823 925.014 815.575C924.355 803.933 930.073 791.981 934.508 780.421C937.03 773.858 943.678 768.209 930.752 762.905C927.465 761.542 926.67 755.681 927.398 752.108C934.232 716.56 941.332 681.04 949.408 645.631C950.095 642.619 958.361 640.32 963.081 637.692C965.212 638.443 967.344 639.195 969.43 639.917C961.454 683.05 953.478 726.183 945.502 769.316C947.718 769.566 949.934 769.786 952.151 770.036C955.777 738.108 965.612 707.227 982.054 677.479C984.491 677.668 986.929 677.857 989.366 678.046C989.439 688.394 990.576 698.794 989.276 709.064C988.018 718.98 984.234 728.766 981.041 740.641C999.35 736.796 1004.76 731.038 1006.72 720.911C1013.17 686.988 1021.65 653.227 1029.39 619.354C1039.74 618.248 1047.84 617.365 1055.98 616.482C1056.07 615.479 1056.19 614.475 1056.27 613.472C1048.56 612.407 1040.8 611.341 1033.93 610.388C1039.72 595.722 1048.03 582.101 1049.84 568.112C1051.56 554.36 1046.41 540.244 1044.8 526.28C1044.33 522.333 1045.72 518.283 1046.56 512.292C1040.17 509.537 1026.76 486.044 1028.24 476.51C1029.98 465.265 1030.43 453.851 1029.68 442.564C1028.69 427.269 1013.33 423.191 987.004 426.355C991.881 414.586 994.519 405.604 999.331 397.167C1007.99 382.039 1018.25 367.342 1027.09 352.242C1028.71 349.518 1026.69 345.847 1026.17 340.956C1029.17 339.608 1035.27 336.882 1041.36 334.156C1036.35 314.702 1054.44 299.36 1068.12 285.376C1076.74 276.558 1078.93 267.756 1084.14 259.08C1101.47 230.062 1118.01 200.844 1134.63 171.655C1136.38 168.605 1136.49 165.125 1141.29 161.111C1142.25 165.114 1145.33 169.515 1143.76 173.005C1134.39 194.094 1136.89 215.039 1144.21 235.833C1144.93 237.951 1153.71 238.773 1161.25 240.901C1161.25 241.049 1160 245.067 1158.79 249.086C1150.52 276.417 1142.3 303.749 1133.65 332.38C1137.96 334.502 1143.42 337.176 1149.51 340.14C1143.22 339.241 1137.72 338.425 1128.19 337.048C1120.58 357.24 1112.97 376.989 1105.71 396.795C1103.45 402.974 1101.99 409.264 1100.13 415.499C1095.55 430.686 1084.19 434.776 1061.66 429.718C1053.1 427.803 1044.14 426.599 1032.03 424.473C1033.67 430.447 1033.62 435.99 1035.48 436.301C1077.65 442.96 1078.9 468.632 1088.12 489C1098.74 512.394 1103.43 536.98 1110.64 560.958C1125.33 558.731 1121.2 551.301 1118.94 544.418C1116.13 535.976 1109.91 526.349 1136.89 527.72C1117.97 526.469 1103.92 525.065 1115.65 510.829C1120.83 510.792 1126.71 510.102 1132.17 510.859C1139.93 511.983 1147.95 513.548 1154.53 516.302C1156.3 517.027 1151.7 523.074 1152.87 526.191C1153.91 528.926 1158.88 530.984 1163.69 534.488C1158.87 541.805 1152.39 551.669 1145.9 561.563C1147.68 562.789 1149.46 563.985 1151.2 565.211C1167.41 558.58 1183.61 551.919 1199.16 545.588C1198.97 544.145 1200.18 546.111 1199.21 547.121C1183.61 563.389 1183.34 581.524 1183.24 599.775C1183.26 602.281 1182.26 605.325 1179.97 607.169C1169.85 615.32 1170.64 627.049 1183.84 633.678C1199.04 641.324 1215.03 648.316 1231.2 655.012C1234.54 656.375 1240.28 655.154 1242.06 655.142C1248.43 661.554 1254.68 667.701 1260.7 673.938C1264.81 678.184 1268.6 682.551 1272.58 686.857L1273.02 686.529C1267.37 683.768 1262.17 680.297 1255.91 678.484C1249.38 676.584 1241.81 676.225 1233.74 675.073C1233.5 672.775 1233.02 667.825 1232.11 658.456C1223.27 666.42 1218.69 670.551 1216.67 672.393C1214.94 666.361 1215.76 657.451 1209.74 651.715C1203.1 645.394 1190.23 642.006 1176.68 635.792C1172.37 646.496 1168.98 654.982 1165.71 662.996C1177.68 665.093 1187.8 666.849 1198.04 668.663C1187.26 685.015 1181.11 686.592 1162.79 675.459C1166.75 690.114 1134.74 698.95 1156.42 714.659C1158.93 712.312 1161.66 709.787 1164.39 707.29C1166.07 707.485 1167.8 707.679 1169.48 707.903C1167.15 721.541 1164.98 735.178 1162.33 748.789C1160.84 756.554 1157.66 764.213 1157.01 771.943C1156.8 774.362 1161.79 778.16 1165.61 779.106C1169.15 779.965 1177.25 778.581 1178.26 776.863C1181.14 771.978 1181.46 766.433 1186.37 759.44C1189.46 764.607 1192.56 769.804 1197.71 778.406C1209.16 781.126 1214.69 787.455 1195.67 796.406C1192.38 794.778 1189.05 793.121 1183.4 790.331C1179.81 796.43 1174.4 801.599 1174.17 806.848C1173.76 816.788 1170.7 823.679 1155.95 829.032C1143.67 833.483 1144.13 842.118 1152.73 849.93C1157.77 854.493 1166.22 859.888 1165.37 864.258C1163.92 871.787 1156.35 878.799 1151.35 886.058C1149.05 885.838 1146.7 885.619 1144.39 885.399C1148.75 887.55 1153.1 889.731 1159.37 892.841C1154.93 897 1150.66 901.011 1145.03 906.329C1140.05 897.873 1136.24 891.472 1131.58 883.574C1119.99 891.676 1096.13 887.511 1094.33 902.472C1090.29 900.909 1085.01 898.882 1079.68 896.827C1100.49 914.635 1097.96 933.729 1092.43 953.081C1091.87 955.06 1088.92 957.853 1086.27 958.343C1062.38 962.817 1056.75 973.885 1059.43 989.168C1056.58 980.785 1043.6 975.069 1054.69 964.287C1060.85 958.317 1058.43 948.428 1059.92 940.22C1061.11 945.608 1062.3 951.083 1063.72 957.648C1094.73 934.136 1096.5 927.017 1073.64 913.617C1072.39 918.107 1072.64 922.145 1070 925.053C1067.36 927.932 1062.2 930.71 1057.42 931.481C1054.5 931.944 1047.79 928.808 1047.07 926.631C1044.72 919.571 1045.23 911.076 1030.55 921.176C1028.02 919.277 1025.52 917.378 1022 914.75C1021.16 921.154 1020.41 926.761 1019.48 934.08C1015.48 931.307 1012.27 929.119 1005.33 924.333C1007.4 934.932 998.724 942.011 1012.2 949.906C1017.63 953.081 1012.62 965.058 992.269 962.313C996.321 965.38 998.552 967.634 1001.57 969.205C1013.76 975.575 1016.15 981.868 1009.27 992.354C996.517 1011.73 1013.54 1033.07 1043.34 1037.78L1043.74 1093.59C1046.22 1093.81 1048.7 1094 1051.14 1094.22C1053.62 1082.7 1056.55 1071.21 1058.42 1059.67C1059.65 1052.09 1057.38 1044.2 1073.88 1041.9C1079.02 1041.19 1085.09 1036.25 1086.71 1032.49C1092.54 1018.71 1096.7 1004.65 1101.95 989.249C1102.56 989.127 1107.39 988.149 1109.64 987.691C1093.35 970.588 1115.02 952.596 1108.56 935.689C1126.19 972.773 1117.47 1010.57 1113.8 1049.78C1112.66 1045.02 1111.84 1041.69 1110.2 1034.92C1099.79 1047.38 1091.66 1057.11 1083.54 1066.86C1084.65 1067.42 1085.81 1067.97 1086.92 1068.52C1085.91 1063.6 1084.94 1058.66 1083.84 1053.36C1061.71 1060.98 1070.19 1051.24 1061.84 1110.74C1057.74 1107.91 1052.98 1104.62 1048.22 1101.29C1043.9 1104.77 1037.33 1107.85 1035.67 1111.81C1023.47 1140.41 1012.87 1169.29 1000.23 1197.81C998.224 1202.33 988.813 1205.46 978.319 1212.08C992.952 1183.32 1006.14 1157.43 1019.29 1131.54C1017.92 1131.13 1016.58 1130.76 1015.21 1130.36C1007.64 1137.4 998.253 1143.89 992.815 1151.6C981.414 1167.75 957.048 1172.96 938.473 1183.12C930.488 1187.48 923.627 1194.28 920.662 1200.85C913.64 1216.17 909.279 1232.03 903.897 1247.52C933.346 1253.18 939.33 1241.37 942.278 1226.2C943.731 1218.76 947.932 1211.53 950.891 1204.2C952.665 1204.48 954.438 1204.74 956.212 1205.02C952.526 1216.1 949.15 1227.21 945.065 1238.24C941.849 1246.93 947.575 1248.69 959.084 1247.66C980.373 1245.74 1001.76 1244.53 1022.96 1242.31C1029.82 1241.59 1035.9 1238.01 1042.76 1237.01C1047.98 1236.27 1053.84 1237.73 1059.46 1237.99C1094.6 1239.56 1127.83 1234.94 1160.74 1223.73C1176.73 1235.18 1170.14 1249.14 1167.13 1261.99C1165.19 1270.2 1153.03 1278.33 1175.24 1282.3C1178.13 1282.81 1178.05 1290.6 1179.55 1295.75C1146.73 1295.98 1116.71 1296.64 1086.72 1296.29C1058.68 1295.96 1032.14 1307.47 1006.53 1298.83C1002.28 1317.85 998.586 1334.48 994.895 1351.1L995.203 1350.78C985.395 1360.37 975.541 1369.93 967.932 1377.36C968.608 1378.95 967.482 1376.3 966.445 1373.83C929.47 1381.11 942.267 1399.36 942.649 1415.75C941.121 1412.69 939.594 1409.61 937.707 1405.82C935.943 1406.89 933.644 1407.59 933.429 1408.47C930.934 1418.87 924.997 1424.84 906.17 1424.29C872.902 1423.35 839.473 1424.77 806.164 1424.38C787.826 1424.16 769.565 1422.23 751.309 1421.06L750.561 1421.83C766.768 1408.89 782.975 1395.95 799.182 1383.04C797.669 1382.05 796.201 1381.05 794.688 1380.06C789.693 1381.48 784.699 1382.93 779.66 1384.36L776.233 1382.02C792.633 1365.1 808.989 1348.21 825.125 1331.58C816.463 1334.24 807.006 1337.13 791.361 1341.93C795.952 1327.28 799.243 1316.67 803.314 1303.7C789.856 1304.56 778.08 1305.32 763.737 1306.25C766.776 1310.18 769.936 1312.28 769.55 1314.05C764.869 1334.72 759.922 1355.37 754.399 1375.95C752.544 1382.9 748.738 1389.59 745.819 1396.39L745.818 1396.3C743.826 1390.15 740.062 1383.99 740.195 1377.85C740.462 1365.53 742.811 1353.22 744.318 1340.91L737.757 1340.07C733.493 1350.81 729.095 1361.48 725.097 1372.27C723.098 1377.68 723.362 1383.66 719.987 1388.61C715.165 1395.63 708.16 1400.87 711.505 1410.37C714.533 1418.93 705.806 1424.95 688.842 1424.8C643.132 1424.42 597.344 1425.6 551.637 1425.69C541.185 1425.7 530.764 1423.89 518.886 1422.8C520.696 1403.29 522.816 1383.7 524.006 1364.12C524.166 1361.7 519.719 1359.16 517.398 1356.67C514.626 1359.17 511.898 1361.7 509.08 1364.1C504.156 1356.8 499.277 1349.55 494.354 1342.27L501.46 1338.89C515.069 1346.81 528.678 1354.74 541.62 1362.28C556.241 1344.28 537.16 1326.61 543.988 1308.96C522.201 1309.46 496.782 1303.78 498.46 1327.97C495.01 1322.48 497.624 1316.33 494.332 1314.2C489.704 1311.2 480.713 1311.14 470.734 1309.3C473.972 1316.18 477.997 1321.6 476.673 1322.29C463.565 1328.87 471.522 1332.82 478.251 1338.67C482.172 1342.06 483.642 1349.39 480.789 1353.1C472.933 1363.18 475.189 1369 491.904 1371.54C485.852 1373.79 479.575 1375.55 474.324 1378.21C470.264 1380.27 467.541 1383.47 461.728 1388.17C473.742 1389.77 484.248 1391.2 494.755 1392.6C496.307 1386.54 497.015 1380.32 499.631 1374.46C501.331 1370.62 505.781 1367.34 509.034 1363.78C510.413 1364.62 513.032 1365.52 512.949 1366.26C509.985 1385.59 506.712 1404.9 503.23 1425.91C495.029 1424.91 487.936 1424.02 480.799 1423.16C482.827 1415.59 484.899 1408 487.963 1396.6C475.695 1402.97 468.944 1406.52 464.531 1408.79C466.764 1411.34 468.376 1413.78 470.825 1415.74C474.032 1418.25 477.945 1420.4 481.549 1422.71C469.909 1423.97 458.226 1425.26 446.587 1426.52C446.223 1425.17 445.815 1423.85 445.451 1422.49C451.023 1421.36 456.596 1420.23 462.168 1419.1C461.671 1417.66 461.218 1416.22 460.72 1414.78C452.049 1416.16 443.378 1417.55 433.601 1419.13L433.476 1401.41C431.836 1401.3 430.241 1401.16 428.601 1401.06C427.064 1409.15 425.527 1417.21 423.776 1426.39C413.857 1426.58 403.04 1431.43 401.404 1419.3C397.669 1392.29 405.713 1383.65 437.721 1381.71C439.102 1370.47 440.617 1359.22 441.556 1347.98C441.637 1346.98 437.643 1345.86 433.643 1343.85C432.002 1349.73 430.792 1354.1 429.064 1360.16C411.343 1346.99 426.101 1335.77 426.361 1322.56C432.381 1328.32 436.306 1332.1 440.23 1335.85C441.466 1335.28 442.702 1334.71 443.938 1334.14C440.875 1326.94 437.812 1319.73 433.083 1308.59C418.521 1309.96 398.025 1311.44 377.847 1314.06C372.67 1314.74 367.028 1318.5 364.217 1321.82C359.253 1327.63 355.933 1334.11 352.657 1340.48C351.215 1343.32 349.604 1347.22 351.348 1349.51C360.557 1361.59 349.217 1367.48 331.363 1373.12C333.12 1358.51 334.876 1343.9 336.721 1329.3C337.266 1324.93 339.582 1320.43 338.533 1316.28C338.033 1314.37 331.381 1313.18 327.517 1311.64C316.947 1326.4 306.846 1313.47 291.943 1310.48C289.591 1316.01 285.377 1321.38 285.327 1326.74C284.94 1359.59 285.483 1392.43 285.732 1427.55C276.981 1430.17 270.011 1427.81 269.313 1416.9C267.428 1388.46 264.968 1360.03 262.862 1331.59C262.47 1326.32 262.742 1321.04 262.68 1312.19L-246.986 1315.81C-222.492 1297.32 -225.247 1283.63 -250.958 1274.12C-244.955 1264.96 -240.13 1258.38 -219.658 1259.86C-183.232 1262.55 -146.213 1261.43 -109.445 1262.47C-95.0038 1262.87 -89.1871 1258.7 -89.1181 1249.7C-89.125 1248.73 -88.6004 1247.73 -88.6957 1246.78C-90.6038 1227.54 -84.2187 1209.87 -67.5476 1193.68C-62.357 1188.66 -56.5182 1181.36 -70.9365 1177.99C-98.8414 1171.46 -110.615 1153.8 -129.308 1140.99C-142.749 1131.76 -153.369 1120.67 -167.985 1108.03L-167.629 1158.27C-168.691 1158.37 -169.798 1158.46 -170.86 1158.53C-171.087 1157.74 -171.713 1156.88 -171.497 1156.12C-159.293 1109.65 -194.724 1072.46 -222.108 1033.14C-233.161 1017.24 -234.714 998.146 -238.561 980.306C-243.277 958.462 -245.958 936.427 -249.347 914.485C-253.57 887.39 -236.914 862.77 -228.593 837.089C-215.895 797.755 -178.111 767.148 -146.149 733.84C-149.272 743.061 -152.351 752.252 -155.475 761.474C-153.655 762.08 -151.79 762.715 -149.97 763.322C-141.882 754.684 -133.838 746.018 -125.706 737.321C-119.135 739.594 -119.039 751.122 -125.417 771.904C-117.55 769.46 -110.745 767.318 -103.895 765.176C-115.095 784.657 -143.382 799.128 -140.557 822.842C-124.815 806.721 -111.826 789.705 -99.5474 772.428C-98.4947 770.976 -102.635 767.91 -104.335 765.592C-95.1469 755.915 -85.9149 746.208 -74.4848 734.186C-76.1208 740.802 -77.1104 744.878 -78.5737 750.874C-72.1651 748.971 -67.9665 747.732 -63.5467 746.433C-57.3111 751.372 -64.5299 763.895 -43.6206 764.513C-44.9264 767.736 -46.7116 772.053 -48.4958 776.518C-53.5996 775.051 -57.5941 773.9 -56.2183 774.303C-77.298 799.602 -97.7185 824.16 -118.842 849.519C-120.268 848.35 -122.228 846.713 -123.03 846.04C-148.353 866.328 -138.914 892.001 -147.029 915.557L-147.317 875.078C-149.046 874.766 -150.776 874.424 -152.461 874.112C-155.124 879.526 -158.497 884.857 -160.362 890.384C-168.124 913.761 -167.386 936.695 -158.759 960.25C-149.184 986.335 -142.838 1013.12 -138.485 1039.86C-136.217 1053.67 -140.455 1068.12 -143.367 1082.15C-150.178 1114.69 -116.435 1132.58 -88.1978 1154.67C-84.1097 1150.31 -81.6047 1147.61 -79.0551 1144.9L-79.7229 1144.38C-77.7344 1149.97 -75.7902 1155.58 -73.8018 1161.17C-69.5662 1158.87 -65.2861 1156.6 -61.0505 1154.3L-60.9581 1167.33C-58.3428 1167.64 -55.7722 1167.91 -53.1569 1168.22C-49.9254 1161.74 -46.0291 1155.31 -43.8173 1148.69C-43.2107 1146.8 -47.5249 1144.24 -49.5784 1141.95L-59.1097 1146.97C-59.9115 1140.08 -60.7574 1133.22 -61.5593 1126.32L-61.999 1126.77C-57.6404 1123.08 -53.2376 1119.39 -50.9484 1117.43C-49.3634 1122.35 -46.9624 1129.88 -44.5616 1137.41L-33.7986 1137.48C-30.3326 1126.6 -25.7587 1115.84 -23.7107 1104.86C-21.0659 1090.6 -21.653 1076.51 3.89648 1069.43C25.4676 1063.44 -4.6172 1055.57 3.5693 1048.32C-1.17704 1047.29 -5.87897 1046.23 -9.51644 1045.43C-19.0436 1007.32 -29.8254 967.178 -38.571 926.847C-40.3575 918.515 -33.0255 909.441 -32.5561 900.681C-32.0073 890.653 -34.3376 880.585 -35.8046 867.328C-41.9192 873.209 -44.9107 876.061 -47.902 878.942C-43.6397 861.693 -36.897 844.456 -49.9089 827.064C-54.2845 853.307 -58.7043 879.55 -63.0802 905.763C-65.2561 904.953 -69.2923 904.156 -69.3427 903.301C-69.9949 867.571 -61.4309 832.394 -46.082 798.408C-41.1981 787.611 -22.3433 779.546 -9.9196 770.229C12.4611 753.5 34.8418 736.771 57.1784 720.072C59.528 739.102 47.1993 755.554 38.687 773.069C31.0042 788.897 14.8598 804.403 23.1494 824.157C34.1938 807.715 30.6833 787.366 58.9203 778.291C60.025 777.93 58.362 774.521 58.9689 772.66C64.9045 754.042 70.308 735.34 77.7513 716.978C79.4927 712.72 88.3294 709.709 93.8846 706.131C95.6177 706.944 97.3064 707.728 99.0395 708.542C103.109 695.392 108.287 682.294 110.806 669.008C111.916 663.251 107.665 657.089 105.851 651.088L106.25 651.232ZM794.597 -118.003L794.803 -89.0219C813.131 -108.936 813.827 -129.403 801.543 -150.338C796.525 -152.16 791.77 -154.337 786.49 -155.715C770.827 -159.761 758.286 -160.793 761.943 -144.72C763.497 -137.92 761.865 -130.774 762.313 -123.818C762.611 -119.162 764.017 -114.514 764.892 -109.861C767.817 -109.558 770.742 -109.284 773.668 -108.98L742.651 -61.025C740.742 -61.5422 738.834 -62.0887 736.882 -62.6056C736.361 -67.3193 735.884 -72.0334 735.364 -76.7472C726.937 -65.8962 720.328 -54.8516 717.176 -43.4188C713.764 -31.1292 713.588 -18.4791 712.497 -9.92091C709.946 -13.6178 705.338 -20.2191 700.774 -26.7911C698.474 -26.2441 696.219 -25.6975 693.92 -25.121L694.133 4.83369C694.798 4.88794 695.418 4.9719 696.083 5.02615C696.857 1.80687 697.588 -1.41204 698.362 -4.60184C700.158 17.4691 698.053 39.2139 693.688 60.7389C691.078 73.6126 682.707 86.0554 681.159 98.9215C680.407 105.178 689.268 111.925 693.832 118.439C699.833 115.33 707.523 112.946 711.437 108.967C716.977 103.296 719.763 96.4068 721.865 93.0601C732.507 94.8716 741.153 96.1369 750.926 87.7825C755.416 83.9471 765.453 81.5467 773.114 81.3449C777.586 81.2247 782.276 86.7345 787.036 89.6196C789.349 91.0185 792.058 92.1787 799.125 95.6961C796.06 81.8308 793.726 71.3214 791.071 59.1632C795.472 61.4612 797.47 62.1842 798.807 63.2657C800.099 64.3769 801.615 65.8697 801.492 67.1384C799.728 87.0528 814.716 101.925 834.209 115.202C839.728 118.966 847.334 123.57 854.111 123.67C859.825 123.747 865.806 117.808 872.423 114.075C897.513 123.362 946.622 103.347 946.999 81.644C947.343 61.4448 946.801 41.2225 946.657 20.9973C947.809 20.9891 949.005 20.9806 950.156 20.9725L950.592 82.4441C1011.84 12.6329 974.641 -104.952 856.602 -136.96C853.634 -130.747 850.71 -124.652 847.916 -118.854C847.235 -121.266 846.418 -124.003 845.374 -127.622C842.732 -125.421 839.342 -122.537 839.254 -122.566C825.652 -129.398 820.689 -123.584 818.042 -115.84C816.09 -110.107 815.467 -104.205 814.446 -98.3603C812.998 -90.1239 817.325 -79.5401 794.771 -81.0607C791.935 -81.2469 784.953 -72.7355 784.543 -68.0741C782.281 -43.6745 781.568 -19.227 780.236 5.19542C780.078 7.90909 779.477 10.5966 779.097 13.2823C776.262 13.1255 773.426 12.9687 770.59 12.8119C772.562 -15.1237 772.85 -43.1653 777.215 -70.941C779.715 -86.8507 788.995 -102.308 795.217 -117.978L794.597 -117.974L794.597 -118.003ZM833.899 252.512C839.415 249.701 847.461 247.639 850.048 243.935C864.122 223.786 876.199 203.003 890.317 182.853C900.797 167.919 883.359 157.251 879.682 144.54C877.684 137.625 873.022 129.727 859.632 134.038C853.799 135.937 848.318 143.672 849.015 148.296C851.151 162.138 844.576 171.885 826.824 179.235C811.412 185.595 809.34 193.217 824.722 201.363C827.701 202.963 829.227 205.783 833.287 209.941C826.672 207.718 823.52 206.679 820.235 205.582C821.136 214.096 821.993 222.405 822.893 230.713C823.824 230.765 824.754 230.817 825.685 230.87C827.034 227.617 828.429 224.364 829.779 221.141L837.356 221.617C836.367 232.032 835.422 242.418 834.566 252.891C830.139 253.128 825.711 253.337 821.018 253.606C820.382 263.753 819.664 274.962 818.946 286.171C821.606 286.447 824.265 286.723 826.925 287.029C829.308 279.582 831.691 272.164 834.335 263.978C835.043 263.885 838.847 263.298 842.697 262.71C839.749 259.34 836.802 255.941 833.855 252.571L833.899 252.512ZM589.279 164.439C590.194 162.31 591.109 160.18 592.068 157.933C602.699 176.845 612.792 194.847 623.423 213.76C636.362 202.257 646.837 192.895 660.657 180.62L630.541 180.834C637.928 166.983 645.227 153.221 652.482 139.636C625.534 143.1 617.921 137.552 621.199 118.836C622.943 108.711 622.382 98.3068 621.158 88.1139C618.897 69.0242 615.395 49.9726 612.425 30.9174C605.237 -14.6732 610.407 -59.9979 619.52 -105.291C622.086 -118.076 623.013 -131.027 624.735 -144.218C598.194 -139.666 574.081 -136.104 550.552 -131.367C523.972 -126.019 494.588 -122.479 482.996 -102.111C479.408 -95.835 477.285 -83.024 479.814 -82.3933C494.145 -78.7799 486.151 -75.686 481.975 -71.1748C475.426 -64.0816 470.076 -56.4957 464.15 -49.0531C466.679 -48.4814 469.917 -47.7672 470.006 -47.7383C468.13 -37.5234 466.425 -28.0175 464.81 -18.4531C462.8 -8.41421 460.745 1.62507 458.735 11.664C461.397 12.2643 464.103 12.8937 466.764 13.494C471.985 6.49868 479.555 -0.248139 481.23 -7.60161C481.962 -10.6437 470.106 -14.9233 464.012 -18.654C479.391 -23.4512 494.725 -28.2184 512.358 -33.7097C500.125 -22.4778 497.724 -11.3157 504.542 0.783454C507.279 5.65842 511.363 13.2954 508.06 15.943C499.429 22.874 508.099 27.6184 511.181 31.341C516.765 38.0238 527.163 42.8445 534.249 49.0743C537.859 52.233 538.6 56.8273 541.205 61.9096C544.567 42.5735 547.502 25.5403 550.482 8.5067C553.05 8.37053 555.617 8.23424 558.185 8.06859C561.702 23.0806 565.263 38.1218 568.78 53.1338C566.746 53.5316 564.755 53.9291 562.721 54.2973C559.981 48.9506 557.286 43.633 553.828 36.9057C550.905 49.4867 541.782 62.0528 569.483 64.7457C566.004 67.6304 563.671 69.5634 561.337 71.4964C567.332 73.7242 573.327 75.952 579.277 78.1505C563.171 92.8006 560.365 96.8303 561.888 99.1783C567.142 96.9592 572.883 94.5597 579.153 91.8911C582.04 99.1533 584.553 103.853 585.739 108.68C588.839 121.189 592.339 133.724 593.757 146.333C594.419 152.284 590.831 158.472 589.147 164.469C583.015 155.461 576.883 146.453 570.752 137.445C568.451 137.845 566.151 138.274 563.895 138.673C568.636 170.187 562.936 203.162 598.443 232.424C599.332 226.668 601.339 222.349 600.336 218.376C596.327 202.66 591.211 187.04 586.981 171.355C586.39 169.206 588.454 166.715 589.279 164.38L589.279 164.439ZM-216.182 913.306C-238.701 929.299 -209.17 1046.47 -176.97 1065.31C-176.296 1060.44 -175.749 1056.28 -175.159 1052.12C-176.402 1070.35 -169.601 1086.31 -148.516 1099.2C-148.725 1069.86 -146.089 1041.86 -149.783 1014.26C-155.257 973.199 -180.031 933.541 -165.647 888.387C-181.841 890.625 -193.788 892.272 -207.593 894.198L-207.295 936.123C-210.047 929.066 -212.754 922.068 -216.138 913.306L-216.182 913.306ZM942.007 -347.228C950.508 -341.274 956.902 -332.828 964.035 -332.554C979.806 -331.988 996.082 -335.14 1011.83 -337.67C1017.14 -338.533 1025.18 -341.833 1025.6 -344.46C1027.26 -354.143 1025.33 -364.065 1026.5 -373.804C1027.71 -384.043 1017.75 -384.091 1008.23 -383.197C988.137 -381.286 968.271 -378.432 950.836 -376.304C949.949 -370.223 949.148 -364.409 948.304 -358.595C945.868 -358.607 943.432 -358.619 941.04 -358.632C939.623 -364.784 938.207 -370.936 936.47 -378.442C928.15 -377.558 920.096 -376.675 912.129 -375.822C913.825 -367.815 915.108 -361.809 916.664 -354.744C908.787 -353.774 899.494 -352.646 890.334 -351.55C895.701 -344.217 878.039 -330.263 902.029 -326.158C930.587 -321.29 931.511 -340.903 942.007 -347.258L942.007 -347.228ZM123.992 748.434C127.147 774.859 130.298 800.665 133.315 826.471C134.024 832.658 131.859 839.661 135.572 844.824C138.524 848.931 148.37 850.836 155.167 853.707C158.016 849.53 162.328 845.519 163.493 841.147C166.168 831.221 165.696 820.816 169.436 811.09C179.089 785.812 190.338 760.788 201.053 735.385C174.643 739.848 149.959 744.033 123.992 748.434ZM491.343 81.8704C491.818 80.039 492.336 78.2073 492.81 76.3464C486.295 75.685 478.46 76.3304 473.572 74.0948C464.864 70.1762 457.429 64.7743 450.437 59.4283C448.211 57.734 448.584 54.1933 448.787 51.5088C448.948 49.3553 451.148 47.3052 451.532 45.1502C453.873 31.7772 434.374 30.176 423.675 20.4632C413.359 52.1141 422.986 79.3776 436.511 106.614L461.002 106.44C455.092 109.931 452.313 111.573 448.652 113.722C454.246 115.51 460.149 117.385 470.403 120.614L470.142 83.7899C478.419 83.0236 484.881 82.447 491.343 81.841L491.343 81.8704ZM273.223 226.624C270.259 227.146 267.295 227.668 264.332 228.22C265.447 260.586 288.864 290.022 296.972 321.512C305.307 353.915 316.739 385.972 327.435 420.304C345.858 407.495 336.573 397.183 332.953 386.447C319.879 347.797 308.619 308.869 295.147 270.311C289.948 255.429 280.678 241.195 273.267 226.653L273.223 226.624ZM1084.6 722.51C1086.46 722.969 1088.37 723.457 1090.23 723.915C1094.61 710.852 1099.08 697.788 1103.37 684.696C1105.37 678.638 1101.81 670.349 1118.6 670.76C1120.86 670.803 1123.64 664.002 1125.92 660.3C1126.05 660.063 1123.83 659.224 1122.01 658.323C1118.61 660.735 1115.13 663.207 1112.67 664.935C1108.41 657.741 1104.55 651.223 1101.86 646.731C1105.79 638.418 1109.24 631.2 1112.77 623.656C1104.91 621.088 1098.65 619.009 1091.15 616.557C1067.91 643.228 1063.82 671.503 1069.48 701.478C1072.7 693.671 1075.92 685.894 1079.14 678.087C1081.71 678.54 1084.24 678.994 1086.81 679.448C1083.96 689.109 1081.06 698.771 1078.21 708.433C1076.96 708.117 1075.72 707.772 1074.52 707.456C1077.88 712.474 1081.24 717.492 1084.64 722.51L1084.6 722.51ZM17.9823 913.62C19.314 914.053 20.6014 914.456 21.9331 914.889C24.4765 923.775 26.9314 932.692 29.6076 941.577C34.7331 958.582 38.8852 975.742 45.6915 992.441C47.9902 998.056 56.5073 1006.19 63.1539 1006.62C78.0422 1007.57 76.5699 999.829 73.3721 992.333C64.41 971.433 56.0671 950.411 47.9895 929.328C42.9351 916.096 38.8096 902.71 34.286 889.386C35.8054 903.764 -5.13011 908.359 14.0413 926.208C15.4272 921.776 16.6825 917.698 17.9823 913.62ZM-226.351 -257.442C-220.596 -245.365 -214.935 -234.053 -209.805 -222.65C-202.966 -207.485 -197.453 -192.015 -189.331 -177.183C-187.312 -173.512 -177.29 -171.814 -170.982 -169.176C-169.065 -173.583 -164.007 -178.69 -165.76 -182.274C-176.5 -204.016 -189.406 -225.271 -200.279 -246.983C-206.119 -258.647 -209.262 -270.92 -214.185 -284.359C-223.358 -272.53 -231.302 -262.301 -239.29 -252.043C-237.914 -251.61 -236.538 -251.149 -235.161 -250.716C-231.99 -253.127 -228.862 -255.537 -226.395 -257.412L-226.351 -257.442ZM358.862 192.846C374.159 207.686 368.897 227.655 394.691 236.287C388.238 219.468 379.664 203.372 369.765 187.668C363.673 178.011 369.314 161.577 336.881 166.083C328.474 167.263 321.26 167.904 319.34 172.045C318.337 174.293 327.225 178.476 332.257 182.273C329.824 182.703 325.135 183.473 316.641 184.919C323.256 187.084 326.763 188.209 333.999 190.575C323.2 191.654 318.951 192.068 309.878 192.987C329.72 199.274 344.352 207.838 358.818 192.846L358.862 192.846ZM402.881 1265.52L407.968 1264.66C410.987 1265.64 413.967 1267.33 417.068 1267.43C423.978 1267.65 431.734 1268.27 437.745 1266.55C455.779 1261.46 465.527 1249.57 455.547 1247.4C451.177 1249.5 447.116 1251.44 443.011 1253.39C441.853 1252.51 440.651 1251.64 439.493 1250.76C443.365 1247.22 447.194 1243.69 452.078 1239.23C444.189 1238.43 437.541 1237.77 430.449 1237.02L430.203 1202.35C415.789 1212.04 415.034 1224.31 413.836 1236.49C413.463 1240.12 415.361 1245.39 412.493 1246.97C409.185 1248.82 401.823 1247.46 396.021 1247.5C398.458 1253.91 400.67 1259.7 402.837 1265.53L402.881 1265.52ZM96.2669 1135.41C94.5355 1116.11 93.3446 1098.07 90.9585 1080.13C90.5369 1076.89 85.2455 1073.95 79.2235 1067.92L79.4099 1094.19C74.7584 1094.04 71.3028 1093.92 65.3663 1093.7C72.8999 1100.54 78.7843 1105.87 89.8394 1115.9C61.7139 1103.25 69.0962 1120 59.5016 1122.31C68.0505 1128.68 75.0856 1133.93 81.5417 1138.72C86.3173 1137.63 91.1375 1136.56 96.2667 1135.38L96.2669 1135.41ZM1006.01 1032.24L1006.25 1066.94C1035.2 1083.04 1000.26 1101.72 1007.25 1119.95C1045.21 1082.29 1036.97 1057.55 1006.01 1032.24ZM-162.401 -39.6826C-159.456 -61.6103 -156.793 -79.4967 -154.971 -97.4066C-154.722 -99.7671 -158.771 -102.304 -160.825 -104.736C-161.96 -102.369 -162.74 -99.9462 -164.23 -97.6948C-168.13 -91.8292 -172.341 -86.0498 -178.348 -77.5157C-177.098 -76.0504 -172.855 -71.1271 -171.381 -69.4275C-180.646 -64.3199 -188.587 -59.9293 -200.234 -53.5075C-185.048 -47.9543 -174.302 -44.0208 -162.401 -39.6826ZM702.544 -157.979C691.914 -139.329 702.261 -116.788 676.84 -104.018C682.968 -95.5697 688.067 -88.5295 693.748 -80.6681C704.773 -106.014 708.71 -131.605 702.544 -157.979ZM672.386 1252.94C666.1 1240.9 660.533 1230.26 655.01 1219.63C652.885 1219.76 650.715 1219.86 648.59 1220C641.68 1232.4 634.815 1244.8 625.368 1261.76C642.928 1258.48 656.242 1255.97 672.431 1252.94L672.386 1252.94ZM986.351 1101.96C976.201 1119.61 968.062 1133.61 960.146 1147.7C958.615 1150.4 958.148 1153.35 957.15 1156.19C961.968 1154.88 967.633 1154.25 971.427 1152.13C978.265 1148.28 985.676 1144.13 989.847 1139.03C995.907 1131.61 999.302 1123.25 1005.95 1111.58C996.99 1115.8 993.768 1117.33 988.736 1119.72C987.988 1114.28 987.427 1110.09 986.351 1101.93L986.351 1101.96ZM-277.477 21.2821C-275.17 21.8259 -272.819 22.3694 -270.512 22.9132C-259.826 12.1936 -243.996 2.26299 -239.783 -9.47216C-234.485 -24.2814 -238.719 -40.5266 -238.83 -56.182C-241.312 -56.4592 -243.794 -56.7365 -246.232 -57.0436C-248.049 -50.8979 -252.654 -44.4083 -251.195 -38.6397C-246.274 -19.1855 -250.539 -2.34923 -274.138 11.2926C-277.225 13.0835 -276.483 17.8548 -277.477 21.2525L-277.477 21.2821ZM277.79 345.973C279.693 345.665 281.595 345.356 283.497 345.048C275.538 321.871 267.578 298.664 259.663 275.487C257.495 275.826 255.327 276.196 253.159 276.535C252.581 301.129 259.39 324.492 277.835 345.973L277.79 345.973ZM777.454 256.008C780.506 242.925 782.998 232.175 785.491 221.455L778.164 218.735C768.993 224.579 759.778 230.424 751.665 235.611C760.529 242.625 767.521 248.148 777.454 256.008ZM331.912 221.018C322.841 222.262 313.815 223.476 303.638 224.875C300.191 219.68 295.759 213.078 291.372 206.475C289.56 207.048 287.793 207.65 285.981 208.223C294.012 222.761 302.043 237.299 310.03 251.837C315.26 227.475 315.523 227.09 331.912 221.018ZM385.704 149.491C380.162 148.704 374.523 146.651 370.277 147.566C362.803 149.122 356.139 152.472 349.16 155.057C353.696 157.737 358.013 160.567 362.769 163.039C369.126 166.355 375.791 169.374 380.147 171.466C382.172 163.55 384.241 155.457 385.749 149.52L385.704 149.491ZM1169.13 -396.664C1169.23 -395.456 1169.37 -394.248 1169.47 -393.01C1205.1 -389.469 1226.43 -391.488 1233.47 -399.066C1210.13 -398.193 1189.63 -397.428 1169.09 -396.663L1169.13 -396.664ZM658.961 1308.29C630.397 1315.07 639.919 1327.5 648.865 1339.79C652.245 1329.3 655.58 1318.78 658.961 1308.29ZM-49.3492 1199.21C-47.3481 1200.35 -45.3471 1201.48 -43.346 1202.62C-28.3327 1189.98 -7.183 1180.78 5.34009 1166.74C3.42818 1165.7 1.47199 1164.65 -0.439927 1163.6C-16.743 1175.48 -33.0461 1187.33 -49.3492 1199.21ZM-122.082 -262.221C-132.643 -277.537 -140.787 -289.273 -148.931 -301.038C-151.803 -300.104 -154.72 -299.199 -157.593 -298.265C-136.855 -290.628 -155.53 -269.768 -122.082 -262.221ZM489.355 57.5306C482.437 37.5894 473.359 31.6095 460.153 36.7156C466.372 39.325 471.836 41.6449 479.121 44.6891C472.494 46.9475 467.898 48.4837 463.348 50.0492C463.312 51.3173 463.233 52.6151 463.198 53.8831C470.823 54.9494 478.404 56.0161 489.399 57.5597L489.355 57.5306ZM99.274 872.649C97.7755 873.692 96.2772 874.735 94.7787 875.777C97.6602 882.391 100.453 889.034 103.512 895.617C105.401 899.643 106.584 904.116 110.194 907.334C112.2 909.148 118.487 908.808 122.876 909.455C122.192 906.6 122.259 903.563 120.69 900.95C118.091 896.634 114.386 892.621 111.167 888.428C107.144 883.178 103.209 877.899 99.2297 872.65L99.274 872.649ZM1045.68 624.309C1043.9 623.85 1042.13 623.42 1040.35 622.961C1038.09 628.756 1035.56 634.524 1033.61 640.375C1032.66 643.272 1032.41 646.369 1032.79 649.285C1032.84 649.727 1039.18 650.773 1040.45 649.998C1043.98 647.85 1048.52 644.899 1048.68 642.185C1048.99 636.256 1046.83 630.257 1045.63 624.28L1045.68 624.309ZM-184.166 825.157C-181.679 826.112 -179.192 827.068 -176.705 828.023C-169.606 817.299 -162.507 806.546 -155.453 795.823C-158.249 795.017 -161 794.211 -163.796 793.405C-170.586 804.009 -177.376 814.583 -184.21 825.187L-184.166 825.157ZM15.5061 1120.15C13.4221 1119.81 11.2938 1119.47 9.21 1119.16C6.08844 1128.64 2.96676 1138.13 -0.19805 1147.77C9.78248 1147.83 15.0172 1138.63 15.5061 1120.15ZM1148.33 567.325C1146.71 575.769 1145.17 583.858 1143.64 591.948C1159.96 578.014 1161.52 569.806 1148.33 567.325ZM660.538 -129.465C662.22 -129.624 663.902 -129.784 665.584 -129.943C671.594 -138.064 677.604 -146.215 684.184 -155.107C680.512 -154.55 669.261 -154.795 667.64 -152.277C663.128 -145.257 662.609 -137.145 660.538 -129.435L660.538 -129.465ZM389.038 63.8739C387.041 63.21 385.042 62.5165 383 61.8529C381.082 66.1712 378.101 70.4382 377.556 74.8352C377.137 78.1404 379.774 81.6008 381.399 85.8645C388.013 81.7192 392.643 78.8264 395.906 76.7689C393.347 71.9516 391.193 67.9275 389.038 63.8739Z" fill="black"/>
<path d="M741.462 651.383C740.065 660.415 737.333 668.601 713.985 667.676C714.044 675.902 712.341 685.644 714.843 694.884C716.388 700.475 724.024 709.266 729.695 709.521C740.594 710.004 756.699 707.678 762.287 702.508C773.332 692.346 778.732 679.453 786.444 667.722C791.248 670.607 798.898 675.182 811.664 682.816C815.412 643.044 828.321 608.486 814.518 573.203C833.118 566.702 840.705 568.624 841.912 582.65C843.457 600.683 842.523 618.852 842.64 635.362C860.276 624.063 864.862 614.978 859.216 587.008C855.498 568.696 848.151 550.703 845.963 529.402C851.875 532.426 861.325 534.747 863.036 538.627C869.564 553.618 874.634 568.943 878.375 584.366C882.938 603.292 885.643 622.467 889.974 646.112C897.719 639.07 907.429 634.313 907.44 629.566C907.366 606.627 906.405 583.548 902.257 560.816C899.584 546.034 892.094 532.907 867.674 524.442C850.225 518.403 839.273 504.181 825.38 493.636C826.834 492.623 828.333 491.61 829.787 490.568C834.86 493.952 840.066 497.247 845.051 500.69C861.742 512.277 872.977 529.004 903.879 527.281C906.713 527.113 911.977 532.412 913.062 535.618C921.294 559.649 928.729 583.832 936.022 606.748C943.96 601.827 954.808 595.175 965.612 588.494C926.216 610.356 925.633 640.67 923.275 670.318C922.543 679.493 919.575 685.677 901.011 684.776C902.072 672.002 903.135 659.464 904.198 646.984C889.232 647.592 874.753 648.196 858.991 648.868L858.878 633.036L853.025 632.016C846.833 645.74 839.09 659.27 834.804 673.246C828.917 692.482 825.69 712.053 821.31 731.485C819.421 739.813 814.456 745.509 798.758 742.731C802.964 723.89 807.128 705.168 811.506 685.471C804.009 683.784 797.399 682.298 789.414 680.497C786.79 685.263 784.116 689.144 782.506 693.254C775.634 710.964 753.205 714.661 731.215 717.736C726.702 718.358 718.565 713.845 715.262 710.36C700.67 694.896 705.642 665.318 725.171 652.442C728.169 650.475 736.462 652.037 742.264 651.967L741.463 651.442L741.462 651.383Z" fill="black"/>
<path d="M470.663 1124.26C457.103 1123.35 448.95 1122.79 440.752 1122.23C440.494 1123.32 440.236 1124.44 439.978 1125.54C434.778 1122.89 429.621 1120.21 422.02 1116.35C411.245 1127.01 395.09 1134.79 399.096 1150.15C400.007 1153.68 394.413 1157.97 391.827 1161.91C387.551 1158.37 383.229 1154.83 377.571 1150.16C309.697 1184.54 230.847 1195.13 146.806 1191.89C193.22 1185.37 240.039 1179.79 286.046 1172.06C351.385 1161.07 394.884 1130.75 424.954 1092.89C445.805 1066.64 463.765 1038.59 461.816 1007.3C461.567 1003.49 469.157 999.431 476.444 996.578C485.37 1037.32 448.99 1072.28 445.764 1110.72C455.695 1112.19 463.055 1113.28 471.479 1114.52C478.431 1108.01 490.074 1101.09 493.779 1092.66C499.445 1079.74 513.63 1087.72 522.91 1084.73C525.518 1090.26 531.317 1096.08 530.114 1101.22C525.257 1122.13 514.484 1126.86 477.591 1126.89C476.67 1128.19 475.705 1129.53 474.784 1130.83C489.249 1134.5 503.669 1138.2 523.148 1143.17C509.742 1145.24 501.602 1146.5 492.046 1147.96C496.539 1156.95 497.186 1166.97 482.189 1169.46C474.961 1162.08 469.876 1156.9 464.834 1151.75C461.75 1154.04 458.622 1156.3 455.538 1158.6C443.97 1163.75 432.358 1168.87 417.568 1175.43C417.389 1175.26 412.585 1172.34 413.144 1170.04C416.291 1157.78 420.501 1145.63 425.021 1133.54C425.673 1131.86 430.042 1129.62 432.479 1129.72C434.827 1129.82 438.744 1132.59 438.756 1134.21C438.749 1139.52 437.236 1144.81 436.345 1150.18C470.621 1155.89 455.763 1134.21 470.663 1124.26Z" fill="black"/>
<path d="M421.317 393.25C417.351 389.946 411.381 384.976 405.411 380.006C406.333 378.938 407.256 377.87 408.179 376.802C422.861 386.162 439.388 362.222 454.669 381.042C464.51 376.049 473.954 371.235 482.251 367.048C487.039 374.002 492.007 381.19 497.779 389.552C479.599 398.939 495.688 413.154 490.336 426.667C485.121 415.736 479.95 404.775 474.915 394.225C460.971 401.548 461.057 407.385 477.203 435.782L461.79 435.891C468.26 442.568 474.372 448.893 480.485 455.189C479.298 456.436 478.067 457.683 476.88 458.93C469.687 456.386 462.538 453.842 450.949 449.738C464.967 465.324 477.377 479.123 488.315 491.311C471.346 502.959 486.277 516.151 477.324 527.831C470.234 520.982 462.474 513.519 453.645 505.031C450.146 511.277 447.347 516.309 444.548 521.341C442.245 521.358 439.942 521.374 437.595 521.391C435.954 514.857 434.313 508.323 431.99 499.258C442.413 501.337 447.469 502.362 453.501 503.587C451.945 490.271 412.028 501.051 424.144 479.618C429.529 483.325 434.069 486.418 440.745 491C427.139 458.575 427.187 446.633 453.835 444.469C451.052 439.358 446.943 434.464 446.065 429.34C445.232 424.245 447.63 418.921 449.466 409.325C444.36 413.784 443.219 415.237 442.687 415.123C433.818 413.682 422.436 413.674 417.139 409.908C413.756 407.515 419.412 399.484 421.228 393.25L421.317 393.25Z" fill="black"/>
<path d="M373.337 360.155C367.822 363.26 362.308 366.366 354.721 370.636C339.571 345.358 331.594 319.704 333.888 293.447C335.405 276.306 331.069 258.233 347.517 241.841C352.047 237.327 343.87 227.243 341.824 219.709C340.777 215.795 340.306 211.789 339.614 207.843C342.137 207.707 344.705 207.6 347.229 207.464C352.655 223.141 358.126 238.847 363.326 253.876C363.059 253.79 360.617 252.893 351.781 249.712C357.255 265.919 361.687 278.92 366.8 294.098C389.657 275.862 396.088 295.806 411.916 298.053C404.471 303.767 398.877 308.052 390.023 314.867L410.838 314.719C399.591 327.565 389.047 339.64 378.503 351.745C376.796 354.587 375.088 357.371 373.381 360.184L373.337 360.155Z" fill="white"/>
<path d="M995.207 1351.16C996.618 1362.8 998.03 1374.43 999.441 1386.07C1001.13 1386.65 1002.82 1387.25 1004.5 1387.83C1012.09 1376.75 1022.11 1366.04 1026.59 1354.45C1031.15 1342.56 1030.31 1329.74 1036.91 1317.31C1038.16 1331.45 1039.46 1345.6 1040.71 1359.86L1071.93 1359.64C1065.15 1365.55 1061.37 1368.85 1057.63 1372.12C1069.55 1367.05 1094.34 1370.98 1088.23 1353.24C1092.04 1366.34 1095.45 1378.37 1078.7 1389.78C1071.74 1394.55 1071.89 1403.95 1067.23 1414.98C1065.72 1408.12 1065.04 1405.03 1063.48 1397.76C1041.9 1433.41 1000.94 1422.03 964.754 1422.46L964.596 1400.17C965.349 1400.17 966.057 1400.16 966.81 1400.16L966.935 1417.79C983.317 1404.46 996.532 1394.32 995.005 1378.82C994.097 1369.57 995.183 1360.21 995.426 1350.86C995.426 1350.83 995.163 1351.16 995.163 1351.16L995.207 1351.16Z" fill="black"/>
<path d="M64.2196 64.7048C76.1023 60.2863 82.9371 62.2722 85.9693 71.3908C91.8524 89.0691 96.3653 107.111 105.079 124.179C121.562 156.466 140.39 188.263 158.731 220.124C171.601 242.47 185.62 264.484 198.312 286.861C201.093 291.765 200.382 297.578 201.539 304.646C171.484 294.629 66.4215 106.616 64.2638 64.7045L64.2196 64.7048Z" fill="black"/>
<path d="M76.9404 259.447C93.9346 295.031 105.535 325.79 98.9148 360.215C84.1358 437.068 54.9418 510.986 10.4946 582.476C10.0129 583.246 8.19975 583.642 1.59938 583.483C4.33847 576.269 4.81255 568.187 10.1275 561.958C48.563 517.105 61.0972 467.187 76.9131 417.866C81.4627 403.652 85.8344 389.321 88.4338 374.914C91.0349 360.743 93.8551 346.246 92.072 332.136C89.2519 309.217 82.7572 286.501 76.8958 259.417L76.9404 259.447Z" fill="black"/>
<path d="M137.974 128.31C132.013 124.666 122.026 121.612 120.667 117.317C109.291 80.8665 99.4646 44.2284 89.2838 7.6222C88.7837 5.79773 89.5666 3.78722 90.1391 -2.90977C99.2474 1.15338 109.582 3.20297 110.624 6.58626C122.361 43.9775 132.681 81.5556 143.312 119.073C143.812 120.897 143.382 122.817 143.396 124.703C141.544 125.896 139.737 127.088 137.885 128.31L137.974 128.31Z" fill="black"/>
<path d="M106.252 651.232C108.066 657.205 112.317 663.396 111.207 669.153C108.644 682.439 103.51 695.508 99.4404 708.686C97.7073 707.873 96.0187 707.089 94.2856 706.276C88.7304 709.853 79.8496 712.865 78.1525 717.123C70.7092 735.485 65.3499 754.187 59.3699 772.804C58.7631 774.666 60.4261 778.074 59.3214 778.436C31.1286 787.511 34.5948 807.86 23.5504 824.302C15.3051 804.547 31.4495 789.042 39.088 773.214C47.556 755.699 59.929 739.247 57.5794 720.217C73.8036 697.222 90.0278 674.227 106.252 651.262L106.252 651.232Z" fill="white"/>
<path d="M382.485 1430.63C373.419 1426.36 362.726 1423.67 362.707 1420.96C362.639 1392.71 364.299 1364.42 365.473 1336.49C376.627 1335.35 385.257 1334.47 392.736 1333.71C389.665 1362.74 386.303 1394.52 382.485 1430.63Z" fill="black"/>
<path d="M587.152 1087.78C597.222 1096.32 604.841 1102.78 612.505 1109.27C604.825 1112.98 597.366 1116.61 590.348 1119.99L590.186 1097.17C589.388 1097.14 588.546 1097.12 587.749 1097.1C585.748 1102.21 583.792 1107.36 580.311 1116.23C576.722 1109.68 575.106 1106.68 572.503 1101.92C562.817 1110.1 559.469 1125.04 537.825 1114.58C537.336 1108.04 536.799 1101.03 536.119 1092.63C553.046 1087.44 570.9 1081.97 591.097 1075.78C589.492 1080.57 587.844 1085.54 587.107 1087.75L587.152 1087.78Z" fill="black"/>
<path d="M442.964 341.852C445.567 340.36 448.169 338.896 450.728 337.404C452.252 340.017 453.777 342.66 455.346 345.361C469.381 344.643 485.732 345.853 477.56 330.078C476.482 328.022 483.585 324.05 486.884 320.961L486.306 320.552C498.745 325.859 511.184 331.167 522.645 336.039C521.496 336.401 515.618 338.182 508.635 340.295C511.095 343.698 514.003 347.717 518.431 353.877C510.629 352.9 505.975 352.314 498.128 351.338C502.056 355.644 504.824 358.691 507.592 361.738L505.875 363.254C495.832 358.548 485.834 353.843 477.213 349.806C467.598 355.506 458.38 360.967 446.736 367.86C442.476 360.401 432.676 352.51 443.008 341.793L442.964 341.852Z" fill="black"/>
<path d="M894.376 835.842C908.78 830.993 915.442 833.481 917.145 842.638C920.185 859.099 924.421 875.491 926.088 892.02C926.47 895.968 918.795 900.298 914.838 904.454C912.398 903.823 909.957 903.191 907.516 902.53C903.197 880.507 898.877 858.483 894.42 835.812L894.376 835.842Z" fill="black"/>
<path d="M701.779 1069.6C659.234 1084.62 643.827 1079.16 623.168 1063.94C609.945 1054.22 614.402 1039.5 635.82 1024.34C634.201 1033.43 631.63 1039.35 632.512 1045.03C633.763 1052.81 634.155 1064.36 641.216 1067.09C650.321 1070.62 665.709 1067.15 678.371 1066.47C686.075 1066.06 693.775 1065.21 701.433 1064.56C701.534 1066.24 701.634 1067.95 701.735 1069.63L701.779 1069.6Z" fill="black"/>
<path d="M877.008 772.544C881.134 761.105 869.915 746.708 900.651 746.489C897.933 756.681 910.258 770.864 877.008 772.544Z" fill="black"/>
<path d="M599.398 816.087C615.801 812.109 632.371 812.875 642.448 822.357C649.27 828.765 650.001 838.107 650.549 846.683C645.716 831.385 628.666 821.187 599.398 816.087Z" fill="black"/>
<path d="M707.484 269.684L711.227 260.4C726.357 264.243 741.488 268.087 756.662 271.9C755.92 273.38 755.177 274.859 754.435 276.339C746.724 275.686 738.968 275.033 731.213 274.381C723.274 272.815 715.379 271.279 707.484 269.714L707.484 269.684Z" fill="white"/>
<path d="M746.172 1396.36L746.172 1396.45C747.738 1404.93 749.304 1413.44 750.871 1421.92L751.618 1421.14C744.674 1422.52 737.731 1423.93 730.743 1425.3C728.563 1423.99 726.384 1422.71 724.204 1421.4C731.541 1413.06 738.834 1404.69 746.172 1396.36Z" fill="black"/>
<path d="M561.244 969.441C568.425 982.717 576.055 996.874 582.787 1009.36C561.309 1003.49 552.296 987.961 561.244 969.441Z" fill="black"/>
<path d="M864.386 735.218C860.111 744.359 865.029 757.209 840.444 756.617C838.892 737.581 841.84 734.848 864.386 735.218Z" fill="black"/>
<path d="M896.843 802.772C901.428 793.511 905.226 785.818 909.069 778.096C912.936 779.985 920.08 781.821 920.138 783.796C920.373 791.932 925.323 803.013 896.843 802.772Z" fill="black"/>
<path d="M469.69 1081.1C468.822 1089.8 467.954 1098.54 466.756 1110.72C443.226 1096.62 461.198 1088.91 469.69 1081.1Z" fill="black"/>
<path d="M795.218 -118.008C788.996 -102.337 779.76 -86.8805 777.215 -70.9704C772.806 -43.1944 772.563 -15.1531 770.591 12.7825C773.426 12.9393 776.262 13.0961 779.098 13.2528C779.477 10.5671 780.122 7.87946 780.236 5.1661C781.569 -19.2563 782.325 -43.7042 784.544 -68.1035C784.954 -72.7649 791.935 -81.2764 794.771 -81.0902C817.326 -79.5696 813.043 -90.1536 814.446 -98.3897C815.468 -104.235 816.09 -110.166 818.042 -115.87C820.689 -123.643 825.653 -129.428 839.254 -122.595C839.343 -122.566 842.733 -125.451 845.374 -127.651C846.419 -124.061 847.191 -121.295 847.917 -118.883C850.71 -124.682 853.635 -130.776 856.602 -136.989C974.597 -104.981 1011.84 12.6035 950.593 82.4147L950.157 20.943C949.005 20.9512 947.809 20.9597 946.658 20.9679C946.802 41.1931 947.343 61.386 947 81.6146C946.622 103.318 897.513 123.303 872.424 114.046C865.762 117.779 859.825 123.688 854.112 123.64C847.335 123.57 839.728 118.936 834.209 115.172C814.716 101.895 799.729 87.0235 801.492 67.1091C801.616 65.8404 800.144 64.3471 798.807 63.2362C797.515 62.125 795.472 61.4024 791.072 59.1338C793.771 71.2917 796.06 81.8013 799.126 95.6666C792.059 92.1492 789.349 90.9891 787.036 89.5902C782.277 86.7346 777.587 81.1953 773.114 81.3155C765.454 81.5468 755.417 83.9177 750.926 87.7531C741.153 96.1075 732.508 94.8421 721.865 93.0306C719.763 96.3773 716.977 103.267 711.437 108.938C707.524 112.946 699.834 115.33 693.832 118.409C689.313 111.896 680.407 105.148 681.16 98.8921C682.707 86.0554 691.078 73.5831 693.689 60.7094C698.098 39.1841 700.202 17.4393 698.363 -4.63136C697.588 -1.41208 696.858 1.80692 696.083 4.99671C695.419 4.94246 694.798 4.85839 694.133 4.80414L693.921 -25.1504C696.22 -25.6974 698.475 -26.2441 700.774 -26.8206C705.338 -20.2485 709.903 -13.647 712.498 -9.95036C713.589 -18.5085 713.765 -31.1586 717.176 -43.4482C720.328 -54.9105 726.938 -65.9256 735.364 -76.7766C735.885 -72.0628 736.361 -67.3488 736.882 -62.635C738.79 -62.1178 740.699 -61.571 742.651 -61.0541L773.668 -109.009C770.743 -109.313 767.818 -109.587 764.892 -109.891C763.974 -114.543 762.568 -119.162 762.313 -123.848C761.865 -130.803 763.498 -137.92 761.943 -144.75C758.286 -160.851 770.827 -159.791 786.491 -155.744C791.771 -154.396 796.57 -152.189 801.543 -150.367L802.206 -150.578C797.042 -148.124 791.833 -145.669 784.461 -142.197C787.881 -134.496 791.572 -126.267 795.217 -118.067L795.218 -118.008ZM732.11 57.4589C734.546 57.4711 737.026 57.4829 739.462 57.5246L739.01 -6.24657C738.522 -6.24311 737.991 -6.23934 737.504 -6.23588L732.11 57.4883L732.11 57.4589ZM863.085 -65.9777C861.136 -66.0818 859.186 -66.1859 857.237 -66.29C855.566 -52.1257 853.894 -37.9909 852.223 -23.8266C854.306 -23.7235 856.388 -23.5909 858.471 -23.4877C860.009 -37.6511 861.547 -51.8143 863.085 -65.9777ZM766.864 -19.2405C766.289 -19.2364 765.669 -19.232 765.093 -19.2279L765.588 50.4694C766.163 50.4653 766.783 50.4609 767.359 50.4568L766.865 -19.211L766.864 -19.2405Z" fill="white"/>
<path d="M464.587 -18.5398C466.336 -28.0462 468.04 -37.5522 469.916 -47.7671C469.872 -47.7667 466.589 -48.5101 464.061 -49.0818C469.943 -56.5241 475.292 -64.11 481.885 -71.2035C486.061 -75.6852 494.056 -78.8083 479.724 -82.4216C477.239 -83.0527 479.363 -95.8639 482.906 -102.14C494.498 -122.507 523.882 -126.018 550.462 -131.396C574.035 -136.133 598.104 -139.695 624.646 -144.247C622.924 -131.055 621.997 -118.105 619.43 -105.32C610.318 -60.0264 605.147 -14.702 612.336 30.8886C615.35 49.9436 618.807 68.9954 621.068 88.0851C622.292 98.278 622.853 108.682 621.109 118.807C617.832 137.524 625.445 143.072 652.393 139.608C645.137 153.222 637.839 166.984 630.452 180.806L660.567 180.592C646.747 192.867 636.273 202.229 623.333 213.731C612.702 194.819 602.609 176.816 591.978 157.904C591.02 160.152 590.105 162.281 589.19 164.41L589.102 164.558C590.786 158.473 594.374 152.285 593.712 146.334C592.249 133.725 588.794 121.189 585.694 108.68C584.508 103.824 581.994 99.1242 579.108 91.8916C572.838 94.5307 567.097 96.9596 561.843 99.1788C560.32 96.8308 563.126 92.8011 579.232 78.151C573.282 75.923 567.287 73.7246 561.292 71.4969C563.626 69.5639 565.959 67.6309 569.438 64.7462C541.737 62.0533 550.86 49.4577 553.783 36.9062C557.197 43.6339 559.936 48.9806 562.676 54.2978C564.71 53.9001 566.7 53.5026 568.735 53.1344C565.218 38.1224 561.657 23.0812 558.14 8.06917C555.572 8.20533 553.004 8.3415 550.437 8.50715C547.457 25.5407 544.522 42.574 541.16 61.91C538.555 56.8277 537.77 52.2338 534.204 49.0748C527.118 42.8154 516.675 38.0246 511.136 31.3415C508.054 27.6189 499.383 22.8745 508.015 15.9434C511.318 13.2959 507.233 5.62943 504.497 0.783946C497.679 -11.3152 500.036 -22.5064 512.313 -33.7091C494.68 -28.2178 479.346 -23.421 463.966 -18.6534L464.632 -18.4812L464.587 -18.5398Z" fill="white"/>
<path d="M123.994 748.463C149.917 744.063 174.646 739.878 201.055 735.415C190.34 760.848 179.091 785.842 169.438 811.119C165.742 820.846 166.17 831.221 163.495 841.176C162.33 845.548 158.018 849.559 155.169 853.737C148.372 850.866 138.526 848.961 135.574 844.854C131.861 839.691 134.026 832.688 133.318 826.501C130.3 800.694 127.149 774.888 123.994 748.463Z" fill="white"/>
<path d="M834.433 252.803C835.422 242.388 836.367 232.003 837.356 221.588L829.779 221.111C828.429 224.364 827.035 227.617 825.684 230.841C824.754 230.788 823.824 230.736 822.893 230.683C822.037 222.375 821.136 214.067 820.235 205.552C823.52 206.649 826.672 207.718 833.287 209.912C829.227 205.754 827.745 202.904 824.722 201.334C809.34 193.187 811.412 185.566 826.824 179.206C844.576 171.856 851.151 162.109 849.015 148.266C848.318 143.642 853.799 135.908 859.632 134.009C873.021 129.668 877.639 137.596 879.682 144.511C883.359 157.222 900.797 167.889 890.317 182.824C876.199 202.973 864.122 223.757 850.048 243.906C847.461 247.61 839.415 249.672 833.899 252.483L834.432 252.774L834.433 252.803Z" fill="white"/>
<path d="M226.744 -69.1861C235.677 -71.107 244.61 -73.0279 250.89 -74.3698C256.677 -70.2241 260.91 -66.6571 266.111 -63.9519C267.089 -63.4282 271.985 -66.264 277.196 -68.3944C280.054 -52.5816 283.218 -37.4491 285.363 -22.221C287.18 -9.55565 289.264 3.22568 288.424 15.8509C287.944 23.1664 280.776 36.6916 278.605 36.5301C263.361 35.341 253.401 29.8392 256.633 17.2265C257.796 12.5892 251.512 7.14968 246.983 -0.778922C245.748 -0.0035688 249.276 -2.18095 251.128 -3.28501C243.69 -9.15856 236.341 -14.9443 228.992 -20.73C230.314 -21.7124 231.636 -22.6947 232.913 -23.6768C237.711 -21.6174 242.465 -19.5578 248.24 -17.0926C245.828 -26.1862 243.37 -35.4856 241.413 -42.9313C234.263 -45.6226 227.735 -48.0529 216.322 -52.3356C232.07 -55.0715 240.608 -56.5768 250.87 -58.3598C241.538 -62.7456 234.384 -66.1151 227.229 -69.4845L226.789 -69.1276L226.744 -69.1861Z" fill="white"/>
<path d="M750.872 1421.92C749.306 1413.44 747.74 1404.93 746.174 1396.45C749.093 1389.64 752.898 1382.92 754.754 1376.01C760.277 1355.42 765.224 1334.78 769.904 1314.1C770.291 1312.33 767.131 1310.23 764.091 1306.3C778.435 1305.38 790.211 1304.61 803.669 1303.75C799.598 1316.72 796.307 1327.33 791.716 1341.99C807.361 1337.19 816.818 1334.29 825.48 1331.64C809.344 1348.26 792.988 1365.18 776.587 1382.08L780.014 1384.41C785.009 1382.99 790.004 1381.54 795.043 1380.12C796.556 1381.11 798.024 1382.1 799.537 1383.09C783.33 1396.03 767.123 1408.98 750.916 1421.89L750.872 1421.92Z" fill="white"/>
<path d="M509.432 1363.9C506.224 1367.43 501.774 1370.73 500.03 1374.58C497.414 1380.43 496.661 1386.66 495.154 1392.71C484.647 1391.31 474.096 1389.89 462.126 1388.29C467.939 1383.59 470.662 1380.39 474.722 1378.32C479.974 1375.66 486.251 1373.88 492.303 1371.65C475.587 1369.09 473.331 1363.3 481.188 1353.22C484.085 1349.51 482.571 1342.18 478.649 1338.79C471.876 1332.94 463.964 1328.98 477.072 1322.4C478.44 1321.72 474.415 1316.29 471.133 1309.41C481.067 1311.26 490.058 1311.29 494.73 1314.32C498.023 1316.45 495.409 1322.6 498.858 1328.09C497.181 1303.89 522.599 1309.58 544.387 1309.07C537.603 1326.72 556.64 1344.4 542.019 1362.4C529.077 1354.88 515.468 1346.93 501.859 1339.01L494.752 1342.39C499.631 1349.64 504.51 1356.88 509.479 1364.22C509.479 1364.28 509.477 1363.95 509.477 1363.95L509.432 1363.9Z" fill="white"/>
<path d="M491.3 81.9007C484.838 82.5067 478.376 83.0833 470.099 83.8496L470.36 120.674C460.106 117.415 454.202 115.54 448.609 113.781C452.27 111.632 455.049 109.991 460.959 106.499L436.468 106.673C422.987 79.437 413.316 52.1738 423.632 20.5229C434.331 30.2358 453.83 31.837 451.489 45.2099C451.105 47.365 448.905 49.415 448.744 51.5685C448.541 54.253 448.168 57.7938 450.394 59.4881C457.386 64.8341 464.776 70.2362 473.529 74.1545C478.461 76.3603 486.252 75.7448 492.767 76.4062C492.293 78.2375 491.774 80.0693 491.3 81.9302L491.3 81.9007Z" fill="white"/>
<path d="M273.223 226.653C280.634 241.195 289.903 255.429 295.102 270.311C308.575 308.899 319.835 347.797 332.909 386.447C336.528 397.183 345.814 407.496 327.391 420.305C316.651 386.002 305.263 353.945 296.927 321.513C288.82 290.022 265.403 260.586 264.288 228.22C267.251 227.698 270.215 227.176 273.179 226.624L273.223 226.653Z" fill="white"/>
<path d="M17.9814 913.649C16.726 917.727 15.4263 921.805 14.0405 926.238C-5.13098 908.388 35.7604 903.793 34.2854 889.416C38.809 902.74 42.9344 916.126 47.9888 929.358C56.0664 950.441 64.4093 971.463 73.3714 992.363C76.5692 999.858 78.0415 1007.6 63.1532 1006.65C56.4623 1006.22 47.9894 998.086 45.6907 992.471C38.8844 975.772 34.688 958.612 29.6068 941.606C26.9306 932.721 24.4759 923.834 21.9323 914.919C20.6006 914.486 19.3132 914.082 17.9814 913.649Z" fill="white"/>
<path d="M358.906 192.875C344.397 207.868 329.809 199.303 309.966 193.016C319.039 192.097 323.288 191.683 334.087 190.604C326.851 188.238 323.344 187.113 316.73 184.948C325.223 183.502 329.912 182.702 332.345 182.302C327.314 178.534 318.426 174.322 319.429 172.074C321.304 167.904 328.563 167.262 336.97 166.112C369.402 161.606 363.761 178.04 369.853 187.697C379.753 203.4 388.326 219.497 394.779 236.316C368.986 227.713 374.247 207.715 358.95 192.875L358.906 192.875Z" fill="white"/>
<path d="M402.926 1265.55C400.714 1259.76 398.503 1253.94 396.11 1247.53C401.912 1247.49 409.274 1248.85 412.582 1247C415.406 1245.42 413.552 1240.15 413.925 1236.52C415.123 1224.37 415.878 1212.07 430.292 1202.38L430.538 1237.05C437.629 1237.77 444.278 1238.46 452.167 1239.26C447.327 1243.72 443.454 1247.25 439.582 1250.79C440.74 1251.66 441.942 1252.54 443.099 1253.42C447.16 1251.47 451.266 1249.53 455.635 1247.43C465.616 1249.6 455.868 1261.49 437.834 1266.57C431.778 1268.27 424.067 1267.64 417.156 1267.46C414.055 1267.36 411.076 1265.67 408.057 1264.69L402.97 1265.55L402.926 1265.55Z" fill="white"/>
<path d="M589.281 164.439C588.456 166.774 586.392 169.236 586.983 171.414C591.214 187.128 596.373 202.718 600.338 218.435C601.341 222.408 599.334 226.727 598.445 232.483C562.938 203.221 568.639 170.247 563.897 138.732C566.198 138.333 568.498 137.903 570.754 137.504C576.885 146.512 583.017 155.52 589.149 164.588C589.15 164.647 589.237 164.469 589.237 164.469L589.281 164.439Z" fill="white"/>
<path d="M96.311 1135.43C91.1815 1136.59 86.3616 1137.69 81.586 1138.78C75.1297 1133.96 68.0947 1128.71 59.546 1122.37C69.1406 1120.06 61.758 1103.31 89.8835 1115.96C78.8285 1105.96 72.9886 1100.6 65.4106 1093.76C71.3469 1093.95 74.8025 1094.07 79.4542 1094.25L79.2677 1067.98C85.2456 1074.04 90.581 1076.95 91.0026 1080.19C93.3887 1098.13 94.5798 1116.16 96.3112 1135.46L96.311 1135.43Z" fill="white"/>
<path d="M1006.05 1032.27C1037.01 1057.55 1045.25 1082.29 1007.3 1119.98C1000.3 1101.75 1035.29 1083.07 1006.3 1066.97L1006.05 1032.27Z" fill="white"/>
<path d="M672.432 1252.97C656.243 1256 642.93 1258.51 625.37 1261.79C634.816 1244.83 641.682 1232.43 648.592 1220.03C650.717 1219.89 652.886 1219.79 655.011 1219.66C660.578 1230.29 666.102 1240.92 672.388 1252.97L672.432 1252.97Z" fill="white"/>
<path d="M986.396 1101.96C987.517 1110.12 988.078 1114.27 988.781 1119.75C993.857 1117.36 997.08 1115.83 1006 1111.61C999.347 1123.25 995.952 1131.61 989.893 1139.06C985.721 1144.16 978.354 1148.31 971.472 1152.16C967.678 1154.28 962.014 1154.91 957.195 1156.21C958.149 1153.38 958.66 1150.42 960.191 1147.73C968.063 1133.67 976.246 1119.67 986.396 1101.99L986.396 1101.96Z" fill="white"/>
<path d="M178.087 -4.38844C184.92 -8.94803 182.048 -20.4855 200.094 -17.6652C201.823 -17.4121 206.331 -24.992 209.58 -28.966C212.298 -26.6855 215.192 -24.4948 217.601 -22.0647C221.393 -18.2881 226.778 -14.6113 228.092 -10.4339C229.906 -4.49091 228.622 1.85735 228.675 9.31649C211.414 10.9427 218.935 -2.67344 214.101 -9.83329C204.745 -5.07889 195.389 -0.324534 184.4 5.26701C181.849 1.42268 179.968 -1.48285 178.043 -4.38813L178.087 -4.38844Z" fill="white"/>
<path d="M277.88 346.002C259.436 324.521 252.626 301.159 253.205 276.565C255.372 276.225 257.54 275.856 259.708 275.516C267.667 298.693 275.627 321.9 283.543 345.077C281.64 345.386 279.738 345.694 277.836 346.002L277.88 346.002Z" fill="white"/>
<path d="M777.544 256.037C767.612 248.177 760.619 242.654 751.756 235.64C759.868 230.482 769.084 224.638 778.254 218.764L785.581 221.484C783.089 232.204 780.596 242.954 777.544 256.037Z" fill="white"/>
<path d="M497.041 1246.58C490.899 1248.6 484.712 1250.61 478.57 1252.63C479.465 1253.87 480.36 1255.13 481.298 1256.36C489.188 1257.16 497.077 1257.96 504.967 1258.76C504.978 1260.38 505.034 1262.03 505.09 1263.65C493.933 1264.26 482.776 1264.84 469.45 1265.55C471.318 1254.25 473.103 1243.62 475.61 1228.65C484.521 1236.08 491.026 1241.52 497.531 1246.96L497.085 1246.61L497.041 1246.58Z" fill="white"/>
<path d="M486.84 320.961C483.54 324.051 476.438 328.022 477.515 330.079C485.688 345.854 469.381 344.643 455.302 345.362C453.732 342.66 452.208 340.047 450.683 337.404C462.542 317.182 465.544 315.805 486.796 320.961L486.84 320.961Z" fill="white"/>
<path d="M332.001 221.047C315.613 227.119 315.349 227.475 310.119 251.866C302.088 237.328 294.057 222.79 286.07 208.252C287.882 207.679 289.649 207.077 291.461 206.504C295.893 213.107 300.28 219.739 303.727 224.904C313.86 223.534 322.93 222.291 332.001 221.047Z" fill="white"/>
<path d="M385.794 149.52C384.286 155.457 382.217 163.521 380.192 171.466C375.881 169.374 369.171 166.355 362.814 163.039C358.058 160.567 353.742 157.738 349.205 155.057C356.184 152.472 362.849 149.123 370.323 147.566C374.568 146.681 380.207 148.705 385.749 149.491L385.794 149.52Z" fill="white"/>
<path d="M833.901 252.542C836.848 255.911 839.795 259.311 842.742 262.68C838.893 263.268 835.088 263.826 834.38 263.949C831.737 272.105 829.354 279.552 826.97 286.999C824.311 286.723 821.652 286.447 818.992 286.142C819.71 274.932 820.427 263.723 821.064 253.576C825.757 253.336 830.184 253.099 834.523 252.832C834.479 252.803 833.901 252.512 833.901 252.512L833.901 252.542Z" fill="white"/>
<path d="M658.961 1308.29C655.58 1318.78 652.245 1329.3 648.864 1339.79C639.919 1327.5 630.397 1315.07 658.961 1308.29Z" fill="white"/>
<path d="M463.924 -18.6828C470.063 -14.9523 481.874 -10.6726 481.143 -7.63049C479.423 -0.276702 471.853 6.47003 466.677 13.4651C464.015 12.8648 461.309 12.2353 458.647 11.635C460.658 1.59608 462.712 -8.44318 464.678 -18.4818C464.634 -18.4815 463.968 -18.6536 463.968 -18.6536L463.924 -18.6828Z" fill="white"/>
<path d="M-49.3048 1199.21C-33.0018 1187.33 -16.6985 1175.48 -0.395395 1163.6C1.51652 1164.65 3.47267 1165.7 5.38458 1166.74C-7.09423 1180.78 -28.2882 1189.98 -43.3014 1202.62C-45.3025 1201.48 -47.3037 1200.35 -49.3048 1199.21Z" fill="white"/>
<path d="M489.398 57.501C478.404 55.9574 470.822 54.8908 463.197 53.8245C463.232 52.5564 463.312 51.2585 463.347 49.9904C467.942 48.4246 472.493 46.8886 479.12 44.6303C471.879 41.5858 466.371 39.2662 460.152 36.6567C473.358 31.5507 482.436 37.5305 489.354 57.4718L489.398 57.501Z" fill="white"/>
<path d="M99.3184 872.649C103.297 877.899 107.232 883.178 111.256 888.427C114.43 892.591 118.135 896.604 120.779 900.949C122.347 903.562 122.28 906.599 122.965 909.455C118.62 908.837 112.289 909.147 110.283 907.333C106.672 904.086 105.489 899.642 103.6 895.617C100.542 889.034 97.7488 882.39 94.8673 875.777C96.3657 874.734 97.8641 873.691 99.3626 872.649L99.3184 872.649Z" fill="white"/>
<path d="M15.5958 1120.14C15.1069 1138.62 9.87217 1147.83 -0.108357 1147.76C3.05645 1138.13 6.17808 1128.64 9.29965 1119.16C11.3837 1119.5 13.5119 1119.84 15.5958 1120.14Z" fill="white"/>
<path d="M481.904 1422.79C478.3 1420.49 474.387 1418.37 471.18 1415.82C468.731 1413.86 467.119 1411.43 464.886 1408.88C469.255 1406.61 476.05 1403.08 488.318 1396.68C485.21 1408.12 483.182 1415.68 481.154 1423.24L481.948 1422.76L481.904 1422.79Z" fill="white"/>
<path d="M389.082 63.8736C391.236 67.8977 393.391 71.9513 395.95 76.7685C392.687 78.8261 388.057 81.7189 381.443 85.8642C379.818 81.571 377.136 78.1109 377.6 74.8348C378.144 70.4378 381.126 66.171 383.044 61.8526C385.042 62.5166 387.04 63.21 389.082 63.8736Z" fill="white"/>
<path d="M732.066 57.43L737.46 -6.29427C737.947 -6.29773 738.478 -6.3015 738.965 -6.30496L739.418 57.4663C736.982 57.4541 734.502 57.4422 732.065 57.4005L732.066 57.43Z" fill="black"/>
<path d="M766.863 -19.2992L767.357 50.3687C766.782 50.3727 766.162 50.3771 765.586 50.3812L765.091 -19.3161C765.667 -19.3202 766.287 -19.3246 766.863 -19.3287L766.863 -19.2992Z" fill="black"/>
</g>
</g>
<defs>
<clipPath id="clip0_98_1669">
<rect width="1440" height="1024" fill="white" transform="matrix(0 -1 1 0 0 1440)"/>
</clipPath>
<clipPath id="clip1_98_1669">
<rect width="1034.23" height="1447.34" fill="white" transform="translate(1034.23 1440.05) rotate(179.593)"/>
</clipPath>
</defs>
</svg>
