<svg width="768" height="1024" viewBox="0 0 768 1024" fill="none" xmlns="http://www.w3.org/2000/svg">
<g clip-path="url(#clip0_97_1363)">
<rect width="768" height="1024" fill="#E8350D"/>
<g clip-path="url(#clip1_97_1363)">
<path d="M231.737 390.507C239.867 393.117 247.974 395.693 256.7 398.509C256.804 400.264 257.089 405.071 257.221 407.457C239.147 404.286 220.296 400.979 200.254 397.436C194.937 417.658 197.894 438.312 201.536 458.927C202.084 462.048 203.68 464.774 204.09 467.896C205.492 478.733 208.829 485.238 216.633 487.008C232.356 490.547 247.951 495.421 264.527 500.007C251.264 505.016 239.026 509.631 225.262 514.854C236.323 537.592 247.844 554.43 264.644 561.613C275.118 566.102 285.306 572.102 295.627 577.505C318.745 589.592 342.187 589.426 365.242 579.644C374.696 575.645 382.822 564.811 392.129 559.339C407.306 550.385 422.976 543.324 438.388 535.281C440.756 534.035 442.933 531.808 444.683 527.233C437.155 528.971 429.627 530.674 421.939 532.449C419.669 518.389 424.211 514.565 431.028 512.411C462.536 502.498 494.115 493.007 525.431 481.763C539.767 476.606 553.505 467.768 567.529 460.577C568.117 466.073 557.957 478.033 537.051 496.459C537.29 497.861 537.528 499.298 537.79 500.701C544.83 497.913 552.036 495.791 558.911 492.231C577.92 482.303 596.787 471.673 615.772 461.569C618.503 460.11 621.612 460.228 625.559 459.428C624.816 473.826 624.51 482.253 612.185 484.131C596.047 486.597 580.47 497.168 564.048 504.516C572.292 526.362 587.579 497.504 593.843 520.452C591.91 518.5 589.977 516.583 586.272 512.888C590.149 524.796 607.698 534.5 612.229 528.957C614.335 526.38 616.872 519.973 616.122 517.416C610.316 497.659 620.352 508.083 624.332 505.528C623.872 511.428 623.515 515.924 622.888 524.143C628.398 518.171 632.389 513.86 637.74 508.03C638.416 509.886 639.837 513.737 640.047 514.297C647.032 513.3 651.964 512.914 656.824 511.826C659.789 511.173 664.174 510.826 665.273 507.94C671.959 490.622 678.128 503.355 685.204 508.816C698.074 496.685 700.602 460.089 723.305 468.493C712.091 456.322 701.206 461.489 689.652 469.048C689.821 463.922 689.932 460.165 690.079 455.179C684.649 459.536 679.536 463.573 674.447 467.646C673.48 466.565 672.512 465.449 671.544 464.367C673.584 458.807 675.624 453.281 678.427 445.679C666.703 451.905 655.663 457.775 647.195 462.259C632.27 452.044 620.004 443.004 605.769 459.112C604.493 453.224 603.501 448.668 601.848 441.097C615.975 438.75 629.121 436.551 642.29 434.351C642.577 436.139 642.863 437.928 643.128 439.716C640.947 441.592 638.767 443.433 634.542 447.043C639.932 446.619 643.189 445.227 645.963 446.436C648.782 447.679 651.163 451.454 656.25 456.753C653.709 446.521 652.04 439.828 650.393 433.241C670.624 421.513 680.731 425.794 683.33 447.61C693.013 443.574 705.117 449.105 710.984 429.16C709.767 428.326 707.908 427.04 703.843 424.226C709.934 422.849 714.597 419.832 718.107 421.808C720.103 422.917 720.169 432.254 721.912 442.843C723.554 432.757 724.561 426.536 725.634 419.964C734.666 417.583 738.975 425.907 739.43 448.159L739.814 447.525C737.562 449.015 735.334 450.54 732.332 452.563C736.667 461.272 740.329 468.653 744.038 476.104C738.49 479.935 727.937 473.972 729.199 487.653C734.98 487.612 739.9 488.63 744.505 487.193C747.743 486.187 750.592 481.92 753.518 478.88C755.378 476.971 757.075 474.642 758.865 472.523L759.619 472.588C766.343 473.418 773.044 474.213 782.283 475.341C782.012 469.411 781.492 463.657 781.588 457.97C781.654 454.354 782.127 450.103 783.479 447.461C784.088 446.298 787.347 448.346 789.43 448.928C788.84 449.459 788.227 449.99 787.614 450.52C787.155 460.002 786.377 469.485 786.422 478.962C786.44 481.49 788.971 483.964 790.337 486.482C787.726 492.152 785.116 497.822 781.718 505.218C780.335 497.084 779.167 490.282 777.045 477.836C773.728 486.916 771.845 492.054 769.76 497.72C763.99 499.271 756.784 501.218 749.737 503.128C751.647 498.586 753.242 494.784 754.837 490.981C754.076 489.934 753.314 488.886 752.553 487.873C748.07 493.697 743.587 499.521 739.036 505.416C738.181 503.982 736.493 501.151 737.094 502.13C730.927 505.719 726.712 510.698 723.141 509.776C713.367 507.248 709.104 515.141 708.184 527.188C708.059 528.874 718.542 534.591 724.211 534.972C734.018 535.64 743.923 533.955 753.716 532.551C765.494 530.818 777.243 528.312 789.498 526.084C787.823 521.954 785.648 518.073 786.054 517.298C788.15 513.176 790.914 509.856 794.125 505.235C793.085 500.293 791.595 493.213 790.105 486.097C800.872 489.918 802.505 494.715 798.874 511.064C803.732 513.03 808.59 515.032 814.273 517.343C815.458 510.455 816.71 503.32 817.939 496.185C818.899 496.249 819.859 496.312 820.82 496.375C821.312 501.427 821.805 506.443 822.274 511.319C859.443 503.894 906.722 427.069 903.148 374.229C891.78 372.589 880.687 371.088 869.638 369.306C865.887 368.701 861.954 368.273 858.534 366.12C854.196 363.378 845.131 370.709 846.566 353.954C846.63 353.322 843.42 351.8 841.678 351.005C830.055 345.612 817.964 341.906 806.943 334.437C800.285 329.921 795.948 317.666 789.353 312.517C782.667 307.299 774.611 305.496 767.015 304.076C748.688 300.59 729.951 300.512 711.95 294.743C688.292 287.153 665.111 275.839 641.889 265.262C635.058 262.151 628.932 255.349 622.145 251.992C618.292 250.089 613.711 251.701 610.878 251.722C607.019 245.641 603.059 238.227 598.377 232.152C582.95 212.253 567.229 192.917 551.689 173.265C548.277 168.936 545.112 164.149 540.958 158.317C542.608 152.513 544.793 144.915 547.246 136.368C594.745 241.867 732.975 324.221 788.798 279.349C767.602 251.557 746.913 224.429 724.979 195.659C732.771 192.515 741.042 189.227 750.908 185.26C746.153 181.643 742.224 178.652 738.365 175.696C734.413 179.094 730.483 182.421 726.055 186.244C722.986 159.447 724.416 151.714 738.259 122.27C703.874 119.424 671.248 116.742 639.4 114.09C640.993 103.513 642.892 90.9321 645.14 76.1377C648.878 78.0068 652.799 79.9447 655.573 81.3291C659.988 78.8055 663.692 75.8656 667.613 74.5741C693.646 66.0348 719.891 64.6902 746.133 72.5777C757.33 75.9383 768.355 80.8446 779.423 85.1891C785.541 87.6029 791.529 91.1058 797.733 92.7467C809.866 95.9954 814.23 111.936 821.294 128.525C822.917 115.806 835.789 126.562 834.223 112.005C859.25 103.192 885.074 94.0928 910.898 85.0635C922.135 81.1224 932.758 74.3423 944.702 86.2979C949.327 90.8987 958.267 85.2538 965.803 81.5144C957.631 76.1315 949.458 70.7484 941.332 65.4353C960.189 72.7434 978.628 85.5657 1001.45 75.1185C994.148 73.38 989.705 71.9723 985.199 71.3373C970.629 69.2994 956.061 67.5072 941.47 65.645C932.442 65.2176 923.217 62.896 914.457 64.924C906.13 66.8435 898.293 73.3582 889.85 78.0517C895.141 63.7974 903.266 59.1763 912.884 59.0729C937.858 58.8957 962.854 58.7183 987.923 59.1723C984.727 59.5811 981.554 60.025 978.358 60.4338C978.369 61.9432 978.38 63.4875 978.391 64.9968L1041.22 64.5509C1041.23 66.0954 1041.25 67.675 1041.26 69.2195L1026.06 69.3273C1026 70.0649 1025.94 70.8375 1025.87 71.5751C1033.48 73.9082 1041.1 76.241 1049.55 78.8489C1046.38 79.7841 1044.01 80.468 1038.65 82.0155C1056.45 97.6154 1071.85 111.161 1086.55 124.045C1071.2 132.263 1068.26 132.494 1050.44 127.425C1040.28 124.549 1030.09 120.971 1019.84 119.92C1016.48 119.593 1012.87 126.218 1008.54 130.461C1013.15 130.428 1018.06 130.323 1022.98 130.359C1025.99 130.407 1030.03 128.904 1031.83 131.279C1043.54 146.781 1056.81 138.719 1069.54 138.769C1071.82 138.753 1074.11 138.842 1076.39 138.966C1087.13 139.522 1099.65 134.659 1101.86 157.144C1094.23 163.552 1086.88 170.87 1078.94 176.157C1052.24 193.898 1025.87 213.427 995.813 214.729C989.555 214.984 984.585 219.863 985.465 231.231C986.447 243.966 992.508 238.307 996.961 237.924C998.468 237.773 999.967 236.569 1001.43 236.699C1032.41 239.428 1063.4 242.718 1094.42 244.815C1103.47 245.417 1105.21 251.653 1104.7 263.557C1104.24 273.916 1104.73 284.408 1104.77 290.691C1084.04 305.231 1065.46 318.245 1045.93 331.934C1047.65 336.169 1049.07 340.055 1050.74 343.659C1074.67 395.021 1069.49 453.786 1052.14 489.293C1033.34 527.724 1004.12 535.268 980.262 505.74C978.003 502.947 978.519 491.991 979.801 485.874C981.968 475.644 985.809 466.314 989.229 455.689C997.919 459.945 1007.4 465.494 1017.18 469.146C1039.06 477.31 1055.28 450.762 1049.6 416.752C1043.15 378.29 1028.71 349.678 1005.19 332.398C1003.54 331.182 1001.62 330.388 999.786 330.225C986.868 329.053 973.781 329.848 961.099 326.639C939.147 321.072 925.474 342.267 910.863 360.273C908.123 363.662 907.526 373.004 907.596 379.603C907.972 413.194 902.053 445.32 887.547 468.381C874.194 489.608 855.598 503.009 839.334 519.868C832.983 526.443 826.655 533.052 819.215 540.792C814.251 533.491 809.469 532.577 808.083 549.823C807.705 554.459 803.574 558.35 801.182 562.579C792.35 551.303 783.712 544.66 771.737 547.693C757.208 551.342 742.213 550.501 727.515 552.957C721.764 553.91 716.436 559.811 710.663 561.01C706.26 561.919 701.42 559.355 696.885 557.703C689.76 555.12 682.788 551.519 675.622 549.464C673.653 548.916 671.07 552.094 669.052 554.249C667.442 555.946 666.273 558.622 664.918 560.878C663.981 557.62 663.043 554.362 661.826 550.194C660.099 551.645 658.373 553.097 659.509 552.141C654.102 546.879 650.293 541.5 645.845 539.355C642.429 537.729 638.22 540.181 634.362 540.805C634.328 542.455 634.294 544.106 634.26 545.756C630.593 540.867 626.948 535.979 623.395 531.265C613.963 554.43 626.758 573.646 631.609 593.866C640.818 597.241 649.552 601.286 658.477 603.153C660.926 603.662 663.685 596.481 666.76 595.161C673.891 592.126 681.259 590.389 688.557 588.407C690.29 587.938 693.697 588.3 693.723 588.686C694.612 601.282 699.985 595.416 702.547 592.555C704.202 590.718 703.561 584.088 704.069 578.363C705.711 578 708.631 577.312 710.114 576.951C714.089 583.346 717.302 588.519 720.515 593.691C719.945 593.836 719.352 593.98 718.782 594.125C722.625 610.912 726.446 627.664 730.502 645.398C732.514 645.559 735.211 645.75 740.561 646.169C732.45 636.538 729.151 628.979 742.483 627.164C737.491 622.426 734.408 619.499 728.703 614.063C728.146 606.485 727.11 592.486 725.975 577.435C728.828 577.063 731.956 576.655 736.476 576.061C734.845 581.268 733.84 584.505 733.102 586.862C742.408 590.903 752.117 593.853 760.889 600.004C762.795 601.324 761.265 614.288 761.319 621.87C760.064 622.125 758.809 622.415 757.554 622.669C755.921 617.907 754.287 613.109 752.444 607.716C749.815 614.018 747.411 619.757 744.759 626.025C745.85 628.439 747.475 631.973 748.821 634.947L765.318 634.83C763.064 639.199 761.441 642.335 759.841 645.435C762.313 646.049 764.788 647.05 767.28 647.243C771.28 647.53 775.277 647.256 779.664 647.225C780.113 652.523 780.514 657.539 780.963 662.872C786.268 644.124 794.628 643.609 810.218 660.699C810.31 652.203 799.933 632.326 779.085 601.068C783.533 593.49 787.61 591.706 793.511 599C812.874 622.873 828.176 650.777 836.48 687.507C840.561 705.521 846.782 722.431 853.324 739.656C853.041 735.129 852.78 730.603 852.497 726.147C859.316 721.043 875.42 810.513 872.81 835.525C871.998 843.394 873.314 851.774 873.619 859.319C896.102 862.424 913.82 844.431 931.531 825.56C927.824 827.938 924.046 830.141 920.409 832.73C916.635 835.424 913.001 838.609 909.251 841.444C906.524 843.5 903.849 846.432 900.951 847.014C897.528 847.705 893.931 846.327 890.409 845.861C892.343 841.459 893.625 835.307 896.327 832.936C903.525 826.566 911.234 821.421 918.945 816.452C926.997 811.27 933.168 805.013 928.923 786.438C931.233 809.239 939.016 801.566 946.906 799.369C963.667 794.687 980.671 792.038 997.441 788.585C1001.76 802.104 999.332 807.106 990.908 808.184C978.033 809.855 965.187 812.438 952.388 815.197C948.076 816.105 943.913 818.662 937.625 821.339C944.698 829.468 954.571 833.049 942.947 850.086C973.769 843.233 1000.41 837.322 1026.67 831.519L1026.48 804.596C1021.59 803.999 1017.17 803.469 1011.85 802.84C1011.56 797.997 1011.27 793.12 1010.99 788.524C1016.39 783.114 1028.82 789.836 1023.94 771.617C1015.49 759.181 999.963 786.531 994.58 755.713C1004.02 752.978 1012.23 750.638 1020.3 748.299C1017.04 677.835 1013.67 605.512 1010.19 530.345C1019.24 531.404 1026.51 532.23 1035 533.223C1040.81 618.483 1046.5 701.602 1052.24 785.774L1069.24 785.653C1071.89 795.674 1072.53 802.233 1063.63 804.017C1049.83 806.818 1048.06 812.763 1052.83 833.966C1068.51 815.671 1087.15 824.069 1104.76 819.802C1107.33 831.473 1106.37 837.483 1098.13 838.103C1087.3 838.917 1076.53 840.784 1065.9 846.37C1075.33 846.303 1084.79 845.885 1094.23 846.345C1098.12 846.528 1102.08 848.22 1105.77 850.264C1106.37 850.576 1106.36 858.79 1105.38 859.534C1100.61 863.114 1095.54 866.66 1090.34 867.82C1085.82 868.8 1081.01 866.518 1076.32 865.708C1076.03 867.325 1075.77 868.977 1075.48 870.594C1077.59 875.107 1079.73 879.655 1081.75 883.959C1089.23 882.396 1096.65 880.869 1105.45 879.051L1105.86 936.442C1100.28 939.395 1094.3 942.597 1088.31 945.764C1088.32 946.957 1088.33 948.151 1088.34 949.344C1093.72 950.78 1099.12 952.181 1107.11 954.301C1106.59 965.538 1108.35 980.971 1104.49 991.564C1101.98 998.497 1091.33 998.432 1084.98 1004.55C1089.8 1004.87 1094.63 1005.18 1102.56 1005.72C1085.24 1024.98 1068.49 1009.55 1051.21 1020.59C1052.74 1062.8 1054.45 1109.94 1056.01 1153.03C1070.5 1150.65 1083.73 1144.16 1095.41 1148.33C1101.64 1150.53 1105.15 1171.15 1109.88 1183.47L1107.83 1188.05C1099.34 1186.84 1087.71 1190.33 1083.21 1183.2C1077.87 1174.75 1062.22 1181.53 1065.46 1158.69C1064.83 1163.32 1064.23 1167.96 1063.38 1174.29C1061.72 1174.79 1058.25 1175.83 1053.21 1177.38C1070.06 1200.6 1091.94 1189.71 1110.56 1203.23C1090.66 1225.7 1072.44 1201.46 1055.91 1203.2L1056.17 1239.6C1061.55 1248.16 1065.04 1253.71 1068.53 1259.27L1067.04 1261.95C1064.29 1259.9 1061.51 1257.88 1057.58 1255L1058.15 1335.52C1085.2 1322.69 1094.99 1290.78 1107.41 1260.68C1108 1263.38 1109.35 1266.67 1109.32 1269.9C1109.14 1301.95 1106.63 1334.37 1109.27 1365.84C1110.57 1381.38 1104.78 1395.53 1109.16 1411.44C1110.66 1416.83 1103.66 1427.73 1100.25 1436.88C1101.98 1435.88 1104.3 1434.5 1106.64 1433.15C1112.2 1450.34 1111.98 1451.08 1099.53 1450.89C1094.41 1450.82 1089.26 1449.45 1084.16 1449.63C1077.88 1449.88 1074.97 1464.58 1078.19 1483.09C1075.58 1480.34 1073.95 1478.63 1072.31 1476.92C1071.5 1477.73 1070.66 1478.58 1069.84 1479.39C1071.98 1484.29 1074.12 1489.23 1076.11 1493.85C1065.65 1500.38 1046.41 1483.63 1042.48 1519.25C1042.16 1513.82 1041.87 1508.38 1041.3 1497.85C1034.66 1512.96 1029.06 1525.7 1022.75 1540.14C1021.1 1533.48 1019.99 1528.96 1018.28 1522.02C1016.71 1529.62 1015.65 1534.75 1014.5 1540.37C1012.03 1533.2 1009.69 1526.44 1008.41 1522.66C1002.09 1527.76 996.731 1532.08 990.256 1537.32C989.984 1531.07 989.767 1526.33 989.519 1520.33C992.291 1521.44 994.285 1522.19 996.668 1523.12C999.07 1513.91 1003.44 1505.6 995.584 1496C994.201 1494.29 998.295 1482.01 1002.31 1474.4C1003.13 1478.18 1003.31 1483.03 1004.97 1485.47C1006.65 1487.95 1009.83 1488.1 1012.33 1489.28C1014.77 1468.62 1018.19 1487.8 1019.43 1488.25C1029.06 1474.24 1038 1461.3 1046.93 1448.35C1046.31 1447.09 1045.7 1445.8 1045.08 1444.54C1039.04 1450.72 1033.01 1456.91 1024.03 1466.13C1025.97 1450.57 1027.54 1440.17 1028.5 1429.63C1028.94 1424.75 1028.72 1419.38 1027.86 1414.61C1026.86 1408.97 1022.52 1401.41 1031.44 1406.16C1031.75 1402.37 1033.09 1397.76 1032.16 1394.89C1029.35 1386.2 1030.46 1387.14 1032.38 1377.4C1034.69 1365.63 1034.62 1352.61 1034.92 1340.07C1035.26 1326.48 1034.82 1312.83 1037.35 1298.74C1039.79 1308.72 1042.22 1318.75 1044.67 1328.73C1045.53 1328.38 1046.4 1328.05 1047.26 1327.7C1047.2 1318.54 1047.32 1309.37 1046.98 1300.21C1046.86 1296.98 1045.82 1291.34 1044.76 1291.1C1025.81 1286.46 1033.78 1262.29 1033.08 1247.94C1032.14 1228.6 1031.11 1218.92 1019.06 1210.58C1010.08 1204.36 1006.45 1191.37 1011.39 1179.82C1012.22 1183.85 1012.84 1186.9 1013.12 1188.33C1018.49 1185.45 1023.93 1182.54 1030.35 1179.09C1029.52 1177.37 1027.2 1172.68 1024.62 1167.4C1026.77 1167.21 1028.89 1167.05 1032.82 1166.75C1031.09 1160.65 1029.59 1155.43 1027.97 1149.72L1032.52 1149.69C1033.17 1122.41 1028.29 1117.6 1007.11 1124.07C1005.06 1124.68 1003.06 1125.75 1000.12 1127C1000.9 1134.54 1001.76 1142.78 1002.77 1152.6C1008.13 1151.2 1012.76 1149.93 1018.66 1148.38C1017.35 1153.31 1016.3 1157.32 1014.92 1162.49C1011.45 1159.42 1008.62 1156.95 1003.86 1152.77C1003.34 1165.38 1002.89 1175.84 1002.43 1186.27C1003.21 1186.19 1004.01 1186.12 1004.79 1186.04C1003.6 1189.14 1001.02 1192.84 1001.47 1195.26C1003.04 1203.82 998.507 1209.15 997.817 1214.98C995.204 1236.41 986.269 1249.11 976.534 1261.92C971.169 1268.98 965.782 1276.22 961.087 1284.32C956.844 1291.69 953.546 1300.31 948.55 1311.16C942.916 1312.57 934.199 1314.14 925.674 1317.05C916.921 1320.02 915.578 1327.23 921.233 1338.49C923.551 1343.11 924.055 1349.74 925.943 1354.96C926.595 1356.74 929.166 1358.34 930.419 1357.77C931.671 1357.2 932.516 1353.93 933.277 1351.64C934.62 1347.66 935.756 1343.55 936.85 1339.89C940.629 1350.85 943.615 1359.43 948 1372.11C943.56 1374.24 937.252 1377.24 930.762 1380.37C926.972 1377.59 922.603 1373.65 917.923 1371.09C913.427 1368.63 909.473 1368.55 910.262 1357.28C910.634 1351.76 904.486 1345.14 899.945 1336.4C897.828 1343.92 896.87 1347.3 896.513 1348.6C888.318 1356.17 879.204 1334.05 873.313 1350.7C863.031 1350.77 853.629 1349.19 844.549 1351.15C763.033 1368.89 681.124 1373.02 598.869 1367.11C578.362 1365.64 557.855 1363.99 537.364 1361.58C511.065 1358.46 487.55 1370.84 464.947 1389.54C462.062 1391.91 458.547 1392.5 454.902 1394.07C450.398 1383.96 450.758 1376.72 458.563 1372.17C460.679 1370.93 462.654 1369.06 464.56 1367.18C471.64 1360.29 469.067 1361.57 466.376 1349.48C464.323 1340.29 469.024 1326.54 472.47 1316.23C473.745 1312.39 479.931 1311.54 483.971 1310.95C502.415 1308.29 520.906 1305.88 539.402 1304.13C544.128 1303.68 549.018 1306.94 553.769 1306.63C560.78 1306.16 567.757 1303.97 573.917 1302.69L574.009 1315.68C577.008 1313.27 579.984 1310.83 583.007 1308.49C586.983 1305.41 591.03 1302.47 596.464 1301.9C592.98 1306.84 589.496 1311.78 583.796 1319.86C665.591 1328.65 744.813 1341.92 822.951 1327.99C824.142 1321.94 824.194 1316.36 826.007 1314.17C827.366 1312.51 833.117 1314.79 833.24 1316.05C834.535 1331.03 840.93 1324.14 845.306 1322.67C850.823 1320.81 856.074 1317.05 861.493 1314.38C863.975 1313.13 866.727 1311.25 869.153 1311.8C903.415 1319.77 933.27 1299.2 957.384 1267.96C984.893 1232.31 1002.88 1184.9 993.218 1123.92C990.993 1109.86 990.158 1095.3 988.366 1081.02C986.212 1063.98 979.978 1054.97 967.968 1056.14C958.491 1057.05 948.959 1056.45 939.413 1053.99L979.101 1053.71L979.007 1040.48C981.809 1045.65 983.916 1049.57 986.439 1054.22C989.69 1035.77 985.701 1033.93 975.614 1019.58C965.319 1004.94 959.878 1020.6 952.315 1023.85C952.053 1022.38 951.814 1020.91 951.552 1019.43C955.921 1013.61 960.29 1007.79 964.704 1001.93C958.952 983.552 954.561 974.292 951.528 974.15C952.472 968.667 953.503 962.622 954.425 957.35C945.21 956.468 937.395 956.313 929.817 954.26C928.81 953.987 928.875 943.912 928.523 939.316C932.652 938.409 935.755 937.72 940.477 936.668C936.074 927.994 939.229 912.105 925.347 919.996C929.4 914.807 931.212 912.513 933 910.183C932.531 908.431 932.038 906.68 931.569 904.928C926.79 907.63 921.638 909.351 917.301 913.243C911.625 918.339 906.207 914.761 905.144 906.625C896.18 908.83 887.073 910.263 878.277 913.555C874.63 914.915 870.525 919.262 868.617 924.085C866.642 929.118 867.082 936.382 866.336 943.934C870.65 946.501 874.734 948.894 878.819 951.323C878.83 952.902 878.796 954.482 878.784 956.062C874.258 955.778 868.823 953.008 865.438 955.876C861.555 959.168 859.466 967.467 855.865 975.215C877.708 991.173 899 990.706 920.121 991.855C920.201 993.434 920.258 994.978 920.338 996.557C912.341 996.614 904.316 996.039 896.371 996.938C890.229 997.648 883.555 1003.7 878.214 1001.35C858.594 992.818 847.033 1005.82 833.564 1026.83C794.874 1087.21 746.937 1103.48 693.33 1083.89C677.935 1078.24 663.233 1070.52 652.091 1052.27C648.345 1046.16 645.48 1038.45 643.073 1030.82C634.633 1003.96 633.739 1003.51 617.704 1017.13C613.161 1020.99 607.919 1022.89 603.959 1025.09C603.688 1035.24 603.453 1043.88 603.203 1053.78C598.595 1051.64 595.89 1050.39 591.649 1048.42C592.914 1052.87 594.027 1055.14 594.159 1057.56C594.573 1064.48 595.586 1071.95 594.259 1078.1C593.794 1080.24 587.138 1079.34 583.301 1079.48C577.43 1079.69 571.58 1079.59 564.474 1079.64C567.743 1076.71 570.332 1074.44 573.125 1071.97C556.565 1056.64 539.804 1042.12 523.831 1025.8C516.304 1018.1 510.577 1006.38 503.522 997.409C494.829 986.343 486.144 973.17 471.25 989.81C473.183 978.844 474.106 973.677 475.094 968.089C462.315 954.349 449.444 940.469 436.573 926.624C436.909 925.78 437.223 924.9 437.56 924.055C447.04 930.095 456.497 936.171 465.977 942.212L468.359 936.684C460.599 925.015 452.839 913.345 443.554 899.405C453.251 906.989 461.315 913.145 469.289 919.547C479.332 927.655 479.239 927.55 490.618 917.781C492.412 916.224 495.113 916.871 497.376 916.996C511.799 917.666 520.937 907.807 524.025 885.81C523.521 891.957 523.016 898.104 522.511 904.215C523.657 904.804 524.804 905.393 525.951 905.981C528.928 893.99 531.904 881.999 534.858 869.972L527.662 867.004C526.728 860.973 527.148 852.475 524.657 849.299C511.491 832.437 511.363 824.084 525.341 810.399C526.861 808.914 528.173 806.974 531.276 803.091C527.126 801.085 524.447 800.296 522.103 798.452C520.15 796.922 518.599 794.124 517.833 789.25C520.123 789.866 522.435 790.481 527.151 791.782C522.989 784.826 520.28 776.561 517.192 776.161C513.922 775.728 510.293 782.81 506.37 787.085C504.989 785.55 502.11 782.376 501.212 781.4C504.445 773.409 507.657 765.523 511.946 754.926C501.989 755.699 493.919 755.124 498.414 738.102C503.856 735.466 508.706 733.115 515.765 729.66C507.122 725.614 501.253 722.883 495.407 720.151C495.533 718.57 495.636 716.99 495.762 715.374C498.285 713.566 500.832 711.758 504.174 709.382C501.913 703.08 499.675 696.917 496.739 688.794C494.723 697.76 493.439 703.561 492.132 709.362C490.81 703.439 489.489 697.516 488.167 691.628L487.851 692.087C491.821 675.244 490.776 672.865 475.103 663.463C473.946 661.4 472.812 659.337 471.655 657.309C464.587 649.882 457.474 642.491 450.474 634.923C449.668 634.051 449.312 632.158 448.87 631.073C452.915 627.815 456.845 624.663 462.889 619.811C465.249 620.707 470.724 622.774 476.177 624.877C476.512 623.786 476.847 622.661 477.205 621.57C472.804 616.441 468.381 611.312 464.003 606.183C473.385 614.541 482.744 622.9 492.701 631.815L492.584 615.318C497.844 622.336 501.188 626.77 505.617 632.672C507.356 620.162 522.812 615.033 508.677 596.915C520.438 592.83 530.49 589.353 543.072 585.016C540.608 592.019 539.914 593.955 539.847 594.166C551.494 590.046 563.665 585.713 575.813 581.414C575.707 579.414 575.624 577.379 575.519 575.378C572.461 575.962 569.356 576.3 566.323 577.129C560.462 578.75 552.671 585.229 549.172 581.638C536.466 568.6 522.461 572.034 509.177 570.829C488.828 569.008 468.971 575.327 449.36 587.331C452.67 593.345 455.077 597.716 457.485 602.087C438.526 593.411 419.285 593.056 399.813 595.792C395.727 596.382 391.478 593.183 387.246 592.546C384.593 592.144 381.485 592.166 379.19 593.902C334.78 627.495 292.027 617.689 249.288 583.977C232.79 570.966 218.911 553.583 204.756 535.991C196.365 525.555 186.483 520.851 175.549 525.527C167.53 528.954 159.635 533.749 151.446 535.632C141.842 537.842 131.913 539.351 122.284 538.051C94.3122 534.283 66.4799 527.635 38.4707 525.025C30.2624 524.276 19.4483 529.829 13.7063 538.541C-9.78137 574.197 -36.8073 565.261 -63.237 553.409C-68.8071 550.921 -74.5452 540.852 -82.0733 539.361C-87.222 538.309 -92.2914 535.537 -97.4581 535.152C-106.557 534.48 -112.461 526.764 -118.945 517.929C-124.99 509.687 -133.202 505.217 -142.006 497.768L-113.788 497.567C-140.047 458.263 -165.844 419.657 -194.389 376.928C-180.829 378.411 -170.607 379.567 -159.425 380.787C-165.336 375.388 -170.214 370.508 -175.339 366.437C-176.878 365.219 -179.529 365.168 -181.051 366.372C-190.117 373.563 -190.944 366.513 -191.67 354.477C-192.86 334.828 -185.094 324.839 -173.434 312.856C-197.013 300.211 -218.39 288.743 -243.69 275.127C-243.393 317.004 -243.388 353.054 -242.813 389.066C-242.252 422.972 -241.098 456.838 -240.149 490.706C-239.842 501.797 -242.404 514.206 -233.239 521.092C-231.883 522.1 -232.204 528.421 -231.791 531.928C-238.113 536.115 -243.799 539.841 -249.485 543.603C-249.218 545.777 -248.951 547.987 -248.661 550.161C-236.813 551.938 -224.92 553.538 -213.092 555.595C-205.153 556.978 -197.3 559.169 -189.383 560.763C-181.946 562.255 -179.461 567.994 -182.354 578.826C-204.088 575.014 -225.777 571.166 -247.466 567.353C-248.346 568.869 -249.249 570.385 -250.129 571.9C-245.587 584.154 -241.067 596.373 -236.921 607.577C-232.012 610.28 -226.642 613.507 -221.119 615.714C-220.776 615.852 -211.71 624.739 -214.992 609.879C-215.157 609.143 -211.019 606.2 -208.567 604.006C-210.566 602.475 -212.45 601.015 -214.356 599.554C-213.706 597.864 -213.078 596.21 -212.427 594.52C-207.892 596.103 -202.636 596.101 -199.136 599.937C-197.547 601.681 -199.423 610.962 -197.835 618.989C-196.002 613.289 -194.169 607.625 -192.201 601.573C-182.223 603.784 -177.047 621.579 -180.963 636.351C-182.365 641.661 -178.868 651.43 -176.151 657.624C-173.968 662.593 -169.562 665.23 -165.51 669.589C-178.703 667.225 -185.677 668.749 -186.43 674.16C-183.076 673.54 -179.334 672.811 -175.591 672.118C-174.965 679.801 -174.317 687.519 -173.691 695.202C-174.465 695.594 -175.239 695.985 -176.013 696.412C-178.07 693.127 -180.127 689.842 -183.131 685.054L-183.061 694.883C-207.782 685.58 -208.078 685.758 -216.208 715.302C-220.884 710.105 -225.329 705.187 -229.773 700.269C-225.56 695.114 -221.369 689.959 -215.593 682.898C-227.192 680.909 -235.427 679.528 -244.19 678.011C-243.635 688.608 -243.161 697.415 -242.71 706.258C-241.453 706.249 -240.174 706.205 -238.917 706.161C-238.299 699.908 -237.681 693.655 -237.062 687.403C-236.108 686.694 -235.13 685.985 -234.176 685.241C-232.61 690.109 -231.045 695.013 -229.479 699.881C-233.286 704.436 -237.092 708.991 -242.077 714.959L-241.815 751.816C-236.555 752.516 -232.278 753.082 -229.373 753.447C-226.828 757.887 -224.654 761.663 -222.502 765.439C-220.727 761.214 -218.928 757.024 -215.602 749.173C-211.33 755.531 -205.649 763.951 -200.038 772.3C-203.465 807.779 -202.235 813.632 -193.6 813.255L-193.971 761.059C-191.063 761.916 -187.949 762.807 -184.835 763.733L-187.232 767.19C-185.28 771.809 -183.996 778.856 -181.287 780.662C-172.862 786.254 -163.879 789.841 -156.198 793.683C-159.8 804.45 -162.395 812.297 -166.467 824.471C-168.498 815.218 -169.23 811.783 -170.883 804.283C-173.71 811.569 -176.377 815.696 -176.552 820.12C-176.628 822.191 -172.016 824.967 -169.419 827.055C-166.432 829.456 -163.333 831.47 -160.048 833.833C-162.724 836.766 -165.014 839.31 -167.984 842.56C-146.949 854.135 -146.007 854.866 -145.652 859.778C-141.501 849.042 -127.758 844.1 -124.033 853.727C-119.098 866.54 -115.49 866.303 -109.547 856.854C-108.802 855.69 -105.978 857.601 -107.007 860.697C-103.764 870.011 -100.522 879.326 -96.5332 890.846C-101.818 886.672 -106.061 881.296 -110.707 880.205C-115.628 879.047 -122.779 879.133 -125.763 883.647C-134.715 897.19 -139.789 880.974 -146.52 879.126C-148.351 878.612 -149.862 875.007 -150.508 874.134C-161.442 888.639 -166.558 866.315 -174.832 865.987C-183.952 865.631 -192.998 859.482 -201.751 855.999C-199.13 871.215 -189.707 878.906 -180.104 873.397C-178.42 872.437 -175.888 874.981 -173.756 875.914C-177.725 893.108 -165.09 896.177 -163.15 908.66C-170.537 910.959 -174.102 894.837 -183.205 896.797C-191.053 898.503 -201.852 896.543 -207.434 889.211C-218.136 875.106 -222.414 909.783 -232.416 894.584C-224.194 913.306 -208.66 912.81 -198.127 928.777C-202.534 929.265 -206.865 930.664 -211.052 929.992C-216.382 929.117 -221.62 925.082 -226.828 925.295C-230.209 925.424 -235.662 929.781 -236.342 933.822C-237.987 943.417 -237.43 954.33 -229.044 957.641C-208.445 965.673 -187.736 973.074 -167.182 981.282C-132.1 995.25 -96.3712 994.154 -60.6373 993.76C-55.1537 993.721 -49.6479 996.806 -45.0911 998.178C-45.9951 1009.24 -46.5624 1016.23 -47.4242 1026.8C-53.8313 1035.17 -56.8796 1020.97 -61.0525 1018.97C-67.9132 1021.37 -74.7739 1023.77 -81.6574 1026.17C-81.4416 1027.61 -81.2257 1029.04 -80.9873 1030.45L-67.5067 1030.35C-64.4481 1036.33 -61.8294 1041.51 -59.6746 1045.71C-81.0225 1054.46 -90.0129 1052.98 -100.824 1039.68C-107.003 1044.78 -112.455 1049.28 -117.975 1053.84C-117.103 1054.33 -115.008 1056.56 -112.882 1056.61C-92.6347 1057.03 -72.3606 1057.94 -52.1475 1056.71C-47.0314 1056.39 -42.149 1048.92 -38.2282 1041.17L-26.0348 1043.22L-26.4506 1042.59C-25.0647 1044.69 -23.3437 1048.92 -22.3638 1048.57C-15.7316 1046.17 -9.28987 1042.68 -2.7533 1039.69C8.63479 1034.51 20.0462 1029.41 34.3273 1022.99C32.7989 1033.01 32.1161 1036.59 31.7307 1040.25C31.1524 1045.69 30.8028 1051.17 30.339 1056.65C34.2471 1056.76 41.318 1058.22 41.5591 1056.78C44.2608 1041.46 52.2913 1049.33 57.5829 1048C73.1157 1044.1 88.7864 1040.3 104.478 1039.42C113.5 1038.9 122.763 1043.43 131.722 1046.95C136.809 1048.95 141.188 1054.21 145.297 1043.97C146.352 1041.37 150.895 1040.74 153.664 1041.31C181.213 1046.73 208.741 1052.37 236.183 1058.77C238.518 1059.32 240.301 1065.87 242.338 1069.61C241.756 1071.3 241.174 1072.99 240.614 1074.64C207.186 1068.31 173.758 1061.99 140.33 1055.66C140.137 1057.42 139.966 1059.17 139.773 1060.93C164.517 1063.81 188.45 1071.61 211.506 1084.64C211.36 1086.57 211.214 1088.51 211.068 1090.44C203.048 1090.49 194.988 1091.39 187.029 1090.36C179.345 1089.36 171.76 1086.36 162.557 1083.83C165.539 1098.34 170.002 1102.63 177.85 1104.19C204.141 1109.3 230.306 1116.03 256.558 1122.16C257.416 1130.37 258.101 1136.79 258.787 1143.24C259.564 1143.31 260.342 1143.41 261.119 1143.47C261.944 1137.36 262.768 1131.21 263.507 1125.76C274.873 1130.35 285.43 1136.95 296.271 1138.38C306.929 1139.74 317.868 1135.66 328.689 1134.39C331.748 1134.02 334.887 1135.12 339.53 1135.79C341.665 1130.72 359.869 1120.1 367.258 1121.27C375.973 1122.65 384.818 1123.01 393.566 1122.42C405.419 1121.63 408.577 1109.47 406.121 1088.6C415.243 1092.46 422.204 1094.55 428.743 1098.37C440.468 1105.24 451.859 1113.37 463.562 1120.38C465.673 1121.66 468.518 1120.06 472.308 1119.65C473.354 1122.03 475.467 1126.86 477.581 1131.69C492.656 1127.72 504.548 1142.06 515.387 1152.9C522.222 1159.73 529.044 1161.48 535.768 1165.61C558.258 1179.35 580.904 1192.45 603.527 1205.63C605.89 1207.02 608.587 1207.11 611.699 1210.91C608.597 1211.67 605.186 1214.12 602.481 1212.87C586.137 1205.44 569.905 1207.42 553.791 1213.22C552.15 1213.79 551.514 1220.75 549.866 1226.73C549.751 1226.73 546.637 1225.73 543.523 1224.77C522.34 1218.21 501.158 1211.7 478.968 1204.83C477.324 1208.25 475.253 1212.58 472.956 1217.41C473.652 1212.42 474.284 1208.06 475.35 1200.51C459.701 1194.47 444.395 1188.44 429.045 1182.69C424.256 1180.89 419.381 1179.74 414.549 1178.26C402.779 1174.62 399.607 1165.62 403.525 1147.76C405.008 1140.98 405.94 1133.88 407.586 1124.29C402.956 1125.58 398.66 1125.54 398.419 1127.02C393.264 1160.44 373.369 1161.42 357.586 1168.73C339.458 1177.14 320.405 1180.86 301.823 1186.57C303.551 1198.21 309.308 1194.94 314.642 1193.15C321.184 1190.93 328.644 1186 327.585 1207.38C328.552 1192.39 329.639 1181.25 340.672 1190.54C340.702 1194.65 341.237 1199.32 340.651 1203.64C339.781 1209.79 338.569 1216.15 336.436 1221.36C335.874 1222.77 331.187 1219.12 328.772 1220.04C326.652 1220.87 325.058 1224.81 322.343 1228.62C316.672 1224.8 309.027 1219.66 301.359 1214.52C300.409 1215.93 299.482 1217.34 298.532 1218.72C303.673 1231.56 308.837 1244.41 313.746 1256.73C314.864 1256.58 313.34 1257.54 312.558 1256.77C299.948 1244.4 285.894 1244.18 271.75 1244.11C269.808 1244.12 267.449 1243.33 266.019 1241.52C259.701 1233.49 250.612 1234.11 245.476 1244.58C239.552 1256.62 234.135 1269.3 228.948 1282.11C227.893 1284.75 228.839 1289.31 228.849 1290.71C223.881 1295.77 219.118 1300.72 214.285 1305.49C210.995 1308.74 207.611 1311.75 204.275 1314.9L204.529 1315.25C206.668 1310.78 209.357 1306.65 210.762 1301.69C212.233 1296.52 212.51 1290.51 213.402 1284.12C215.183 1283.93 219.019 1283.55 226.28 1282.83C220.106 1275.82 216.905 1272.19 215.477 1270.59C220.151 1269.22 227.056 1269.88 231.501 1265.11C236.399 1259.84 239.023 1249.64 243.836 1238.9C235.541 1235.49 228.964 1232.79 222.753 1230.21C221.13 1239.69 219.77 1247.71 218.365 1255.83C205.691 1247.28 204.469 1242.41 213.094 1227.89C201.737 1231.02 194.885 1205.66 182.714 1222.84C184.533 1224.82 186.491 1226.99 188.426 1229.15C188.275 1230.48 188.125 1231.85 187.952 1233.19C177.382 1231.33 166.813 1229.62 156.265 1227.52C150.247 1226.33 144.311 1223.81 138.321 1223.29C136.446 1223.13 133.503 1227.08 132.771 1230.11C132.105 1232.92 133.179 1239.34 134.51 1240.13C138.296 1242.42 142.594 1242.67 148.014 1246.57C144.01 1249.02 139.983 1251.47 133.317 1255.55C131.211 1264.62 126.306 1269.01 119.367 1253.93C120.628 1251.32 121.912 1248.68 124.074 1244.21C119.347 1241.36 115.34 1237.08 111.272 1236.89C103.569 1236.56 98.2281 1234.14 94.0778 1222.45C90.627 1212.71 83.9346 1213.08 77.8822 1219.89C74.346 1223.89 70.1664 1230.59 66.7798 1229.91C60.945 1228.76 55.5099 1222.76 49.8837 1218.79C50.0535 1216.97 50.2231 1215.11 50.393 1213.28C48.7266 1216.73 47.0373 1220.18 44.6277 1225.15C41.4037 1221.63 38.2951 1218.25 34.1733 1213.78C40.726 1209.84 45.6858 1206.82 51.8061 1203.13C45.5258 1193.94 48.7505 1175.03 37.1557 1173.6C38.3668 1170.4 39.9365 1166.21 41.5289 1161.99C27.7305 1178.48 12.9326 1176.48 -2.06497 1172.09C-3.59905 1171.64 -5.76349 1169.31 -6.14401 1167.2C-9.61441 1148.27 -18.1919 1143.81 -30.0357 1145.93C-23.5396 1143.67 -19.1112 1133.39 -10.7545 1142.17C-6.12707 1147.06 1.53679 1145.14 7.89737 1146.32C3.72259 1147.27 -0.520738 1148.21 -5.60821 1149.33C12.6174 1173.92 18.1341 1175.32 28.5163 1157.2C25.0361 1156.21 21.9072 1156.4 19.6531 1154.31C17.4218 1152.22 15.2678 1148.13 14.6697 1144.35C14.3105 1142.03 16.7405 1136.71 18.4273 1136.14C23.898 1134.28 30.4816 1134.68 22.653 1123.05C24.1239 1121.04 25.5951 1119.06 27.6318 1116.28C22.6687 1115.61 18.323 1115.01 12.6511 1114.28C14.7993 1111.1 16.495 1108.56 20.2033 1103.06C11.9891 1104.7 6.5021 1097.82 0.385658 1108.5C-2.07443 1112.8 -11.3567 1108.83 -9.2319 1092.7C-11.6083 1095.91 -13.3552 1097.68 -14.5721 1100.08C-19.5076 1109.73 -24.384 1111.63 -32.5114 1106.17C-47.5268 1096.06 -64.0655 1109.55 -67.7138 1133.17L-110.966 1133.48C-111.135 1135.44 -111.281 1137.41 -111.45 1139.34C-102.524 1141.32 -93.6195 1143.64 -84.6748 1145.12C-78.7955 1146.1 -72.6846 1144.3 -70.9009 1157.38C-70.3465 1161.45 -66.5193 1166.26 -63.6083 1167.54C-52.9275 1172.17 -42.0278 1175.46 -30.0936 1179.63C-29.9987 1180.12 -29.2404 1183.94 -28.885 1185.72C-15.6324 1172.82 -1.68659 1189.99 11.4156 1184.88C-17.3214 1198.84 -46.618 1191.92 -77.0057 1189.02C-73.3105 1188.11 -70.7331 1187.46 -65.4869 1186.16C-75.1423 1177.91 -82.6827 1171.47 -90.2459 1165.03C-90.6738 1165.91 -91.1014 1166.82 -91.5293 1167.71C-87.7191 1166.91 -83.8858 1166.14 -79.7791 1165.27C-85.6846 1147.73 -78.1422 1154.45 -124.254 1147.82C-122.061 1144.58 -119.505 1140.8 -116.927 1137.03C-119.625 1133.61 -122.015 1128.4 -125.087 1127.08C-147.251 1117.41 -169.634 1109.01 -191.733 1098.98C-195.24 1097.39 -197.669 1089.93 -202.801 1081.61C-180.509 1093.22 -160.441 1103.67 -140.374 1114.1C-140.062 1113.01 -139.772 1111.95 -139.46 1110.86C-144.918 1104.86 -149.952 1097.42 -155.923 1093.11C-168.44 1084.07 -172.485 1064.76 -180.358 1050.04C-183.739 1043.71 -189.01 1038.27 -194.1 1035.92C-205.975 1030.35 -218.27 1026.89 -230.273 1022.63C-234.655 1045.96 -225.504 1050.71 -213.743 1053.05C-207.977 1054.2 -202.378 1057.53 -196.694 1059.88C-196.913 1061.28 -197.108 1062.69 -197.327 1064.09C-205.916 1061.17 -214.527 1058.49 -223.073 1055.26C-229.809 1052.71 -231.17 1057.24 -230.374 1066.36C-228.883 1083.24 -227.941 1100.19 -226.222 1116.99C-225.658 1122.43 -222.882 1127.25 -222.112 1132.69C-221.534 1136.82 -222.666 1141.47 -222.863 1145.93C-224.082 1173.77 -220.491 1200.11 -211.806 1226.2C-220.673 1238.86 -231.495 1233.64 -241.451 1231.25C-247.814 1229.72 -254.121 1220.07 -257.195 1237.68C-257.59 1239.97 -263.623 1239.91 -267.613 1241.09C-267.797 1215.08 -268.309 1191.29 -268.044 1167.52C-267.79 1145.3 -276.714 1124.26 -270.026 1103.96C-284.765 1100.59 -297.65 1097.66 -310.535 1094.74L-310.282 1094.98C-317.717 1087.2 -325.13 1079.39 -330.886 1073.36C-332.116 1073.9 -330.065 1073 -328.152 1072.18C-333.798 1042.88 -347.939 1053.02 -360.641 1053.32C-358.273 1052.11 -355.882 1050.9 -352.945 1049.4C-353.778 1048 -354.316 1046.18 -355.003 1046.01C-363.06 1044.03 -367.686 1039.33 -367.267 1024.4C-366.54 998.037 -367.642 971.542 -367.349 945.143C-367.178 930.609 -365.682 916.135 -364.779 901.666L-365.377 901.074C-355.346 913.921 -345.316 926.768 -335.308 939.615C-334.539 938.416 -333.771 937.252 -333.002 936.053C-334.105 932.094 -335.229 928.135 -336.332 924.141L-334.523 921.425C-321.406 934.426 -308.313 947.391 -295.426 960.183C-297.486 953.317 -299.733 945.821 -303.454 933.421C-292.095 937.061 -283.873 939.671 -273.819 942.899C-274.489 932.232 -275.081 922.899 -275.801 911.531C-278.846 913.939 -280.473 916.443 -281.847 916.137C-297.868 912.425 -313.867 908.501 -329.825 904.121C-335.205 902.65 -340.39 899.633 -345.662 897.318L-345.593 897.318C-340.829 895.74 -336.052 892.757 -331.298 892.864C-321.746 893.077 -312.204 894.94 -302.667 896.136L-302.019 890.936C-310.337 887.555 -318.611 884.068 -326.973 880.898C-331.166 879.313 -335.803 879.521 -339.638 876.846C-345.08 873.023 -349.141 867.47 -356.503 870.12C-363.135 872.519 -367.8 865.602 -367.689 852.157C-367.398 815.928 -368.318 779.638 -368.393 743.412C-368.406 735.127 -367.002 726.868 -366.155 717.455C-351.041 718.892 -335.857 720.574 -320.678 721.52C-318.804 721.647 -316.841 718.123 -314.912 716.284C-316.847 714.086 -318.804 711.923 -320.671 709.69C-315.009 705.788 -309.392 701.922 -303.753 698.021L-301.131 703.654C-307.27 714.439 -313.409 725.224 -319.254 735.481C-305.302 747.071 -291.608 731.95 -277.928 737.364C-278.325 720.096 -273.921 699.95 -292.671 701.277C-288.418 698.544 -283.65 700.616 -282.001 698.007C-279.673 694.34 -279.632 687.213 -278.203 679.305C-283.532 681.87 -287.737 685.059 -288.27 684.01C-293.37 673.621 -296.433 679.926 -300.965 685.259C-303.593 688.366 -309.275 689.53 -312.147 687.269C-319.96 681.041 -324.472 682.828 -326.434 696.076C-328.182 691.279 -329.542 686.304 -331.606 682.141C-333.205 678.923 -335.688 676.764 -339.331 672.157C-340.566 681.678 -341.672 690.006 -342.755 698.333C-338.063 699.563 -333.237 700.126 -328.698 702.2C-325.718 703.548 -323.18 707.075 -320.42 709.653C-321.075 710.746 -321.768 712.822 -322.34 712.756C-337.323 710.405 -352.285 707.808 -368.574 705.045C-367.797 698.546 -367.106 692.924 -366.438 687.268C-360.577 688.876 -354.693 690.519 -345.856 692.949C-350.792 683.225 -353.549 677.874 -355.31 674.376C-357.285 676.145 -359.173 677.422 -360.69 679.364C-362.637 681.905 -364.306 685.006 -366.091 687.862C-367.07 678.637 -368.073 669.377 -369.052 660.152C-368.003 659.863 -366.977 659.54 -365.928 659.252C-365.051 663.669 -364.175 668.085 -363.298 672.502C-362.181 672.108 -361.064 671.749 -359.947 671.355C-361.024 664.482 -362.101 657.61 -363.321 649.861L-349.589 649.763C-349.507 648.464 -349.402 647.199 -349.32 645.9C-355.589 644.681 -361.836 643.461 -368.952 642.073C-369.099 634.211 -372.862 625.637 -363.457 624.342C-342.525 621.385 -335.83 627.761 -334.325 653.13C-325.611 654.227 -316.897 655.429 -308.186 656.174C-307.409 656.239 -306.54 653.073 -304.986 649.903C-309.542 648.601 -312.931 647.643 -317.625 646.272C-307.419 632.228 -298.722 643.926 -288.484 644.134C-292.951 648.905 -295.877 652.015 -298.78 655.125C-298.339 656.104 -297.897 657.084 -297.456 658.064C-291.875 655.637 -286.295 653.211 -277.661 649.464C-278.726 637.922 -279.869 621.677 -281.902 605.685C-282.434 601.581 -285.345 597.109 -287.92 594.881C-292.426 590.946 -297.449 588.314 -302.38 585.716C-304.581 584.573 -307.607 583.296 -309.379 584.677C-318.741 591.975 -323.307 582.986 -327.68 568.835C-316.359 570.229 -305.039 571.623 -293.718 573.087C-290.333 573.52 -286.847 575.355 -283.631 574.525C-282.149 574.129 -281.226 568.857 -280.037 565.794C-291.476 557.416 -281.456 549.411 -279.141 537.6C-283.427 535.735 -287.586 532.395 -291.745 532.354C-317.202 532.043 -342.653 532.469 -369.866 532.662C-371.903 525.726 -370.068 520.202 -361.618 519.651C-339.579 518.161 -317.542 516.214 -295.504 514.548C-291.417 514.238 -287.325 514.455 -280.47 514.406L-283.337 110.459C-269.01 129.874 -258.4 127.693 -251.027 107.316C-243.933 112.075 -238.833 115.9 -239.975 132.126C-242.055 160.995 -241.184 190.335 -241.983 219.477C-242.29 230.922 -239.058 235.533 -232.089 235.589C-231.335 235.584 -230.555 235.999 -229.824 235.924C-214.914 234.414 -201.214 239.477 -188.667 252.692C-184.777 256.807 -179.123 261.435 -176.508 250.008C-171.455 227.892 -157.766 218.563 -147.84 203.749C-140.695 193.097 -132.095 184.682 -122.306 173.098L-161.24 173.375C-161.314 172.533 -161.389 171.656 -161.441 170.814C-160.825 170.634 -160.166 170.138 -159.571 170.309C-123.559 179.988 -94.7398 151.911 -64.2754 130.212C-51.953 121.454 -37.1552 120.225 -23.33 117.179C-6.40214 113.443 10.6743 111.321 27.6782 108.638C48.676 105.294 67.7578 118.498 87.6609 125.097C118.145 135.165 141.87 165.116 167.687 190.452C160.54 187.976 153.417 185.534 146.27 183.057C145.8 184.5 145.308 185.978 144.839 187.42C151.533 193.832 158.251 200.208 164.991 206.654C163.231 211.862 154.297 211.937 138.19 206.879C140.086 213.114 141.746 218.508 143.407 223.938C128.309 215.058 117.091 192.637 98.7126 194.873C111.208 207.352 124.397 217.649 137.788 227.383C138.913 228.217 141.289 224.936 143.085 223.589C150.585 230.872 158.109 238.19 167.427 247.251C162.3 245.954 159.141 245.169 154.494 244.008C155.97 249.088 156.93 252.416 157.938 255.919C154.111 260.86 144.405 255.137 143.929 271.709C141.431 270.674 138.085 269.259 134.624 267.844C135.761 263.799 136.653 260.633 136.34 261.724C116.731 245.013 97.6968 228.826 78.0416 212.08C78.9476 210.951 80.2161 209.397 80.7371 208.762C65.0113 188.689 45.1167 196.167 26.8599 189.732L58.2308 189.509C58.4724 188.138 58.7368 186.768 58.9787 185.432C54.7823 183.32 50.6504 180.647 46.367 179.168C28.2493 173.013 10.4765 173.595 -7.77752 180.43C-27.9913 188.015 -48.7487 193.041 -69.4717 196.488C-80.1754 198.284 -91.3727 194.924 -102.243 192.614C-127.461 187.211 -141.324 213.953 -158.439 236.33C-155.057 239.571 -152.964 241.557 -150.87 243.578L-150.463 243.048C-154.793 244.624 -159.146 246.164 -163.477 247.739C-161.693 251.096 -159.933 254.489 -158.15 257.846L-168.249 257.918C-168.485 259.991 -168.699 262.028 -168.936 264.101C-163.914 266.663 -158.933 269.752 -153.803 271.506C-152.337 271.987 -150.35 268.568 -148.58 266.94L-152.472 259.386C-147.13 258.751 -141.81 258.081 -136.468 257.447L-136.813 257.098C-133.955 260.553 -131.097 264.043 -129.576 265.858C-133.383 267.113 -139.219 269.015 -145.055 270.917L-145.109 279.448C-136.681 282.196 -128.338 285.822 -119.826 287.447C-108.775 289.545 -97.8563 289.081 -92.3658 309.332C-87.7202 326.43 -81.6287 302.586 -76.0074 309.075C-75.2115 305.314 -74.3925 301.587 -73.7731 298.704C-44.2365 291.158 -13.1303 282.618 18.1245 275.691C24.5809 274.277 31.6141 280.089 38.403 280.462C46.175 280.898 53.9765 279.053 64.2505 277.891C59.6919 273.044 57.4815 270.673 55.2483 268.302C68.6164 271.682 81.9757 277.028 95.4523 266.718C75.1144 263.246 54.7762 259.74 34.4612 256.269C35.0887 254.544 35.7058 251.345 36.3681 251.306C64.0582 250.793 91.3202 257.585 117.661 269.754C126.028 273.627 132.281 288.571 139.503 298.419C152.47 316.16 165.437 333.9 178.382 351.606C163.634 353.465 150.883 343.692 137.308 336.943C125.041 330.852 113.022 318.054 97.714 324.622C110.458 333.378 126.227 330.598 133.264 352.979C133.544 353.855 136.185 352.537 137.628 353.018C152.057 357.725 166.551 362.01 180.782 367.911C184.083 369.292 186.417 376.296 189.19 380.7C188.56 382.073 187.953 383.411 187.323 384.785C197.514 388.012 207.665 392.117 217.962 394.115C222.424 394.996 227.198 391.628 231.849 390.191L231.737 390.507ZM827.962 936.168L805.502 936.327C820.938 950.856 836.799 951.41 853.022 941.677C854.433 937.7 856.12 933.932 857.187 929.747C860.321 917.334 861.118 907.394 848.663 910.29C843.394 911.521 837.855 910.227 832.465 910.581C828.856 910.817 825.254 911.931 821.649 912.623C821.414 914.942 821.202 917.26 820.967 919.579L783.799 894.989C784.199 893.477 784.623 891.965 785.023 890.417C788.676 890.005 792.329 889.628 795.982 889.216C787.572 882.536 779.012 877.296 770.151 874.797C760.627 872.091 750.823 871.95 744.191 871.084C747.055 869.063 752.171 865.411 757.263 861.795C756.839 859.972 756.415 858.185 755.968 856.363L732.754 856.528C732.712 857.054 732.647 857.546 732.605 858.073C735.1 858.687 737.595 859.266 740.067 859.881C722.963 861.301 706.111 859.63 689.429 856.168C679.452 854.098 669.808 847.461 659.837 846.233C654.988 845.636 649.76 852.658 644.713 856.275C647.123 861.032 648.971 867.126 652.055 870.229C656.451 874.621 661.79 876.829 664.384 878.496C662.982 886.931 662.002 893.783 668.478 901.53C671.451 905.089 673.312 913.044 673.47 919.116C673.563 922.661 669.294 926.377 667.059 930.149C665.975 931.982 665.076 934.129 662.351 939.73C673.096 937.302 681.24 935.454 690.662 933.351C688.882 936.839 688.322 938.423 687.484 939.482C686.623 940.506 685.466 941.707 684.483 941.609C669.049 940.209 657.526 952.086 647.239 967.534C644.323 971.907 640.755 977.935 640.679 983.307C640.62 987.836 645.223 992.577 648.117 997.822C640.923 1017.71 656.44 1056.63 673.259 1056.93C688.913 1057.21 704.585 1056.78 720.259 1056.67C720.266 1057.58 720.272 1058.53 720.279 1059.44L672.64 1059.78C726.749 1108.33 817.87 1078.86 842.661 985.313C837.845 982.961 833.122 980.642 828.628 978.427C830.498 977.888 832.618 977.241 835.423 976.413C833.717 974.319 831.481 971.632 831.504 971.562C836.797 960.783 832.291 956.848 826.289 954.749C821.845 953.201 817.272 952.707 812.742 951.897C806.359 950.749 798.157 954.177 799.333 936.301C799.477 934.053 792.88 928.519 789.267 928.193C770.358 926.397 751.411 925.829 732.484 924.77C730.381 924.644 728.299 924.168 726.217 923.867C726.338 921.619 726.459 919.372 726.581 917.124C748.23 918.691 769.962 918.923 791.488 922.385C803.818 924.369 815.798 931.726 827.943 936.66L827.94 936.168L827.962 936.168ZM540.827 967.271C543.006 971.644 544.605 978.021 547.475 980.072C563.092 991.229 579.201 1000.8 594.818 1012C606.393 1020.3 614.658 1006.48 624.508 1003.57C629.867 1001.99 635.987 998.294 632.644 987.681C631.172 983.058 625.177 978.713 621.594 979.265C610.866 980.956 603.312 975.744 597.614 961.673C592.683 949.457 586.776 947.814 580.465 960.004C579.225 962.365 577.04 963.574 573.818 966.791C575.54 961.549 576.345 959.051 577.195 956.447C570.597 957.161 564.158 957.838 557.719 958.551C557.679 959.288 557.638 960.026 557.598 960.763C560.119 961.834 562.64 962.939 565.138 964.01L564.77 970.015C556.698 969.23 548.65 968.479 540.533 967.8C540.349 964.291 540.187 960.782 539.977 957.062C532.114 956.556 523.427 955.986 514.74 955.416C514.526 957.524 514.313 959.631 514.076 961.739C519.848 963.629 525.597 965.519 531.941 967.615C532.013 968.176 532.469 971.192 532.925 974.243C535.536 971.907 538.17 969.572 540.781 967.236L540.827 967.271ZM609.051 773.403C610.701 774.129 612.351 774.854 614.093 775.614C599.438 784.038 585.488 792.035 570.832 800.458C579.748 810.715 587.005 819.018 596.519 829.973L596.35 806.104C607.085 811.961 617.751 817.747 628.28 823.5C625.592 802.141 629.891 796.108 644.396 798.708C652.243 800.091 660.306 799.648 668.205 798.679C682.999 796.889 697.763 794.116 712.53 791.765C747.86 786.073 782.986 790.177 818.089 797.405C827.997 799.441 838.034 800.177 848.257 801.543C844.726 780.507 841.963 761.395 838.289 742.746C834.14 721.678 831.393 698.39 815.607 689.199C810.743 686.355 800.815 684.671 800.326 686.675C797.528 698.033 795.129 691.696 791.632 688.386C786.134 683.195 780.255 678.954 774.486 674.256C774.044 676.26 773.49 678.827 773.468 678.897C765.552 677.409 758.184 676.057 750.772 674.776C742.992 673.181 735.211 671.551 727.431 669.957C726.966 672.066 726.479 674.211 726.014 676.32C731.436 680.459 736.665 686.46 742.364 687.788C744.722 688.368 748.037 678.972 750.928 674.143C754.647 686.332 758.344 698.487 762.601 712.463C753.896 702.766 745.245 700.861 735.869 706.264C732.092 708.432 726.174 711.668 724.121 709.05C718.749 702.208 715.073 709.079 712.189 711.522C707.01 715.946 703.276 724.187 698.449 729.803C696.001 732.663 692.441 733.25 688.502 735.314C703.488 737.981 716.689 740.309 729.89 742.673C729.995 744.708 730.101 746.743 730.23 748.778C718.597 751.564 706.94 754.385 695.307 757.17C694.998 755.558 694.69 753.98 694.404 752.368C698.548 750.197 702.668 748.061 707.881 745.321C698.131 743.004 688.392 735.771 686.308 757.726C684.072 754.968 682.574 753.118 681.075 751.269C679.35 756.02 677.624 760.771 675.921 765.487C664.565 752.72 661.442 750.495 659.623 751.702C661.343 755.867 663.203 760.417 665.272 765.387C659.645 767.674 656.003 769.665 652.262 770.604C642.569 773.06 632.854 775.832 623.083 776.955C618.471 777.479 613.675 774.634 609.027 773.298C616.007 768.44 622.988 763.581 629.968 758.722C629.658 756.899 629.325 755.076 629.016 753.288C604.593 757.042 579.038 752.519 556.365 780.658C560.826 781.363 564.173 782.954 567.252 782.16C579.432 778.984 591.536 774.932 603.691 771.581C605.356 771.113 607.287 772.749 609.096 773.403L609.051 773.403ZM28.5959 134.923C16.199 117.074 -74.5991 140.465 -89.2017 165.983C-85.4277 166.518 -82.2028 166.952 -78.9777 167.42C-93.1058 166.432 -105.475 171.821 -115.456 188.53C-92.7216 188.369 -71.0225 190.462 -49.6332 187.537C-17.8117 183.204 12.9188 163.574 47.9139 174.98C46.1776 162.144 44.8994 152.675 43.4051 141.734L10.9146 141.964C16.3831 139.784 21.806 137.639 28.5962 134.959L28.5959 134.923ZM1005.62 1053.03C1001.01 1059.77 994.466 1064.83 994.255 1070.49C993.818 1082.99 996.263 1095.89 998.226 1108.37C998.895 1112.58 1001.45 1118.95 1003.49 1119.28C1010.99 1120.6 1018.68 1119.07 1026.23 1120C1034.17 1120.96 1034.2 1113.06 1033.51 1105.52C1032.02 1089.6 1029.81 1073.85 1028.16 1060.03C1023.45 1059.33 1018.94 1058.69 1014.43 1058.02C1014.44 1056.09 1014.45 1054.16 1014.46 1052.26C1019.23 1051.14 1024 1050.02 1029.81 1048.65C1029.13 1042.05 1028.44 1035.67 1027.78 1029.35C1021.58 1030.7 1016.92 1031.71 1011.45 1032.94C1010.69 1026.7 1009.82 1019.34 1008.97 1012.08C1003.28 1016.33 992.469 1002.33 989.291 1021.34C985.521 1043.97 1000.72 1044.71 1005.65 1053.03L1005.62 1053.03ZM156.411 404.557C135.932 407.054 115.934 409.548 95.9345 411.936C91.1401 412.497 85.7125 410.78 81.7119 413.722C78.5296 416.062 77.054 423.865 74.8302 429.252C78.068 431.51 81.1769 434.928 84.5652 435.852C92.2577 437.974 100.321 437.601 107.86 440.566C127.45 448.22 146.844 457.139 166.532 465.635C163.071 444.703 159.824 425.138 156.411 404.557ZM673.027 695.792C674.446 696.169 675.866 696.58 677.308 696.956C677.82 691.792 677.319 685.582 679.051 681.708C682.086 674.807 686.272 668.915 690.414 663.374C691.727 661.61 694.471 661.906 696.551 662.067C698.22 662.195 699.809 663.939 701.479 664.243C711.843 666.1 713.082 650.646 720.608 642.168C696.078 633.987 674.95 641.614 653.845 652.33L653.983 671.741C651.276 667.057 650.004 664.854 648.338 661.953C646.953 666.385 645.501 671.065 642.999 679.191L671.537 678.989C672.132 685.549 672.579 690.671 673.05 695.792L673.027 695.792ZM560.82 522.898C560.415 520.549 560.009 518.2 559.581 515.851C534.499 516.731 511.69 535.287 487.286 541.709C462.176 548.311 437.334 557.368 410.729 565.841C420.657 580.444 428.648 573.086 436.968 570.219C466.919 559.861 497.086 550.941 526.966 540.269C538.498 536.15 549.528 528.805 560.797 522.933L560.82 522.898ZM176.621 1165.91C176.265 1167.38 175.888 1168.9 175.533 1170.37C185.657 1173.85 195.781 1177.39 205.928 1180.79C210.623 1182.38 217.047 1179.56 216.73 1192.86C216.697 1194.65 221.968 1196.86 224.837 1198.67C225.021 1198.77 225.671 1197.01 226.369 1195.57C224.499 1192.88 222.583 1190.12 221.244 1188.16C226.818 1184.79 231.869 1181.73 235.35 1179.6C241.792 1182.72 247.387 1185.45 253.234 1188.25C255.223 1182.02 256.833 1177.06 258.733 1171.12C238.061 1152.69 216.148 1149.44 192.919 1153.93C198.969 1156.48 204.997 1159.04 211.047 1161.59C210.696 1163.63 210.345 1165.63 209.993 1167.67C202.506 1165.41 195.017 1163.11 187.53 1160.85C187.774 1159.86 188.041 1158.88 188.286 1157.93C184.397 1160.59 180.509 1163.25 176.621 1165.94L176.621 1165.91ZM28.3821 320.516C28.0469 321.571 27.7342 322.591 27.399 323.647C20.5127 325.661 13.6031 327.606 6.71759 329.726C-6.46064 333.786 -19.7586 337.075 -32.6989 342.467C-37.0503 344.289 -43.3545 351.038 -43.6827 356.306C-44.4216 368.106 -38.4204 366.94 -32.6118 364.406C-16.4161 357.306 -0.125581 350.696 16.2121 344.297C26.466 340.292 36.8394 337.024 47.1648 333.441C36.0228 334.643 32.4565 302.198 18.6261 317.391C22.0613 318.489 25.2216 319.485 28.3821 320.516ZM935.896 127.01C926.537 131.57 917.772 136.055 908.935 140.119C897.184 145.538 885.196 149.906 873.702 156.341C870.857 157.941 869.543 165.884 867.499 170.883C870.914 172.403 874.873 176.412 877.651 175.023C894.499 166.514 910.97 156.287 927.794 147.673C936.833 143.045 946.343 140.556 956.758 136.656C947.589 129.384 939.661 123.087 931.711 116.754C931.376 117.845 931.018 118.936 930.683 120.026C932.552 122.541 934.42 125.02 935.873 126.975L935.896 127.01ZM587.007 590.777C575.508 602.899 560.033 598.727 553.346 619.169C566.379 614.057 578.853 607.264 591.021 599.419C598.505 594.592 611.241 599.065 607.745 573.359C606.83 566.696 606.332 560.978 603.122 559.456C601.38 558.661 598.14 565.705 595.198 569.692C594.864 567.764 594.266 564.047 593.145 557.315C591.468 562.558 590.597 565.337 588.764 571.072C587.926 562.513 587.605 559.145 586.892 551.954C582.022 567.68 575.387 579.276 587.007 590.742L587.007 590.777ZM-244.288 625.532L-243.619 629.564C-244.379 631.956 -245.688 634.318 -245.762 636.775C-245.929 642.253 -246.41 648.399 -245.074 653.164C-241.134 667.458 -231.917 675.185 -230.236 667.275C-231.86 663.812 -233.368 660.593 -234.877 657.339C-234.198 656.421 -233.519 655.469 -232.84 654.551C-230.099 657.621 -227.358 660.655 -223.903 664.527C-223.285 658.275 -222.774 653.005 -222.197 647.385L-195.327 647.194C-202.835 635.769 -212.344 635.169 -221.788 634.218C-224.6 633.922 -228.68 635.425 -229.907 633.152C-231.342 630.53 -230.287 624.695 -230.32 620.097C-235.287 622.028 -239.776 623.78 -244.288 625.497L-244.288 625.532ZM-143.486 382.534C-128.53 381.164 -114.552 380.223 -100.65 378.334C-98.1393 378 -95.8612 373.807 -91.1881 369.034L-111.546 369.179C-111.435 365.492 -111.34 362.753 -111.168 358.048C-116.472 364.018 -120.598 368.682 -128.373 377.442C-118.569 355.152 -131.552 361.001 -133.342 353.397C-138.275 360.171 -142.349 365.747 -146.06 370.863C-145.21 374.648 -144.383 378.469 -143.463 382.534L-143.486 382.534ZM-63.4224 1103.58L-90.3151 1103.77C-102.788 1126.71 -117.266 1099.02 -131.393 1104.56C-102.206 1134.64 -83.036 1128.12 -63.4224 1103.58ZM767.146 177.668C784.14 180.005 798.002 182.118 811.882 183.564C813.711 183.761 815.676 180.553 817.561 178.925C815.727 178.025 813.849 177.407 812.104 176.226C807.558 173.134 803.078 169.796 796.464 165.033C795.328 166.024 791.514 169.386 790.197 170.554C786.237 163.21 782.833 156.916 777.855 147.684C773.554 159.72 770.507 168.236 767.146 177.668ZM858.931 863.214C844.476 854.787 827.009 862.984 817.109 842.835C810.563 847.691 805.108 851.731 799.016 856.233C818.66 864.974 838.493 868.098 858.931 863.214ZM-234.5 839.136C-225.167 834.155 -216.927 829.744 -208.687 825.368C-208.79 823.683 -208.871 821.964 -208.974 820.28C-218.587 814.802 -228.2 809.359 -241.345 801.87C-238.802 815.788 -236.853 826.34 -234.5 839.171L-234.5 839.136ZM-117.458 1087.99C-131.134 1079.95 -141.987 1073.5 -152.908 1067.22C-154.996 1066.01 -157.284 1065.64 -159.483 1064.84C-158.473 1068.66 -157.984 1073.15 -156.341 1076.16C-153.355 1081.58 -150.137 1087.45 -146.183 1090.76C-140.437 1095.56 -133.951 1098.26 -124.911 1103.53C-128.183 1096.42 -129.367 1093.87 -131.223 1089.88C-127 1089.29 -123.759 1088.85 -117.435 1087.99L-117.458 1087.99ZM719.886 86.4541C719.464 88.2825 719.043 90.1459 718.622 91.9742C726.931 100.445 734.629 112.993 743.724 116.333C755.202 120.534 767.791 117.181 779.923 117.095C780.138 115.127 780.352 113.16 780.59 111.228C775.827 109.787 770.797 106.137 766.327 107.292C751.251 111.19 738.203 107.807 727.628 89.1022C726.239 86.6548 722.542 87.2427 719.908 86.454L719.886 86.4541ZM468.327 526.503C468.567 528.011 468.806 529.519 469.045 531.026C487.006 524.721 504.989 518.415 522.95 512.145C522.687 510.426 522.4 508.708 522.137 506.99C503.077 506.529 484.973 511.923 468.328 526.538L468.327 526.503ZM538.11 922.534C548.25 924.954 556.581 926.931 564.889 928.908L566.996 923.101C562.466 915.832 557.935 908.527 553.914 902.097C548.48 909.121 544.201 914.663 538.11 922.534ZM565.171 569.414C564.206 562.225 563.264 555.07 562.179 547.004C566.204 544.273 571.32 540.761 576.437 537.285C575.992 535.849 575.525 534.448 575.081 533.012C563.816 539.375 552.55 545.739 541.285 552.067C560.165 556.216 560.463 556.424 565.171 569.414ZM620.61 612.057C621.219 607.665 622.809 603.196 622.1 599.831C620.892 593.907 618.296 588.625 616.291 583.092C614.215 586.688 612.023 590.108 610.107 593.878C607.538 598.916 605.199 604.198 603.579 607.65C609.714 609.256 615.986 610.897 620.587 612.092L620.61 612.057ZM1043.96 1233.05C1043.03 1233.12 1042.09 1233.24 1041.13 1233.31C1038.39 1261.56 1039.96 1278.46 1045.83 1284.04C1045.15 1265.54 1044.56 1249.3 1043.96 1233.01L1043.96 1233.05ZM-277.396 828.488C-282.652 805.849 -292.287 813.394 -301.81 820.482C-293.68 823.163 -285.527 825.808 -277.396 828.488ZM-192.952 267.115C-193.832 268.701 -194.712 270.287 -195.592 271.872C-185.796 283.773 -178.663 300.537 -167.784 310.464C-166.972 308.949 -166.161 307.399 -165.349 305.883C-174.558 292.961 -183.744 280.038 -192.952 267.115ZM939.613 209.652C951.481 201.283 960.575 194.83 969.692 188.376C968.968 186.1 968.266 183.788 967.541 181.511C961.626 197.946 945.457 183.142 939.613 209.652ZM691.89 694.219C707.343 688.739 711.976 681.545 708.017 671.077C705.996 676.006 704.198 680.336 701.84 686.11C700.089 680.857 698.898 677.215 697.684 673.608C696.701 673.58 695.696 673.517 694.713 673.488C693.888 679.532 693.062 685.541 691.867 694.255L691.89 694.219ZM60.1433 384.95C59.3352 383.763 58.527 382.575 57.7188 381.387C52.5939 383.67 47.4456 385.883 42.3445 388.306C39.2247 389.803 35.7583 390.74 33.2651 393.601C31.8597 395.191 32.1236 400.173 31.6227 403.652C33.8353 403.11 36.1892 403.163 38.214 401.92C41.5582 399.861 44.6678 396.925 47.9172 394.375C51.9846 391.186 56.0754 388.068 60.1431 384.915L60.1433 384.95ZM252.719 1135.07C253.075 1133.67 253.408 1132.26 253.763 1130.85C249.272 1129.06 244.802 1127.06 240.267 1125.51C238.022 1124.75 235.622 1124.56 233.362 1124.86C233.019 1124.89 232.209 1129.92 232.811 1130.93C234.476 1133.73 236.763 1137.33 238.866 1137.45C243.461 1137.7 248.11 1135.98 252.742 1135.04L252.719 1135.07ZM96.9135 160.31C96.1735 162.281 95.4334 164.252 94.6934 166.223C103.005 171.85 111.339 177.478 119.65 183.07C120.274 180.855 120.899 178.674 121.523 176.458C113.305 171.075 105.109 165.692 96.8904 160.275L96.9135 160.31ZM-131.67 318.527C-131.408 316.876 -131.146 315.189 -130.906 313.537C-138.258 311.062 -145.611 308.587 -153.077 306.077C-153.128 313.987 -145.992 318.137 -131.67 318.527ZM296.894 1216.44C290.35 1215.16 284.08 1213.94 277.811 1212.72C288.611 1225.65 294.972 1226.9 296.894 1216.44ZM836.828 829.918C836.952 831.251 837.075 832.584 837.199 833.917C843.494 838.681 849.811 843.446 856.703 848.662C856.271 845.752 856.459 836.834 854.508 835.549C849.067 831.972 842.78 831.56 836.805 829.918L836.828 829.918ZM686.961 614.71C687.475 613.127 688.013 611.544 688.527 609.925C685.18 608.404 681.873 606.041 678.465 605.609C675.903 605.276 673.222 607.366 669.918 608.653C673.131 613.896 675.374 617.566 676.969 620.152C680.702 618.125 683.82 616.418 686.961 614.71Z" fill="black"/>
<path d="M231.702 893.958C224.702 892.849 218.358 890.683 219.072 872.178C212.697 872.224 205.147 870.873 197.986 872.855C193.654 874.079 186.842 880.13 186.645 884.624C186.272 893.262 188.077 906.027 192.084 910.457C199.961 919.212 209.953 923.494 219.045 929.607C216.81 933.414 213.266 939.477 207.351 949.594C238.173 952.57 264.957 962.805 292.299 951.87C297.339 966.612 295.851 972.625 284.981 973.58C271.006 974.803 256.925 974.06 244.13 974.151C252.89 988.13 259.93 991.766 281.605 987.294C295.797 984.35 309.74 978.53 326.248 976.798C323.905 981.483 322.107 988.973 319.1 990.328C307.484 995.5 295.608 999.516 283.655 1002.48C268.989 1006.09 254.129 1008.24 235.805 1011.67C241.264 1017.8 244.952 1025.5 248.631 1025.51C266.407 1025.45 284.293 1024.7 301.91 1021.41C313.365 1019.29 323.537 1013.36 330.094 994.006C334.772 980.177 345.792 971.499 353.963 960.489C354.748 961.641 355.533 962.829 356.341 963.982C353.719 968.002 351.166 972.128 348.498 976.078C339.521 989.305 326.56 998.208 327.899 1022.7C328.029 1024.95 323.923 1029.12 321.438 1029.98C302.816 1036.5 284.076 1042.39 266.317 1048.17C270.132 1054.46 275.288 1063.06 280.467 1071.62C263.52 1040.39 240.027 1039.93 217.05 1038.06C209.94 1037.47 205.148 1035.12 205.843 1020.41C215.743 1021.25 225.46 1022.09 235.131 1022.94C234.658 1011.08 234.189 999.601 233.666 987.108L245.935 987.021L246.725 982.382C236.088 977.473 225.602 971.334 214.77 967.935C199.862 963.267 184.695 960.707 169.635 957.233C163.181 955.735 158.766 951.799 160.917 939.357C175.518 942.694 190.028 945.996 205.294 949.468C206.6 943.526 207.751 938.288 209.145 931.959C205.452 929.879 202.443 927.759 199.258 926.483C185.533 921.034 182.665 903.257 180.279 885.828C179.796 882.251 183.292 875.802 185.993 873.185C197.975 861.622 220.899 865.566 230.879 881.046C232.404 883.422 231.194 889.995 231.25 894.593L231.657 893.958L231.702 893.958Z" fill="black"/>
<path d="M326.8 166.225C300.776 156.791 277.091 167.877 253.922 184.083C241.985 192.417 235.955 205.483 237.112 226.888C237.69 237.485 235.117 248.456 233.96 259.276L230.757 258.737L230.527 226.268C231.26 220.084 233.609 213.082 232.276 208.739C230.172 201.979 225.348 191.939 222.105 192.277C214.753 193.032 209.892 190.644 205.467 182.005C204.702 180.536 201.128 182.457 201.86 179.293C198.321 176.404 194.956 172.426 191.175 170.909C182.559 167.389 174.766 164.039 167.091 154.686C155.382 140.447 141.059 131.246 127.75 120.178C125.544 118.333 122.912 117.755 121.926 117.306C122.167 99.6824 123.592 81.6292 134.994 71.9651C146.368 80.8357 159.212 90.8542 172.286 101.082C173.244 97.5998 174.046 94.7157 174.847 91.7613C175.95 92.5608 177.165 93.0788 177.144 93.43C176.523 105.756 181.781 109.229 188.214 110.973C207.215 116.139 219.949 136.408 231.454 157.283C235.944 165.431 235.227 180.284 237.151 193.821C265.266 166.205 294.273 151.677 326.8 166.295L326.8 166.225Z" fill="black"/>
<path d="M29.4109 72.2937C20.2402 90.472 7.65532 75.1159 -2.47959 79.7864C-3.28497 46.7951 14.1857 39.0537 28.3931 25.4732C43.327 11.2206 58.4002 19.8193 73.0888 22.5233C89.539 25.5307 105.633 33.1391 121.853 39.0267C123.869 39.7495 125.623 42.2997 127.044 46.1509C117.905 42.9512 108.765 39.7515 96.8078 35.5538C102.107 41.7996 105.402 45.6727 108.721 49.5807C105.058 55.0828 95.6846 57.5948 80.6005 57.1168C84.5315 60.4588 87.1753 62.7218 89.8419 64.9846C89.6879 65.8281 89.5342 66.7068 89.3574 67.5505C79.542 65.7246 69.7432 63.021 59.8903 62.3538C51.8203 61.7792 43.6262 63.0309 35.595 64.7026C33.2448 65.1756 31.3137 69.9634 29.1859 72.7868L29.3886 72.364L29.4109 72.2937Z" fill="black"/>
<path d="M431.709 640.252C434.269 637.11 438.119 632.378 441.97 627.647C442.798 628.379 443.626 629.11 444.454 629.841C437.201 641.477 455.757 654.579 441.173 666.688C445.045 674.488 448.777 681.974 452.022 688.55C446.634 692.345 441.064 696.28 434.584 700.855C427.307 686.444 416.292 699.194 405.82 694.951C414.291 690.819 422.785 686.722 430.959 682.732C425.283 671.68 420.759 671.747 398.754 684.54L398.668 672.325C393.494 677.452 388.593 682.296 383.715 687.139C382.748 686.198 381.782 685.223 380.815 684.282C382.786 678.581 384.756 672.915 387.936 663.731C375.859 674.839 365.166 684.673 355.722 693.341C346.693 679.89 336.472 691.722 327.418 684.625C332.725 679.006 338.508 672.857 345.085 665.86C340.244 663.086 336.344 660.867 332.444 658.648C332.431 656.823 332.418 654.998 332.405 653.138C337.468 651.838 342.531 650.538 349.556 648.698C347.947 656.959 347.153 660.966 346.204 665.747C356.523 664.515 348.164 632.876 364.775 642.482C361.904 646.75 359.507 650.348 355.958 655.638C381.084 644.859 390.338 644.898 392.019 666.019C395.979 663.814 399.772 660.558 403.743 659.863C407.691 659.203 411.818 661.104 419.254 662.561C415.798 658.513 414.672 657.608 414.76 657.187C415.876 650.158 415.88 641.137 418.798 636.939C420.653 634.258 426.877 638.742 431.708 640.182L431.709 640.252Z" fill="black"/>
<path d="M457.349 602.229C454.942 597.858 452.534 593.487 449.224 587.473C468.813 575.469 488.693 569.15 509.042 570.971C522.326 572.175 536.331 568.741 549.036 581.78C552.535 585.371 560.349 578.891 566.187 577.27C569.22 576.441 572.325 576.068 575.383 575.52C575.489 577.52 575.572 579.555 575.677 581.555C563.529 585.854 551.358 590.188 539.711 594.307C539.778 594.096 540.473 592.161 542.937 585.158C530.377 589.494 520.303 593.006 508.541 597.056C522.677 615.174 507.221 620.269 505.482 632.813C501.053 626.912 497.731 622.477 492.449 615.459L492.566 631.957C482.609 623.041 473.249 614.683 463.868 606.325C461.664 604.971 459.507 603.617 457.327 602.264L457.349 602.229Z" fill="white"/>
<path d="M686.279 357.268C689.705 366.687 688.167 372.103 681.101 374.505C667.401 379.166 653.42 382.741 640.193 389.644C615.174 402.705 590.534 417.623 565.845 432.156C548.529 442.353 531.471 453.461 514.131 463.519C510.33 465.722 505.825 465.157 500.348 466.074C508.107 442.254 653.8 359.008 686.28 357.303L686.279 357.268Z" fill="black"/>
<path d="M500.642 -46.1896C499.798 -36.2845 500.171 -25.5807 497.836 -16.5777C491.941 6.07061 493.496 19.0478 505.706 33.1779C503.934 40.9834 492.52 42.5038 500.351 57.683L464.936 57.9343C468.898 27.1207 464.68 -3.81033 478.809 -28.518C479.057 -28.941 479.42 -29.2596 479.554 -29.7169C484.905 -48.4297 485.745 -49.173 500.642 -46.1896Z" fill="black"/>
<path d="M535.361 367.326C507.785 380.791 483.95 389.981 457.27 384.73C397.709 373.007 340.421 349.859 285.012 314.622C284.415 314.24 284.108 312.803 284.231 307.572C289.822 309.744 296.085 310.121 300.914 314.334C335.678 344.803 374.365 354.743 412.59 367.284C423.606 370.892 434.712 374.359 445.878 376.421C456.86 378.484 468.095 380.721 479.03 379.31C496.791 377.077 514.395 371.933 535.383 367.291L535.361 367.326Z" fill="black"/>
<path d="M636.998 415.714C639.82 410.99 642.186 403.075 645.515 401.998C673.761 392.987 702.154 385.203 730.521 377.139C731.935 376.743 733.493 377.363 738.683 377.818C735.536 385.036 733.949 393.227 731.327 394.053C702.351 403.35 673.23 411.525 644.157 419.946C642.743 420.342 641.255 420.001 639.793 420.012C638.868 418.544 637.944 417.111 636.997 415.644L636.998 415.714Z" fill="black"/>
<path d="M231.74 390.508C227.112 391.945 222.315 395.314 217.853 394.433C207.556 392.399 197.428 388.329 187.214 385.102C187.844 383.728 188.451 382.39 189.082 381.017C186.308 376.613 183.973 369.574 180.673 368.229C166.442 362.327 151.948 358.077 137.519 353.335C136.076 352.854 133.435 354.172 133.155 353.296C126.118 330.95 110.349 333.695 97.6051 324.939C112.914 318.407 124.932 331.204 137.199 337.26C150.774 343.974 163.525 353.782 178.273 351.923C196.095 364.784 213.918 377.646 231.718 390.508L231.74 390.508Z" fill="white"/>
<path d="M471.541 657.416C472.698 659.479 473.833 661.542 474.989 663.569C472.964 664.777 470.917 665.985 468.823 667.229C469.382 678.352 468.446 691.312 480.67 684.837C482.263 683.983 485.342 689.613 487.737 692.228L488.054 691.77C483.942 701.628 479.831 711.486 476.057 720.569C475.776 719.659 474.395 715 472.756 709.465C470.119 711.414 467.005 713.718 462.232 717.227C462.988 711.044 463.441 707.355 464.197 701.136C460.86 704.249 458.499 706.442 456.138 708.635L454.964 707.275C458.609 699.315 462.254 691.391 465.382 684.559C460.963 676.938 456.73 669.631 451.386 660.402C457.166 657.026 463.28 649.26 471.587 657.45L471.541 657.416Z" fill="black"/>
<path d="M88.7704 1015.13C92.5302 1026.55 90.6026 1031.83 83.506 1033.18C70.7501 1035.58 58.0467 1038.94 45.2375 1040.26C42.1778 1040.56 38.8214 1034.48 35.6002 1031.34C36.0892 1029.41 36.5781 1027.47 37.09 1025.54C54.1572 1022.12 71.2244 1018.7 88.7935 1015.17L88.7704 1015.13Z" fill="black"/>
<path d="M759.621 472.553L758.866 472.488C755.809 469.912 749.911 466.338 750.107 464.968C752.291 450.666 743.35 452.941 739.815 447.525L739.431 448.159C748.75 437.878 756.998 437.819 764.51 446.682C768.614 445.425 771.897 444.383 775.18 443.377C775.427 446.043 775.988 450.989 775.874 451.025C770.995 452.569 766.067 453.692 760.182 455.103C760.03 459.457 759.803 466.023 759.598 472.553L759.621 472.553Z" fill="black"/>
<path d="M34.351 256.515C54.689 259.987 75.0271 263.493 95.3422 266.965C81.8655 277.275 68.5063 271.929 55.1382 268.549C48.7197 265.646 42.3243 262.777 35.9058 259.874C35.5082 258.578 35.1108 257.317 34.6903 256.022L34.328 256.481L34.351 256.515Z" fill="white"/>
<path d="M412.925 199.137C386.013 199.749 361.461 211.087 340.262 237.529C348.085 209.742 386.885 193.846 412.925 199.137Z" fill="black"/>
<path d="M142.998 223.836C141.202 225.183 138.826 228.464 137.701 227.63C124.311 217.931 111.122 207.599 98.6257 195.121C117.004 192.884 128.222 215.305 143.32 224.185L142.997 223.801L142.998 223.836Z" fill="white"/>
<path d="M34.7118 256.021C35.1094 257.317 35.5068 258.578 35.9273 259.874C23.5492 260.769 11.1549 262.612 -1.20905 262.279C-18.9211 261.773 -36.6214 259.687 -56.6034 258.073C-48.3094 258.015 -42.2059 258.393 -36.1546 257.858C-17.3382 256.215 1.45064 253.905 20.2698 252.649C25.0203 252.334 29.882 254.827 34.6892 256.057L34.7118 256.021Z" fill="black"/>
<path d="M137.821 1001.37C146.687 1004.64 157.843 995.755 158.016 1020.12C150.118 1017.96 139.128 1027.73 137.821 1001.37Z" fill="black"/>
<path d="M104.04 781.34C107.126 794.342 106.534 807.474 99.187 815.46C94.2213 820.866 86.9821 821.444 80.3359 821.877C92.1905 818.049 100.092 804.536 104.04 781.34Z" fill="black"/>
<path d="M527.504 867.076L534.7 870.044C531.723 882.035 528.746 894.026 525.792 906.053C524.646 905.464 523.499 904.875 522.353 904.287C522.858 898.175 523.362 892.029 523.867 885.882C525.079 879.59 526.269 873.333 527.481 867.076L527.504 867.076Z" fill="white"/>
<path d="M29.207 72.7519C36.9781 89.1601 48.0471 77.673 57.4086 79.9234C66.6555 82.1395 76.5193 77.8922 86.1287 76.455C86.167 78.6311 86.2053 80.8072 86.2436 82.9833C69.4957 83.1022 52.728 83.6424 35.9964 82.8484C33.7337 82.7592 31.561 76.0348 29.387 72.3644C29.3868 72.3293 29.207 72.7519 29.207 72.7519Z" fill="black"/>
<path d="M166.746 991.375C159.661 987.985 149.704 991.882 150.159 972.396C164.911 971.168 167.03 973.505 166.746 991.375Z" fill="black"/>
<path d="M114.397 1017.09C121.575 1020.73 127.537 1023.74 133.523 1026.78C132.059 1029.85 130.637 1035.51 129.106 1035.56C122.801 1035.74 114.215 1039.66 114.397 1017.09Z" fill="black"/>
<path d="M740.957 418.803L764.97 418.632C764.827 420.95 764.706 423.268 764.563 425.586C756.606 424.8 748.648 424.014 740.691 423.192L740.957 418.803Z" fill="black"/>
<path d="M739.334 41.6651C751.128 45.4076 766.771 31.1852 780.405 49.5878C765.327 46.676 751.255 43.9675 739.334 41.6651Z" fill="black"/>
<path d="M827.968 936.66C815.822 931.726 803.843 924.404 791.513 922.386C769.986 918.888 748.255 918.691 726.605 917.124C726.484 919.372 726.363 921.619 726.242 923.867C728.323 924.168 730.406 924.68 732.509 924.77C751.436 925.829 770.383 926.432 789.292 928.193C792.904 928.519 799.501 934.053 799.357 936.301C798.182 954.177 806.384 950.784 812.767 951.897C817.297 952.707 821.893 953.201 826.314 954.749C832.338 956.848 836.822 960.783 831.528 971.562C831.506 971.632 833.742 974.319 835.447 976.414C832.666 977.241 830.522 977.853 828.652 978.428C833.147 980.642 837.87 982.961 842.685 985.313C817.895 1078.83 726.774 1108.33 672.665 1059.78L720.303 1059.44C720.297 1058.53 720.29 1057.58 720.284 1056.67C704.61 1056.78 688.961 1057.21 673.284 1056.93C656.465 1056.63 640.971 1017.71 648.141 997.822C645.248 992.542 640.667 987.835 640.704 983.307C640.757 977.936 644.347 971.908 647.264 967.534C657.551 952.086 669.074 940.209 684.507 941.609C685.491 941.708 686.648 940.541 687.508 939.482C688.369 938.458 688.929 936.839 690.687 933.351C681.265 935.489 673.121 937.302 662.376 939.73C665.101 934.13 665.999 931.982 667.083 930.149C669.296 926.377 673.588 922.661 673.494 919.116C673.314 913.044 671.475 905.089 668.502 901.53C662.027 893.783 663.006 886.931 664.409 878.496C661.815 876.829 656.475 874.621 652.08 870.229C648.973 867.127 647.125 861.032 644.738 856.275C649.785 852.694 655.013 845.636 659.861 846.233C669.81 847.461 679.476 854.098 689.453 856.168C706.136 859.665 722.988 861.336 740.092 859.881C737.597 859.267 735.102 858.687 732.63 858.073C732.672 857.546 732.737 857.054 732.779 856.528L755.993 856.363C756.417 858.185 756.841 859.972 757.288 861.795C752.195 865.411 747.08 869.028 744.215 871.084C750.848 871.95 760.651 872.091 770.176 874.797C779.059 877.296 787.597 882.536 796.007 889.216C792.354 889.628 788.701 890.005 785.048 890.417C784.647 891.93 784.224 893.442 783.823 894.989L820.991 919.579C821.226 917.26 821.438 914.942 821.673 912.623C825.278 911.896 828.858 910.782 832.489 910.581C837.879 910.227 843.395 911.521 848.688 910.29C861.166 907.394 860.345 917.334 857.212 929.747C856.167 933.932 854.458 937.735 853.046 941.677L853.21 942.202C851.307 938.109 849.404 933.98 846.712 928.137C840.745 930.847 834.368 933.771 828.013 936.659L827.968 936.66ZM691.977 886.62C691.968 888.55 691.959 890.516 691.927 892.447L741.348 892.096C741.346 891.71 741.343 891.289 741.34 890.903L691.955 886.62L691.977 886.62ZM787.654 990.443C787.735 988.898 787.815 987.353 787.895 985.808C776.918 984.481 765.964 983.155 754.987 981.829C754.907 983.479 754.805 985.13 754.725 986.78C765.701 988.001 776.678 989.222 787.654 990.443ZM751.422 914.175C751.419 913.719 751.415 913.227 751.412 912.771L697.398 913.154C697.401 913.611 697.405 914.102 697.408 914.558L751.399 914.175L751.422 914.175Z" fill="white"/>
<path d="M750.838 674.6C758.206 675.987 765.573 677.339 773.489 678.827C773.489 678.792 774.065 676.19 774.507 674.186C780.276 678.849 786.155 683.09 791.653 688.316C795.127 691.627 797.549 697.963 800.347 686.605C800.836 684.636 810.764 686.32 815.628 689.129C831.414 698.319 834.139 721.609 838.31 742.676C841.984 761.36 844.747 780.437 848.278 801.474C838.055 800.107 828.018 799.371 818.11 797.335C783.008 790.107 747.882 786.003 712.551 791.695C697.784 794.082 683.02 796.819 668.226 798.609C660.327 799.578 652.264 800.021 644.417 798.638C629.912 796.038 625.613 802.071 628.301 823.43C617.749 817.677 607.083 811.891 596.371 806.034L596.54 829.903C587.026 818.949 579.769 810.646 570.854 800.388C585.509 791.965 599.459 783.968 614.114 775.544C612.372 774.784 610.722 774.059 609.072 773.333L608.957 773.264C613.674 774.6 618.469 777.444 623.081 776.92C632.853 775.762 642.567 773.025 652.261 770.57C656.024 769.63 659.666 767.639 665.271 765.352C663.225 760.382 661.342 755.832 659.621 751.667C661.441 750.461 664.564 752.685 675.919 765.452C677.645 760.736 679.348 755.985 681.074 751.234C682.572 753.084 684.071 754.934 686.307 757.691C688.39 735.737 698.152 742.969 707.88 745.287C702.667 747.992 698.523 750.162 694.403 752.333C694.712 753.945 695.02 755.523 695.305 757.136C706.939 754.35 718.595 751.529 730.229 748.744C730.123 746.709 730.017 744.673 729.888 742.638C716.687 740.275 703.486 737.946 688.501 735.279C692.439 733.216 696 732.593 698.447 729.768C703.297 724.152 707.009 715.876 712.187 711.487C715.072 709.044 718.747 702.173 724.12 709.015C726.172 711.633 732.113 708.397 735.868 706.229C745.243 700.827 753.917 702.696 762.6 712.428C758.342 698.452 754.623 686.297 750.926 674.108L750.793 674.635L750.838 674.6Z" fill="white"/>
<path d="M28.5732 134.924C21.7831 137.605 16.3601 139.749 10.8916 141.929L43.3821 141.699C44.8764 152.64 46.1549 162.144 47.8909 174.945C12.8958 163.539 -17.8346 183.169 -49.6562 187.502C-71.0455 190.427 -92.7446 188.334 -115.479 188.495C-105.475 171.786 -93.1059 166.397 -79.0007 167.385C-82.2258 166.917 -85.4735 166.483 -89.2247 165.948C-74.5993 140.43 16.1761 117.039 28.573 134.889L28.5732 134.924Z" fill="white"/>
<path d="M156.39 404.557C159.803 425.103 163.05 444.703 166.512 465.635C146.801 457.139 127.43 448.22 107.839 440.566C100.301 437.636 92.2599 437.974 84.5445 435.852C81.1562 434.929 78.0473 431.511 74.8094 429.252C77.0333 423.865 78.5089 416.062 81.6912 413.722C85.6918 410.781 91.1194 412.497 95.9138 411.937C115.913 409.548 135.912 407.054 156.39 404.557Z" fill="white"/>
<path d="M540.603 967.695C548.675 968.48 556.723 969.23 564.795 970.015L565.163 964.01C562.642 962.94 560.121 961.834 557.623 960.764C557.663 960.026 557.704 959.289 557.744 958.551C564.183 957.874 570.621 957.161 577.22 956.447C576.37 959.051 575.542 961.549 573.843 966.792C577.065 963.574 579.273 962.4 580.49 960.005C586.801 947.814 592.708 949.457 597.639 961.673C603.337 975.744 610.891 980.956 621.619 979.265C625.202 978.713 631.197 983.059 632.669 987.682C636.035 998.294 629.891 1001.95 624.533 1003.57C614.683 1006.48 606.418 1020.3 594.843 1012C579.226 1000.8 563.117 991.23 547.5 980.072C544.63 978.021 543.031 971.644 540.852 967.272L540.626 967.694L540.603 967.695Z" fill="white"/>
<path d="M790.058 486.098C791.548 493.178 793.038 500.258 794.079 505.236C790.867 509.822 788.103 513.176 786.007 517.298C785.601 518.073 787.8 521.954 789.451 526.085C777.197 528.348 765.47 530.853 753.669 532.552C743.854 533.99 733.949 535.64 724.164 534.973C718.495 534.592 708.012 528.909 708.137 527.188C709.057 515.106 713.32 507.213 723.094 509.776C726.688 510.698 730.903 505.719 737.047 502.13C736.446 501.151 738.134 503.948 738.99 505.416C743.541 499.521 748.023 493.697 752.506 487.874C753.268 488.921 754.029 489.969 754.791 490.982C753.195 494.784 751.6 498.551 749.69 503.128C756.737 501.218 763.943 499.271 769.713 497.721C771.798 492.054 773.681 486.881 776.998 477.836C779.121 490.317 780.288 497.084 781.671 505.218C785.069 497.822 787.679 492.152 790.29 486.482L790.013 486.133L790.058 486.098Z" fill="white"/>
<path d="M673.007 695.758C672.536 690.636 672.089 685.514 671.494 678.954L642.956 679.157C645.481 671.03 646.933 666.351 648.295 661.918C649.961 664.82 651.233 667.022 653.94 671.707L653.802 652.296C674.908 641.615 696.035 633.953 720.565 642.134C713.039 650.612 711.8 666.066 701.436 664.209C699.766 663.905 698.177 662.161 696.508 662.033C694.428 661.872 691.684 661.575 690.371 663.34C686.229 668.88 682.043 674.737 679.008 681.674C677.299 685.583 677.777 691.757 677.265 696.921C675.846 696.545 674.426 696.134 672.984 695.758L673.007 695.758Z" fill="white"/>
<path d="M560.798 522.898C549.53 528.77 538.5 536.115 526.967 540.234C497.064 550.907 466.92 559.826 436.969 570.184C428.65 573.051 420.659 580.409 410.73 565.806C437.312 557.298 462.154 548.276 487.288 541.674C511.691 535.252 534.5 516.696 559.583 515.816C559.988 518.165 560.393 520.514 560.821 522.863L560.798 522.898Z" fill="white"/>
<path d="M28.3623 320.516C25.2019 319.521 22.0414 318.49 18.6061 317.391C32.4366 302.199 36.0026 334.609 47.1449 333.441C36.8195 337.025 26.4461 340.293 16.1922 344.297C-0.145482 350.697 -16.436 357.306 -32.6316 364.407C-38.4403 366.941 -44.4415 368.106 -43.7026 356.307C-43.3747 351.004 -37.0701 344.289 -32.7188 342.468C-19.7785 337.076 -6.48083 333.752 6.69766 329.727C13.5832 327.607 20.47 325.662 27.3791 323.647C27.7143 322.592 28.027 321.572 28.3623 320.516Z" fill="white"/>
<path d="M586.987 590.813C575.367 579.311 582.003 567.75 586.872 552.025C587.586 559.216 587.907 562.583 588.744 571.142C590.577 565.408 591.449 562.628 593.125 557.386C594.247 564.118 594.867 567.834 595.178 569.763C598.097 565.776 601.361 558.732 603.103 559.527C606.335 561.013 606.833 566.767 607.726 573.43C611.221 599.136 598.485 594.663 591.002 599.49C578.833 607.334 566.36 614.127 553.326 619.24C559.99 598.797 575.489 602.97 586.988 590.848L586.987 590.813Z" fill="white"/>
<path d="M609.052 773.403C607.243 772.749 605.334 771.113 603.647 771.581C591.469 774.932 579.388 779.02 567.208 782.16C564.129 782.954 560.782 781.363 556.321 780.658C578.994 752.52 604.549 757.042 628.971 753.288C629.281 755.111 629.614 756.935 629.924 758.723C622.944 763.581 615.963 768.44 608.937 773.299C608.892 773.299 609.029 773.369 609.029 773.369L609.052 773.403Z" fill="white"/>
<path d="M767.126 177.704C770.486 168.272 773.533 159.755 777.835 147.72C782.813 156.952 786.217 163.211 790.176 170.59C791.493 169.422 795.308 166.06 796.443 165.069C803.058 169.831 807.537 173.169 812.083 176.261C813.828 177.442 815.707 178.096 817.541 178.961C815.633 180.589 813.69 183.762 811.861 183.599C797.981 182.153 784.12 180.04 767.126 177.704Z" fill="white"/>
<path d="M719.889 86.4895C722.523 87.3132 726.22 86.6902 727.608 89.1376C738.184 107.878 751.232 111.225 766.308 107.327C770.778 106.172 775.808 109.822 780.571 111.263C780.356 113.23 780.142 115.198 779.904 117.13C767.794 117.216 755.182 120.57 743.705 116.369C734.61 113.028 726.912 100.481 718.603 92.0098C719.024 90.1815 719.445 88.318 719.866 86.4896L719.889 86.4895Z" fill="white"/>
<path d="M739.84 447.525C743.374 452.941 752.315 450.666 750.132 464.968C749.936 466.339 755.811 469.913 758.891 472.488C757.124 474.642 755.427 476.936 753.544 478.845C750.617 481.849 747.769 486.117 744.531 487.158C739.926 488.595 735.006 487.577 729.225 487.618C727.963 473.937 738.516 479.899 744.064 476.069C740.378 468.653 736.693 461.237 732.358 452.527C735.337 450.505 737.589 449.015 739.84 447.49L739.84 447.525Z" fill="white"/>
<path d="M468.306 526.574C484.951 511.958 503.055 506.564 522.115 507.025C522.379 508.744 522.665 510.462 522.929 512.18C504.968 518.485 486.984 524.791 469.023 531.062C468.784 529.554 468.545 528.046 468.306 526.539L468.306 526.574Z" fill="white"/>
<path d="M538.088 922.604C544.179 914.733 548.458 909.191 553.892 902.167C557.891 908.598 562.421 915.902 566.974 923.171L564.867 928.978C556.559 927.001 548.228 925.024 538.088 922.604Z" fill="white"/>
<path d="M487.74 692.194C485.345 689.578 482.266 683.948 480.672 684.802C468.448 691.278 469.385 678.353 468.826 667.194C470.919 665.951 472.944 664.743 474.992 663.535C490.665 672.936 491.733 675.316 487.739 692.159L487.74 692.194Z" fill="white"/>
<path d="M565.149 569.485C560.441 556.495 560.166 556.286 541.262 552.138C552.528 545.774 563.793 539.411 575.059 533.082C575.503 534.519 575.97 535.919 576.414 537.355C571.298 540.867 566.159 544.344 562.157 547.075C563.219 555.106 564.184 562.295 565.149 569.485Z" fill="white"/>
<path d="M620.592 612.128C615.99 610.932 609.741 609.291 603.583 607.685C605.204 604.269 607.542 598.952 610.111 593.914C612.027 590.144 614.219 586.723 616.296 583.128C618.3 588.66 620.897 593.942 622.104 599.866C622.791 603.231 621.223 607.701 620.614 612.093L620.592 612.128Z" fill="white"/>
<path d="M540.804 967.271C538.193 969.607 535.559 971.942 532.948 974.278C532.492 971.227 532.059 968.211 531.964 967.65C525.643 965.554 519.871 963.664 514.1 961.774C514.313 959.666 514.527 957.559 514.763 955.451C523.45 956.021 532.137 956.591 540.001 957.097C540.187 960.817 540.372 964.326 540.579 967.764C540.602 967.729 540.827 967.271 540.827 967.271L540.804 967.271Z" fill="white"/>
<path d="M750.95 674.073C748.06 678.938 744.745 688.299 742.387 687.719C736.688 686.355 731.458 680.354 726.037 676.25C726.502 674.141 726.989 671.996 727.454 669.887C735.234 671.481 743.015 673.111 750.795 674.671C750.794 674.636 750.928 674.108 750.928 674.108L750.95 674.073Z" fill="white"/>
<path d="M691.914 694.254C693.109 685.54 693.935 679.532 694.76 673.488C695.743 673.516 696.749 673.579 697.731 673.608C698.945 677.25 700.136 680.857 701.887 686.11C704.246 680.371 706.043 676.006 708.064 671.077C712.023 681.545 707.39 688.739 691.937 694.219L691.914 694.254Z" fill="white"/>
<path d="M60.1454 384.986C56.0777 388.139 51.9869 391.257 47.9194 394.445C44.6926 396.96 41.5831 399.896 38.2162 401.991C36.1914 403.234 33.8376 403.181 31.625 403.723C32.1033 400.279 31.862 395.261 33.2674 393.672C35.7834 390.81 39.227 389.873 42.3468 388.377C47.4479 385.954 52.5962 383.741 57.7211 381.458C58.5293 382.646 59.3375 383.833 60.1456 385.021L60.1454 384.986Z" fill="white"/>
<path d="M96.918 160.379C105.136 165.762 113.332 171.145 121.55 176.563C120.926 178.779 120.302 180.959 119.678 183.175C111.367 177.548 103.032 171.92 94.721 166.327C95.461 164.356 96.2011 162.385 96.9411 160.414L96.918 160.379Z" fill="white"/>
<path d="M686.961 614.746C683.843 616.453 680.702 618.16 676.969 620.187C675.374 617.601 673.131 613.931 669.918 608.688C673.245 607.401 675.926 605.276 678.465 605.644C681.873 606.076 685.18 608.44 688.527 609.96C688.012 611.544 687.475 613.127 686.961 614.746Z" fill="white"/>
<path d="M691.998 886.584L741.383 890.867C741.386 891.254 741.389 891.675 741.392 892.061L691.971 892.412C691.98 890.481 691.989 888.515 692.021 886.584L691.998 886.584Z" fill="black"/>
<path d="M787.679 990.443C776.703 989.222 765.726 988.001 754.75 986.78C754.829 985.13 754.932 983.479 755.012 981.829C765.989 983.155 776.943 984.481 787.92 985.808C787.84 987.353 787.759 988.898 787.679 990.443Z" fill="black"/>
<path d="M751.467 914.174L697.477 914.558C697.473 914.101 697.47 913.61 697.467 913.154L751.48 912.77C751.484 913.227 751.487 913.718 751.49 914.174L751.467 914.174Z" fill="black"/>
</g>
</g>
<defs>
<clipPath id="clip0_97_1363">
<rect width="768" height="1024" fill="white"/>
</clipPath>
<clipPath id="clip1_97_1363">
<rect width="1712.45" height="787.499" fill="white" transform="translate(-4.5332 1712.44) rotate(-90.4066)"/>
</clipPath>
</defs>
</svg>
