<svg width="1440" height="1071" viewBox="0 0 1440 1071" fill="none" xmlns="http://www.w3.org/2000/svg">
<g clip-path="url(#clip0_74_360)">
<path d="M272.798 1028.71C245.267 1044.79 133.748 1068.16 91.2227 1066.38C93.8027 1048.56 95.6543 1030.79 99.0539 1013.26C109.92 957.388 129.772 904.134 157.576 853.199C162.462 844.246 167.835 838.05 180.25 836.221C199.099 833.436 217.251 826.148 236.13 824.347C252.188 822.818 268.912 825.985 285.242 827.759C290.949 828.387 296.413 830.98 304.426 829.97C291.222 816.485 277.138 803.574 265.027 789.326C253.462 775.732 239.439 763.094 231.972 742.376C244.022 749.255 252.066 753.841 260.11 758.427C261.233 757.717 262.356 757.007 263.479 756.27L259.047 736.262C296.868 797.105 338.908 856.065 353.933 927.963C335.417 925.561 318.692 921.958 301.876 921.576C280.841 921.084 259.29 921.112 238.771 924.688C205.413 930.474 196.853 950.537 216.401 975.759C226.964 989.407 241.078 1000.87 253.887 1013.05C259.685 1018.56 266.272 1023.36 272.767 1028.71H272.798Z" fill="black"/>
<path d="M782.797 1173.16C775.057 1181.05 767.287 1188.94 759.547 1196.83C746.312 1208.1 732.957 1219.21 719.966 1230.7C716.232 1234.01 713.683 1238.4 710.556 1242.28L711.133 1241.84C699.082 1235.56 686.182 1230.27 675.194 1222.73C664.297 1215.26 654.918 1215.86 643.384 1220.74C626.538 1227.87 609.023 1233.76 588.504 1241.4C588.504 1233.73 586.319 1227.32 588.838 1223.31C609.752 1190.2 631.546 1157.55 654.645 1122.37C655.221 1127.44 655.464 1129.76 656.041 1134.9C665.147 1127.74 674.526 1122.72 680.324 1115.41C713.925 1072.91 746.677 1029.86 779.701 987.004C780.824 985.558 781.887 984.111 782.98 982.664C784.103 983.237 785.195 983.838 786.318 984.411C770.535 1007.75 754.781 1031.11 737.48 1056.72C742.7 1054.48 745.402 1053.33 749.712 1051.48C753.628 1089.23 757.422 1126.02 761.307 1163.56H784.012C783.556 1167.13 783.192 1170.11 782.797 1173.08V1173.16ZM741.061 1072.11C732.35 1082.13 725.095 1090.48 717.841 1098.84C746.282 1090.4 746.829 1089.8 741.061 1072.11ZM719.268 1148.93C715.079 1154.52 710.89 1160.09 706.701 1165.69C709.767 1167.16 713.895 1170.6 715.716 1169.81C724.397 1165.96 726.552 1159.27 719.268 1148.93Z" fill="black"/>
<path d="M923 806.085C923 787.578 919.874 772.074 929.192 757.225C955.478 715.352 981.309 673.262 1007.69 631.444C1009.42 628.714 1014.09 626.64 1017.76 626.012C1023.62 625.002 1029.81 625.521 1035.85 625.248C1054.73 624.401 1058.07 626.421 1059.53 643.209C1060.17 650.715 1060.32 659.477 1056.71 665.837C1034.79 704.407 1013.42 743.659 975.542 772.238C959.91 784.03 942.305 793.747 923 806.085Z" fill="black"/>
<path d="M492.798 1039.09C486.576 1032.07 480.778 1024.73 474.04 1018.15C470.003 1014.22 462.869 1012.36 460.016 1008.02C433.943 968.58 408.962 928.645 393.755 884.425C389.778 872.852 383.252 862.015 378.699 850.333C404.955 884.371 431.211 918.409 457.436 952.42C458.711 951.683 460.016 950.919 461.291 950.182C446.205 927.199 431.12 904.242 416.004 881.259C417.005 880.713 417.977 880.167 418.978 879.621C432.85 898.155 446.691 916.717 460.593 935.224C484.876 967.57 509.159 999.916 533.502 1032.23C539.482 1040.18 542.821 1047.68 536.295 1057.35C532.986 1062.26 533.563 1069.25 531.59 1079.29C519.327 1066.35 509.128 1055.6 498.96 1044.9C507.762 1051.45 516.504 1057.95 525.246 1064.44C526.855 1063.82 528.433 1063.16 530.042 1062.53C528.737 1058.38 528.737 1053.2 525.883 1050.25C517.324 1041.43 506.336 1036.71 492.737 1039.06L492.798 1039.09Z" fill="black"/>
<path d="M402.438 1037.8C415.672 1044.98 431.03 1054.04 447.239 1061.63C452.217 1063.98 459.502 1062.31 465.725 1062.51C463.934 1057.67 462.568 1052.68 460.261 1048.07C455.769 1039 450.791 1030.13 445.995 1021.18C447.3 1020.63 448.575 1020.09 449.88 1019.54C478.412 1044.03 506.914 1068.51 536.63 1093.98C498.172 1102.17 424.171 1069.14 402.468 1037.8H402.438Z" fill="black"/>
<path d="M926.096 664.445C933.138 641.544 940.149 618.669 948.315 592.11C957.33 599.535 970.23 605.977 969.38 610.262C967.316 620.853 958.938 630.461 953.11 640.452C951.441 639.824 949.771 639.223 948.102 638.596C950.47 627.868 952.837 617.168 955.205 606.441C954.658 606.222 954.112 606.031 953.596 605.813C945.765 625.684 937.964 645.556 930.133 665.428C928.797 665.1 927.431 664.745 926.096 664.418V664.445Z" fill="black"/>
<path d="M839.346 814.656C865.571 769.726 891.796 724.77 918.143 679.676C920.997 701.431 916.292 707.191 902.086 723.623C886.758 741.393 875.345 761.947 862.718 781.546C855.433 792.846 849.059 804.638 842.29 816.212C841.319 815.693 840.317 815.175 839.346 814.656Z" fill="black"/>
<path d="M888.062 824.838C898.292 807.942 906.669 794.13 915.411 779.635C922.757 802.837 918.75 809.825 888.062 824.838Z" fill="black"/>
<path d="M183.132 657.267C199.493 685.245 215.853 713.251 232.183 741.23C230.878 741.83 229.573 742.403 228.237 743.004C209.964 715.844 190.629 689.176 183.375 656.966L183.102 657.267H183.132Z" fill="black"/>
<path d="M1393.21 339.129C1409.96 335.471 1422.53 332.714 1437.07 329.548C1438.19 335.471 1439.1 340.439 1440.01 345.325C1425.14 343.36 1411.39 341.558 1393.21 339.156V339.129Z" fill="black"/>
<path d="M356.451 246.95C347.102 252.464 337.723 257.978 328.434 263.464C323.669 265.102 318.843 266.794 311.861 269.251C319.935 255.958 347.284 243.347 356.451 246.977V246.95Z" fill="black"/>
<path d="M108.281 268.459H145.252C145.313 269.742 145.343 271.052 145.404 272.335C133.171 276.484 120.757 276.157 108.281 268.459Z" fill="black"/>
<path d="M214.883 231.882C221.075 227.952 227.237 224.021 233.429 220.118C234.673 221.701 235.918 223.284 237.162 224.867C231.152 228.989 225.112 233.111 219.102 237.232C217.706 235.458 216.309 233.684 214.883 231.91V231.882Z" fill="black"/>
<path d="M117.142 355.78C108.431 350.676 99.7193 345.571 91.0078 340.494C91.8577 339.266 92.7076 338.065 93.5575 336.837C102.542 341.695 111.496 346.554 120.481 351.413C119.358 352.86 118.265 354.334 117.142 355.78Z" fill="black"/>
<path d="M394.272 939.373C385.864 926.981 377.486 914.588 369.078 902.196C370.08 901.65 371.081 901.076 372.113 900.531C380.461 912.923 388.808 925.288 397.155 937.681C396.184 938.254 395.243 938.8 394.272 939.373Z" fill="black"/>
<path d="M573.903 417.933C556.51 419.817 539.998 421.591 523.455 423.393C522.939 422.355 522.393 421.318 521.877 420.254C525.671 416.268 529.132 411.928 533.351 408.325C564.827 381.493 583.07 346.936 601.677 312.761C610.813 296.001 623.076 283.827 643.321 278.586C693.617 265.593 743.852 252.382 794.179 239.389C804.408 236.741 814.09 236.168 820.495 246.568C822.286 249.461 826.505 251.208 829.753 253.255C836.916 257.759 842.532 261.799 841.378 271.79C840.559 278.887 846.053 286.557 846.083 295.1C843.867 292.016 841.621 288.932 838.009 283.936C837.493 289.314 837.159 292.971 836.977 294.582C829.662 297.393 822.65 299.086 816.853 302.443C776.422 325.754 736.082 349.202 689.095 360.83C662.839 367.326 636.522 373.632 610.236 379.992C607.322 380.701 604.287 381.138 601.403 381.875C575.269 388.59 571.687 393.203 573.933 417.906L573.903 417.933Z" fill="white"/>
<path d="M946.129 300.041C931.043 288.904 918.082 292.89 905.546 294.828C892.889 296.766 882.538 294.172 870.396 282.599C908.005 278.75 941.363 275.338 977.848 271.626C975.481 279.487 974.236 283.227 973.204 286.994C968.287 305.064 975.45 316.801 994.967 322.697C1012.82 328.074 1017.25 338.147 1008.47 353.132C1006.9 355.834 1005.04 358.728 1004.71 361.676C1003.92 368.391 1006.96 378.763 1003.19 381.302C991.477 389.163 977.939 396.069 963.946 399.508C949.164 403.139 927.522 416.705 928.402 428.552C928.948 435.976 933.41 443.865 938.237 450.225C946.584 461.171 946.948 478.094 935.99 489.531C934.139 449.433 913.893 416.705 891.614 384.687C889.216 381.247 887.182 377.535 885.391 373.795C878.804 359.956 866.117 347.728 883.388 331.213C895.59 319.558 905.455 308.339 925.124 308.121C931.407 308.066 937.66 303.48 946.129 300.041ZM944.398 342.623C943.791 343.797 943.184 344.971 942.547 346.144C925.852 344.78 903.36 366.071 907.61 380.265C908.612 383.622 916.412 388.672 918.932 387.798C936.203 381.875 953.11 374.942 969.713 367.599C976.937 364.406 978.91 357.854 971.504 353.596C963.248 348.847 953.504 346.172 944.398 342.623Z" fill="white"/>
<path d="M682.782 79.9248C670.398 57.733 662.597 37.0425 665.146 14.2775C666.907 -1.47242 668.789 -17.3589 673.069 -32.6174C674.465 -37.6127 683.601 -40.8609 689.186 -44.9007C692.647 -39.5507 699.75 -33.682 698.93 -28.9052C694.529 -3.00111 694.468 -1.74544 718.751 12.1756C729.617 18.4265 733.654 29.2358 725.762 37.9432C712.862 52.1646 698.171 65.0757 682.782 79.9248Z" fill="white"/>
<path d="M489.581 215.123C483.936 241.3 478.168 264.638 443.11 267.286C446.237 269.442 447.845 270.561 449.818 271.926C420.922 284.346 392.48 297.066 359.213 287.54C362.066 271.763 375.573 265.211 395.759 267.013C403.559 267.723 418.463 265.048 418.827 262.591C421.438 244.657 442.017 245.34 451.913 235.104C460.715 226.014 476.013 222.002 489.581 215.177V215.123Z" fill="white"/>
<path d="M1214.12 172.35C1201.74 193.368 1189.38 214.386 1175.18 238.516C1202.8 233.275 1227.08 228.689 1252.73 223.83C1231.73 232.893 1212.27 241.327 1192.69 249.625C1190.96 250.362 1188.32 251.017 1186.83 250.362C1168.23 242.037 1164.74 255.494 1159.27 265.757C1150.59 282.026 1142.18 298.431 1133.68 314.754C1109.49 305.937 1107.49 303.562 1120.69 284.81C1138.42 259.616 1158.06 235.513 1177.51 211.329C1188.41 197.762 1200.52 185.015 1212.09 171.886C1212.75 172.049 1213.45 172.213 1214.12 172.35Z" fill="white"/>
<path d="M689.764 209.418C717.446 193.722 743.49 181.767 777.698 180.129C757.088 203.576 710.009 219.572 689.764 209.418Z" fill="white"/>
<path d="M1064.14 527.118C1082.51 519.366 1098.57 516.445 1114.32 528.565C1100.23 541.449 1086.55 541.23 1064.14 527.118Z" fill="white"/>
<path d="M974.873 433.001C988.714 429.043 1002.49 424.812 1016.52 421.4C1018.83 420.826 1023.86 423.392 1024.65 425.439C1025.41 427.35 1022.95 431.69 1020.59 432.919C1006.53 440.207 991.507 440.316 976.391 438.05C975.875 436.358 975.389 434.666 974.873 432.973V433.001Z" fill="white"/>
<path d="M315.141 540.275C321.818 526.191 318.874 507.793 338.088 499.358C333.929 514.562 334.658 531.95 315.141 540.275Z" fill="white"/>
<path d="M1238.01 417.715C1248.66 421.782 1249.79 429.725 1245.93 438.351C1244.84 440.78 1239.13 441.517 1235.52 443.046C1234.18 435.021 1232.88 427.023 1231.54 418.998C1233.7 418.561 1235.85 418.152 1237.98 417.715H1238.01Z" fill="white"/>
<path d="M686.241 392.084C692.827 392.439 699.414 392.766 706.001 393.121C705.94 394.977 705.849 396.861 705.788 398.717H686.059L686.241 392.084Z" fill="white"/>
<path d="M944.399 342.623C953.505 346.199 963.248 348.846 971.504 353.596C978.91 357.881 976.938 364.405 969.713 367.599C953.11 374.942 936.203 381.875 918.932 387.798C916.413 388.644 908.612 383.622 907.61 380.264C903.361 366.07 925.853 344.779 942.547 346.144C943.154 344.97 943.761 343.797 944.399 342.623Z" fill="black"/>
</g>
<path fill-rule="evenodd" clip-rule="evenodd" d="M1440 125.955C1431.42 125.899 1422.86 125.674 1414.33 125.128C1392.33 123.735 1369.89 121.115 1348.89 115.383C1260.96 91.444 1173.05 67.2323 1086 40.8369C1058.14 32.3909 1031.08 21.7857 1004.01 11.1743L1004.01 11.174L1004 11.1692L1003.99 11.1685C994.418 7.41464 984.839 3.66001 975.221 0H700.723C704.048 3.59576 709.713 7.0224 718.75 12.2032C729.617 18.454 733.654 29.2633 725.762 37.9708C716.729 47.9285 706.819 57.2438 696.405 67.0318L696.396 67.0404L696.393 67.0432C691.938 71.2306 687.391 75.5045 682.781 79.9524C670.397 57.7606 662.596 37.07 665.146 14.305C665.678 9.54208 666.222 4.76671 666.839 0H329.473C328.688 18.253 331.19 36.2565 338.451 53.5296C355.783 94.6923 394.848 109.541 439.255 115.301C441.82 115.633 444.383 115.951 446.94 116.269C467.892 118.869 488.489 121.425 507.399 131.569C517.167 136.825 527.566 141.118 537.454 145.199L537.455 145.2L537.456 145.2C541.723 146.962 545.895 148.684 549.879 150.427C547.376 150.866 544.873 151.244 542.37 151.622L542.366 151.623C541.041 151.823 539.715 152.023 538.39 152.233C502.876 157.828 473.312 172.323 449.849 197.462C439.1 208.959 427.553 219.856 416.011 230.747L416.008 230.751L415.996 230.762C410.854 235.614 405.714 240.465 400.645 245.367C400.589 245.342 402.114 246.288 404.066 247.5L404.5 247.769C395.741 252.478 387.091 257.123 378.499 261.737C372.613 264.898 366.754 268.044 360.907 271.186C365.907 266.67 370.906 262.154 375.906 257.638C384.291 250.063 392.677 242.488 401.07 234.913C400.036 233.764 398.994 232.615 397.952 231.466C396.915 230.322 395.878 229.178 394.848 228.034L356.724 247.005C353.984 248.621 351.244 250.24 348.504 251.858L348.323 251.964C341.777 255.831 335.235 259.695 328.708 263.519C328.157 263.864 327.608 264.207 327.061 264.548C311.362 274.349 297.381 283.078 292.101 303.863C284.665 333.152 257.468 352.86 227.782 365.607C224.788 366.892 221.776 368.242 218.751 369.598L218.75 369.599C196.326 379.652 173.199 390.02 151.321 376.334C143.883 378.893 136.928 381.289 130.277 383.579C118.907 387.495 108.424 391.105 97.9296 394.705C112.062 392.762 125.896 389.728 139.735 386.693L139.754 386.689L139.774 386.685C142.449 386.098 145.123 385.511 147.8 384.933C148.408 384.806 149.048 384.663 149.705 384.515C153.577 383.646 158.079 382.636 160.519 384.059C177.175 393.778 193.854 390.817 211.006 387.772C213.702 387.294 216.41 386.813 219.131 386.379C226.076 385.274 233.02 384.161 239.966 383.047L239.968 383.046C286.209 375.63 332.491 368.206 379.094 363.341C436.523 357.364 493.497 351.004 547.162 330.313C555.929 326.932 564.576 323.299 573.765 319.438L573.77 319.436C578.451 317.469 583.272 315.444 588.321 313.362C584.163 327.502 576.999 336.946 563.796 341.423C551.078 345.735 538.147 349.803 524.974 352.805C509.594 356.296 494.159 359.595 478.724 362.894C459.767 366.946 440.81 370.998 421.954 375.406C415.124 377.017 408.052 381.111 403.317 385.861C398.221 390.936 393.6 396.453 388.988 401.958C382.117 410.161 375.265 418.34 366.892 425.004C335.304 450.123 298.621 468.212 261.905 486.317C252.579 490.916 243.251 495.516 234.004 500.232C200.877 517.121 168.776 535.646 136.696 554.158C130.565 557.696 124.434 561.234 118.297 564.76C115.602 566.307 114.182 569.648 112.759 572.994L112.759 572.995C112.098 574.549 111.437 576.104 110.648 577.48C112.508 577.823 114.493 578.412 116.481 579L116.481 579.001L116.482 579.001C120.819 580.286 125.163 581.573 128.222 580.319C130.428 579.412 132.651 578.512 134.881 577.608C150.173 571.414 165.791 565.087 178.427 555.725C211.725 531.131 249.606 515.572 289.916 503.808C294.044 502.607 299.174 502.006 303.12 503.125C305.791 503.862 309.676 509.403 308.887 510.659C305.8 515.547 303.947 521.036 302.092 526.529C298.456 537.296 294.815 548.08 281.872 554.388C257.104 566.425 232.426 578.708 208.447 591.947C202.526 595.23 197.319 599.533 192.097 603.849C188.243 607.034 184.381 610.226 180.218 613.02C176.28 615.643 171.767 617.564 166.549 619.785L166.547 619.786C164.002 620.869 161.289 622.023 158.394 623.365C164.981 625.303 168.866 626.45 172.721 627.596C167.958 642.132 157.925 639.932 146.825 637.499C146.252 637.373 145.677 637.247 145.099 637.122C126.765 633.137 112.56 623.966 98.5974 612.992C76.1054 595.305 62.416 596.888 42.7469 616.295C38.7402 620.253 33.8532 623.693 28.7235 626.395C26.5048 627.546 22.9 626.971 19.8824 626.49C19.68 626.458 19.4802 626.426 19.2836 626.395L18.9429 626.341C12.619 625.336 6.26432 624.327 0 623.04V644.012C15.3394 647.472 31.9604 647.01 50.2745 641.544C58.3486 639.115 67.0297 637.777 75.5287 637.122C77.5827 636.967 79.6788 636.762 81.7922 636.556L81.798 636.555L81.8043 636.555C90.4617 635.709 99.4086 634.836 106.945 637.204C129.619 644.329 151.777 651.153 175.088 644.192C177.214 647.373 178.991 650.04 180.641 652.518L180.759 652.695L181.825 654.296C182.255 654.941 182.679 655.578 183.103 656.214L183.314 657.267L183.587 656.939L183.103 656.214C182.622 653.809 182.145 651.419 181.703 649.201L181.676 649.065C181.384 647.604 181.108 646.22 180.855 644.956C187.18 642.049 193.454 639.16 199.69 636.289L199.923 636.182C220.126 626.881 239.939 617.76 259.805 608.734C262.666 607.43 265.642 606.327 268.612 605.225L268.613 605.224L268.614 605.224L268.615 605.224C272.669 603.719 276.714 602.219 280.445 600.218C287.19 596.599 294.106 593.15 301.027 589.699C318.432 581.021 335.863 572.329 350.653 560.884C392.681 528.372 433.327 494.412 473.966 460.457L473.967 460.456L473.971 460.453C484.781 451.42 495.592 442.388 506.428 433.383C512.954 427.952 517.233 428.061 524.549 432.428C534.747 438.488 545.887 444.002 557.482 447.141C566.833 449.678 576.508 451.188 586.189 452.698C592.44 453.674 598.694 454.65 604.864 455.903C608.131 456.575 611.194 458.051 615.136 459.951L615.139 459.952C617.276 460.982 619.672 462.136 622.499 463.355C616.779 466.165 612.172 468.431 608.106 470.431L608.04 470.463C604.194 472.355 600.83 474.01 597.458 475.665C602.163 479.077 606.017 480.388 609.66 480.005C619.682 478.984 629.762 478.161 639.844 477.337C665.061 475.278 690.298 473.217 714.714 468.05C750.682 460.434 782.007 468.759 814.971 480.715L813.937 481.535C805.115 488.53 796.265 495.548 785.953 498.621C776.169 501.54 766.027 503.472 755.879 505.405C746.856 507.124 737.827 508.844 729.04 511.26C727.897 511.574 726.746 511.888 725.59 512.204C711.393 516.078 696.383 520.174 685.24 528.074C660.138 545.871 655.858 594.103 672.704 618.479C691.523 645.693 709.736 673.372 725.914 701.923C731.474 711.752 735.304 722.35 739.14 732.965C742.004 740.892 744.872 748.829 748.467 756.461C759.637 780.127 771.808 803.083 791.478 822.9C799.916 831.417 805.713 847.658 803.012 858.413C797.062 881.996 786.803 905.171 774.874 926.981C760.266 953.665 744.472 979.816 728.676 1005.97C721.301 1018.18 713.925 1030.39 706.67 1042.66C705.032 1045.42 703.815 1048.36 702.597 1051.3C702.055 1052.61 701.513 1053.92 700.933 1055.22C701.737 1055.68 702.542 1056.14 703.346 1056.6C703.819 1056.87 704.292 1057.13 704.765 1057.4C705.096 1057.59 705.428 1057.78 705.759 1057.98C708.257 1055.2 710.852 1052.47 713.447 1049.74C719.082 1043.82 724.719 1037.9 729.374 1031.42L730.555 1029.77C764.157 983.017 797.746 936.279 830.178 888.875C845.109 867.041 858.485 844.329 871.846 821.643C874.103 817.811 876.359 813.979 878.623 810.153C881.28 805.656 882.812 800.626 884.343 795.602L884.344 795.598C885.034 793.335 885.723 791.074 886.514 788.862C885.438 788.289 884.362 787.724 883.285 787.158C882.207 786.591 881.128 786.024 880.049 785.45C870.442 795.206 860.828 804.956 851.214 814.706C841.569 824.486 831.924 834.267 822.286 844.055C833.883 814.45 847.531 786.009 861.154 757.62C863.684 752.349 866.213 747.079 868.727 741.803C877.164 724.073 885.45 706.287 893.736 688.501L893.743 688.487L893.743 688.487C905.457 663.342 917.172 638.197 929.313 613.211C936.75 597.952 938.176 585.778 919.843 576.088C917.301 574.739 916.075 571.373 914.85 568.008L914.849 568.005C914.289 566.467 913.729 564.93 913.043 563.586C914.502 563.187 915.951 562.713 917.4 562.239C920.504 561.223 923.607 560.208 926.794 559.929C931.541 559.501 936.541 559.571 941.526 559.64C951.17 559.774 960.753 559.908 968.317 556.435C1001.58 541.122 1034.18 541.886 1068.18 551.958C1073.07 553.405 1081.29 554.852 1083.6 552.613C1090.83 545.648 1097.78 547.702 1104.76 549.761C1107.16 550.47 1109.56 551.179 1111.98 551.521C1113.52 551.74 1115.11 552.066 1116.69 552.395C1120.67 553.216 1124.69 554.045 1128.16 553.187C1139 550.511 1147.52 552.641 1155.93 558.864C1157.85 560.283 1160.69 560.692 1163.53 561.101C1164.79 561.281 1166.05 561.462 1167.22 561.73C1170.39 562.458 1173.55 563.217 1176.7 563.977C1185.28 566.038 1193.86 568.101 1202.56 569.537C1207.17 570.308 1212.23 569.462 1217.07 568.651L1217.08 568.649C1217.72 568.543 1218.35 568.437 1218.98 568.336C1221.33 567.942 1223.67 567.247 1226 566.555C1229.49 565.518 1232.95 564.487 1236.43 564.487C1263.14 564.487 1289.94 564.487 1316.59 565.961C1328.61 566.616 1335.35 562.931 1340.88 554.033C1350.44 538.692 1349.68 522.396 1346.67 506.182C1345.08 497.641 1342.93 489.182 1340.78 480.727L1340.77 480.717L1340.77 480.716C1338.3 470.989 1335.82 461.266 1334.2 451.426C1329.37 422.165 1311.13 401.747 1284.94 385.724C1281.3 383.499 1277.92 380.94 1273.97 377.946L1273.96 377.945L1273.96 377.944C1272.05 376.494 1270 374.942 1267.72 373.277C1282.44 368.988 1296.93 364.711 1311.28 360.479C1349.23 349.277 1386.14 338.387 1423.35 328.402C1434.27 325.454 1437.28 322.179 1436.07 312.98C1432.67 287.388 1434.57 262.425 1440 237.919V125.955ZM55.4999 1070.02C36.8755 1070.26 18.4044 1070.49 0 1069.85V825.509C5.70023 829.277 12.3358 831.943 19.9209 833.546C59.4716 841.871 99.2652 847.876 140.06 841.189C143.623 840.609 147.225 840.306 151.708 839.929C153.986 839.737 156.491 839.527 159.335 839.251C117.659 912.213 92.8605 987.469 84.9686 1069.77C75.0951 1069.77 65.2764 1069.89 55.4999 1070.02ZM0 0V146.882C9.34157 146.205 16.5033 143.217 20.8013 136.783L21.4683 135.782C35.4579 114.79 49.6174 93.5419 59.8359 70.9719C69.3494 49.9169 77.1307 28.2338 84.9141 6.54467L84.9142 6.54446L84.9149 6.54251C85.6976 4.36152 86.4803 2.18047 87.2648 0H0ZM126.423 0C123.876 9.08765 124.418 19.1485 129.163 29.4271C131.73 26.2405 134.405 23.3339 136.961 20.5571L136.962 20.5567L136.962 20.5563C142.266 14.7943 147.055 9.5911 149.288 3.6049C149.747 2.37969 150.229 1.17845 150.734 0H126.423ZM550.471 150.317C550.86 150.224 551.197 150.06 551.265 150.004C551.331 149.948 551.136 149.996 550.471 150.317ZM601.373 381.93C575.239 388.645 571.657 393.231 573.903 417.961L573.873 417.988C568.662 418.553 563.528 419.11 558.448 419.661L558.409 419.665C546.546 420.952 534.978 422.206 523.425 423.448C523.119 422.816 522.803 422.195 522.488 421.577L522.478 421.558C522.266 421.14 522.054 420.725 521.847 420.309C523.107 418.995 524.325 417.644 525.542 416.293C528.018 413.543 530.492 410.796 533.321 408.38C563.748 382.442 581.809 349.261 599.787 316.232L599.84 316.133L599.855 316.107C600.452 315.01 601.049 313.913 601.647 312.816C610.783 296.056 623.046 283.882 643.292 278.641C665.134 272.987 686.964 267.297 708.796 261.606L708.814 261.601C737.248 254.19 765.684 246.778 794.149 239.444C804.378 236.824 814.061 236.223 820.465 246.623C821.794 248.787 824.526 250.329 827.195 251.836C828.061 252.324 828.92 252.809 829.723 253.31C836.886 257.814 842.502 261.854 841.348 271.845C840.943 275.486 842.193 279.279 843.505 283.263L843.506 283.264C844.751 287.044 846.053 290.996 846.053 295.156C845.055 293.766 844.05 292.382 842.917 290.821L842.895 290.79C841.519 288.894 839.953 286.736 837.979 283.991C837.69 287.002 837.449 289.473 837.266 291.348L837.264 291.367L837.261 291.402L837.258 291.426C837.118 292.861 837.013 293.941 836.947 294.637C834.544 295.561 832.177 296.363 829.875 297.144C825.17 298.74 820.736 300.244 816.823 302.498L815.375 303.333C775.428 326.367 735.491 349.395 689.065 360.885C668.881 365.879 648.661 370.76 628.446 375.64C622.365 377.108 616.285 378.576 610.206 380.047C608.815 380.386 607.403 380.662 605.99 380.939L605.989 380.939L605.988 380.94C604.442 381.242 602.895 381.545 601.373 381.93ZM938.244 303.69C940.675 302.494 943.273 301.215 946.129 300.069C932.812 290.218 921.11 292.22 909.91 294.136C908.448 294.386 906.994 294.635 905.546 294.855C892.919 296.793 882.538 294.2 870.397 282.627C908.005 278.805 941.363 275.393 977.848 271.654C977.089 274.142 976.449 276.217 975.895 278.011L975.893 278.018C974.699 281.888 973.909 284.448 973.204 287.021C968.256 305.091 975.45 316.856 994.968 322.725C1012.82 328.102 1017.22 338.174 1008.47 353.16C1008.39 353.31 1008.3 353.46 1008.21 353.611C1008.12 353.762 1008.04 353.913 1007.95 354.064C1006.51 356.52 1005.01 359.08 1004.71 361.704C1004.44 364.125 1004.66 367.022 1004.87 369.856C1005.25 374.881 1005.62 379.707 1003.19 381.33C991.507 389.191 977.939 396.097 963.946 399.536C949.164 403.167 927.522 416.733 928.402 428.579C928.949 436.031 933.38 443.893 938.237 450.253C946.584 461.198 946.948 478.095 935.991 489.559C934.109 449.461 913.893 416.733 891.614 384.714C889.216 381.275 887.182 377.563 885.391 373.823C884.219 371.36 882.853 368.948 881.498 366.553C875.237 355.495 869.191 344.816 883.388 331.241C884.38 330.294 885.356 329.35 886.323 328.414L886.341 328.397C897.269 317.825 907.063 308.349 925.124 308.149C929.296 308.094 933.442 306.054 938.244 303.69ZM476.597 220.953L476.597 220.953L476.594 220.954C467.059 224.971 457.918 228.822 451.882 235.077C448.214 238.871 443.082 241.165 437.941 243.463L437.941 243.463C429.213 247.365 420.459 251.278 418.797 262.564C418.433 265.021 403.529 267.696 395.728 266.986C375.543 265.184 362.036 271.735 359.182 287.513C391.764 296.861 419.667 284.857 447.924 272.701L448.169 272.595C448.708 272.363 449.248 272.131 449.788 271.899C449.163 271.467 448.575 271.06 447.964 270.636C446.644 269.722 445.216 268.733 443.08 267.259C478.111 264.613 483.896 241.336 489.538 215.157C485.311 217.282 480.914 219.135 476.597 220.953ZM1212.09 171.913C1212.75 172.05 1213.45 172.213 1214.12 172.377C1210.7 178.194 1207.28 184.009 1203.82 189.887C1194.77 205.277 1185.46 221.103 1175.18 238.543C1191.01 235.542 1205.73 232.755 1220.24 230.009L1220.4 229.979C1231.17 227.94 1241.82 225.924 1252.73 223.858C1246.43 226.566 1240.27 229.223 1234.21 231.839C1220.04 237.951 1206.38 243.842 1192.69 249.653C1190.96 250.39 1188.29 251.045 1186.83 250.39C1170.48 243.063 1165.8 252.606 1161.18 261.996C1160.55 263.276 1159.93 264.553 1159.27 265.785C1152.97 277.607 1146.82 289.473 1140.67 301.33C1138.34 305.816 1136.02 310.301 1133.68 314.782C1109.46 305.992 1107.49 303.59 1120.69 284.838C1136.92 261.841 1154.71 239.709 1172.49 217.611C1174.16 215.526 1175.84 213.441 1177.51 211.356C1185 202.041 1193.05 193.112 1201.11 184.18L1201.11 184.18C1204.79 180.104 1208.46 176.027 1212.09 171.913ZM689.824 209.418C710.069 219.572 757.148 203.577 777.758 180.129C743.549 181.74 717.506 193.723 689.824 209.418ZM1064.14 527.146C1086.54 541.258 1100.23 541.476 1114.32 528.593C1098.56 516.473 1082.51 519.367 1064.14 527.146ZM974.912 433.081C975.167 433.919 975.415 434.757 975.663 435.595C975.767 435.948 975.872 436.301 975.977 436.654C976.066 436.955 976.156 437.256 976.247 437.557C976.305 437.749 976.363 437.941 976.422 438.133C991.538 440.371 1006.56 440.262 1020.62 433.001C1022.98 431.773 1025.44 427.406 1024.68 425.522C1023.86 423.475 1018.86 420.909 1016.55 421.482C1005.98 424.054 995.547 427.091 985.123 430.126L985.122 430.126L985.122 430.126C981.719 431.117 978.317 432.107 974.912 433.081ZM336.063 508.397C333.47 520.994 330.877 533.592 315.17 540.303C317.193 536.045 318.332 531.389 319.473 526.731C322.097 516.012 324.723 505.285 338.117 499.386C337.311 502.335 336.687 505.366 336.063 508.397ZM1235.12 418.322L1235.13 418.322C1236.1 418.131 1237.07 417.94 1238.04 417.743H1238.07C1248.72 421.81 1249.85 429.78 1245.99 438.379C1245.25 440.036 1242.34 440.905 1239.43 441.776C1238.08 442.182 1236.72 442.588 1235.58 443.074C1234.92 439.133 1234.28 435.198 1233.63 431.264L1233.59 431.05C1232.93 427.044 1232.27 423.038 1231.6 419.026C1232.77 418.786 1233.95 418.555 1235.12 418.322ZM686.09 398.745L686.272 392.112C689.565 392.289 692.858 392.46 696.151 392.63C699.445 392.801 702.739 392.971 706.032 393.149C706.002 394.077 705.964 395.012 705.926 395.947C705.888 396.882 705.85 397.817 705.82 398.745H686.09Z" fill="black"/>
<defs>
<clipPath id="clip0_74_360">
<rect width="1024" height="1440" fill="white" transform="matrix(0 -1 1 0 0 1024)"/>
</clipPath>
</defs>
</svg>
