<svg width="276" height="644" viewBox="0 0 276 644" fill="none" xmlns="http://www.w3.org/2000/svg">
<path d="M48.793 0C63.4767 0 78.1943 0 92.878 0C153.919 61.0408 214.96 122.082 276 183.122V227.207C273.186 225.648 269.795 224.664 267.624 222.494C198.58 153.585 129.638 84.6093 60.7978 15.4976C56.2197 10.9195 52.7946 5.18847 48.8269 0H48.793Z" fill="black"/>
<path d="M276 501.897C213.569 439.737 151.172 377.543 88.7407 315.383C64.7313 291.476 41.3324 266.89 16.3396 244.033C1.8594 230.774 -3.19379 216.395 2.40162 194.183C35.1941 227.62 66.359 259.836 97.9985 291.611C153.749 347.667 209.771 403.452 265.725 459.304C268.879 462.458 272.541 465.103 275.966 467.985V501.897H276Z" fill="#E8350D"/>
<path d="M275.999 339.116C271.93 336.369 267.284 334.233 263.893 330.842C179.589 246.775 95.7254 162.267 10.8787 78.7432C-1.53296 66.535 0.841069 53.886 0.501953 36.1503C8.13205 43.543 13.558 48.6975 18.8143 53.9538C101.05 136.122 183.251 218.289 265.521 300.389C268.641 303.509 272.473 305.883 275.965 308.596V339.116H275.999Z" fill="#E8350D"/>
<path d="M276 420.497C267.759 412.901 259.214 405.61 251.278 397.709C173.248 319.984 95.6583 241.784 16.9495 164.737C2.87625 150.935 -2.85487 137.166 1.62146 116.107C17.3564 131.673 32.3115 146.323 47.097 161.108C108.206 222.251 169.45 283.19 230.151 344.739C246.361 361.152 260.74 379.397 275.966 396.793V420.531L276 420.497Z" fill="#E8350D"/>
<path d="M276 569.709C261.351 556.721 246.226 544.242 232.119 530.711C173.045 474.079 114.039 417.345 55.4734 360.17C40.5862 345.656 26.8181 330.633 1.58789 340.467V276.035C5.92857 279.969 9.96428 283.36 13.6945 287.09C96.3709 369.699 178.979 452.341 261.69 534.882C265.929 539.121 271.185 542.309 276 546.005V569.743V569.709Z" fill="#E8350D"/>
<path d="M48.7924 0C52.7601 5.18847 56.2191 10.8856 60.7633 15.4976C129.604 84.6093 198.546 153.585 267.59 222.494C269.794 224.664 273.151 225.681 275.966 227.207V261.119C245.92 231.582 215.705 202.181 185.829 172.474C131.944 118.894 78.2276 65.1441 24.5456 11.4282C21.0188 7.90139 18.1025 3.83201 14.8809 0.0339116C26.1734 0.0339116 37.4999 0.0339116 48.7924 0.0339116V0Z" fill="#E8350D"/>
<path d="M126.789 0C142.626 0 158.429 0 174.265 0C208.177 33.9116 242.088 67.8231 276 101.735V149.211C262.978 136.799 249.651 124.727 236.968 111.942C200.106 74.775 163.515 37.3366 126.789 0Z" fill="black"/>
<path d="M126.789 0C163.515 37.3366 200.105 74.775 236.967 111.942C249.616 124.693 262.943 136.799 275.999 149.211V183.122C214.959 122.082 153.918 61.0408 92.877 0C104.17 0 115.496 0 126.789 0Z" fill="#E8350D"/>
<path d="M276 101.735C242.089 67.8231 208.177 33.9116 174.266 0C185.558 0 196.885 0 208.177 0C230.796 22.619 253.381 45.2041 276 67.8231V101.735Z" fill="#E8350D"/>
<path d="M276.001 67.8231C253.382 45.2041 230.797 22.619 208.178 0C222.861 0 237.579 0 252.263 0C260.164 7.90139 268.099 15.8367 276.001 23.7381V67.8231Z" fill="black"/>
<path d="M276 23.7381C268.098 15.8367 260.163 7.90139 252.262 0C260.163 0 268.098 0 276 0V23.7381Z" fill="#E8350D"/>
<path d="M195.799 643.365C186.27 640.788 177.148 638.313 165.211 635.091C176.537 619.051 187.118 604.062 197.393 589.48C174.876 567.573 152.359 545.666 128.248 522.233C124.416 527.083 118.582 534.475 111.766 543.123C125.534 556.314 140.93 571.066 158.666 588.056C136.895 590.09 120.143 592.6 104.442 575.508C74.2942 542.648 41.3661 512.365 10.337 480.285C5.08071 474.859 1.0114 466.008 0.672288 458.547C-0.514616 434.029 0.231421 409.41 0.231421 380.551C24.3764 403.712 45.3677 423.822 66.325 443.999C113.937 489.848 161.447 535.832 209.262 581.477C214.45 586.428 221.402 589.548 228.354 594.058C218.384 609.182 207.295 626.037 195.833 643.399L195.799 643.365Z" fill="#E8350D"/>
</svg>
