<svg width="457" height="454" viewBox="0 0 457 454" fill="none" xmlns="http://www.w3.org/2000/svg">
<path d="M141.121 249.164C149.368 249.998 162.248 251.542 173.058 263.526C208.856 303.215 245.673 342.009 282.088 381.112C283.941 379.814 285.795 378.548 287.648 377.251C284.343 380.926 281.069 384.602 276.961 389.173C252.561 365.36 228.222 342.596 205.026 318.69C182.231 295.154 160.642 270.476 141.121 249.133V249.164Z" fill="#E8350D"/>
<path d="M251.078 0C257.719 2.5636 263.525 3.11956 266.768 6.27001C329.777 67.4566 392.508 128.983 455.27 190.448C455.579 190.756 455.579 191.405 457 196.1C451.224 194.308 446.715 194.277 444.398 192.023C380.524 130.157 316.867 68.0743 253.24 5.99203C252.622 5.37429 252.561 4.16971 251.078 0.0308874V0Z" fill="#E8350D"/>
<path d="M307.262 355.578C307.262 355.578 304.266 358.883 298.922 364.813C263.835 326.205 229.396 288.369 194.988 250.532C201.536 251.15 210.864 251.459 219.852 261.466C248.052 292.785 277.147 323.301 307.262 355.578Z" fill="#E8350D"/>
<path d="M285.548 249.482C237.983 198.982 190.387 148.482 142.821 97.9513C140.628 99.4338 138.435 100.947 136.242 102.43C140.813 97.9204 145.385 93.4109 150.666 88.1602C204.316 140.513 257.195 192.063 312.296 245.806C301.548 247.103 293.301 248.092 285.085 249.111L285.518 249.451L285.548 249.482Z" fill="black"/>
<path d="M247.34 430.569C246.445 432.855 244.9 436.839 243.325 440.854C242.707 440.731 242.059 440.607 241.441 440.484C241.441 437.889 241.441 435.295 241.441 435.851C234.831 433.164 228.777 432.391 225.318 429.025C155.638 361.506 86.2662 293.679 15.9062 225.018C18.8405 221.806 21.713 218.655 25.4503 214.578C99.702 286.853 173.151 358.325 247.371 430.569H247.34Z" fill="black"/>
<path d="M217.628 453.047C145.075 382.316 72.5529 311.586 0 240.824C1.29724 239.465 2.62543 238.137 3.92267 236.778C76.4138 307.478 148.936 378.177 221.427 448.877C220.161 450.267 218.863 451.657 217.597 453.016L217.628 453.047Z" fill="black"/>
<path d="M161.599 77.8683C218.121 132.878 274.644 187.887 331.136 242.896C329.777 244.317 328.387 245.769 327.028 247.189C270.536 192.18 214.013 137.14 157.521 82.1307C158.881 80.7099 160.24 79.2891 161.599 77.8683Z" fill="black"/>
<path d="M275.449 95.9348C254.847 73.542 234.246 51.18 213.614 28.7871C212.965 29.4048 212.316 30.0226 211.637 30.6403C232.3 53.0332 252.963 75.3952 273.626 97.788C274.213 97.1703 274.831 96.5526 275.418 95.9348H275.449Z" fill="black"/>
<path d="M42.9948 416.848C29.4046 388.617 15.7835 360.418 2.19336 332.187C3.33617 331.631 4.50985 331.075 5.65266 330.488C19.1502 358.657 32.6476 386.826 46.176 414.994C45.1259 415.612 44.0449 416.23 42.9948 416.817V416.848Z" fill="#E8350D"/>
</svg>
